<?xml version="1.0" encoding="UTF-8"?>
<svg width="800px" height="1000px" viewBox="0 0 800 1000" version="1.1" xmlns="http://www.w3.org/2000/svg" xmlns:xlink="http://www.w3.org/1999/xlink">
    <!-- Generator: Sketch 51 (57462) - http://www.bohemiancoding.com/sketch -->
    <title>desktop_DL</title>
    <desc>Created with Sketch.</desc>
    <defs></defs>
    <g id="desktop_DL" stroke="none" stroke-width="1" fill="none" fill-rule="evenodd">
       
        <g id="desktop" transform="translate(208.000000, 288.000000)">
            <!-- <rect id="Rectangle-3" fill="#FFFFFF" x="7" y="11" width="367" height="264" rx="23"></rect> -->
            <path d="M207.154259,321.491084 C206.87535,318.264775 206.782533,315.042743 206.777715,311.823062 C206.767374,304.912631 207.162411,298.013032 206.992948,291.105223 C206.899387,287.333453 206.299308,285.24469 202.489128,285.0965 C189.63582,284.588423 176.788965,283.956854 163.94211,283.300587 C161.748272,283.187681 161.328862,284.225006 160.48359,286.426676 C155.124818,300.419979 150.598415,314.829623 143.571682,328.025526 C141.423012,332.054864 139.713109,336.366466 137.406353,341.411959 C162.287053,344.770916 186.32248,344.075838 210.75796,343.779459 C210.057868,335.696086 207.783374,328.766473 207.154259,321.491084 Z M14.9983543,208.613185 C14.6692786,220.690612 13.3884646,232.718643 14.4434424,244.866636 C14.9402821,250.60015 17.4599692,254.438959 21.4250081,257.198102 C30.1326078,263.256222 39.0434601,268.982679 50.0578156,267.775995 C51.5709183,267.610164 53.1453194,267.712485 54.6551959,267.948882 C67.9827596,270.009419 81.4135627,269.416662 94.7540314,268.936811 C104.516609,268.587508 114.324354,267.673674 124.086931,267.790108 C147.257728,268.065317 170.41562,269.395492 193.586417,269.511927 C207.007542,269.578965 220.293164,272.814431 233.70461,271.300783 C243.260709,270.224646 252.77164,270.827989 262.263214,271.501897 C270.309436,272.073484 278.197573,271.554822 286.101841,269.988249 C288.879627,269.437832 291.783235,269.032076 294.5707,269.296699 C305.062406,270.284628 314.986295,267.042105 325.045686,264.815737 C332.056287,263.266806 338.157092,258.923449 342.993213,253.920296 C347.167957,249.601637 352.116997,244.43971 352.381548,237.065529 C352.539633,232.609265 356.724056,228.100077 354.281799,224.360061 C351.662098,220.362479 346.122658,221.812617 341.909199,220.923481 C329.278502,218.259602 316.683293,214.51253 303.826759,214.251435 C289.657149,213.965641 275.59723,212.14503 261.424394,211.982727 C238.785925,211.721632 216.147456,211.065365 193.502535,211.270007 C168.731527,211.495819 144.05408,209.519962 119.39599,207.328878 C108.620376,206.369176 97.8512139,203.800561 87.1304455,204.111053 C69.699115,204.612074 52.3484402,201.26723 34.9235621,203.514768 C31.4360054,203.966392 27.1838319,200.494529 25.9772212,196.645136 C25.1319485,193.963615 24.6254301,190.978659 26.7031234,188.688782 C29.5293024,185.580335 32.7071408,185.132239 36.5753928,187.005775 C43.0730237,190.156562 50.1449238,189.997787 57.1135846,190.262411 C69.9959283,190.752847 82.8750458,191.158603 95.7251271,192.52759 C123.457816,195.484319 151.251803,197.654234 179.116767,198.052934 C196.838459,198.306973 214.579508,197.223779 232.301199,197.488403 C256.243066,197.848291 280.172027,198.927956 304.107441,199.693601 C307.975693,199.817092 311.992352,199.450147 315.612184,200.956738 C328.359026,206.259798 341.964045,205.536493 355.098035,208.048654 C357.501578,208.503807 359.753488,208.277995 360.089016,204.601489 C361.166577,192.852195 364.392809,181.50513 365.386488,169.70644 C366.357584,158.22177 367.670661,146.740628 369.532196,135.393562 C370.677509,128.403967 371.451804,121.477882 371.329208,114.421249 C371.174348,105.674553 371.467935,96.934913 371.548591,88.1952732 C371.690545,72.8400401 369.019226,57.9117333 363.550763,43.7384861 C360.737488,36.456041 355.933629,30.8883577 348.726227,28.7819528 C336.260068,25.1442585 323.500321,22.8543812 310.617977,23.8105549 C295.196589,24.9537294 279.836499,26.5485285 264.392527,24.4209537 C261.84703,24.0716503 259.240235,24.078707 256.665702,24.1704432 C240.908786,24.7173322 225.326086,23.0484386 209.804685,20.1834456 C203.461913,19.0120446 197.054616,18.5498351 190.64732,20.0352563 C187.350111,20.7973727 183.978699,20.8538257 180.639549,20.3739747 C164.772941,18.0982106 148.786962,17.8441718 132.846151,17.6924542 C109.117215,17.4701703 85.3818279,18.1370221 61.6432141,18.3416644 C59.3525895,18.359306 56.813545,18.359306 54.8068288,17.3607925 C49.6029169,14.7710082 44.218336,15.2332177 38.8563387,15.5260679 C29.6164107,16.0270889 24.9545057,20.1516908 23.5091538,30.0450901 C21.5185688,43.6502782 19.5183051,57.2554664 19.0375965,71.0970518 C18.3794452,90.2487534 18.2245861,109.396927 17.9406777,128.552157 C17.5632086,153.560864 16.1791551,178.555457 15.2274167,203.553579 C15.3112988,205.250699 15.0467477,206.930178 14.9983543,208.613185 Z M105.665147,3.75207598 C133.697876,4.38364462 155.823526,5.98550028 183.88529,4.5283056 C192.050883,4.10490762 206.142912,5.65031022 214.279468,7.23805262 C231.865658,10.6711045 323.62937,9.69728917 338.140961,12.3435265 C339.157224,12.526999 353.481541,12.0270939 368.556185,20.5470286 C383.630829,29.0669633 381.630566,64.1886082 383.630829,74.6641797 C385.3859,83.8519157 380.372335,159.548417 379.285095,170.747293 C378.517252,178.626023 376.371808,186.130753 375.294246,193.914219 C374.103767,202.516254 373.787596,211.224139 372.290625,219.797948 C371.455031,224.561175 369.183763,228.893948 368.832104,233.533684 C368.254609,241.221885 365.141295,247.925687 363.305569,255.109339 C360.618118,265.630778 353.697851,270.513968 345.238671,274.991402 C335.518034,280.135687 324.945672,280.791954 314.954032,284.225006 C308.211208,286.539582 301.139308,284.6978 294.193231,285.699842 C285.321093,286.980621 279.066967,287.961493 270.239996,286.871243 C256.331711,285.156482 242.555701,287.19232 228.731298,286.666601 C223.562874,286.472544 223.656435,286.592506 222.943438,292.467153 C221.562611,303.89537 219.239724,315.193039 220.420524,326.903522 C220.910912,331.765542 221.86265,335.741954 226.234194,337.873057 C226.701998,338.102398 227.327887,338.264701 227.579533,338.673985 C234.661112,350.268033 245.514156,346.856151 255.39933,346.849095 C257.628656,346.849095 260.032199,345.141389 261.819531,347.561814 C264.684425,351.435906 269.214055,354.103313 269.904468,359.596902 C270.530357,364.596526 266.916978,368.075446 261.903413,366.695874 C256.634977,365.245736 251.285884,364.914075 245.991638,363.972014 C222.340132,359.773318 198.495053,359.219372 174.604806,358.97239 C161.241754,358.834785 147.849666,356.640173 134.551138,357.310553 C123.846501,357.850385 113.151542,358.256142 102.440453,358.496067 C100.714419,358.534879 99.0303256,359.716865 97.2849342,360.193187 C93.0488918,361.346947 86.5060936,358.817144 84.3574232,354.773693 C82.7088188,351.672303 80.973106,348.239251 82.6507466,344.439254 C84.1928854,340.949749 89.6710271,337.372037 93.094059,338.973892 C100.117566,342.255227 106.824902,339.14678 113.651608,339.217346 C116.622968,339.249101 118.48773,338.000077 119.329776,334.792837 C120.226669,331.37037 122.191444,329.027568 125.269269,327.503335 C127.885743,326.211972 129.689207,323.759792 131.011962,320.873629 C135.412542,311.301306 139.251758,301.467889 142.723183,291.458055 C143.178082,290.156106 143.358751,288.730666 143.587813,287.347566 C144.020128,284.694272 143.423276,282.912472 140.519667,282.990095 C131.011962,283.244134 121.452637,282.873661 112.012682,283.854533 C103.224427,284.764839 94.4877912,284.599008 85.7479291,284.306157 C74.181888,283.910986 59.7590947,283.981552 48.3834013,286.603091 C44.1570376,287.576907 40.2597495,285.463445 36.2398646,284.690744 C24.6673711,282.464376 15.1370822,275.8135 7.61350961,266.3188 C2.16440405,259.438583 -0.803729235,251.023548 0.189950169,241.451226 C0.564193061,237.827645 0.651301321,234.137026 0.506120888,230.495803 C-0.271400983,211.047723 4.87443879,46.7446117 5.87779689,42.2883481 C7.64577193,34.4307874 7.93290656,26.2697915 10.0654458,18.4051741 C13.3787859,6.17602937 19.3537672,0.929422832 30.2906931,0.153193216 C34.6557848,-0.157298631 39.0531388,0.100268469 43.4408141,0.100268469 C64.1983897,0.812988389 84.8591783,3.28280989 105.665147,3.75207598 Z" id="Fill-1" fill="#000000"></path>
            <path d="M195.99644,238.76282 C196.106655,243.792715 193.65519,246.179261 189.029468,246.929123 C183.214752,247.870731 176.070767,239.214791 176.00063,233.770589 C175.947192,229.952799 179.303762,226.158977 182.817307,226.00832 C189.263259,225.737822 195.842806,232.106512 195.99644,238.76282" id="Fill-24" fill="#000000"></path>
        </g>
    </g>
</svg>