<?xml version="1.0" encoding="UTF-8"?>
<svg width="800px" height="1000px" viewBox="0 0 800 1000" version="1.1" xmlns="http://www.w3.org/2000/svg" xmlns:xlink="http://www.w3.org/1999/xlink">
    <!-- Generator: Sketch 51.1 (57501) - http://www.bohemiancoding.com/sketch -->
    <title>diamond_DL</title>
    <desc>Created with Sketch.</desc>
    <defs></defs>
    <g id="diamond_DL" stroke="none" stroke-width="1" fill="none" fill-rule="evenodd">
    
        <g id="diamond" transform="translate(163.000000, 238.000000)">
            <!-- <polygon id="Path-3" fill="#FFFFFF" points="80 193.150357 137.459392 121 270.938276 121 340.951653 141.577105 395 229.827791 214.508886 411"></polygon> -->
            <path d="M131.634619,123.458257 C130.336715,124.302285 129.141075,125.34707 127.925835,126.304719 C127.097494,126.962514 126.288754,127.682673 125.512398,128.403685 C122.110406,131.560251 118.795339,134.814205 115.355851,137.934037 C112.056976,140.927435 108.741909,143.887516 105.602396,147.050916 C102.343574,150.338187 99.1009444,153.641689 95.9120034,156.999011 C91.8077972,161.31996 87.8561352,165.771615 83.9343003,170.260004 C81.906911,172.575958 79.9067922,174.91156 77.9126389,177.251434 C77.0101567,178.309033 76.1051178,179.363215 75.1932614,180.414834 C74.7799433,180.891523 74.3572509,181.362231 73.9311498,181.83294 C73.7180992,182.066158 73.5118663,182.307065 73.3022245,182.547118 C72.2369716,183.765322 71.5040777,185.183427 71.1751276,186.768117 C70.9416241,187.639483 70.9416241,188.513412 71.1751276,189.384778 C71.5143041,190.615796 72.3332705,191.683646 73.4317592,192.327773 C74.5668927,192.994966 75.9483126,193.175219 77.2172418,192.824965 C78.4495263,192.485815 79.3255903,191.731486 80.040588,190.724289 C80.5058904,190.266395 80.9848281,189.830712 81.4109293,189.330958 C81.763741,188.920903 82.117405,188.509995 82.4668079,188.096523 C83.1391955,187.302042 83.8115831,186.498164 84.4805619,185.696849 C85.9318624,183.958389 87.3797541,182.209677 88.841281,180.478051 C91.7975708,176.97123 94.7666436,173.473807 97.7732132,170.013117 C103.85112,163.008873 110.233263,156.254932 116.747497,149.660743 C118.168971,148.222135 119.663733,146.854432 121.111625,145.445723 C122.896137,143.714097 124.647412,141.955134 126.395279,140.186774 C128.965521,137.587199 131.470996,134.921844 134.151172,132.44016 C134.261959,132.48202 134.376154,132.518754 134.493758,132.552071 C136.458084,133.091976 138.778631,131.904526 139.248194,129.84571 C139.587371,128.360117 140.289586,126.748944 139.870302,125.220637 C139.677704,124.52269 139.197914,123.724792 138.684889,123.214787 C137.865922,122.393823 136.92083,122.120454 135.80274,122.017086 C135.684284,122.00598 135.56668,122 135.449929,122 C134.07277,122 132.756969,122.728701 131.634619,123.458257" id="Fill-62" fill="#2C2C2C"></path>
            <path d="M71.4191184,185.655685 C69.1847793,186.95935 68.2590999,190.052881 69.6716625,192.296418 C72.0227849,196.031081 74.3369832,199.776017 76.8091824,203.431073 C79.3114361,207.118658 82.0755936,210.609365 84.7830768,214.147152 C90.5956215,221.737173 96.0466533,229.572005 101.343119,237.526676 C106.400866,245.126968 111.214742,252.894178 116.165151,260.568086 C121.324225,268.562131 126.664484,276.446611 131.937765,284.367898 C137.109719,292.13254 142.291977,299.889478 147.538638,307.60704 C152.62644,315.090063 157.802687,322.499471 162.679248,330.126299 C165.168622,334.011616 167.627082,337.924324 170.250412,341.718907 C172.940721,345.611071 175.687705,349.456157 178.408068,353.328634 C181.225465,357.337213 184.002503,361.366335 186.719432,365.442536 C189.268914,369.267934 191.724798,373.156675 194.196139,377.035144 C195.776148,379.509797 197.399951,381.953635 199.053808,384.377785 C199.814617,385.494846 200.576285,386.61533 201.350833,387.721263 C201.955358,388.584096 202.562459,389.490585 203.256289,390.276379 C203.914054,391.018518 204.692037,391.583468 205.500933,392.151843 C206.047067,392.432606 206.617244,392.656874 207.204595,392.821223 C208.260797,393.151633 209.217389,392.958181 210.266722,392.767296 C211.971242,392.459997 213.389816,390.807946 213.829471,389.219237 C214.357572,387.308678 213.642274,384.851145 211.917144,383.722956 C210.866095,382.195879 209.9241,380.577211 208.915127,379.031301 C207.67087,377.13187 206.436058,375.229871 205.22529,373.310752 C202.743645,369.378356 200.321251,365.405729 197.836171,361.476757 C193.01886,353.867049 187.709514,346.60059 182.610549,339.184334 C177.183561,331.290439 172.088032,323.178267 166.822479,315.176517 C164.135605,311.094324 161.287295,307.102009 158.503387,303.079735 C156.061242,299.554787 153.650011,296.011009 151.25853,292.453534 C140.692218,276.72823 130.055493,261.045725 119.7279,245.163776 C114.769763,237.536092 109.76869,229.946071 104.438735,222.570046 C101.557794,218.581155 98.6390706,214.60168 95.5468895,210.773714 C92.5714917,207.085274 89.5188109,203.454185 86.6043809,199.712674 C86.472141,199.544045 86.3390423,199.372848 86.2068024,199.203362 C83.3499054,195.360845 80.6338352,191.449848 78.0843529,187.397615 C77.1354887,185.888513 75.5039574,185 73.8234802,185 C73.0102907,185 72.1850794,185.20886 71.4191184,185.655685" id="Fill-64" fill="#2C2C2C"></path>
            <path d="M175.648013,115 C167.404001,115 159.160745,115.275311 150.952296,116.102795 C149.152158,116.281165 147.396664,116.441698 145.585176,116.339329 C143.778984,116.236185 141.981873,116.099692 140.181734,115.923649 C138.881004,115.793361 137.409264,116.566558 136.516384,117.477798 C135.550105,118.472019 135,119.831512 135,121.234434 C135,122.637356 135.550105,123.999951 136.516384,124.99107 C136.868239,125.269483 137.217068,125.54557 137.565897,125.820881 C138.375543,126.302481 139.247993,126.54522 140.181734,126.548322 C141.981873,126.726692 143.778984,126.850776 145.585176,126.963227 C147.514706,127.084209 149.392025,126.884123 151.313232,126.690243 C155.347842,126.284644 159.414989,126.005455 163.463976,125.844922 C167.640841,125.67896 171.819976,125.623898 175.996842,125.623898 C180.060962,125.620796 184.098598,125.887576 188.145315,126.275337 C189.93032,126.448279 191.718351,126.62665 193.509409,126.76004 C194.541519,126.839143 195.569845,126.905838 196.604224,126.947716 C197.878471,126.999676 199.137584,126.772448 200.387617,126.548322 C201.221477,126.308685 201.945618,125.875167 202.560041,125.251646 C203.476378,124.309385 204,123.015812 204,121.685789 C204,119.468567 202.504047,117.380857 200.387617,116.820929 C198.156172,116.233083 195.794578,116.308308 193.509409,116.136142 C191.603336,115.993446 189.699533,115.799565 187.799513,115.618092 C183.778523,115.232657 179.763587,115 175.725951,115 L175.648013,115 Z" id="Fill-66" fill="#2C2C2C" transform="translate(169.500000, 121.000000) rotate(-6.000000) translate(-169.500000, -121.000000) "></path>
            <path d="M271.292319,118.96354 C271.318147,118.967037 271.343976,118.970534 271.37147,118.974906 C271.626421,119.086815 271.883038,119.200472 272.137989,119.313255 C271.855544,119.189981 271.573931,119.072826 271.292319,118.96354 M202.428952,113.111053 C200.950904,113.226459 199.665319,113.653986 198.588027,114.780944 C197.575722,115.843204 197,117.305015 197,118.81054 C197,120.313441 197.575722,121.775252 198.588027,122.837512 C199.542009,123.837698 201.048385,124.616689 202.428952,124.507403 C203.509576,124.421723 204.57687,124.360523 205.660827,124.367517 C206.757282,124.377134 207.85707,124.48642 208.951025,124.548495 C211.112275,124.670895 213.272691,124.701495 215.43394,124.746084 C220.065545,124.838759 224.670489,125.152628 229.288764,125.514584 C233.822055,125.873042 238.35618,126.146694 242.882806,126.56985 C247.217802,126.972897 251.533635,127.612002 255.852801,128.189032 C256.605155,128.29045 257.358343,128.395364 258.111531,128.49853 C260.062821,128.782674 262.017444,129.072064 263.966234,129.384185 C265.398457,129.613248 266.830681,129.879032 268.275402,129.984821 C270.045893,130.11509 272.083,129.400796 273.346089,128.076249 C274.719157,126.634547 275.37653,124.411232 274.778312,122.434465 C274.226752,120.618568 272.740373,119.058837 270.904061,118.817534 C270.028396,118.500167 269.141068,118.257115 268.200416,118.100617 C267.0773,117.916142 265.951684,117.748279 264.825235,117.58129 C262.277393,117.201849 259.722054,116.850385 257.167547,116.512035 C252.812555,115.941999 248.455063,115.395569 244.093405,114.897224 C239.462633,114.363908 234.791868,114.173313 230.144432,113.879552 C225.991901,113.616392 221.841869,113.240448 217.67934,113.202853 C215.099005,113.182744 212.507838,113.223836 209.930836,113.117173 C208.465286,113.058595 207.015566,113.000018 205.562513,113.000018 C204.521881,112.999144 203.478749,113.029744 202.428952,113.111053" id="Fill-68" fill="#2C2C2C"></path>
            <path d="M266.701714,124.711061 C265.615842,125.786439 265,127.264019 265,128.788466 C265,130.309504 265.615842,131.787936 266.701714,132.86587 C267.090261,133.165817 267.482239,133.464912 267.874216,133.764859 C268.77911,134.28721 269.757767,134.550516 270.805899,134.553924 C271.390864,134.62039 271.97497,134.691968 272.56165,134.763546 C276.905139,135.486998 281.125973,136.717462 285.286768,138.14221 C289.605382,139.623199 293.907701,141.147645 298.212592,142.665275 C302.60497,144.216989 307.054816,145.53437 311.55784,146.733306 C315.82585,147.868333 320.068127,149.122656 324.269235,150.484348 C325.991534,151.04334 327.70011,151.6296 329.408686,152.221825 C331.727958,153.024524 334.072962,154.029176 336.562062,153.999351 C338.485068,153.976344 340.281131,152.981065 341.256358,151.322836 C341.748688,150.480939 341.996569,149.572577 342,148.596897 C341.996569,147.622069 341.748688,146.712855 341.256358,145.870958 C340.576187,144.336286 339.064886,143.653736 337.611052,143.081962 C337.193343,142.970334 336.773061,142.908982 336.354494,142.898756 C335.548238,142.615852 334.753991,142.290341 333.955454,141.996359 C332.997382,141.64358 332.03931,141.287393 331.074376,140.948249 C328.846023,140.159184 326.611665,139.396534 324.360153,138.681604 C320.148753,137.34292 315.890179,136.197668 311.647901,134.966351 C302.826262,132.406576 294.339991,128.898389 285.588685,126.128993 C283.397213,125.437069 281.192875,124.827802 278.954229,124.291817 C276.277288,123.645909 273.536876,123.339997 270.805899,123.020451 C270.686676,123.006817 270.566596,123 270.4448,123 C269.092177,123 267.599746,123.816333 266.701714,124.711061" id="Fill-70" fill="#2C2C2C" transform="translate(303.500000, 138.500000) rotate(6.000000) translate(-303.500000, -138.500000) "></path>
            <path d="M331.357933,147.36061 C329.51243,149.200933 329.582621,152.155181 331.357933,154.002333 C336.076122,158.913845 340.610273,164.002049 345.076802,169.144028 C349.277119,173.985546 353.310519,178.951687 357.308824,183.957947 C358.744311,185.88875 360.184077,187.819553 361.618708,189.752916 C363.015675,191.626529 364.330468,193.564161 365.677788,195.474478 C368.312509,199.205486 370.82996,203.020145 373.355115,206.82456 C375.855447,210.592272 378.300139,214.397542 380.720864,218.214761 C383.151861,222.043077 385.505819,225.910658 388.103733,229.624595 C388.849296,230.685597 389.624818,231.7227 390.424308,232.74273 C391.045753,233.539976 391.719413,234.328686 392.530886,234.92534 C393.401423,235.642349 394.712792,236 395.757093,236 C397.612868,236 399.271767,235.003016 400.231326,233.439253 C400.245021,233.416207 400.261285,233.39316 400.274981,233.365845 C400.756044,232.542139 400.996576,231.655267 401,230.701815 C400.936657,230.231491 400.873314,229.765436 400.809971,229.298526 C400.559168,228.401411 400.10464,227.624651 399.448956,226.967393 C398.786423,226.134297 398.031445,225.37717 397.335529,224.570534 C396.860458,224.021681 396.413633,223.450634 395.971089,222.877881 C396.036144,222.960678 396.100343,223.044329 396.165398,223.126273 C393.600867,219.635122 391.253757,216.003983 388.875831,212.386502 C386.174343,208.278211 383.439472,204.19382 380.677209,200.123087 C378.159758,196.411711 375.611491,192.717407 372.990466,189.076026 C371.682521,187.258749 370.375432,185.441473 369.021264,183.654925 C367.4531,181.577306 365.921743,179.459569 364.283388,177.435725 C360.103615,172.274114 355.88361,167.156035 351.506959,162.158311 C347.109766,157.140101 342.643237,152.175667 338.014927,147.36061 C337.134975,146.44557 335.930604,146 334.72281,146 C333.491048,146 332.256717,146.462642 331.357933,147.36061" id="Fill-72" fill="#2C2C2C"></path>
            <path d="M221.833801,395.811704 C221.720685,395.901963 221.608402,395.992222 221.496118,396.082482 C221.60258,395.986147 221.714032,395.895888 221.833801,395.811704 M390.541845,227.701247 C388.4043,228.802583 386.321649,229.965539 384.290565,231.270827 C382.221221,232.603019 380.23921,234.142633 378.319578,235.691794 C374.92113,238.437758 371.606687,241.312168 368.458591,244.37404 C365.184071,247.553943 362.01934,250.856216 358.695748,253.981443 C355.41707,257.063275 352.233209,260.223217 349.149987,263.51768 C345.959472,266.931909 342.739846,270.314895 339.468653,273.647545 C336.430345,276.739792 333.266445,279.695782 330.238118,282.801048 C323.831304,289.374351 317.547587,296.076968 310.971932,302.46715 C307.791398,305.555925 304.65245,308.691566 301.442805,311.749966 C298.138343,314.889079 294.792295,317.973515 291.442088,321.062291 C288.160914,324.085976 284.987034,327.225956 281.764081,330.320807 C278.446312,333.507653 275.057845,336.596429 271.542956,339.545476 C267.952379,342.559614 264.362633,345.572885 260.795345,348.617399 C257.485061,351.441472 254.203887,354.289845 250.856175,357.062714 C247.495988,359.72189 244.139127,362.386274 240.840487,365.130502 C237.837943,367.629121 234.911086,370.232753 231.973417,372.812953 C228.945921,375.471261 225.937555,378.152134 222.990737,380.905042 C221.609234,382.19384 220.231889,383.48177 218.851218,384.763625 C218.133435,385.431022 217.418148,386.101892 216.707019,386.773629 C215.530953,387.88538 214.283359,389.055278 213.646254,390.600968 C213.217913,391.367304 213.003327,392.197862 213,393.085701 C213,394.384046 213.503196,395.649411 214.383998,396.567625 C216.132294,398.391903 219.331958,398.56114 221.056965,396.567625 C221.136811,396.461744 221.220816,396.361938 221.309811,396.266472 C226.497309,392.445207 231.304706,388.031183 236.200267,383.823713 C240.988535,379.715182 245.788447,375.628347 250.663214,371.635243 C254.359421,368.745211 258.11468,365.906384 261.678642,362.839306 C265.210166,359.798263 268.732541,356.739863 272.264065,353.699689 C275.798916,350.658646 279.376185,347.674884 282.901056,344.624295 C286.345248,341.644004 289.570696,338.392935 292.816937,335.188731 C296.016601,332.029658 299.321063,328.988615 302.618871,325.94063 C305.884241,322.923888 309.087232,319.835112 312.281074,316.733318 C315.61132,313.498739 318.912455,310.234652 322.222739,306.980112 C325.332576,303.918241 328.324308,300.724452 331.352635,297.575793 C334.474949,294.330799 337.590608,291.076259 340.787777,287.910242 C344.045662,284.679134 347.271941,281.421123 350.42087,278.075455 C353.458346,274.851291 356.362746,271.484794 359.420184,268.281459 C362.5583,264.999146 365.878565,261.91471 369.027494,258.639341 C371.594212,255.971486 374.118511,253.248954 376.795017,250.696527 C379.371716,248.23783 381.993327,245.860714 384.720569,243.590347 C386.224336,242.43607 387.723945,241.254888 389.304231,240.224718 C391.327829,238.902073 393.407154,237.735646 395.544699,236.630838 C396.65589,236.054567 397.500927,234.756222 397.822806,233.53859 C398.177123,232.202927 397.994974,230.749232 397.322105,229.555901 C396.675851,228.399888 395.600425,227.534615 394.362811,227.178785 C393.936134,227.056414 393.520269,227.000002 393.112721,227.000002 C392.226929,226.999134 391.38106,227.267308 390.541845,227.701247" id="Fill-74" fill="#2C2C2C"></path>
            <path d="M266.001501,126.616138 C266.139387,131.098375 267.082179,135.480023 268.000842,139.859112 C268.438629,141.930592 269.034984,143.978202 269.620135,146.013025 C270.195808,147.997553 270.815431,149.965885 271.435054,151.936773 C273.942848,159.951608 276.648852,167.897392 278.935167,175.978718 C281.305075,184.356701 283.143261,192.85488 284.997822,201.353059 C285.849265,205.27523 286.707603,209.194844 287.535778,213.117867 C288.407904,217.226727 289.225738,221.345817 290.097864,225.454677 C290.316758,226.477629 290.54513,227.49632 290.814869,228.50819 C290.932934,228.958289 291.09064,229.400716 291.242314,229.840586 C291.498264,230.583079 291.804198,231.328982 292.272147,231.964918 C292.639267,232.581247 293.137379,233.073969 293.763896,233.440527 C294.723063,233.996331 295.891643,234.146364 296.965427,233.853118 C299.180213,233.250428 300.425492,230.965834 299.867056,228.794617 C299.581805,227.688123 298.962182,226.706941 298.437355,225.693366 C297.851341,224.138477 297.424758,222.533294 297.036093,220.916177 C296.568144,218.958075 296.113122,216.999973 295.676197,215.035904 C294.712721,210.709666 293.763896,206.384282 292.807315,202.055487 C291.936051,198.102627 291.077713,194.14721 290.178872,190.197761 C289.727297,188.213232 289.296404,186.221885 288.798293,184.244176 C288.252783,182.079779 287.771907,179.884693 287.159178,177.733935 C285.930273,173.441796 284.674653,169.169264 283.351813,164.906961 C282.22029,161.270364 281.018962,157.657636 279.837455,154.038089 C278.551672,150.109098 277.302085,146.172435 276.147293,142.203379 C275.051103,138.447438 274.336683,134.584086 273.640361,130.741194 C273.574004,130.228865 273.506785,129.716537 273.441289,129.203355 C273.330119,128.354305 273.337013,127.468598 273.309436,126.616138 C273.249111,124.644396 271.69359,123 269.653745,123 C267.707835,123 265.941176,124.644396 266.001501,126.616138" id="Fill-76" fill="#2C2C2C"></path>
            <path d="M284.109806,242.818404 C280.052979,251.048274 276.018863,259.280421 272.183841,267.614265 C270.563078,271.136474 268.975624,274.676138 267.37303,278.203659 C265.687165,281.906493 263.915757,285.567587 262.13905,289.225644 C260.426689,292.744817 258.702216,296.263989 257.096594,299.836287 C255.293392,303.838142 253.515928,307.852139 251.767987,311.881314 C248.568855,319.265733 245.511284,326.713144 241.906393,333.913901 C238.130418,341.453142 234.330219,348.968098 230.802543,356.628768 C229.170426,360.171468 227.582215,363.74073 225.784311,367.203742 C223.965969,370.707736 222.112047,374.229185 219.766824,377.416704 C219.34971,377.985904 218.882634,378.539925 218.521539,379.147831 C217.241432,381.311549 218.432969,384.196254 220.840267,384.86032 C221.842551,385.138848 222.933405,384.996928 223.829707,384.46947 C224.125698,384.295674 224.386867,384.090762 224.615485,383.858528 C224.615485,383.860046 224.615485,383.860805 224.616242,383.861564 C225.453497,383.155756 226.059107,382.174456 226.680613,381.278915 C227.233232,380.485071 227.741944,379.660869 228.241572,378.833632 C229.243856,377.173087 230.172709,375.471559 231.07431,373.757888 C233.005448,370.090723 234.753388,366.349942 236.471048,362.581839 C238.16297,358.872933 239.877602,355.179206 241.652038,351.512041 C243.372726,347.951127 245.173657,344.432713 246.930681,340.890014 C248.855763,337.00883 250.73618,333.116262 252.48942,329.153114 C254.166201,325.358448 255.763496,321.531149 257.380473,317.712956 C260.609886,310.096304 264.019468,302.563893 267.603162,295.110411 C269.315523,291.550256 271.03394,287.992378 272.692553,284.40566 C274.470017,280.563182 276.196761,276.697936 277.935617,272.838002 C281.333086,265.292689 284.941005,257.854386 288.59283,250.431261 C289.22872,249.141834 289.86461,247.852407 290.497472,246.56298 C290.949408,245.643912 291.150774,244.718772 290.87295,243.704838 C290.618594,242.776662 289.997087,241.973711 289.171945,241.487235 C288.615541,241.160894 287.959968,241 287.300611,241 C286.007635,241 284.701032,241.61853 284.109806,242.818404" id="Fill-78" fill="#2C2C2C"></path>
            <path d="M176.992618,223.724257 C176.982419,223.750876 176.97137,223.777496 176.960321,223.804974 C176.959471,223.805833 176.958622,223.80755 176.956922,223.808409 C176.96882,223.780072 176.980719,223.751735 176.992618,223.724257 M197.479462,123.837136 C197.015416,125.990749 196.47063,128.100569 195.833205,130.210389 C195.209379,132.276415 194.554955,134.32956 194.030567,136.422206 C193.49598,138.565515 192.874703,140.705389 192.437004,142.872741 C191.882869,145.605975 191.331284,148.336633 190.777149,151.070725 C190.381945,153.02598 190.073432,155.001842 189.724123,156.963966 C189.396061,158.835926 189.056951,160.700158 188.745038,162.572119 C187.964829,167.227976 187.198219,171.883834 186.371266,176.529387 C184.871192,184.982405 183.161193,193.395063 181.577829,201.834342 C180.840116,205.781774 180.229887,209.756684 179.498973,213.704975 C179.157313,215.563196 178.722164,217.421417 178.241121,219.24615 C177.82467,220.821001 177.407369,222.3907 176.868532,223.926909 C176.580416,224.324486 176.355192,224.77702 176.20901,225.270771 C176.076425,225.723304 176.022881,226.189577 176.003334,226.662719 C175.937042,228.168875 176.866832,229.661291 178.131484,230.405781 C178.798655,230.798206 179.52277,230.996565 180.29618,231 C181.072988,230.996565 181.792854,230.798206 182.463425,230.405781 C184.246516,229.577138 184.764955,227.451004 185.2324,225.713 C185.468672,224.824248 185.690496,223.932061 185.897022,223.03644 C186.418011,220.75574 186.889705,218.464735 187.334203,216.166861 C188.13056,212.051124 188.592056,207.868409 189.31957,203.736356 C190.103178,199.291739 190.946279,194.857425 191.776632,190.416242 C192.686025,185.542275 193.539325,180.658863 194.385825,175.767722 C195.749915,167.885739 196.848836,159.946222 198.422851,152.100304 C198.924292,149.604929 199.422334,147.11213 199.922925,144.616756 C200.086106,143.794982 200.324928,142.983513 200.527204,142.17462 C200.879063,140.756052 201.231771,139.337484 201.58363,137.921492 C202.071473,135.959368 202.708898,134.037603 203.28938,132.102099 C203.907257,130.048954 204.428246,127.996667 204.880393,125.896293 C205.105616,124.859845 205.032525,123.846582 204.491139,122.91146 C203.990547,122.042459 203.160195,121.395001 202.200658,121.129663 C201.884495,121.042076 201.557283,121 201.229222,121 C199.550669,121 197.851718,122.108578 197.479462,123.837136" id="Fill-80" fill="#2C2C2C"></path>
            <path d="M178.700773,219.143416 C176.850296,219.697328 175.539409,221.954198 176.152796,224.004102 C177.463683,228.375284 178.657129,232.776523 179.866446,237.184633 C181.050371,241.491407 182.318408,245.782723 183.406317,250.119554 C184.621188,254.977663 185.790036,259.847796 186.977134,264.715352 C188.015052,268.975752 189.131527,273.216399 190.141672,277.487105 C191.266876,282.253325 192.320664,287.037579 193.30621,291.844162 C194.263982,296.510764 195.135262,301.200553 196.043043,305.883472 C197.735611,314.605226 199.651156,323.273735 201.223109,332.025546 C202.425284,338.735182 203.532238,345.454264 204.601896,352.190522 C205.162911,355.715808 205.763602,359.221341 206.476972,362.713993 C206.777714,364.19968 207.096707,365.68966 207.449821,367.161606 C207.902918,369.060365 208.618669,370.82172 209.462175,372.553017 C210.416774,374.505021 212.722728,375.400727 214.635893,374.830498 C216.566515,374.256834 218.048007,372.247292 217.99881,370.050537 C217.890098,365.246531 216.569689,360.637467 215.673811,355.963995 C214.827924,351.55932 214.12725,347.128023 213.330561,342.713902 C211.584828,333.058656 209.65738,323.461808 207.543456,313.897592 C206.576161,309.522975 205.581093,305.155228 204.626495,300.778034 C203.618731,296.134619 202.599064,291.498933 201.511155,286.876129 C199.400405,277.909624 196.784186,269.114015 194.29493,260.264303 C192.512695,253.917072 190.792354,247.553524 188.895853,241.246655 C186.95809,234.809252 185.129831,228.338357 183.192068,221.904389 C182.676283,220.193702 181.272555,219 179.664894,219 C179.349868,219 179.026907,219.046374 178.700773,219.143416" id="Fill-82" fill="#2C2C2C"></path>
            <path d="M249.722728,0.74879521 C248.919874,1.23776956 248.279414,1.89711824 247.803833,2.72173003 C247.505559,3.39130117 247.2048,4.04298301 247.052349,4.76196271 C246.913154,5.4272745 246.868413,6.06617826 246.822843,6.73149005 C246.793845,7.1480553 246.783902,7.56376868 246.764846,7.97948206 C246.715962,9.0281361 246.648022,10.0725308 246.580082,11.1177773 C246.440887,13.3104951 246.308321,15.5032128 246.182383,17.6967824 C245.923051,22.0984033 245.686917,26.5076912 245.353845,30.9067566 C244.631359,40.497128 243.764708,50.0738694 243.236929,59.6778708 C243.149104,61.2683152 243.068736,62.8553522 243.00411,64.4457966 C242.880658,67.4742005 245.557665,70 248.408666,70 C249.836237,70 251.221553,69.4113567 252.230713,68.3729251 C253.273014,67.3012705 253.75191,65.9399796 253.813221,64.4457966 C254.215063,54.6364942 255.137226,44.8697853 255.920194,35.0868909 C256.296351,30.3947817 256.636052,25.699265 256.953382,21.0003407 C257.240885,16.7111668 257.612898,12.4322154 257.936857,8.1498564 C258.079365,6.29618361 258.056995,4.34624933 257.040378,2.72173003 C256.008019,1.07165458 254.369999,0 252.422106,0 C251.457687,0 250.557894,0.25300589 249.722728,0.74879521" id="Fill-84" fill="#2C2C2C"></path>
            <path d="M110.140574,11.2002113 C107.128447,12.0222653 105.415048,15.1467493 106.182829,18.1125912 C106.560734,19.5641231 107.344759,20.5617862 108.169824,21.7418452 C108.731552,22.5469322 109.25908,23.3817115 109.772928,24.2207325 C111.039167,26.2779885 112.251542,28.3598466 113.450237,30.4535817 C115.711683,34.3975747 117.644814,38.5332953 119.57538,42.6427171 C123.303987,50.5756656 126.929142,58.5552736 130.469652,66.5722091 C131.461439,69.0714569 132.469472,71.5647662 133.405685,74.0843745 C133.906708,75.4332557 134.591555,76.5267827 135.877459,77.272485 C137.119758,77.9944333 138.632234,78.1904029 140.021591,77.8094924 C141.364779,77.4447006 142.530129,76.5496882 143.234641,75.356904 C143.912647,74.2099308 144.256353,72.5369787 143.775849,71.2440888 C140.322547,61.9486854 136.140795,52.9485089 132.053092,43.9152465 C130.059257,39.5038111 128.078247,35.0864373 125.980959,30.725903 C123.990544,26.586789 121.789802,22.5638992 119.50527,18.5766403 C118.573332,16.9494993 117.625149,15.3130265 116.539313,13.7817494 C116.035724,12.9367898 115.357718,12.2640459 114.505294,11.7669111 C113.63577,11.2604444 112.639707,11 111.640225,11 C111.135781,11 110.631338,11.0661715 110.140574,11.2002113" id="Fill-86" fill="#2C2C2C"></path>
            <path d="M30.7237123,135.277944 C30.7600886,135.361172 30.7955988,135.444399 30.8293768,135.528493 C30.7938666,135.445266 30.7592225,135.361172 30.7237123,135.277944 M3.92217084,100.189862 C1.56723818,100.836607 0.0922656487,102.9537 0.00392319503,105.341281 C-0.0636327989,107.196555 0.745306924,108.998945 2.11894547,110.234349 C2.85599868,110.898433 3.661474,111.396063 4.52757648,111.856413 C5.24990596,112.238738 5.94365405,112.637536 6.61661568,113.089217 C8.19552051,114.436458 9.70946766,115.857389 11.2364063,117.261849 C12.8802689,118.775544 14.5518467,120.262364 16.2164956,121.751785 C17.9556294,123.309695 19.6947632,124.864137 21.4468886,126.411643 C24.4808456,129.087052 27.6187349,131.696573 30.264678,134.772512 C30.5383664,135.170443 30.7860717,135.575308 31.0069278,136.010518 C31.0415719,136.111084 31.0744838,136.212517 31.1056635,136.31395 C31.5257232,137.580565 32.2428561,138.630442 33.4129605,139.314465 C34.5700734,139.995021 35.9844188,140.177948 37.2801081,139.822498 C39.814324,139.124603 41.6443985,136.24286 40.7852249,133.642009 C40.4673653,132.680561 40.0516361,131.758993 39.645434,130.834824 C39.1985251,129.825694 38.3592718,128.850374 37.6663898,128.013767 C36.3975497,126.489669 35.0239111,125.08781 33.5757878,123.736234 C32.0462508,122.3075 30.4838019,120.916045 28.9308801,119.513319 C26.5456339,117.359814 24.1907012,115.175966 21.8357686,112.991251 C19.7320056,111.037145 17.7087902,108.998945 15.7193528,106.933002 C14.7345943,105.910001 13.7870782,104.853188 12.6672077,103.976701 C11.892912,103.369836 11.1316079,102.787245 10.3062123,102.259273 C9.92512718,102.013926 9.52152342,101.799789 9.12571458,101.574382 C8.80352446,101.250142 8.44062752,100.968384 8.03615766,100.728238 C7.2150925,100.247081 6.2762374,100 5.334784,100 C4.85929373,100 4.38380347,100.06242 3.92217084,100.189862" id="Fill-88" fill="#2C2C2C"></path>
            <path d="M370.714249,322.705416 C368.481127,324.946424 368.376638,328.863429 370.714249,331.087997 C373.986213,334.200316 377.288402,337.272833 380.705441,340.226811 C383.474824,342.623564 386.328834,344.934658 389.054175,347.385058 C392.124071,350.146949 395.183604,352.914896 398.20255,355.737355 C399.561767,357.008413 400.904576,358.299372 402.247385,359.590332 C403.300908,360.604409 404.396744,361.635792 405.417452,362.715629 C405.432996,362.783119 405.450266,362.851474 405.468401,362.919829 C406.10915,365.258611 408.356089,367.056609 410.815459,366.998637 C412.501959,366.958835 414.204865,366.475158 415.298111,365.092482 C416.191878,363.96073 417.15991,362.591898 416.977702,361.030114 C416.954386,360.847546 416.933661,360.661516 416.9138,360.475486 C416.910346,359.425068 416.644374,358.444735 416.117613,357.535353 C415.298111,355.882718 413.884491,354.547631 412.622855,353.219466 C411.196282,351.721711 409.678173,350.312212 408.187698,348.879351 C405.110894,345.921913 401.939964,343.06917 398.769034,340.216428 C395.996198,337.7219 393.122326,335.349373 390.302858,332.912818 C388.751072,331.567348 387.165607,330.256488 385.657861,328.856507 C383.458417,326.815373 381.255518,324.777699 379.080254,322.705416 C377.898927,321.582316 376.367865,321 374.841121,321 C373.349782,321 371.862761,321.556358 370.714249,322.705416" id="Fill-90" fill="#2C2C2C"></path>
            <path d="M467.548272,171.868657 C465.953374,172.285476 464.389478,172.803083 462.825583,173.319836 C459.199171,174.51819 455.696768,176.072719 452.178003,177.550376 C445.881084,180.18966 439.715064,183.142411 433.794479,186.529064 C431.119666,188.063948 430.201653,191.594096 431.758659,194.23338 C433.32686,196.892308 436.842181,197.783173 439.523022,196.251705 C442.389015,194.616887 445.28515,193.018797 448.293238,191.643636 C451.361608,190.240289 454.442896,188.868545 457.541407,187.519863 C460.174022,186.425714 462.815249,185.308502 465.53312,184.440699 C467.121129,183.933342 468.702248,183.425985 470.313508,182.9955 C471.185018,182.765737 472.055667,182.531703 472.927177,182.305357 C474.111294,181.997868 475.194654,181.574216 476.315044,181.067712 C477.128855,180.59025 477.778182,179.946231 478.259579,179.135655 C478.99244,177.894594 479.193955,176.379355 478.807287,174.987965 C478.548073,174.077455 478.083899,173.286525 477.411321,172.616027 C476.324517,171.538106 475.06031,171.171682 473.576504,171.037582 C473.288871,171.012812 473.001238,171.000854 472.713606,171 C470.970585,171 469.218953,171.433047 467.548272,171.868657" id="Fill-92" fill="#2C2C2C" transform="translate(455.000000, 184.000000) rotate(5.000000) translate(-455.000000, -184.000000) "></path>
            <path d="M387.121819,63.6342427 C386.402,64.1533226 385.629554,64.5936513 384.907189,65.1059569 C383.93187,65.7910068 382.990504,66.5251703 382.065266,67.2762695 C380.738526,68.3542281 379.518739,69.5422689 378.288767,70.7226887 C375.927288,72.9920753 373.818764,75.5451352 371.686473,78.0228311 C369.44553,80.6224643 367.233447,83.2627431 364.839712,85.7235033 C361.849241,88.8066513 358.728898,91.7433053 355.591577,94.6808061 C353.410053,96.7215604 353.529739,100.363587 355.591577,102.424664 C357.760369,104.583969 361.17611,104.465419 363.357634,102.424664 C366.494106,99.4905508 369.62124,96.5598243 372.628688,93.493612 C375.1124,90.9566411 377.412762,88.2376111 379.737741,85.5549929 C381.84966,83.1170959 383.948847,80.6529485 386.220348,78.3573116 C387.45032,77.1099958 388.690479,75.8728414 389.936579,74.6424612 C390.480687,74.1030585 391.014609,73.550954 391.531554,72.985301 C392.101975,72.3671472 392.609583,71.6617744 393.056923,70.954708 C393.703741,69.9317905 393.869265,68.7318947 393.985556,67.5641767 C394.141743,66.0162519 393.00769,64.3819548 391.724241,63.6342427 C391.040923,63.2354065 390.161522,63 389.294854,63 C388.508827,63 387.732136,63.193914 387.121819,63.6342427" id="Fill-94" fill="#2C2C2C"></path>
            <path d="M132.284561,142.361688 C132.285393,142.354011 132.286225,142.347187 132.287056,142.339511 C132.28872,142.330981 132.289551,142.323304 132.290383,142.314775 C132.28872,142.330128 132.286225,142.346334 132.284561,142.361688 M132.27874,142.405189 C132.277908,142.41116 132.277076,142.416278 132.277076,142.422248 C132.279571,142.401777 132.282066,142.382159 132.284561,142.361688 C132.282898,142.376188 132.280403,142.390689 132.27874,142.405189 M132.277908,142.412013 C132.277908,142.409454 132.27874,142.407748 132.27874,142.405189 L132.279571,142.396659 C132.27874,142.401777 132.27874,142.406895 132.277908,142.412013 M132.270423,142.470014 C132.267928,142.486221 132.266265,142.502427 132.264601,142.518633 L132.272918,142.454661 C132.27375,142.444425 132.275413,142.433337 132.277076,142.422248 C132.274581,142.438455 132.272086,142.454661 132.270423,142.470014 M132.312838,142.135652 C132.310343,142.157829 132.307848,142.180859 132.305353,142.202183 C132.301195,142.233743 132.297036,142.26445 132.292878,142.294304 C132.299531,142.24142 132.306185,142.188536 132.312838,142.135652 M132.803521,129.364216 C132.657148,129.527985 132.517428,129.684077 132.387688,129.864053 C132.277076,130.020998 132.202226,130.177091 132.124881,130.353655 C131.946073,130.760519 131.80968,131.180177 131.692415,131.610071 C131.429609,132.556009 131.208386,133.509623 131.013776,134.475179 C130.841621,135.322172 130.691921,136.168313 130.555528,137.021278 C130.305197,138.600115 130.051538,140.179805 129.802039,141.762054 C129.584142,143.125091 129.431116,144.504334 129.246486,145.877607 C129.090133,147.029962 128.921305,148.186582 128.784911,149.342349 C128.576995,151.095191 128.369078,152.844621 128.164489,154.59661 C128.05055,155.533165 127.934117,156.466308 127.845961,157.40201 C127.586481,160.164761 127.283754,162.923248 127.092471,165.688559 C126.887882,168.687582 126.683292,171.68234 126.50781,174.684775 C126.354784,177.263286 126.205084,179.846063 126.010474,182.424574 C125.838319,184.700283 125.656184,186.97258 125.468228,189.244878 C125.383398,190.254788 125.301895,191.264697 125.217896,192.273754 C125.123918,193.430374 125.003327,194.586141 125,195.74532 C125,196.302305 125.373418,196.808966 125.896536,196.954823 C126.215064,197.045237 126.556047,196.998324 126.838813,196.828584 C127.085818,196.681875 127.358604,196.382484 127.401019,196.078829 C127.803546,193.310106 128.004809,190.51153 128.232685,187.722336 C128.450582,185.077294 128.667646,182.431398 128.836475,179.785502 C129.015283,176.997161 129.174963,174.207968 129.337137,171.416215 C129.425294,169.937175 129.538401,168.457282 129.639032,166.978241 C129.707229,165.968331 129.766277,164.959274 129.856929,163.949365 C130.003302,162.37991 130.149675,160.807044 130.29189,159.23503 C130.373393,158.354771 130.438263,157.475365 130.538895,156.595958 C130.705228,155.173214 130.867403,153.750469 131.032904,152.327724 C131.149337,151.305873 131.255791,150.284874 131.383035,149.263023 C131.679109,146.998402 131.97435,144.732929 132.270423,142.470014 C132.272918,142.450396 132.275413,142.431631 132.277908,142.412013 C132.274581,142.436749 132.271255,142.461485 132.267096,142.485368 C132.272086,142.453808 132.276245,142.421395 132.280403,142.389836 C132.280403,142.391542 132.280403,142.3941 132.279571,142.396659 C132.280403,142.391542 132.281235,142.386424 132.282066,142.381306 C132.285393,142.354864 132.28872,142.328422 132.292046,142.301127 C132.292046,142.306245 132.291215,142.31051 132.290383,142.314775 C132.292046,142.304539 132.29371,142.294304 132.294541,142.284068 C132.296205,142.273832 132.297868,142.26445 132.2987,142.255067 C132.295373,142.283215 132.291215,142.311363 132.287056,142.339511 C132.282898,142.377894 132.277908,142.416278 132.272918,142.454661 C132.272086,142.460632 132.271255,142.466602 132.270423,142.47172 C132.486656,141.089918 132.696236,139.704704 132.908311,138.318636 C133.075476,138.71953 133.460537,139.006979 133.9113,139.006979 C134.499287,139.006979 135.005772,138.496906 134.99995,137.887036 C134.986644,136.614413 134.967515,135.338379 134.944229,134.065756 C134.93508,133.499387 134.931754,132.933019 134.931754,132.366651 C134.928427,132.056172 134.93508,131.743134 134.937575,131.430096 C134.940902,130.917464 134.983317,130.410803 134.831122,129.910966 C134.703877,129.494719 134.401983,129.16121 133.982823,129.044354 C133.879696,129.0145 133.770748,129 133.660968,129 C133.343272,129 133.018091,129.12368 132.803521,129.364216" id="Fill-96" fill="#2C2C2C"></path>
            <path d="M200.569179,124.414538 C197.837785,127.162356 195.096931,129.904155 192.328557,132.621872 C189.792386,135.11426 187.245894,137.597187 184.699403,140.080114 C182.280193,142.438336 179.902264,144.836979 177.513154,147.222722 C175.155005,149.577504 172.863937,152.002808 170.553088,154.408332 C166.228955,158.900306 162.080263,163.556547 157.79053,168.081202 C156.694877,169.240532 155.626744,170.436844 154.48121,171.548872 C153.6814,172.321185 152.88589,173.094359 152.08952,173.866672 C151.601894,174.333672 151.132328,174.834214 150.624922,175.281433 C149.321146,176.429583 148.01823,177.576012 146.714454,178.724162 C145.535379,179.769107 144.289224,180.740089 143.089509,181.761813 C141.836473,182.823098 140.569678,183.868044 139.357063,184.973191 C138.708615,185.564897 138.030066,186.132521 137.409139,186.750028 C136.74005,187.412256 136.071822,188.074485 135.403594,188.739294 C134.838567,189.296598 134.31138,189.891743 133.766994,190.466248 C133.273348,190.990011 132.799482,191.534414 132.329056,192.075378 C131.197282,193.381774 130.048308,194.66925 128.879553,195.942105 C128.455568,196.402224 128.029003,196.852884 127.653178,197.353425 C127.519016,197.528013 127.390875,197.702601 127.273053,197.890949 C127.186192,198.068976 127.112231,198.253024 127.055471,198.444813 C126.98151,198.723465 126.98151,199.005557 127.055471,199.285069 C127.115671,199.664345 127.306594,200.060822 127.582657,200.332594 C127.79766,200.547603 128.029003,200.672309 128.298186,200.790134 C128.698091,200.964721 129.057575,201.068786 129.497041,200.947521 C129.884046,200.840016 130.22289,200.578565 130.424132,200.23197 C130.662355,199.824312 130.689876,199.30313 130.523894,198.861931 C130.976259,198.349348 131.441525,197.847947 131.89303,197.336225 C132.483858,196.664536 133.072105,195.985966 133.652612,195.303957 C134.737946,194.033682 135.812959,192.760827 136.938713,191.524094 C137.949225,190.415506 139.007898,189.34046 140.109572,188.319596 C140.78124,187.694349 141.453769,187.069962 142.128877,186.444715 C142.784205,185.833228 143.489414,185.272484 144.164522,184.687659 C145.471738,183.56531 146.788414,182.456723 148.105091,181.344695 C149.391667,180.260188 150.641262,179.130959 151.901178,178.012051 C153.110353,176.943885 154.249867,175.801755 155.408301,174.675967 C155.895927,174.208967 156.403333,173.752287 156.866879,173.262066 L158.518959,171.518771 C161.02245,168.874156 163.491541,166.207181 165.957191,163.532466 C166.884283,162.527943 167.821694,161.5303 168.759106,160.532657 C169.85734,159.356986 170.939233,158.167554 172.054667,157.008224 C173.385103,155.624425 174.712099,154.240625 176.041676,152.859405 C176.925767,151.939166 177.798678,151.005165 178.702549,150.101266 C181.051238,147.753365 183.375847,145.381383 185.751196,143.063583 C190.806338,138.121809 195.865781,133.179176 200.858143,128.17376 C201.43607,127.592375 202.010557,127.01185 202.588484,126.433905 C203.135451,125.879181 203.138891,124.965822 202.588484,124.414538 C202.314141,124.138466 201.946056,124 201.577111,124 C201.209887,124 200.842662,124.137606 200.569179,124.414538" id="Fill-98" fill="#2C2C2C"></path>
            <path d="M122.106981,201.047868 C121.640792,201.177796 121.251306,201.592368 121.114944,202.04968 C120.978581,202.503572 120.985399,202.971141 121.024604,203.442129 C121.125171,204.640542 121.467782,205.826133 121.841074,206.96471 C122.609818,209.318796 123.738218,211.536116 124.783948,213.773096 C125.173433,214.607369 125.608941,215.421982 126.02229,216.243433 C126.328253,216.854606 126.63166,217.469199 126.941032,218.080372 C127.723412,219.616426 128.505792,221.15248 129.281354,222.691098 C130.956056,226.013659 132.627349,229.339638 134.354891,232.634846 C135.992946,235.766789 137.697477,238.861976 139.372179,241.974259 C141.043472,245.076284 142.69772,248.191131 144.35282,251.299995 C145.82724,254.067798 147.265864,256.856116 148.717273,259.637596 C149.542266,261.220663 150.351918,262.816552 151.200775,264.385943 C152.215823,266.269041 153.234281,268.148719 154.250182,270.031817 C155.715226,272.736366 157.233112,275.414417 158.727986,278.102725 C162.133639,284.219587 165.546111,290.33303 168.82222,296.523404 C169.763974,298.299653 170.703171,300.076757 171.644924,301.853007 C171.88782,302.306899 172.104296,302.774468 172.334407,303.235199 C172.883266,304.343859 173.432978,305.452519 173.981837,306.557759 C174.601434,307.809169 175.233815,309.058014 175.832958,310.320536 C176.798575,312.366898 177.764192,314.410696 178.729809,316.457913 C179.36219,317.796511 180.02781,319.115449 180.683202,320.444644 C181.362458,321.819998 182.008475,323.219285 182.741424,324.568141 C183.809313,326.52475 184.878054,328.484779 185.946795,330.441388 C186.695936,331.813323 187.498771,333.159614 188.277742,334.511889 C189.036258,335.830826 189.792218,337.146345 190.544768,338.465283 C191.403852,339.970564 192.27572,341.469862 193.111793,342.989675 C193.953831,344.531712 194.82229,346.060928 195.634499,347.624335 C196.523412,349.330492 197.406359,351.036648 198.258625,352.762465 C198.934472,354.131836 199.579637,355.510608 200.215427,356.89622 C200.515425,357.544149 200.815422,358.195497 201.114567,358.843426 C201.500644,359.681119 201.880754,360.565824 202.433022,361.310344 C202.656316,361.614649 202.882166,361.844587 203.262277,361.951435 C203.618524,362.048881 204.008009,361.998449 204.331018,361.81125 C205.009422,361.410355 205.166239,360.58292 204.827037,359.908492 C204.748628,359.751211 204.674481,359.59393 204.602039,359.435795 C203.221368,356.123491 201.680472,352.882136 200.079065,349.670697 C199.756056,349.029606 199.416854,348.395354 199.080209,347.761101 C198.690724,347.02 198.311466,346.265222 197.905787,345.530105 C197.069714,344.021404 196.254096,342.495608 195.395012,340.999729 C193.560937,337.807096 191.723452,334.618737 189.87574,331.432942 C188.19081,328.528373 186.589403,325.573371 184.975212,322.621789 C184.645385,322.020018 184.362433,321.385765 184.05647,320.768608 C183.489713,319.632595 182.927218,318.497437 182.361313,317.362279 C181.76217,316.153609 181.173255,314.941519 180.590305,313.719173 L177.993452,308.270754 C177.221299,306.647512 176.388635,305.055042 175.583244,303.445477 C174.977283,302.233387 174.384959,301.011041 173.745759,299.812628 C172.654007,297.76883 171.564811,295.725887 170.473059,293.682089 C168.85205,290.646737 167.17053,287.642158 165.516282,284.623047 C162.320285,278.810489 158.987074,273.077426 155.818351,267.250337 C154.999323,265.751039 154.163251,264.25858 153.364678,262.74646 C152.37264,260.863362 151.377194,258.976845 150.385157,257.092892 C148.853635,254.191742 147.328932,251.289737 145.774399,248.401409 C144.152538,245.39341 142.528119,242.387976 140.893474,239.386816 C139.142068,236.174523 137.381287,232.965649 135.666528,229.733696 C134.111996,226.801773 132.630758,223.829676 131.11202,220.878093 C130.350095,219.39931 129.583908,217.92651 128.83221,216.444308 C128.036194,214.874917 127.217166,213.315784 126.464616,211.725879 C125.952404,210.639443 125.414624,209.56583 124.940765,208.463153 C124.544461,207.5075 124.166907,206.534752 123.866058,205.541488 C124.10384,205.566277 124.349292,205.520973 124.564063,205.395319 C125.109513,205.074774 125.285932,204.360171 124.97656,203.812252 C124.730255,203.381439 124.48395,202.948062 124.230827,202.520668 C123.839637,201.8659 123.279699,201 122.450444,201 C122.340502,201 122.226298,201.014531 122.106981,201.047868" id="Fill-100" fill="#2C2C2C"></path>
            <path d="M238.19914,217.853422 C238.215401,217.861998 238.232312,217.869794 238.247923,217.87837 C238.230361,217.871353 238.212799,217.864337 238.196538,217.855761 C238.197839,217.854981 238.19849,217.854202 238.19914,217.853422 M201.518192,121.208937 C201.256715,121.379674 201.109715,121.726603 201.038167,122.05872 C200.964667,122.408769 201.012799,122.758817 201.053777,123.109645 C201.091503,123.407458 201.170206,123.699815 201.231348,123.992171 C201.317856,124.397572 201.399161,124.802973 201.50063,125.201358 C201.680802,125.917047 201.907155,126.617923 202.133509,127.311782 C202.277906,127.762401 202.420353,128.216138 202.580361,128.6613 C202.748175,129.12985 202.91859,129.596061 203.086404,130.065391 C203.581389,131.441415 204.077025,132.818219 204.570059,134.191126 C204.783404,134.782075 205.01431,135.358213 205.240663,135.939807 C205.801994,137.37976 206.363974,138.823612 206.927906,140.266683 C207.532816,141.817342 208.137076,143.37034 208.752392,144.913982 C210.390852,149.043616 212.024759,153.173249 213.673626,157.293526 C215.289321,161.328826 216.908267,165.357888 218.495993,169.408 C220.114289,173.546989 221.756001,177.673503 223.331368,181.833542 C225.028368,186.310104 226.725368,190.786667 228.445783,195.251536 C229.133949,197.03608 229.817562,198.820624 230.521339,200.595813 C231.35,202.688306 232.188418,204.774562 233.004071,206.87563 C233.590768,208.388868 234.193076,209.896648 234.75961,211.422359 C235.3346,212.966781 235.899832,214.518219 236.459211,216.071997 C236.612065,216.511701 236.770122,216.957642 236.902812,217.411379 C236.824109,217.460495 236.749308,217.524424 236.682963,217.604724 C236.337579,218.018701 236.332375,218.721916 236.682963,219.136672 C236.832564,219.312866 236.969807,219.477365 237.137621,219.629391 C237.318443,219.787653 237.526584,219.870292 237.737327,219.955271 C238.09572,220.101839 238.611519,219.876529 238.77413,219.450079 C238.842426,219.269987 238.908771,219.090675 238.962107,218.902008 C239.010239,218.728153 239.002434,218.496607 238.992678,218.314176 C238.971863,217.948536 238.900965,217.582895 238.811855,217.232847 C238.623878,216.483635 238.365002,215.753133 238.108078,215.034326 L237.453085,213.216258 C237.071926,212.159097 236.669954,211.112071 236.276438,210.061147 C235.918045,209.099099 235.534285,208.148745 235.160932,207.195273 C234.855875,206.412538 234.554071,205.629802 234.243811,204.850184 C233.339048,202.57838 232.432333,200.306575 231.527571,198.031651 C230.638418,195.799607 229.786992,193.542614 228.918003,191.298096 C227.307512,187.144295 225.729543,182.972562 224.141817,178.806287 C223.575284,177.317218 222.980781,175.842962 222.398637,174.363248 C221.324109,171.637706 220.251532,168.909045 219.177004,166.180384 C217.578872,162.127154 215.932606,158.098091 214.306505,154.059674 C212.728536,150.140537 211.168129,146.211266 209.600567,142.285892 C208.810282,140.309562 208.04081,138.323877 207.260932,136.34131 C206.897336,135.419023 206.536341,134.499074 206.173395,133.579126 C205.797441,132.623315 205.464415,131.639438 205.111226,130.671153 C204.74828,129.674023 204.383383,128.676892 204.020437,127.679761 C203.948238,127.461469 203.874738,127.243176 203.802539,127.024883 C204.036698,127.332832 204.452329,127.402997 204.752833,127.190162 C205.123584,126.931329 205.225703,126.377021 205.029921,125.935757 C204.567457,124.900426 204.125158,123.840146 203.617164,122.835219 C203.446748,122.496865 203.284138,122.153054 203.093559,121.833411 C203.012254,121.69308 202.941356,121.553528 202.847042,121.422553 C202.761184,121.300153 202.661666,121.208937 202.547189,121.130196 C202.413849,121.038201 202.272703,121 202.130907,121 C201.920164,121 201.708771,121.084978 201.518192,121.208937" id="Fill-102" fill="#2C2C2C"></path>
            <path d="M243.866568,211.35463 C243.870751,211.344366 243.874237,211.334957 243.877724,211.324692 C243.888182,211.292189 243.900035,211.259685 243.910494,211.227182 C243.895852,211.269094 243.88121,211.311862 243.866568,211.35463 Z M243.363165,212.818146 C243.345734,212.868612 243.329,212.918223 243.310872,212.967833 C243.326908,212.921644 243.342945,212.875455 243.358981,212.82841 L243.363165,212.818146 Z M243.675526,211.908901 C243.666462,211.934562 243.657398,211.960223 243.649031,211.985883 C243.657398,211.960223 243.666462,211.934562 243.675526,211.908901 Z M243.782203,211.598407 L243.800331,211.545375 L243.780111,211.60525 L243.782203,211.598407 Z M243.932108,211.167307 C243.912585,211.220339 243.895155,211.272516 243.877724,211.324692 C243.869357,211.347787 243.86099,211.370882 243.85332,211.394832 C243.857504,211.381146 243.862384,211.368316 243.866568,211.35463 C243.861687,211.370026 243.856109,211.384567 243.851229,211.399964 C243.859596,211.374303 243.86866,211.349498 243.877724,211.323837 C243.890971,211.281069 243.907705,211.237446 243.920952,211.197244 C243.917466,211.207509 243.91398,211.216917 243.910494,211.227182 C243.917466,211.206653 243.924438,211.18698 243.932108,211.167307 Z M264.00479,129.417414 C263.852095,129.631253 263.773308,129.878452 263.704979,130.148744 C263.653383,130.362584 263.593421,130.56958 263.544615,130.783419 C263.437938,131.235048 263.340325,131.685821 263.242015,132.140016 C263.122091,132.695142 263.389132,133.279351 263.840939,133.429894 C263.926699,133.459832 264.015248,133.470951 264.101705,133.465819 C264.015248,134.067135 263.912057,134.663319 263.808867,135.261213 C263.653383,136.176445 263.484653,137.084835 263.296399,137.994079 C262.947782,139.668013 262.569184,141.341947 262.157816,142.996207 C261.943067,143.860973 261.724833,144.726594 261.510085,145.588794 C260.750099,148.619324 259.992903,151.646433 259.232917,154.673541 C258.723936,156.711857 258.189855,158.739908 257.666929,160.774803 C257.132847,162.843056 256.615499,164.914731 256.065381,166.976141 C255.267745,169.969891 254.469412,172.96364 253.668987,175.953969 C253.132116,177.968334 252.557595,179.963027 251.990743,181.964562 C251.533358,183.585464 251.103164,185.222617 250.601852,186.826412 C249.963186,188.866438 249.32173,190.909886 248.685852,192.953334 C247.964912,195.007902 247.264888,197.077866 246.492353,199.105062 C246.053792,200.258083 245.62569,201.417092 245.176671,202.56327 C244.743689,203.672668 244.305128,204.782067 243.874935,205.894886 C243.071023,207.974259 242.267809,210.057053 241.573364,212.198867 C241.55663,212.242491 241.542686,212.286114 241.530833,212.330592 C241.472265,212.512783 241.414394,212.694974 241.357918,212.878021 C240.97932,214.090917 240.6063,215.303813 240.277205,216.536383 C239.990642,217.605579 239.764738,218.69787 239.508853,219.777331 C239.364525,220.388911 239.211831,220.99707 239.040311,221.601807 C238.879947,222.169764 239.220198,222.807861 239.669217,222.961825 C239.901396,223.038807 240.154492,222.998605 240.364359,222.848062 C240.576319,222.694098 240.696243,222.467428 240.777819,222.189437 C241.227536,220.636109 241.554539,219.032315 241.940806,217.455036 C242.295002,216.01376 242.778185,214.61354 243.227901,213.215031 C243.299019,213.049948 243.347128,212.868612 243.406393,212.69754 C243.404301,212.700962 243.402907,212.705239 243.401513,212.70866 C243.458686,212.543576 243.515162,212.377637 243.572335,212.209987 L243.572335,212.208276 C243.584188,212.174917 243.595344,212.142414 243.607894,212.109055 C243.635783,212.028651 243.662975,211.948248 243.690168,211.8687 C243.74246,211.719012 243.794056,211.568469 243.845651,211.417071 C243.847045,211.41365 243.84844,211.409373 243.849834,211.405951 C243.842862,211.427335 243.835192,211.448719 243.82822,211.470958 C243.835192,211.448719 243.842862,211.42648 243.850532,211.404241 C244.701157,209.144387 245.584553,206.904207 246.470041,204.664883 C246.88141,203.622202 247.281622,202.573535 247.682532,201.52059 C248.041608,200.582264 248.406958,199.646503 248.741631,198.694491 L250.302042,194.253477 C250.623467,193.345088 250.898874,192.41617 251.18474,191.494095 C251.634457,190.046831 252.083476,188.600422 252.530403,187.15658 C252.764674,186.405576 252.963385,185.63661 253.176042,184.877909 L254.572602,179.896309 C254.766434,179.201759 254.970723,178.509775 255.15549,177.808383 C255.918265,174.907867 256.683828,172.010773 257.448694,169.111112 C258.622837,164.664111 259.737018,160.196581 260.870024,155.739316 C261.487773,153.310102 262.076239,150.868058 262.680741,148.435422 C263.527881,145.020837 264.393846,141.615661 265.091081,138.150609 C265.369277,136.767497 265.611218,135.364712 265.807838,133.957649 C265.90824,133.239149 265.979357,132.514662 265.998183,131.785898 C266.017705,131.1076 265.87547,130.446409 265.785526,129.780941 C265.720683,129.307073 265.306526,129.023095 264.949542,129.002566 C264.915378,129.000855 264.88191,129 264.848443,129 C264.522835,129 264.236969,129.0958 264.00479,129.417414 Z" id="Fill-104" fill="#2C2C2C"></path>
            <path d="M242.529598,222.035989 C242.250859,222.109682 242.07055,222.280202 241.906791,222.504707 C241.767421,222.701792 241.624567,222.892878 241.49565,223.096817 C241.351926,223.321322 241.253496,223.588671 241.144613,223.833741 C240.964304,224.251903 240.780511,224.680347 240.637657,225.112219 C240.512224,225.490106 240.385921,225.868851 240.260488,226.250166 C240.086276,226.772011 239.912935,227.298141 239.739594,227.819986 C239.671652,228.027353 239.596741,228.231292 239.53838,228.439516 C239.283159,229.376095 239.027939,230.316958 238.773589,231.254394 C238.586312,231.940762 238.365062,232.626273 238.211756,233.319495 C237.799745,235.200365 237.388605,237.082092 236.973109,238.962962 C236.871195,239.424825 236.75186,239.890115 236.66998,240.355406 C236.541064,241.0949 236.412147,241.831824 236.282359,242.571319 C235.914772,244.65013 235.550669,246.731512 235.183082,248.813751 C234.961833,250.065665 234.791976,251.324434 234.598601,252.579775 C234.101226,255.795677 233.608206,259.009009 233.162224,262.23605 C232.716241,265.426246 232.250224,268.615584 231.855634,271.812635 C231.569927,274.111666 231.287703,276.411554 231.001996,278.711443 C230.845205,279.97621 230.698867,281.245262 230.532495,282.510029 C229.957595,286.806467 229.382696,291.104619 228.805184,295.403628 C227.754686,302.161907 226.683282,308.916758 225.584876,315.664754 C224.51957,322.228519 223.485623,328.799139 222.423801,335.362903 C221.392467,341.726157 220.119849,348.049136 218.841133,354.368687 C218.558039,355.761131 218.296721,357.163 218.048469,358.562299 C217.752309,360.242657 217.452664,361.919588 217.211381,363.606801 C217.09553,364.41656 217.017134,365.22632 217.003197,366.046362 C216.993616,366.802995 217.006682,367.559627 217.027587,368.316259 C217.047621,369.076319 217.07114,369.832095 217.09553,370.592155 C217.122533,371.412197 217.119048,372.256232 217.282808,373.062564 C217.395174,373.615257 217.990108,374 218.53452,374 C219.276663,374 219.787104,373.417316 219.830657,372.721523 C219.882049,371.954607 219.848078,371.178267 219.830657,370.407924 C219.817591,369.554463 219.796686,368.701002 219.776651,367.847542 C219.75923,367.060918 219.75923,366.277722 219.766198,365.491099 C219.769683,365.30344 219.796686,365.116638 219.810622,364.92898 C219.824559,364.734466 219.828044,364.540809 219.855046,364.346296 C219.902084,363.994115 219.949992,363.643647 219.9979,363.292323 C219.996158,363.312031 219.993545,363.332597 219.990932,363.352305 C220.477854,360.249512 221.015298,357.159573 221.624168,354.080773 C221.933395,352.504098 222.25046,350.930851 222.552718,349.354177 C222.889818,347.600126 223.260889,345.849503 223.564018,344.092025 C224.114528,340.912113 224.672877,337.739055 225.179834,334.553144 C225.72773,331.09817 226.272142,327.644053 226.81307,324.189936 C227.776462,318.027195 228.786891,311.875593 229.735475,305.712852 C230.096965,303.380402 230.457584,301.043667 230.818202,298.70779 C230.984575,297.629824 231.164884,296.551859 231.307738,295.470466 L232.88,283.510875 C233.285043,280.414937 233.638693,277.312144 234.013249,274.212779 C234.183105,272.820335 234.332928,271.421037 234.520205,270.028593 C234.73797,268.408217 234.959219,266.788698 235.179598,265.164895 C235.435689,263.271171 235.69091,261.374877 235.950485,259.477727 C236.43915,256.230977 236.920846,252.980799 237.405155,249.734049 C237.490519,249.175358 237.595917,248.619237 237.690862,248.063973 C237.888593,246.90289 238.088937,245.737522 238.286667,244.57301 C238.518369,243.224268 238.70826,241.858388 238.993967,240.515644 L240.014849,235.705929 C240.216064,234.762495 240.419892,233.828487 240.661175,232.894479 C240.889393,232.034163 241.114126,231.170419 241.33886,230.306676 C241.460808,229.848241 241.560109,229.379523 241.702963,228.927942 C241.920728,228.239861 242.126298,227.546638 242.34232,226.855986 C242.507822,226.971666 242.707294,227.040217 242.913735,227.040217 C243.461632,227.040217 243.880612,226.598063 243.897162,226.069363 C243.918067,225.477253 243.934617,224.884286 243.959007,224.292176 C243.989494,223.535544 244.186354,222.531271 243.332715,222.136245 C243.153277,222.053984 242.978194,222 242.792658,222 C242.707294,222 242.620188,222.01114 242.529598,222.035989" id="Fill-106" fill="#2C2C2C"></path>
            <path d="M278.955963,141.912769 C278.917966,141.856482 278.879969,141.800194 278.842748,141.743027 C278.823362,141.714003 278.803976,141.684101 278.783039,141.655077 L278.955963,141.912769 Z M340.401408,223.361886 C340.402183,223.371561 340.402959,223.381235 340.402959,223.390909 L340.400632,223.364525 C340.400632,223.363645 340.400632,223.362766 340.401408,223.361886 Z M280.537094,140.10189 C280.55648,140.130034 280.575866,140.157298 280.594477,140.185442 C280.575866,140.157298 280.55648,140.130034 280.537094,140.10189 Z M274.73677,131.039577 C274.570049,131.090588 274.424265,131.187332 274.300194,131.328051 C274.097028,131.558479 274.042747,131.812653 274.009403,132.121356 C273.955122,132.622668 274.145881,133.059776 274.324233,133.50568 C274.524298,134.000836 274.748401,134.485437 274.978708,134.963003 C275.148531,135.309524 275.323781,135.64637 275.506011,135.983216 C275.747949,136.443192 275.990663,136.904047 276.235704,137.360505 C276.345041,137.567186 276.445074,137.78706 276.566043,137.985826 C276.974702,138.663037 277.384137,139.339368 277.792796,140.020097 C278.141746,140.593527 278.476738,141.183668 278.842748,141.743027 C279.701941,143.008619 280.563459,144.271574 281.421876,145.537167 C281.978646,146.355097 282.526885,147.175665 283.120875,147.962813 C284.956352,150.405169 286.794931,152.844887 288.631184,155.287244 C288.882428,155.617054 289.149181,155.932793 289.403526,156.259085 C289.978906,156.977632 290.554286,157.698818 291.126564,158.420883 C292.029181,159.55719 292.934901,160.691738 293.837518,161.828925 C294.086436,162.137627 294.346985,162.433138 294.601331,162.735684 C295.213156,163.467423 295.828084,164.195645 296.43991,164.923866 C297.124627,165.738278 297.803141,166.556208 298.493287,167.362705 L302.001397,171.433885 C302.473643,171.980931 302.934257,172.527097 303.385566,173.093492 C305.624274,175.890285 307.862207,178.687078 310.100915,181.479473 C310.588669,182.091601 311.094259,182.68526 311.564179,183.310581 L313.426796,185.804828 C315.671708,188.807422 317.912742,191.806499 320.157654,194.809973 C320.55158,195.335031 320.963341,195.850415 321.341758,196.389545 C321.950482,197.266401 322.562308,198.142378 323.171807,199.014837 C324.745184,201.266343 326.314683,203.522247 327.890387,205.773753 C328.652648,206.920614 329.416461,208.0578 330.177948,209.201143 C330.864992,210.231911 331.56832,211.252125 332.24063,212.292567 C333.755073,214.639058 335.266414,216.98555 336.763022,219.346114 C337.314363,220.218572 337.865704,221.087513 338.423249,221.950297 C338.910228,222.705783 339.392554,223.471823 339.974138,224.134962 C340.482829,224.715428 341.22493,225.169248 341.960827,224.93882 C342.715334,224.705754 343.217822,223.68554 342.906093,222.843864 C342.863444,222.726891 342.817693,222.609918 342.775819,222.492945 C342.660277,222.27659 342.509066,222.10157 342.315205,221.970526 C342.129873,221.848276 341.918953,221.781434 341.705705,221.773519 C341.483153,221.50967 341.279211,221.227353 341.078371,220.938878 C339.69963,218.84832 338.356561,216.732256 336.987126,214.63642 C336.135688,213.333888 335.288127,212.032236 334.433587,210.729705 C333.682181,209.579326 332.900533,208.448296 332.131292,207.307591 C331.365153,206.171284 330.616849,205.01299 329.828998,203.893393 C329.129547,202.896926 328.430096,201.900458 327.732971,200.903991 C326.609352,199.306829 325.488835,197.708787 324.368318,196.111625 C323.925539,195.482786 323.498269,194.840755 323.03843,194.228627 C321.150999,191.710634 319.26124,189.196159 317.370707,186.677286 C316.328509,185.289444 315.289414,183.901601 314.247992,182.517277 C313.896716,182.046747 313.550867,181.569181 313.187959,181.115362 C311.109768,178.532287 309.034679,175.951849 306.959589,173.372292 C306.181043,172.403089 305.40017,171.433885 304.621624,170.465562 C304.466535,170.272953 304.30059,170.087379 304.136971,169.901806 C303.56702,169.245703 302.994742,168.5896 302.425565,167.933497 C300.528828,165.754989 298.645274,163.55977 296.770249,161.353998 C294.973544,159.24497 293.244303,157.063823 291.499553,154.899387 C290.972251,154.245922 290.442622,153.596855 289.933155,152.92668 C288.863817,151.522127 287.792153,150.116695 286.722815,148.708624 C285.907823,147.640038 285.092831,146.567934 284.277838,145.49583 C284.029696,145.173056 283.808695,144.823017 283.575286,144.48617 C283.023945,143.689348 282.469502,142.891647 281.918161,142.094825 C281.507951,141.500286 281.096965,140.908386 280.68598,140.317366 C279.950083,139.125651 279.207982,137.940972 278.468208,136.749256 C278.310018,136.495962 278.162683,136.232993 278.017675,135.966506 C278.154153,135.649888 278.168887,135.264669 277.983556,134.969159 C277.602037,134.364946 277.22362,133.759854 276.844428,133.155641 C276.462909,132.550549 276.12404,131.894446 275.702973,131.328051 C275.54013,131.10466 275.264847,131 275.004298,131 C274.911245,131 274.820518,131.013192 274.73677,131.039577 Z" id="Fill-108" fill="#2C2C2C"></path>
            <path d="M339.243206,167.088857 C339.246674,167.113106 339.251009,167.136642 339.254477,167.160891 C339.251009,167.136642 339.246674,167.113106 339.243206,167.088857 M335.387101,155.317377 C335.159965,155.501384 334.970107,155.808063 335.003918,156.078369 C335.106215,156.947055 335.18684,157.816454 335.31948,158.680148 C335.403573,159.215053 335.485064,159.747105 335.570023,160.279158 C335.817098,161.898137 336.067641,163.516404 336.318184,165.135383 C336.443889,165.937741 336.534916,166.75365 336.7005,167.550302 C336.938039,168.67075 337.174711,169.787632 337.41225,170.907367 C337.75382,172.526347 338.09279,174.145326 338.434361,175.763593 C338.583473,176.45469 338.702242,177.153633 338.878229,177.841878 C339.565704,180.524962 340.25318,183.205194 340.944124,185.884712 C341.441741,187.83248 341.915952,189.782388 342.397099,191.733009 C342.725665,193.078117 343.056832,194.426791 343.385399,195.772613 C343.555317,196.458005 343.65328,197.154095 343.775518,197.845192 C344.105818,199.740183 344.439586,201.633034 344.774221,203.525172 C344.894724,204.736197 345.008292,205.945083 345.126195,207.153256 C345.218089,208.086843 345.335992,209.017578 345.356798,209.953306 C345.376738,210.742113 345.394076,211.533059 345.410548,212.321153 C345.420951,212.731247 345.444358,213.140628 345.434822,213.550008 C345.401012,214.767453 345.37327,215.984897 345.316053,217.202341 C345.278775,217.979737 345.234561,218.757132 345.18688,219.531675 L345.16434,219.893271 C345.051639,220.042331 344.98922,220.214927 345.004825,220.398221 C345.028232,220.654262 345.048171,220.913157 345.072445,221.169911 C345.07678,221.213417 345.081114,221.257636 345.086316,221.301141 C345.085449,221.30542 345.085449,221.3097 345.085449,221.314692 C345.068977,221.632069 345.115792,221.935895 345.170408,222.247567 C345.227626,222.420876 345.335992,222.570649 345.488572,222.699027 C345.722643,222.891593 346.040806,223 346.369373,223 C347.046445,223 347.611684,222.534989 347.611684,221.975122 C347.611684,221.830341 347.597813,221.687699 347.57874,221.545058 C347.575273,221.269047 347.599547,220.992323 347.615152,220.715598 C347.63249,220.420331 347.659365,220.125063 347.682772,219.829795 C347.723518,219.280626 347.760796,218.729317 347.801542,218.180148 C347.879565,217.038303 347.920311,215.892893 347.957589,214.751049 C347.974061,214.288178 348.007871,213.823167 347.998335,213.358156 C347.987931,212.680609 347.974061,212.006629 347.961057,211.329795 C347.950653,210.700034 347.94025,210.070272 347.927246,209.44051 C347.923779,209.128839 347.87263,208.816454 347.842287,208.504783 C347.700111,206.992071 347.554466,205.479359 347.41229,203.966647 C347.334266,203.152165 347.17215,202.347667 347.029107,201.539604 C346.751689,199.951292 346.477739,198.365833 346.199454,196.781087 C346.091088,196.154179 345.982722,195.535828 345.831009,194.914625 C345.173876,192.225835 344.513275,189.537758 343.856142,186.848968 C343.301307,184.573125 342.694456,182.305127 342.112745,180.031423 C341.871739,179.08999 341.631599,178.145704 341.387992,177.204271 C341.329907,176.975331 341.289162,176.7414 341.242348,176.510321 C341.113175,175.897676 340.984869,175.287171 340.852229,174.674526 C340.309531,172.092004 339.765098,169.509481 339.218932,166.926959 C338.981394,165.344353 338.727383,163.7646 338.485509,162.181994 L338.018234,159.172974 C337.858719,158.145242 337.744284,157.111806 337.625515,156.078369 C337.588237,155.782388 337.503277,155.534905 337.238864,155.317377 C336.995256,155.116966 336.660621,155 336.314716,155 C335.96621,155 335.630708,155.116966 335.387101,155.317377" id="Fill-110" fill="#2C2C2C"></path>
            <path d="M218.780077,389.341815 C218.771528,389.352088 218.762979,389.36236 218.755284,389.373489 L218.755284,389.372633 C218.762124,389.361504 218.770673,389.352088 218.780077,389.341815 Z M235.812875,366.750435 L235.735076,366.853162 L235.812875,366.750435 Z M345.717722,232.38865 C344.404548,233.766904 343.082824,235.137454 341.830349,236.568783 C341.252416,237.227948 340.647979,237.875985 340.090564,238.551415 C339.45877,239.321011 338.824411,240.089752 338.193471,240.859348 C337.064107,242.226473 335.945857,243.604727 334.823332,244.982125 C333.761507,246.286758 332.649241,247.553724 331.557494,248.830963 C331.106945,249.359151 330.61536,249.851385 330.141728,250.359028 L328.107846,252.546257 C326.858791,253.890268 325.559296,255.191477 324.283738,256.512375 C323.305697,257.528516 322.377241,258.582324 321.441946,259.635276 C320.627197,260.552115 319.812447,261.464673 319.001117,262.380655 C318.670259,262.752185 318.312897,263.110017 318.005977,263.50466 C316.759487,265.113194 315.511287,266.721727 314.265652,268.333685 C313.453467,269.376364 312.635298,270.416475 311.86073,271.486548 C309.823429,274.291851 307.803226,277.110851 305.732582,279.893041 C304.129586,282.039179 302.530009,284.188742 300.927868,286.335736 C298.805928,289.040025 296.689118,291.740889 294.565469,294.440041 C293.569474,295.707007 292.517908,296.931171 291.496265,298.178448 C290.217288,299.73305 288.93831,301.291932 287.658478,302.849958 C285.447626,305.54483 283.223949,308.230285 281.006257,310.919164 C280.091481,312.028616 279.203207,313.166318 278.304674,314.289466 C277.309534,315.533319 276.297295,316.764331 275.319254,318.021025 C273.292211,320.629434 271.261749,323.241268 269.231287,325.849678 C267.08712,328.601906 264.969455,331.377247 262.775701,334.08924 C261.356515,335.841592 259.933909,337.597367 258.514723,339.349719 C257.589687,340.492557 256.610791,341.59944 255.655832,342.72002 C254.676936,343.867139 253.708299,345.023674 252.713158,346.154527 L248.545368,350.889385 C247.383516,352.206859 246.258427,353.557719 245.112819,354.892314 C244.033895,356.152432 243.008832,357.453641 241.973511,358.748001 C239.913126,361.314464 237.949349,363.958828 235.949664,366.572375 C234.952814,367.787977 233.973063,369.016421 232.942871,370.20463 C231.724593,371.605142 230.505461,373.006509 229.266666,374.39418 C228.121058,375.678267 226.97203,376.955507 225.819582,378.232746 C224.714156,379.456909 223.602745,380.687921 222.433199,381.854729 C221.428655,382.864877 220.412996,383.864754 219.401613,384.870622 C218.836503,385.436477 218.272248,385.998051 217.714833,386.569898 C217.270269,387.024465 216.863321,387.489305 216.479457,387.994379 C216.375156,388.1245 216.295647,388.268318 216.232382,388.422408 C216.111837,388.673233 215.984452,389.017369 216.001551,389.305004 C216.021214,389.608905 216.031473,389.896541 216.1922,390.171336 C216.288807,390.334843 216.432436,390.499206 216.579484,390.619054 C216.853062,390.85019 217.13006,391 217.49768,391 C217.841363,391 218.175641,390.863031 218.419296,390.619054 C218.74759,390.289472 218.860441,389.816071 218.758704,389.387186 C219.406742,388.620158 220.161647,387.932743 220.880644,387.235055 C221.511583,386.622974 222.143377,386.010892 222.777737,385.399666 C223.926764,384.289358 225.068098,383.158505 226.15728,381.984849 C228.434817,379.523682 230.712355,377.053097 232.916368,374.521733 C233.794382,373.515008 234.696335,372.524548 235.547846,371.491286 C236.43954,370.404948 237.357736,369.338299 238.216087,368.221143 C239.826778,366.11952 241.434049,364.015328 243.031916,361.906857 C244.123663,360.541443 245.21712,359.176886 246.308013,357.811473 C246.732059,357.283285 247.189447,356.774787 247.630591,356.25944 L249.944891,353.550871 C251.894989,351.264339 253.919467,349.040299 255.862726,346.749487 C257.258829,345.107567 258.654931,343.465647 260.047615,341.823727 C261.058998,340.633806 262.013957,339.392522 262.992853,338.178631 C263.944392,337.001551 264.916449,335.838167 265.844904,334.641398 C267.137561,332.975508 268.432782,331.30705 269.725438,329.642017 C271.896109,326.84613 274.066779,324.050244 276.23403,321.251789 C278.314933,318.569758 280.452262,315.931386 282.569072,313.276749 C283.407759,312.22979 284.272095,311.199952 285.127026,310.163265 C286.496626,308.497375 287.869646,306.828918 289.241811,305.163884 C291.479166,302.445043 293.707118,299.720209 295.941053,296.994519 C296.642097,296.138461 297.323477,295.262713 298.008277,294.389533 C299.453966,292.543872 300.90051,290.700778 302.349619,288.855116 C303.097684,287.902323 303.819246,286.932409 304.543373,285.959071 C305.926652,284.10656 307.305656,282.25405 308.68808,280.398116 C310.726236,277.665577 312.704548,274.884244 314.705942,272.121743 C315.789995,270.72808 316.867208,269.334417 317.948697,267.939042 C318.773705,266.874962 319.568792,265.785199 320.463905,264.778475 C321.946356,263.110017 323.432226,261.441559 324.915532,259.773101 C325.944015,258.615711 327.049441,257.522524 328.12409,256.408792 C329.232936,255.25825 330.331523,254.104283 331.420705,252.934051 C332.068743,252.232083 332.719346,251.53354 333.370804,250.83414 C333.931639,250.232331 334.446307,249.57659 334.984059,248.948243 C337.288099,246.249948 339.502371,243.477174 341.756825,240.73522 C342.584399,239.731919 343.463268,238.768853 344.321619,237.789523 C344.721727,237.334956 345.149193,236.903502 345.563835,236.458352 C346.245215,235.733271 346.926595,235.010757 347.61396,234.288244 C348.11837,233.760056 348.138888,232.916839 347.61396,232.38865 C347.358336,232.131833 347.005249,232 346.653872,232 C346.31019,232 345.967362,232.127553 345.717722,232.38865 Z" id="Fill-112" fill="#2C2C2C"></path>
            <path d="M178.864894,212.487996 C178.785307,212.453754 178.706576,212.420367 178.626989,212.386981 C178.70572,212.424648 178.784451,212.458034 178.864894,212.487996 M74.6674203,191.694266 C73.4607773,192.39966 72.5613576,193.569896 72.1899512,194.918193 C71.8091312,196.309293 72.0059595,197.827089 72.73508,199.070946 C73.3871806,200.184682 74.6374682,201.311259 75.9545062,201.549244 C81.0121375,202.461806 86.0329704,203.531882 91.0640727,204.578845 C95.7340378,205.548763 100.423686,206.421089 105.107343,207.32081 C109.654077,208.193136 114.182839,209.133092 118.706467,210.109858 C123.095738,211.05923 127.461047,212.15242 131.836625,213.165997 C139.394832,214.911506 147.100231,215.877999 154.682399,217.486538 C158.5796,218.312638 162.430588,219.29882 166.281576,220.302124 C168.050463,220.760117 169.811649,221.24208 171.570267,221.743732 C174.060572,222.449126 176.487551,223.461847 179.121627,222.766725 C181.391998,222.168338 183,220.000791 183,217.670592 C183,215.242802 181.374883,213.292694 179.121627,212.571034 C179.034338,212.547064 178.949616,212.51967 178.864894,212.487996 C179.217474,212.636951 179.569197,212.785049 179.924344,212.93486 C177.644559,211.971791 175.354505,211.222737 172.974594,210.567851 C170.905329,209.996002 168.825796,209.454115 166.742839,208.929349 C164.533227,208.37719 162.323616,207.782227 160.094322,207.324234 C157.540688,206.798612 154.993046,206.307233 152.42572,205.852665 C148.16396,205.096762 143.881661,204.441875 139.639583,203.578966 C134.969618,202.628737 130.326182,201.589479 125.682746,200.519402 C117.920865,198.730234 110.094801,197.262089 102.26617,195.787095 C94.4366827,194.312957 86.6576863,192.566592 78.8187857,191.152379 C78.2959071,191.058212 77.7892882,191 77.2946501,191 C76.3926631,191 75.5291859,191.191758 74.6674203,191.694266" id="Fill-114" fill="#2C2C2C" transform="translate(127.500000, 207.000000) rotate(2.000000) translate(-127.500000, -207.000000) "></path>
            <path d="M178.410499,217.442915 C177.512753,218.354275 177,219.604686 177,220.891517 C177,222.181816 177.512753,223.432227 178.410499,224.340118 C179.385415,225.325186 180.497522,225.637355 181.823134,225.769159 C188.214536,226.416043 194.594791,227.164382 200.981906,227.842483 C206.900856,228.472024 212.82152,229.083355 218.731038,229.794407 C223.091151,230.397067 227.440117,231.056958 231.78651,231.750667 C236.39271,232.48253 241.028063,233.200519 245.680565,233.569919 C250.396518,233.946256 255.115901,234.318258 259.844715,234.481279 C264.570957,234.643434 269.29377,234.751826 274.019154,234.860218 C276.960194,234.925253 279.901234,234.989421 282.844846,234.999827 C284.144734,235.002428 285.448052,234.975547 286.747083,234.928722 C287.383307,234.907911 288.01696,234.884498 288.649755,234.847211 C289.607522,234.789113 290.693049,234.836805 291.580505,234.463937 C292.367641,234.241083 293.054455,233.834396 293.636661,233.25168 C294.507826,232.370669 295,231.161881 295,229.918407 C295,229.065145 294.785639,228.272582 294.363775,227.537251 C294.122833,227.219012 293.878461,226.900772 293.636661,226.585135 C293.054455,225.999818 292.367641,225.596599 291.580505,225.372878 C290.512128,224.935841 289.145359,225.013884 287.989522,224.996541 C286.968304,224.987002 285.947085,225.003478 284.92844,225.017352 C282.765103,225.047702 280.607769,225.05117 278.447005,225.040765 C273.979712,225.013884 269.514133,224.942778 265.049412,224.875142 C260.728742,224.810974 256.418361,224.587252 252.10455,224.356594 C247.963944,224.134607 243.841343,223.655948 239.725603,223.17382 C235.16742,222.461901 230.614382,221.706625 226.056199,220.99644 C221.212487,220.237696 216.346481,219.651512 211.472758,219.123426 C206.880277,218.628291 202.285224,218.187785 197.692744,217.713462 C193.218591,217.253012 188.75044,216.724926 184.275429,216.264477 C183.458283,216.179497 182.641137,216.094518 181.823134,216.013874 C181.733102,216.004336 181.640498,216 181.547893,216 C180.410063,216 179.17534,216.669429 178.410499,217.442915" id="Fill-116" fill="#2C2C2C"></path>
            <path d="M318.656033,222.040218 C311.387924,222.092948 304.140431,222.183214 296.881771,222.651527 C295.55975,222.734644 294.385479,223.143078 293.429398,224.13869 C292.516267,225.087829 292,226.38999 292,227.730582 C292,230.373334 294.224844,232.984807 296.881771,232.814105 C306.878105,232.175089 316.883889,232.217095 326.893968,232.195645 C336.225426,232.175089 345.550871,232.356516 354.878894,232.583523 C361.409111,232.744394 367.941905,232.782824 374.472121,232.83466 C377.642738,232.85611 380.816792,232.876666 383.991704,232.904371 C385.481232,232.915096 386.974197,232.93297 388.468021,232.957101 C389.306417,232.967826 390.145673,232.981232 390.980634,232.995531 C391.336265,232.999106 391.691896,232.999106 392.048387,232.999106 C392.330143,233.002681 392.611899,232.995531 392.893656,232.977657 C393.950242,232.942801 394.611682,232.715795 395.541134,232.202795 C397.500542,231.116916 398.403365,228.519743 397.829544,226.347985 C397.339048,224.499756 395.728398,222.89194 393.873789,222.588073 C393.048278,222.402177 392.098209,222.447758 391.272698,222.428096 C390.732379,222.413796 390.188624,222.420946 389.645727,222.420946 C388.605463,222.417371 387.561762,222.424521 386.518061,222.428096 C384.310398,222.434352 382.098439,222.448651 379.890776,222.455801 C375.02189,222.469207 370.149568,222.472782 365.277246,222.452226 C355.868477,222.413796 346.459707,222.134059 337.047501,222.040218 C334.28148,222.011618 331.514599,222 328.746859,222 C325.382964,222 322.019069,222.016981 318.656033,222.040218" id="Fill-118" fill="#2C2C2C"></path>
            <path d="M73.7778103,274.207106 C68.8491073,276.113503 63.8599506,278.009715 59.2646065,280.612974 C55.8610637,282.542288 52.659609,284.834039 49.4072005,286.995075 C47.0227342,288.580627 44.5458601,290.026128 42.1277125,291.553961 C41.0170919,292.257614 39.9548342,293.030019 38.8718495,293.772716 C38.3286299,294.14364 37.7819558,294.512017 37.2387362,294.877 C36.3008404,295.506807 35.2955819,296.123033 34.5710012,296.98541 C33.9060106,297.644925 33.4439717,298.420725 33.1909298,299.316206 C32.809208,300.678524 33.0052506,302.164767 33.7306949,303.381092 C34.4354122,304.561768 35.5995776,305.443668 36.9425131,305.807802 C38.2275859,306.156657 39.9513797,306.059894 41.0784092,305.274758 C42.6769775,304.163683 44.242728,303.043271 45.7808427,301.849015 C46.8197825,301.040112 47.8164048,300.183676 48.8449811,299.363738 C51.3149462,297.591451 53.8410468,295.901497 56.3369206,294.164011 C57.6625837,293.242218 58.9986102,292.336552 60.3311823,291.424944 C63.4860013,289.269001 66.8420448,287.503504 70.3310863,285.943416 C72.3459214,285.128572 74.3616202,284.31118 76.3920006,283.526892 C77.6373466,283.046474 78.6322416,282.479478 79.3309136,281.305592 C79.9950405,280.188576 80.1738107,278.828804 79.8266338,277.58277 C79.4889568,276.375782 78.665923,275.327518 77.5665294,274.694316 C76.8583576,274.287742 75.8988712,274 74.9903386,274 C74.5645719,274 74.1500323,274.062811 73.7778103,274.207106" id="Fill-120" fill="#2C2C2C"></path>
        </g>
    </g>
</svg>