<?xml version="1.0" encoding="UTF-8"?>
<svg width="800px" height="1000px" viewBox="0 0 800 1000" version="1.1" xmlns="http://www.w3.org/2000/svg" xmlns:xlink="http://www.w3.org/1999/xlink">
    <!-- Generator: Sketch 51.1 (57501) - http://www.bohemiancoding.com/sketch -->
    <title>entering_DL</title>
    <desc>Created with Sketch.</desc>
    <defs>
        <rect id="path-1" x="0" y="0" width="137" height="302"></rect>
    </defs>
    <g id="entering_DL" stroke="none" stroke-width="1" fill="none" fill-rule="evenodd">
        <g id="logo-footer" transform="translate(480.000000, 771.000000)">
            <g>
                <path d="M110.812545,8.25651402 C110.904572,8.56348079 110.810146,8.81874549 110.573746,9.09365441 C110.548096,9.12348237 110.524607,9.14951827 110.482164,9.19539003 C110.410296,9.27306357 110.388406,9.29969141 110.394575,9.28699974 C110.158488,9.77253772 109.949286,10.3963755 109.78094,11.1092981 C109.323962,13.0450464 110.241419,14.6677006 112.137009,15.2172501 C114.194676,15.8138908 116.608374,14.6870388 117.500673,12.7424366 C118.556971,10.4412591 118.361229,8.87677042 116.832238,7.67717368 C114.960938,6.20902274 112.357851,6.27012948 111.072216,7.83985899 L110.795491,8.1777337 C110.794947,8.20051389 110.804056,8.228204 110.812545,8.25651402 Z M110.106083,6.26944954 C110.423589,5.88663707 110.955421,5.49967933 111.419965,5.30848582 C112.37958,4.91358991 113.68037,4.90617957 115.133698,5.23840657 C117.932917,5.87841333 120.108577,8.22064492 119.995807,10.6570534 C119.760531,15.7499925 113.426094,19.0246323 109.732148,15.5763745 C107.943744,13.9068501 107.553768,11.8021869 108.499361,9.2850154 C108.62423,8.95356867 108.851111,8.49010331 109.049811,8.18524994 C109.270059,7.84733807 109.481086,7.64146186 109.750777,7.55562368 C109.778602,7.54676715 109.806094,7.5393618 109.833231,7.53336632 C109.647627,7.16965375 109.747904,6.70130236 110.106083,6.26944954 Z" id="Fill-4" fill="#000000" fill-rule="nonzero"></path>
                <path d="M116,2.36382675 C116.035222,2.23410526 116.077249,2.03952302 116.14169,1.8509661 C116.280178,1.44230796 116.378641,1.03435869 116.377039,0.600890425 C116.376639,0.410561355 116.256963,0.110004457 116.623996,0.0412449782 C116.938196,-0.017590452 117.272408,-0.0501980398 117.512961,0.20711836 C117.655051,0.358460099 117.796741,0.518308165 117.8896,0.694814455 C118.216208,1.3175485 117.776729,2.53572545 117.114308,2.89086461 C116.612389,3.15987721 116.012808,2.911776 116,2.36382675" id="Fill-103" fill="#000000" fill-rule="nonzero"></path>
                <path d="M113.597281,1.30015424 C113.547641,1.6054057 113.484683,1.90995301 113.451993,2.21696486 C113.409214,2.61727733 113.068594,2.79366831 112.724342,2.93802021 C112.426905,3.06335991 112.146418,3.01090032 112.073774,2.6669203 C111.908307,1.88389925 112.059649,1.1040469 112.154086,0.329475719 C112.197269,-0.0278832593 112.773982,-0.106396611 113.167067,0.152380579 C113.512933,0.380527 113.619074,0.676272361 113.597281,1.30015424" id="Fill-107" fill="#000000" fill-rule="nonzero"></path>
                <path d="M112.19066,11.6823452 C110.632914,12.6206952 108.591708,13.9682577 107.051494,14.9237702 C106.603919,15.2015633 106.260092,15.3386205 105.847581,15.6483439 C105.453117,15.9444969 105.00264,16.1407116 104.673147,15.8744932 C104.334372,15.6006913 103.968388,15.4738054 104.253536,15.0032335 C104.507231,14.584149 104.804932,14.5525935 105.343775,14.3418539 C106.408054,13.9255633 108.032176,12.8044553 108.976827,12.2352987 C109.267132,12.0600815 109.780582,11.6912496 110.031699,11.4841022 C110.690685,10.9400907 110.546085,10.7856194 109.803565,10.2635599 C108.494872,9.34277154 106.87805,8.31351987 105.559045,7.40151231 C105.221301,7.16842154 104.87376,6.94291422 104.554064,6.69585398 C103.681603,6.022525 103.837029,5.29651112 105.037953,5.02270928 C105.314335,4.95964705 105.519044,5.02949445 105.664454,5.21269422 C106.875175,6.74015718 109.059218,7.93310366 110.770108,9.0590438 C111.354328,9.44340412 111.803432,9.85804585 112.62433,10.0292717 C113.067264,10.1214703 112.94712,10.4970498 112.994043,10.9392837 C113.057467,11.2214672 112.602656,11.4340876 112.19066,11.6823452 Z" id="chevron" fill="#000000" fill-rule="nonzero" transform="translate(108.500000, 10.500000) rotate(-2.000000) translate(-108.500000, -10.500000) "></path>
                <path d="M4.80555555,7.71270718 L2.78703703,7.71270718 L2.78703703,12.9005525 L2.01851852,12.9005525 L2.01851852,7.71270718 L0,7.71270718 L0,7.09944751 L4.80555555,7.09944751 L4.80555555,7.71270718 Z M9.97657951,10.2403315 L6.8654684,10.2403315 L6.8654684,12.9005525 L6.09694989,12.9005525 L6.09694989,7.09944751 L6.8654684,7.09944751 L6.8654684,9.62707182 L9.97657951,9.62707182 L9.97657951,7.09944751 L10.745098,7.09944751 L10.745098,12.9005525 L9.97657951,12.9005525 L9.97657951,10.2403315 Z M12.6568627,7.09944751 L16.1846405,7.09944751 L16.1846405,7.71270718 L13.4253813,7.71270718 L13.4253813,9.61049724 L15.953159,9.61049724 L15.953159,10.2237569 L13.4253813,10.2237569 L13.4253813,12.2872928 L16.2309368,12.2872928 L16.2309368,12.9005525 L12.6568627,12.9005525 L12.6568627,7.09944751 Z M20.7674291,7.09944751 C20.8847137,7.08287284 21.0158852,7.07044203 21.1609477,7.0621547 C21.3060102,7.05386736 21.4572432,7.04834254 21.6146514,7.04558011 C21.7720596,7.04281768 21.926379,7.04005525 22.0776143,7.03729282 C22.2288497,7.03453039 22.3692805,7.03314917 22.4989106,7.03314917 C23.0174317,7.03314917 23.4665011,7.10497164 23.8461328,7.24861878 C24.2257645,7.39226593 24.539033,7.59254015 24.7859476,7.84944751 C25.0328623,8.10635488 25.2165027,8.41436285 25.3368736,8.77348066 C25.4572445,9.13259848 25.5174291,9.52762215 25.5174291,9.95856354 C25.5174291,10.3508307 25.4603309,10.7278988 25.3461328,11.089779 C25.2319348,11.4516593 25.0513808,11.7720981 24.8044662,12.051105 C24.5575516,12.3301119 24.236567,12.5538666 23.8415032,12.7223757 C23.4464394,12.8908848 22.9680495,12.9751381 22.406318,12.9751381 C22.3075521,12.9751381 22.179467,12.9737569 22.0220588,12.9709945 C21.8646506,12.968232 21.7026152,12.9627072 21.5359477,12.9544199 C21.3692802,12.9461326 21.2149607,12.9392266 21.0729847,12.9337017 C20.9310087,12.9281767 20.8291578,12.9198895 20.7674291,12.9088398 L20.7674291,7.09944751 Z M22.5174291,7.64640884 L22.2535402,7.64640884 C22.1578608,7.64640884 22.0637259,7.64917122 21.9711328,7.65469613 C21.8785398,7.66022104 21.7936641,7.66574581 21.7165032,7.67127072 C21.6393424,7.67679563 21.5791578,7.6823204 21.5359477,7.6878453 L21.5359477,12.3287293 C21.566812,12.3342542 21.6254534,12.3383978 21.7118736,12.3411602 C21.7982938,12.3439227 21.887799,12.3466851 21.9803921,12.3494475 C22.0729851,12.3522099 22.1624904,12.3549724 22.2489106,12.3577348 C22.3353309,12.3604972 22.3939723,12.3618785 22.4248365,12.3618785 C22.8569374,12.3618785 23.2195881,12.2955808 23.5127995,12.1629834 C23.8060109,12.0303861 24.0405762,11.852211 24.2165032,11.628453 C24.3924302,11.404695 24.5174286,11.1477915 24.5915032,10.8577348 C24.6655778,10.5676781 24.7026143,10.2679574 24.7026143,9.95856354 C24.7026143,9.68784397 24.6686642,9.41574724 24.6007625,9.14226519 C24.5328607,8.86878315 24.4155783,8.62154807 24.2489106,8.40055249 C24.0822429,8.17955691 23.8584801,7.99861948 23.5776143,7.85773481 C23.2967486,7.71685014 22.9433571,7.64640884 22.5174291,7.64640884 Z M26.892157,10 C26.892157,9.03314434 27.1205495,8.29143904 27.5773422,7.77486188 C28.0341344,7.25828471 28.6853622,7 29.5310459,7 C29.9878381,7 30.3828957,7.07182247 30.7162311,7.21546961 C31.0495659,7.35911676 31.3257979,7.56215336 31.5449348,7.82458564 C31.7640716,8.08701791 31.9261071,8.40193186 32.0310459,8.76933702 C32.1359847,9.13674217 32.1884533,9.54695907 32.1884533,10 C32.1884533,10.9668557 31.9585171,11.708561 31.4986385,12.2251381 C31.0387594,12.7417153 30.3829019,13 29.5310459,13 C29.080426,13 28.6899981,12.9281775 28.3597496,12.7845304 C28.0295006,12.6408832 27.7548124,12.4378466 27.5356755,12.1754144 C27.3165387,11.9129821 27.1545032,11.5980681 27.0495644,11.230663 C26.9446256,10.8632578 26.892157,10.4530409 26.892157,10 Z M27.7069718,10 C27.7069718,10.3204436 27.7424651,10.624308 27.8134533,10.9116022 C27.884441,11.1988965 27.9940078,11.4516564 28.142157,11.6698895 C28.2903057,11.8881227 28.4801184,12.0621541 28.7116014,12.191989 C28.943084,12.3218238 29.2162295,12.3867403 29.5310459,12.3867403 C30.1051225,12.3867403 30.5557352,12.1919909 30.8828977,11.8024862 C31.2100598,11.4129815 31.3736385,10.8121587 31.3736385,10 C31.3736385,9.68508131 31.3381447,9.38259816 31.267157,9.09254144 C31.1961688,8.80248476 31.0850587,8.54834365 30.9338237,8.3301105 C30.7825881,8.11187735 30.5912321,7.93784595 30.3597496,7.80801105 C30.1282666,7.67817615 29.8520351,7.61325967 29.5310459,7.61325967 C28.9631416,7.61325967 28.5171585,7.80800912 28.1930829,8.19751381 C27.8690068,8.58701851 27.7069718,9.18784125 27.7069718,10 Z M33.5631807,10 C33.5631807,9.03314434 33.7915737,8.29143904 34.2483658,7.77486188 C34.7051585,7.25828471 35.3563864,7 36.2020695,7 C36.6588622,7 37.0539198,7.07182247 37.3872547,7.21546961 C37.7205896,7.35911676 37.9968216,7.56215336 38.2159584,7.82458564 C38.4350953,8.08701791 38.5971308,8.40193186 38.7020695,8.76933702 C38.8070083,9.13674217 38.8594769,9.54695907 38.8594769,10 C38.8594769,10.9668557 38.6295412,11.708561 38.1696621,12.2251381 C37.7097835,12.7417153 37.053926,13 36.2020695,13 C35.7514502,13 35.3610217,12.9281775 35.0307732,12.7845304 C34.7005248,12.6408832 34.425836,12.4378466 34.2066992,12.1754144 C33.9875623,11.9129821 33.8255268,11.5980681 33.7205881,11.230663 C33.6156493,10.8632578 33.5631807,10.4530409 33.5631807,10 Z M34.3779955,10 C34.3779955,10.3204436 34.4134893,10.624308 34.484477,10.9116022 C34.5554651,11.1988965 34.665032,11.4516564 34.8131807,11.6698895 C34.9613298,11.8881227 35.1511426,12.0621541 35.3826251,12.191989 C35.6141076,12.3218238 35.8872532,12.3867403 36.2020695,12.3867403 C36.7761467,12.3867403 37.2267594,12.1919909 37.5539214,11.8024862 C37.8810834,11.4129815 38.0446621,10.8121587 38.0446621,10 C38.0446621,9.68508131 38.0091688,9.38259816 37.9381806,9.09254144 C37.867193,8.80248476 37.7560829,8.54834365 37.6048473,8.3301105 C37.4536122,8.11187735 37.2622558,7.93784595 37.0307732,7.80801105 C36.7992907,7.67817615 36.5230587,7.61325967 36.2020695,7.61325967 C35.6341657,7.61325967 35.1881822,7.80800912 34.8641066,8.19751381 C34.540031,8.58701851 34.3779955,9.18784125 34.3779955,10 Z M40.5027233,7.09944751 C40.6200078,7.08287284 40.7511791,7.07044203 40.8962419,7.0621547 C41.0413041,7.05386736 41.1925371,7.04834254 41.3499456,7.04558011 C41.5073535,7.04281768 41.6616729,7.04005525 41.8129085,7.03729282 C41.9641436,7.03453039 42.1045747,7.03314917 42.2342048,7.03314917 C42.7527259,7.03314917 43.2017954,7.10497164 43.581427,7.24861878 C43.9610587,7.39226593 44.2743267,7.59254015 44.5212419,7.84944751 C44.7681565,8.10635488 44.9517969,8.41436285 45.0721678,8.77348066 C45.1925387,9.13259848 45.2527233,9.52762215 45.2527233,9.95856354 C45.2527233,10.3508307 45.1956251,10.7278988 45.081427,11.089779 C44.967229,11.4516593 44.786675,11.7720981 44.5397604,12.051105 C44.2928452,12.3301119 43.9718612,12.5538666 43.5767974,12.7223757 C43.1817336,12.8908848 42.7033432,12.9751381 42.1416122,12.9751381 C42.0428463,12.9751381 41.9147609,12.9737569 41.757353,12.9709945 C41.5999445,12.968232 41.437909,12.9627072 41.2712419,12.9544199 C41.1045742,12.9461326 40.9502547,12.9392266 40.8082789,12.9337017 C40.6663026,12.9281767 40.5644517,12.9198895 40.5027233,12.9088398 L40.5027233,7.09944751 Z M42.2527233,7.64640884 L41.9888344,7.64640884 C41.8931549,7.64640884 41.7990201,7.64917122 41.706427,7.65469613 C41.6138339,7.66022104 41.5289584,7.66574581 41.4517974,7.67127072 C41.3746364,7.67679563 41.3144517,7.6823204 41.2712419,7.6878453 L41.2712419,12.3287293 C41.3021061,12.3342542 41.3607475,12.3383978 41.4471678,12.3411602 C41.533588,12.3439227 41.6230932,12.3466851 41.7156863,12.3494475 C41.8082794,12.3522099 41.8977846,12.3549724 41.9842048,12.3577348 C42.0706251,12.3604972 42.1292665,12.3618785 42.1601307,12.3618785 C42.5922316,12.3618785 42.9548823,12.2955808 43.2480937,12.1629834 C43.5413051,12.0303861 43.7758705,11.852211 43.9517974,11.628453 C44.1277244,11.404695 44.2527228,11.1477915 44.3267974,10.8577348 C44.400872,10.5676781 44.4379085,10.2679574 44.4379085,9.95856354 C44.4379085,9.68784397 44.4039584,9.41574724 44.3360567,9.14226519 C44.2681549,8.86878315 44.150872,8.62154807 43.9842048,8.40055249 C43.8175371,8.17955691 43.5937743,7.99861948 43.3129085,7.85773481 C43.0320428,7.71685014 42.6786513,7.64640884 42.2527233,7.64640884 Z M50.7293025,12.9005525 L46.8959692,12.9005525 L46.8959692,7.09944751 L47.6644877,7.09944751 L47.6644877,12.2872928 L50.7293025,12.2872928 L50.7293025,12.9005525 Z M52.0206971,7.09944751 L55.5484749,7.09944751 L55.5484749,7.71270718 L52.7892156,7.71270718 L52.7892156,9.61049724 L55.3169934,9.61049724 L55.3169934,10.2237569 L52.7892156,10.2237569 L52.7892156,12.2872928 L55.5947712,12.2872928 L55.5947712,12.9005525 L52.0206971,12.9005525 L52.0206971,7.09944751 Z M63.9645968,12.9005525 L60.1312634,12.9005525 L60.1312634,7.09944751 L60.8997819,7.09944751 L60.8997819,12.2872928 L63.9645968,12.2872928 L63.9645968,12.9005525 Z M65.4319172,7.09944751 L66.2004357,7.09944751 L66.2004357,12.9005525 L65.4319172,12.9005525 L65.4319172,7.09944751 Z M72.1955335,8.42541436 C72.1955335,8.5635366 72.1708426,8.70441915 72.1214594,8.8480663 C72.0720767,8.99171344 71.9980031,9.12569001 71.8992372,9.25 C71.8004712,9.37431004 71.6739296,9.48342495 71.5196075,9.57734807 C71.365286,9.67127118 71.1831888,9.74309369 70.9733113,9.79281768 L70.9733113,9.82596685 C71.1584975,9.8535913 71.3359651,9.90055216 71.5057187,9.96685083 C71.6754728,10.0331495 71.8251626,10.1243088 71.9547927,10.2403315 C72.0844234,10.3563542 72.1893606,10.4972367 72.2696075,10.6629834 C72.349855,10.8287301 72.3899779,11.0248607 72.3899779,11.2513812 C72.3899779,11.5497252 72.3205345,11.8080099 72.1816446,12.0262431 C72.0427552,12.2444762 71.8606585,12.4226512 71.6353483,12.5607735 C71.4100386,12.6988957 71.1523251,12.8011047 70.8622001,12.8674033 C70.5720757,12.933702 70.2757819,12.9668508 69.9733113,12.9668508 L69.6029409,12.9668508 C69.4609651,12.9668508 69.3128185,12.9627072 69.1584964,12.9544199 C69.0041749,12.9461326 68.8498555,12.935083 68.6955335,12.9212707 C68.541212,12.9074585 68.4054111,12.8867405 68.2881261,12.859116 L68.2881261,7.14917127 C68.5165227,7.11602192 68.7819517,7.08839788 69.0844224,7.06629834 C69.386893,7.0441988 69.7171369,7.03314917 70.0751631,7.03314917 C70.3159054,7.03314917 70.5612732,7.05110479 70.8112742,7.08701657 C71.0612758,7.12292836 71.288125,7.19198844 71.4918298,7.2941989 C71.6955345,7.39640935 71.8637428,7.53867311 71.9964594,7.72099448 C72.1291765,7.90331584 72.1955335,8.13812012 72.1955335,8.42541436 Z M70.0473853,12.3701657 C70.2449172,12.3701657 70.4362737,12.3494477 70.6214594,12.308011 C70.8066456,12.2665744 70.9702243,12.2002767 71.1122001,12.109116 C71.2541765,12.0179553 71.3668298,11.906078 71.4501631,11.7734807 C71.533497,11.6408833 71.5751631,11.4834263 71.5751631,11.301105 C71.5751631,11.0745845 71.5242377,10.8922659 71.4223853,10.7541436 C71.320533,10.6160214 71.1878185,10.5082877 71.0242372,10.4309392 C70.8606564,10.3535908 70.677016,10.3011051 70.4733113,10.2734807 C70.2696065,10.2458562 70.0659049,10.2320442 69.8622001,10.2320442 L69.0566446,10.2320442 L69.0566446,12.3121547 C69.099855,12.3232045 69.1615829,12.3314917 69.2418298,12.3370166 C69.3220772,12.3425415 69.4084964,12.3480663 69.501089,12.3535912 C69.5936821,12.3591161 69.6893601,12.3632597 69.7881261,12.3660221 C69.886892,12.3687845 69.9733113,12.3701657 70.0473853,12.3701657 Z M69.5381261,9.6519337 C69.6430649,9.6519337 69.769607,9.64917132 69.9177557,9.64364641 C70.0659049,9.6381215 70.1893601,9.6298343 70.2881261,9.61878453 C70.4362752,9.57458541 70.5751626,9.52071855 70.7047927,9.45718232 C70.8344234,9.39364609 70.9501626,9.31906119 71.052015,9.23342541 C71.1538673,9.14778964 71.2341137,9.04834309 71.2927557,8.93508287 C71.3513982,8.82182265 71.3807187,8.69889567 71.3807187,8.56629834 C71.3807187,8.38397698 71.3421389,8.23342601 71.2649779,8.11464088 C71.1878174,7.99585576 71.0844234,7.90055285 70.9547927,7.82872928 C70.8251626,7.75690571 70.677016,7.70580124 70.5103483,7.67541436 C70.3436811,7.64502749 70.1739296,7.62983425 70.001089,7.62983425 C69.7973843,7.62983425 69.610658,7.63397785 69.4409038,7.64226519 C69.2711502,7.65055253 69.1430649,7.66298333 69.0566446,7.67955801 L69.0566446,9.6519337 L69.5381261,9.6519337 Z M74.0332243,7.15745856 C74.2677932,7.11878435 74.5378524,7.08839788 74.8434095,7.06629834 C75.1489666,7.0441988 75.428285,7.03314917 75.6813725,7.03314917 C75.9653246,7.03314917 76.2353838,7.0607732 76.4915576,7.1160221 C76.747732,7.17127099 76.9730381,7.26243029 77.1674836,7.38950276 C77.361929,7.51657523 77.5177917,7.68231943 77.6350762,7.88674033 C77.7523606,8.09116123 77.8110021,8.33977753 77.8110021,8.63259669 C77.8110021,9.08563762 77.6721147,9.45303725 77.3943354,9.73480663 C77.1165561,10.016576 76.7647078,10.2044194 76.3387799,10.2983425 L76.7832243,10.6049724 L78.3943354,12.9005525 L77.4961873,12.9005525 L75.7091502,10.3977901 L74.8017428,10.2734807 L74.8017428,12.9005525 L74.0332243,12.9005525 L74.0332243,7.15745856 Z M75.699891,7.62983425 L75.449891,7.62983425 C75.3634707,7.62983425 75.2801384,7.63259664 75.199891,7.63812155 C75.1196436,7.64364645 75.0440273,7.64917122 74.9730391,7.65469613 C74.902051,7.66022104 74.8449527,7.66850824 74.8017428,7.67955801 L74.8017428,9.81767956 L75.5239651,9.81767956 C75.949893,9.81767956 76.3017413,9.72375783 76.5795206,9.5359116 C76.8572999,9.34806538 76.9961873,9.0552506 76.9961873,8.65745856 C76.9961873,8.35911455 76.8819908,8.11326064 76.6535947,7.9198895 C76.4251986,7.72651837 76.1073004,7.62983425 75.699891,7.62983425 Z M82.722767,11.2928177 L80.3338781,11.2928177 L79.68573,12.9005525 L78.9264707,12.9005525 L81.3801744,7.00828729 L81.7320263,7.00828729 L84.1949892,12.9005525 L83.3894337,12.9005525 L82.722767,11.2928177 Z M80.5838781,10.6961326 L82.4912855,10.6961326 L81.7690633,8.93093923 L81.5375818,8.05248619 L81.5283226,8.05248619 L81.2968411,8.94751381 L80.5838781,10.6961326 Z M85.3937907,7.15745856 C85.6283596,7.11878435 85.8984187,7.08839788 86.2039758,7.06629834 C86.5095329,7.0441988 86.7888514,7.03314917 87.0419388,7.03314917 C87.325891,7.03314917 87.5959501,7.0607732 87.852124,7.1160221 C88.1082984,7.17127099 88.3336044,7.26243029 88.5280499,7.38950276 C88.7224954,7.51657523 88.878358,7.68231943 88.9956425,7.88674033 C89.112927,8.09116123 89.1715684,8.33977753 89.1715684,8.63259669 C89.1715684,9.08563762 89.0326811,9.45303725 88.7549018,9.73480663 C88.477123,10.016576 88.1252742,10.2044194 87.6993462,10.2983425 L88.1437906,10.6049724 L89.7549018,12.9005525 L88.8567536,12.9005525 L87.0697166,10.3977901 L86.1623092,10.2734807 L86.1623092,12.9005525 L85.3937907,12.9005525 L85.3937907,7.15745856 Z M87.0604573,7.62983425 L86.8104573,7.62983425 C86.7240371,7.62983425 86.6407047,7.63259664 86.5604573,7.63812155 C86.4802099,7.64364645 86.4045936,7.64917122 86.3336055,7.65469613 C86.2626178,7.66022104 86.2055196,7.66850824 86.1623092,7.67955801 L86.1623092,9.81767956 L86.8845314,9.81767956 C87.3104594,9.81767956 87.6623081,9.72375783 87.9400869,9.5359116 C88.2178663,9.34806538 88.3567536,9.0552506 88.3567536,8.65745856 C88.3567536,8.35911455 88.2425571,8.11326064 88.014161,7.9198895 C87.7857649,7.72651837 87.4678668,7.62983425 87.0604573,7.62983425 Z M92.1111111,10.5966851 L89.9722222,7.09944751 L90.8703704,7.09944751 L92.3888889,9.63535912 L92.5462963,10.140884 L92.5555556,10.140884 L92.7222222,9.61878453 L94.1759259,7.09944751 L95,7.09944751 L92.8796296,10.5883978 L92.8796296,12.9005525 L92.1111111,12.9005525 L92.1111111,10.5966851 Z" id="the-Doodle-Library" fill="#666666" fill-rule="nonzero" opacity="0.595278533"></path>
            </g>
        </g>
        <g id="entering" transform="translate(287.000000, 261.000000)">
            <g id="Fill-646" transform="translate(0.000000, 61.000000)">
                <mask id="mask-2" fill="white">
                    <use xlink:href="#path-1"></use>
                </mask>
                <use id="Mask" fill="#FFFFFF" xlink:href="#path-1"></use>
                <path d="M63.5607873,235.150754 C63.3757321,237.482123 63.1323918,239.803361 62.9021657,242.13473 C62.2712296,246.408181 61.5761798,250.665715 60.7266745,254.913118 C59.6396575,260.35153 57.3854815,281.827735 57.1246557,288.075108 C57.0270281,290.50633 56.9702002,292.936105 56.8958867,295.367327 C56.7603738,300.239902 56.2751504,305.938802 59.2695472,310.064644 L61.5922082,313.050127 C63.4471313,314.88078 65.6328224,316.147041 68.1551099,316.848912 C73.3803686,318.278702 78.7309403,316.695513 82.6127276,313.050127 C84.0975404,311.65941 85.293842,309.963343 86.380859,308.244122 C89.206229,303.781092 88.9512317,298.196517 86.5120005,293.775455 C86.5120005,292.038868 86.5498858,290.303728 86.5848569,288.567141 C86.6649989,284.820454 88.0842409,266.989635 89.2951138,260.910132 C90.9853815,252.419668 92.123398,243.777252 92.8067907,235.150754 C93.1025876,231.464848 91.0757234,227.411364 88.5257505,224.878841 C85.7936367,222.165423 82.0488194,220.622754 78.1845176,220.622754 C74.3187587,220.622754 70.5739413,222.165423 67.8418275,224.878841 C64.9392298,227.761575 63.8740697,231.181205 63.5607873,235.150754 Z" fill="#2C2C2C" mask="url(#mask-2)"></path>
            </g>
            <path d="M116.386405,117.311392 C118.225752,117.669059 120.027766,118.138765 121.802499,118.74493 C122.635303,119.168671 123.442261,119.62545 124.231988,120.123884 C124.473214,120.350837 124.708697,120.583536 124.941307,120.820543 C125.232789,121.293122 125.507039,121.77432 125.766932,122.267009 C126.68158,124.97177 127.290388,127.75697 127.792942,130.576643 C128.370161,135.444638 128.72482,140.283905 128.334264,145.193556 C127.821659,147.934228 127.082187,150.597333 126.121591,153.217345 C124.885308,155.800012 123.472414,158.259146 121.847011,160.620605 C120.761495,161.873155 119.6128,163.046702 118.377954,164.155611 C117.101467,165.007403 115.779032,165.764391 114.403471,166.450995 C111.92947,167.320024 109.415265,167.959226 106.836445,168.431805 C104.689822,168.61423 102.550379,168.658758 100.398012,168.522299 C98.8185573,168.210598 97.2735631,167.799785 95.7486711,167.28555 C94.8799709,166.833081 94.0385521,166.344701 93.2129279,165.817538 C92.6084274,165.254465 92.0326442,164.666974 91.479835,164.055063 C90.7791313,162.960518 90.161708,161.835808 89.59454,160.672316 C88.8378375,158.507645 88.2721054,156.307064 87.8600113,154.0519 C87.7279114,152.61118 87.6532462,151.179079 87.666169,149.742669 C92.4246362,144.297236 92.6859643,136.093896 88.0409306,130.532115 C88.0969295,130.444494 88.1543642,130.358309 88.211799,130.270688 C90.0755559,128.014087 92.0671051,125.855162 94.2611117,123.92319 C95.7156461,122.965104 97.2175643,122.137732 98.7869682,121.389362 C103.34585,119.652742 108.049754,118.199094 112.836938,117.269737 C114.022966,117.21228 115.200378,117.23239 116.386405,117.311392 M112.0788,88.0861846 C109.63926,88.2829729 107.165259,88.6636216 104.781718,89.2310038 C102.874885,89.6849095 101.001077,90.190526 99.1172179,90.7176886 C96.8054701,91.3568913 94.5569005,92.2216104 92.3126385,93.0461101 C89.3461348,94.1291636 86.4298865,95.3917684 83.5911751,96.7721589 C80.0244785,98.5001607 76.838287,101.075645 73.8660398,103.656874 C71.6160344,105.608956 69.691971,107.925886 67.7908815,110.209779 C65.7605639,112.65024 63.6742474,115.107939 62.2268923,117.947722 C61.0265065,120.299126 60.2310355,122.756825 59.5576133,125.286344 C58.536711,129.140233 59.1929028,133.111908 61.0882488,136.351014 C58.9789584,140.18623 58.3959959,144.261326 58.0600028,148.566248 C57.8575454,151.141732 58.2050255,153.767491 58.5424545,156.315683 C59.0636746,160.1983 59.6193556,163.895621 60.7967675,167.633161 C61.8119264,170.853593 63.2765119,173.995023 64.8243778,176.997121 C66.3047579,179.858451 68.4815341,182.400897 70.5621071,184.841359 C72.6311932,187.271765 75.3751373,189.19081 77.9539566,191.013615 C80.9893819,193.162485 84.6738197,194.531384 88.145749,195.755206 C91.2357374,196.849751 94.4664408,197.208853 97.6971442,197.639776 C100.209914,197.977333 102.672428,198.060645 105.202427,197.960096 C108.66287,197.825073 112.129055,197.230399 115.533499,196.624234 C118.461234,196.102817 121.299946,195.199315 124.053941,194.094715 C127.166903,192.842165 130.144894,191.50774 132.983605,189.723718 C135.770625,187.966988 138.362367,185.783644 140.734422,183.505497 C143.100732,181.238841 145.042026,178.489552 146.98332,175.875285 C148.676209,173.597138 150.061821,171.116457 151.329693,168.586938 C153.93723,163.391441 155.961804,157.852642 156.955425,152.124237 C158.065351,145.710664 158.273552,139.470897 157.661872,133.00705 C156.870708,124.685924 155.5253,116.337506 151.929886,108.72884 C146.477894,97.1815359 134.363474,90.3700773 122.050905,88.6923499 C119.401728,88.3318108 116.888959,88 114.291473,88 C113.562052,88 112.826887,88.0272918 112.0788,88.0861846" id="Fill-640" fill="#2C2C2C"></path>
            <path d="M102.080481,221.639858 C108.545176,220.819694 114.829335,219.680738 120.904069,217.530342 C120.21947,220.227031 119.552202,222.928067 118.85316,225.613164 C117.245652,231.812216 115.700249,238.021412 114.164956,244.230608 C112.658549,250.309389 111.181028,256.399762 109.696285,262.479992 C108.95247,265.512861 108.071445,268.519648 107.25397,271.536578 C106.062421,275.961989 104.794324,280.338131 103.152153,284.614289 C103.131932,284.65921 103.110268,284.70558 103.088603,284.751949 C102.512327,284.683844 101.937495,284.615738 101.369884,284.554878 C99.8649212,284.401278 98.3642914,284.225943 96.8651059,284.040464 C95.5637898,283.815861 94.274028,283.578216 92.9929321,283.289854 C91.9487017,272.972591 91.677173,262.558241 91.1066737,252.217792 C90.7571526,245.928899 90.5029554,239.600881 89.8717954,233.333723 C89.5497161,230.164642 89.2623,226.983969 88.9070017,223.813439 C88.8217878,223.065727 88.7250196,222.312219 88.6253628,221.551466 C91.1355597,221.819541 93.6472009,221.996326 96.1761738,221.996326 C98.1288702,221.996326 100.093121,221.891994 102.080481,221.639858 M88.0100901,212.758607 C87.9927585,212.796283 87.9768711,212.836856 87.9609838,212.874532 C87.9768711,212.836856 87.9927585,212.796283 88.0100901,212.758607 M115.401278,186.280046 C115.128305,186.790113 114.845222,187.28569 114.546251,187.771123 C114.385934,187.933417 114.222728,188.092813 114.058077,188.25076 C113.405253,188.64925 112.740874,189.018758 112.062052,189.36798 C108.360306,190.65474 104.489576,191.483599 100.621735,192.112488 C97.2420687,192.41679 93.920174,192.33999 90.5405073,192.029892 C89.8140233,191.921213 89.0875394,191.812534 88.3596112,191.702406 C85.9331838,191.345939 83.4966462,190.921366 81.042777,190.85326 C79.0727491,190.796747 76.7604215,191.186543 74.9261579,191.503886 C72.4838432,191.928458 70.3390546,192.976124 68.0541688,193.960032 C66.305119,194.719336 64.8391525,196.207514 63.4843972,197.537746 C61.2399518,199.746104 60.3878136,201.935624 59.2641466,204.8062 C58.1534783,207.663734 57.9281672,210.982067 58.0177139,214.043918 C58.0971506,216.743505 58.5087766,219.460481 58.7904155,222.144129 C59.5804487,229.553141 60.2520492,236.979542 60.6420107,244.417536 C61.0695242,252.624977 61.4652629,260.832418 61.8999978,269.039858 C62.0964229,272.787112 62.3852833,276.528569 62.6726994,280.26423 C63.0164433,284.88816 63.2359772,289.733796 64.4997415,294.19978 C65.2117824,296.6965 66.0682535,299.339574 67.5688833,301.462438 C68.7763198,303.178118 69.6515669,304.411263 71.1290879,305.656 C72.8044782,307.065929 74.2097841,308.141127 76.0541578,309.126484 C80.0880934,311.282676 84.4325539,312.330342 88.88967,313.049073 C93.5215467,313.802581 98.2386371,314.328587 102.921064,314.679258 C104.749551,314.815469 106.576593,314.956028 108.405079,314.996601 C110.294226,315.041522 112.213704,314.634338 114.040746,314.180784 C117.026118,313.434521 119.10158,311.831867 121.426906,309.952445 C123.958768,307.903483 125.860914,304.943066 127.45109,302.113063 C129.054265,299.271469 130.176488,296.067611 131.412811,293.073866 C132.422378,290.606127 133.218188,288.052894 134.012554,285.511254 C134.645159,283.497069 135.157886,281.446657 135.705276,279.403492 C139.812871,264.160894 143.316748,248.764697 147.362238,233.498915 C149.020297,227.254942 150.600363,220.977641 152.433183,214.785834 C154.687738,207.186995 149.973536,198.983902 142.600374,196.636434 C143.059662,194.416484 143.023555,192.119733 142.39095,189.822983 C141.375606,186.114854 138.910183,182.906649 135.604175,180.964917 C133.346731,179.640482 130.771541,179 128.199239,179 C123.066189,179 117.944694,181.547437 115.401278,186.280046" id="Fill-642" fill="#2C2C2C"></path>
            <path d="M106.571252,290.798747 C100.184485,294.562742 98.1861801,302.853758 101.760999,309.276542 C103.50024,312.40075 105.101488,315.555112 106.576459,318.816979 C107.929058,321.823194 109.236093,324.880539 110.796984,327.789736 C114.137473,334.022419 117.7891,340.080735 121.018934,346.375037 C124.263088,352.694249 127.486413,359.018705 130.92454,365.230412 C134.347045,371.406721 137.753927,377.577785 140.667418,384.020235 C141.251938,385.310298 141.824742,386.602984 142.388434,387.899602 C143.216396,389.944824 144.026133,392.005779 144.705687,394.104754 C145.804429,397.500347 147.746756,400.332193 150.859426,402.159782 C153.951266,403.983439 157.718755,404.480323 161.171202,403.521953 C164.518201,402.595048 167.421276,400.342681 169.17614,397.325978 C169.623968,396.250926 170.075702,395.179806 170.523531,394.104754 C171.158823,391.713417 171.158823,389.326013 170.523531,386.934677 C170.280089,385.341763 169.715096,383.826201 169.14099,382.326372 C168.16462,379.7646 167.101026,377.235604 166.023113,374.715785 C164.568972,371.30446 162.997666,367.959997 161.384702,364.616845 C158.344934,358.301566 154.733664,352.243251 151.38276,346.087919 C148.040969,339.947008 144.990787,333.654017 141.648996,327.513107 C138.369692,321.484945 134.672502,315.708504 131.764219,309.481064 C129.577148,304.805896 127.430435,300.155638 124.914002,295.643039 C122.525148,291.359872 117.915377,289 113.265249,289 C110.954505,289 108.634648,289.580791 106.571252,290.798747" id="Fill-644" fill="#2C2C2C" transform="translate(135.500000, 346.500000) rotate(6.000000) translate(-135.500000, -346.500000) "></path>
            <path d="M55.3536462,207.288453 C51.7992836,213.580986 48.1140856,219.801141 44.5640842,226.095122 C40.5270842,233.241714 36.5860302,240.401334 32.7699967,247.666626 C28.8798232,255.079568 25.6714476,262.832687 22.4456273,270.551064 C21.1678013,273.609754 20.0106345,276.719107 18.8970796,279.847279 C17.0915507,284.918074 16.2512964,290.54473 17.8402201,295.786336 C20.4016871,304.212569 29.7709579,310.131633 38.5049499,307.271259 C44.6891047,305.246126 49.1753063,299.998729 49.1753063,293.321146 C49.1753063,291.132439 48.6679556,288.982816 47.7259405,287.034403 C48.4993232,284.867409 49.400634,282.735157 50.2321659,280.615933 C50.9473996,278.7978 51.7018839,276.995591 52.4636369,275.196277 C54.3505746,271.150353 56.1415663,267.047975 58.2160347,263.09759 C60.6001471,258.552259 62.9522774,253.9939 65.4730401,249.520947 C70.623595,240.405677 75.8933555,231.358442 81.0439104,222.244619 C85.0184001,215.203698 82.7869291,206.101456 75.7058247,201.973022 C73.4132972,200.638374 70.8387466,200.000001 68.2787333,200.000001 C63.1165486,199.998553 58.0066981,202.589681 55.3536462,207.288453" id="Fill-648" fill="#2C2C2C"></path>
            <path d="M118,201.799956 C118,205.947077 119.69196,209.205011 122.328406,212.259868 C122.778919,212.782066 123.225087,213.304264 123.668357,213.827912 C124.570833,215.134857 125.444336,216.460659 126.335223,217.777758 C128.032978,220.282857 129.871246,222.731385 131.964468,224.91156 C134.183718,227.229538 136.927359,229.128308 139.542075,230.941495 C143.389547,233.604703 147.412299,236.102549 151.4872,238.403121 C155.283971,240.545582 163.517792,244.053011 167.501432,245.831385 C170.387035,247.129626 173.295817,248.443824 176.282822,249.498374 C177.656092,249.984308 179.045295,250.418022 180.417116,250.909758 C182.846412,252.308088 185.365521,252.994198 188.07005,253 C192.024718,253 195.867844,251.407297 198.662186,248.607736 C204.372553,242.885319 204.518861,233.088308 198.662186,227.387648 C197.31644,226.079253 195.79976,224.786813 194.125183,223.909231 C192.596913,223.11578 190.973037,222.538462 189.388273,221.869758 C188.262713,221.39978 187.067622,221.076308 185.90295,220.71367 C184.352952,220.232088 182.831926,219.679429 181.326835,219.087604 C177.412727,217.304879 169.242644,213.926549 165.463257,211.86822 C163.414942,210.752747 161.428916,209.516879 159.442891,208.298418 C157.556818,207.140879 155.659157,205.994945 153.836823,204.744571 C153.121217,204.100527 152.446171,203.427473 151.801545,202.710901 C150.935285,201.46633 150.095099,200.202901 149.25781,198.938022 C147.464448,196.253055 145.33646,193.776967 143.23165,191.334242 C140.76469,188.47811 136.440631,187 132.780028,187 C128.876061,187 125.08943,188.569495 122.328406,191.334242 C119.573176,194.093187 118,197.890725 118,201.799956 Z" id="Fill-650" fill="#2C2C2C"></path>
            <path d="M193.447423,14.7816147 C193.712368,22.4947693 193.171143,30.2093727 193.049297,37.9167323 C192.92745,45.9355736 193.049297,53.9442736 193.220732,61.9573198 C193.557935,77.7009057 194.138831,93.4111704 194.892579,109.137371 C195.246784,116.478197 195.445139,123.817573 195.755422,131.158399 C196.092625,139.364129 196.463832,147.564064 196.646602,155.769794 C196.823704,163.630722 196.69619,171.495995 196.6296,179.356923 C196.563009,187.274351 196.69619,195.185985 196.850624,203.097619 C197.15524,218.387745 196.956885,233.67932 196.87896,248.969447 C196.840706,256.518893 196.97247,264.085723 196.740112,271.629374 C196.490751,279.552598 195.965111,287.446846 195.500395,295.35848 C195.30629,298.692058 195.090934,302.035777 195.185861,305.37515 C195.273704,308.679753 195.528731,311.968419 195.656245,315.273022 C195.926857,322.183568 195.965111,329.024574 195.589654,335.935121 C195.218448,342.674714 194.59363,349.482399 194.664471,356.239377 C194.704142,359.510659 195.05268,362.731234 195.450806,365.973541 C195.873018,369.43316 196.436912,372.962319 196.275395,376.453811 C196.191803,377.081121 196.10821,377.711328 196.026035,378.338637 C196.037369,380.986956 196.690523,383.455629 197.991163,385.747554 C199.867032,389.028977 202.982619,391.480265 206.570006,392.492942 C214.019643,394.592184 222.265532,389.979358 224.224994,382.238677 C225.181347,378.469025 225.403788,374.763118 225.104839,370.925374 C224.977325,369.272348 224.771886,367.620771 224.584866,365.973541 C224.179656,362.408162 223.815533,358.848579 223.897709,355.24988 C224.069144,347.77432 224.62312,340.314697 224.8994,332.844933 C225.187014,324.950684 224.866813,317.128873 224.362425,309.25201 C223.876456,301.622883 224.594784,293.960434 225.070835,286.348692 C226.034272,271.119413 225.735323,255.851018 225.845835,240.594213 C225.906759,232.688374 226.022938,224.782536 225.996018,216.870902 C225.967682,209.136016 225.796247,201.405476 225.712654,193.669142 C225.541219,177.880645 226.122115,162.102289 225.586557,146.313791 C225.059501,130.784621 224.472937,115.24386 223.654016,99.7262795 C222.89035,85.3184428 222.52481,70.899016 222.15502,56.4737942 C221.977918,49.6313395 221.966583,42.7946797 222.038841,35.9536736 C222.11535,28.8910086 222.597068,21.8442798 222.353375,14.7816147 C222.215944,10.8149323 220.898302,7.1698727 218.119918,4.3288704 C215.41946,1.57334446 211.717311,0 207.897566,0 C200.232572,0 193.171143,6.7280034 193.447423,14.7816147" id="Fill-652" fill="#2C2C2C"></path>
            <path d="M126.65284,47.3210456 C126.495579,47.4567554 126.331104,47.585169 126.162302,47.7048272 C126.325333,47.5764136 126.489808,47.4479999 126.65284,47.3210456 M191.802109,5.60120925 C178.59797,9.68271965 165.657856,15.5313767 154.437512,23.7279601 C148.631845,27.9743653 143.052693,32.5578562 137.423043,37.0435777 C134.954481,39.0106409 132.553728,41.0448295 130.242427,43.2118095 C128.466389,44.8724312 126.808658,46.6629257 125.057147,48.3556508 C119.459239,51.6316575 116.810331,58.7848803 118.50846,65.0260744 C119.524163,68.7369363 121.981183,71.9574917 125.260577,73.9070441 C128.473603,75.8055228 132.982228,76.6708555 136.583357,75.3998525 C140.184486,74.1288494 142.720858,72.6696037 145.56598,70.1100866 C145.99448,69.7175495 146.434522,69.3410641 146.85148,68.936853 C148.018672,67.8249077 149.178651,66.7012885 150.357386,65.6010172 C152.218547,63.8747295 154.161944,62.2549667 156.137083,60.665848 C159.46553,58.100494 162.782435,55.5220067 166.089241,52.9216308 C169.6644,50.1592786 173.303041,47.4392445 177.228791,45.2065984 C181.50946,42.7681988 185.85361,40.5720339 190.30741,38.5144974 C193.462726,37.3149974 196.628142,36.1899189 199.861367,35.1859578 C207.763363,32.7460989 212.700488,24.5495155 210.456996,16.3179101 C208.669416,9.74984495 202.406395,5.00145925 195.799997,5 C194.469773,5 193.126563,5.19262044 191.802109,5.60120925" id="Fill-654" fill="#2C2C2C"></path>
            <path d="M132.461333,349.82121 C130.552605,356.853454 134.749733,364.347238 141.673247,366.288075 C144.56679,367.096756 147.417573,367.977759 150.233368,369.007349 C151.846651,369.777898 153.430131,370.595784 155.036936,371.388687 C157.28387,372.498488 159.572271,373.500464 161.859376,374.506385 C166.582604,376.5774 171.117939,379.032373 175.668824,381.466308 C180.07717,383.829237 184.466078,386.232928 188.773351,388.786522 C190.945129,390.075153 193.13116,391.3388 195.353474,392.530127 C196.987491,393.4085 198.627986,394.265834 200.208875,395.223103 C201.178141,396.369721 202.322341,397.34014 203.64018,398.129097 C206.763082,399.983148 210.568876,400.486766 214.06238,399.516348 C221.1077,397.543954 225.531595,389.824001 223.50754,382.632651 C222.647122,379.582014 221.01181,376.710207 218.566616,374.686531 C216.952037,373.351877 215.46963,372.242076 213.712511,371.219061 C212.522958,370.536613 211.288051,369.93043 210.058327,369.329507 C207.376,368.014577 204.76883,366.586564 202.166844,365.117787 C196.776274,362.06715 191.263898,359.262405 185.767072,356.422157 C182.937022,354.957325 180.112156,353.509588 177.212134,352.189398 C174.610147,351.002017 171.938187,349.980316 169.366004,348.727188 C165.671649,346.92442 162.052452,344.992788 158.205191,343.534531 C155.077106,342.34715 151.90885,341.366212 148.688762,340.468115 C147.554929,340.151217 146.408137,340 145.275599,340 C139.487215,340 134.057771,343.940844 132.461333,349.82121" id="Fill-656" fill="#2C2C2C"></path>
        </g>
    </g>
</svg>