<?xml version="1.0" encoding="UTF-8"?>
<svg width="800px" height="1000px" viewBox="0 0 800 1000" version="1.1" xmlns="http://www.w3.org/2000/svg" xmlns:xlink="http://www.w3.org/1999/xlink">
    <!-- Generator: Sketch 53.2 (72643) - https://sketchapp.com -->
    <title>fireworks_DL</title>
    <desc>Created with Sketch.</desc>
    <g id="fireworks_DL" stroke="none" stroke-width="1" fill="none" fill-rule="evenodd">
        <g id="logo-footer" transform="translate(510.000000, 744.000000)">
            <g>
                <path d="M110.812545,8.25651402 C110.904572,8.56348079 110.810146,8.81874549 110.573746,9.09365441 C110.548096,9.12348237 110.524607,9.14951827 110.482164,9.19539003 C110.410296,9.27306357 110.388406,9.29969141 110.394575,9.28699974 C110.158488,9.77253772 109.949286,10.3963755 109.78094,11.1092981 C109.323962,13.0450464 110.241419,14.6677006 112.137009,15.2172501 C114.194676,15.8138908 116.608374,14.6870388 117.500673,12.7424366 C118.556971,10.4412591 118.361229,8.87677042 116.832238,7.67717368 C114.960938,6.20902274 112.357851,6.27012948 111.072216,7.83985899 L110.795491,8.1777337 C110.794947,8.20051389 110.804056,8.228204 110.812545,8.25651402 Z M110.106083,6.26944954 C110.423589,5.88663707 110.955421,5.49967933 111.419965,5.30848582 C112.37958,4.91358991 113.68037,4.90617957 115.133698,5.23840657 C117.932917,5.87841333 120.108577,8.22064492 119.995807,10.6570534 C119.760531,15.7499925 113.426094,19.0246323 109.732148,15.5763745 C107.943744,13.9068501 107.553768,11.8021869 108.499361,9.2850154 C108.62423,8.95356867 108.851111,8.49010331 109.049811,8.18524994 C109.270059,7.84733807 109.481086,7.64146186 109.750777,7.55562368 C109.778602,7.54676715 109.806094,7.5393618 109.833231,7.53336632 C109.647627,7.16965375 109.747904,6.70130236 110.106083,6.26944954 Z" id="Fill-4" fill="#000000" fill-rule="nonzero"></path>
                <path d="M116,2.36382675 C116.035222,2.23410526 116.077249,2.03952302 116.14169,1.8509661 C116.280178,1.44230796 116.378641,1.03435869 116.377039,0.600890425 C116.376639,0.410561355 116.256963,0.110004457 116.623996,0.0412449782 C116.938196,-0.017590452 117.272408,-0.0501980398 117.512961,0.20711836 C117.655051,0.358460099 117.796741,0.518308165 117.8896,0.694814455 C118.216208,1.3175485 117.776729,2.53572545 117.114308,2.89086461 C116.612389,3.15987721 116.012808,2.911776 116,2.36382675" id="Fill-103" fill="#000000" fill-rule="nonzero"></path>
                <path d="M113.597281,1.30015424 C113.547641,1.6054057 113.484683,1.90995301 113.451993,2.21696486 C113.409214,2.61727733 113.068594,2.79366831 112.724342,2.93802021 C112.426905,3.06335991 112.146418,3.01090032 112.073774,2.6669203 C111.908307,1.88389925 112.059649,1.1040469 112.154086,0.329475719 C112.197269,-0.0278832593 112.773982,-0.106396611 113.167067,0.152380579 C113.512933,0.380527 113.619074,0.676272361 113.597281,1.30015424" id="Fill-107" fill="#000000" fill-rule="nonzero"></path>
                <path d="M112.19066,11.6823452 C110.632914,12.6206952 108.591708,13.9682577 107.051494,14.9237702 C106.603919,15.2015633 106.260092,15.3386205 105.847581,15.6483439 C105.453117,15.9444969 105.00264,16.1407116 104.673147,15.8744932 C104.334372,15.6006913 103.968388,15.4738054 104.253536,15.0032335 C104.507231,14.584149 104.804932,14.5525935 105.343775,14.3418539 C106.408054,13.9255633 108.032176,12.8044553 108.976827,12.2352987 C109.267132,12.0600815 109.780582,11.6912496 110.031699,11.4841022 C110.690685,10.9400907 110.546085,10.7856194 109.803565,10.2635599 C108.494872,9.34277154 106.87805,8.31351987 105.559045,7.40151231 C105.221301,7.16842154 104.87376,6.94291422 104.554064,6.69585398 C103.681603,6.022525 103.837029,5.29651112 105.037953,5.02270928 C105.314335,4.95964705 105.519044,5.02949445 105.664454,5.21269422 C106.875175,6.74015718 109.059218,7.93310366 110.770108,9.0590438 C111.354328,9.44340412 111.803432,9.85804585 112.62433,10.0292717 C113.067264,10.1214703 112.94712,10.4970498 112.994043,10.9392837 C113.057467,11.2214672 112.602656,11.4340876 112.19066,11.6823452 Z" id="chevron" fill="#000000" fill-rule="nonzero" transform="translate(108.500000, 10.500000) rotate(-2.000000) translate(-108.500000, -10.500000) "></path>
                <path d="M4.80555555,7.71270718 L2.78703703,7.71270718 L2.78703703,12.9005525 L2.01851852,12.9005525 L2.01851852,7.71270718 L0,7.71270718 L0,7.09944751 L4.80555555,7.09944751 L4.80555555,7.71270718 Z M9.97657951,10.2403315 L6.8654684,10.2403315 L6.8654684,12.9005525 L6.09694989,12.9005525 L6.09694989,7.09944751 L6.8654684,7.09944751 L6.8654684,9.62707182 L9.97657951,9.62707182 L9.97657951,7.09944751 L10.745098,7.09944751 L10.745098,12.9005525 L9.97657951,12.9005525 L9.97657951,10.2403315 Z M12.6568627,7.09944751 L16.1846405,7.09944751 L16.1846405,7.71270718 L13.4253813,7.71270718 L13.4253813,9.61049724 L15.953159,9.61049724 L15.953159,10.2237569 L13.4253813,10.2237569 L13.4253813,12.2872928 L16.2309368,12.2872928 L16.2309368,12.9005525 L12.6568627,12.9005525 L12.6568627,7.09944751 Z M20.7674291,7.09944751 C20.8847137,7.08287284 21.0158852,7.07044203 21.1609477,7.0621547 C21.3060102,7.05386736 21.4572432,7.04834254 21.6146514,7.04558011 C21.7720596,7.04281768 21.926379,7.04005525 22.0776143,7.03729282 C22.2288497,7.03453039 22.3692805,7.03314917 22.4989106,7.03314917 C23.0174317,7.03314917 23.4665011,7.10497164 23.8461328,7.24861878 C24.2257645,7.39226593 24.539033,7.59254015 24.7859476,7.84944751 C25.0328623,8.10635488 25.2165027,8.41436285 25.3368736,8.77348066 C25.4572445,9.13259848 25.5174291,9.52762215 25.5174291,9.95856354 C25.5174291,10.3508307 25.4603309,10.7278988 25.3461328,11.089779 C25.2319348,11.4516593 25.0513808,11.7720981 24.8044662,12.051105 C24.5575516,12.3301119 24.236567,12.5538666 23.8415032,12.7223757 C23.4464394,12.8908848 22.9680495,12.9751381 22.406318,12.9751381 C22.3075521,12.9751381 22.179467,12.9737569 22.0220588,12.9709945 C21.8646506,12.968232 21.7026152,12.9627072 21.5359477,12.9544199 C21.3692802,12.9461326 21.2149607,12.9392266 21.0729847,12.9337017 C20.9310087,12.9281767 20.8291578,12.9198895 20.7674291,12.9088398 L20.7674291,7.09944751 Z M22.5174291,7.64640884 L22.2535402,7.64640884 C22.1578608,7.64640884 22.0637259,7.64917122 21.9711328,7.65469613 C21.8785398,7.66022104 21.7936641,7.66574581 21.7165032,7.67127072 C21.6393424,7.67679563 21.5791578,7.6823204 21.5359477,7.6878453 L21.5359477,12.3287293 C21.566812,12.3342542 21.6254534,12.3383978 21.7118736,12.3411602 C21.7982938,12.3439227 21.887799,12.3466851 21.9803921,12.3494475 C22.0729851,12.3522099 22.1624904,12.3549724 22.2489106,12.3577348 C22.3353309,12.3604972 22.3939723,12.3618785 22.4248365,12.3618785 C22.8569374,12.3618785 23.2195881,12.2955808 23.5127995,12.1629834 C23.8060109,12.0303861 24.0405762,11.852211 24.2165032,11.628453 C24.3924302,11.404695 24.5174286,11.1477915 24.5915032,10.8577348 C24.6655778,10.5676781 24.7026143,10.2679574 24.7026143,9.95856354 C24.7026143,9.68784397 24.6686642,9.41574724 24.6007625,9.14226519 C24.5328607,8.86878315 24.4155783,8.62154807 24.2489106,8.40055249 C24.0822429,8.17955691 23.8584801,7.99861948 23.5776143,7.85773481 C23.2967486,7.71685014 22.9433571,7.64640884 22.5174291,7.64640884 Z M26.892157,10 C26.892157,9.03314434 27.1205495,8.29143904 27.5773422,7.77486188 C28.0341344,7.25828471 28.6853622,7 29.5310459,7 C29.9878381,7 30.3828957,7.07182247 30.7162311,7.21546961 C31.0495659,7.35911676 31.3257979,7.56215336 31.5449348,7.82458564 C31.7640716,8.08701791 31.9261071,8.40193186 32.0310459,8.76933702 C32.1359847,9.13674217 32.1884533,9.54695907 32.1884533,10 C32.1884533,10.9668557 31.9585171,11.708561 31.4986385,12.2251381 C31.0387594,12.7417153 30.3829019,13 29.5310459,13 C29.080426,13 28.6899981,12.9281775 28.3597496,12.7845304 C28.0295006,12.6408832 27.7548124,12.4378466 27.5356755,12.1754144 C27.3165387,11.9129821 27.1545032,11.5980681 27.0495644,11.230663 C26.9446256,10.8632578 26.892157,10.4530409 26.892157,10 Z M27.7069718,10 C27.7069718,10.3204436 27.7424651,10.624308 27.8134533,10.9116022 C27.884441,11.1988965 27.9940078,11.4516564 28.142157,11.6698895 C28.2903057,11.8881227 28.4801184,12.0621541 28.7116014,12.191989 C28.943084,12.3218238 29.2162295,12.3867403 29.5310459,12.3867403 C30.1051225,12.3867403 30.5557352,12.1919909 30.8828977,11.8024862 C31.2100598,11.4129815 31.3736385,10.8121587 31.3736385,10 C31.3736385,9.68508131 31.3381447,9.38259816 31.267157,9.09254144 C31.1961688,8.80248476 31.0850587,8.54834365 30.9338237,8.3301105 C30.7825881,8.11187735 30.5912321,7.93784595 30.3597496,7.80801105 C30.1282666,7.67817615 29.8520351,7.61325967 29.5310459,7.61325967 C28.9631416,7.61325967 28.5171585,7.80800912 28.1930829,8.19751381 C27.8690068,8.58701851 27.7069718,9.18784125 27.7069718,10 Z M33.5631807,10 C33.5631807,9.03314434 33.7915737,8.29143904 34.2483658,7.77486188 C34.7051585,7.25828471 35.3563864,7 36.2020695,7 C36.6588622,7 37.0539198,7.07182247 37.3872547,7.21546961 C37.7205896,7.35911676 37.9968216,7.56215336 38.2159584,7.82458564 C38.4350953,8.08701791 38.5971308,8.40193186 38.7020695,8.76933702 C38.8070083,9.13674217 38.8594769,9.54695907 38.8594769,10 C38.8594769,10.9668557 38.6295412,11.708561 38.1696621,12.2251381 C37.7097835,12.7417153 37.053926,13 36.2020695,13 C35.7514502,13 35.3610217,12.9281775 35.0307732,12.7845304 C34.7005248,12.6408832 34.425836,12.4378466 34.2066992,12.1754144 C33.9875623,11.9129821 33.8255268,11.5980681 33.7205881,11.230663 C33.6156493,10.8632578 33.5631807,10.4530409 33.5631807,10 Z M34.3779955,10 C34.3779955,10.3204436 34.4134893,10.624308 34.484477,10.9116022 C34.5554651,11.1988965 34.665032,11.4516564 34.8131807,11.6698895 C34.9613298,11.8881227 35.1511426,12.0621541 35.3826251,12.191989 C35.6141076,12.3218238 35.8872532,12.3867403 36.2020695,12.3867403 C36.7761467,12.3867403 37.2267594,12.1919909 37.5539214,11.8024862 C37.8810834,11.4129815 38.0446621,10.8121587 38.0446621,10 C38.0446621,9.68508131 38.0091688,9.38259816 37.9381806,9.09254144 C37.867193,8.80248476 37.7560829,8.54834365 37.6048473,8.3301105 C37.4536122,8.11187735 37.2622558,7.93784595 37.0307732,7.80801105 C36.7992907,7.67817615 36.5230587,7.61325967 36.2020695,7.61325967 C35.6341657,7.61325967 35.1881822,7.80800912 34.8641066,8.19751381 C34.540031,8.58701851 34.3779955,9.18784125 34.3779955,10 Z M40.5027233,7.09944751 C40.6200078,7.08287284 40.7511791,7.07044203 40.8962419,7.0621547 C41.0413041,7.05386736 41.1925371,7.04834254 41.3499456,7.04558011 C41.5073535,7.04281768 41.6616729,7.04005525 41.8129085,7.03729282 C41.9641436,7.03453039 42.1045747,7.03314917 42.2342048,7.03314917 C42.7527259,7.03314917 43.2017954,7.10497164 43.581427,7.24861878 C43.9610587,7.39226593 44.2743267,7.59254015 44.5212419,7.84944751 C44.7681565,8.10635488 44.9517969,8.41436285 45.0721678,8.77348066 C45.1925387,9.13259848 45.2527233,9.52762215 45.2527233,9.95856354 C45.2527233,10.3508307 45.1956251,10.7278988 45.081427,11.089779 C44.967229,11.4516593 44.786675,11.7720981 44.5397604,12.051105 C44.2928452,12.3301119 43.9718612,12.5538666 43.5767974,12.7223757 C43.1817336,12.8908848 42.7033432,12.9751381 42.1416122,12.9751381 C42.0428463,12.9751381 41.9147609,12.9737569 41.757353,12.9709945 C41.5999445,12.968232 41.437909,12.9627072 41.2712419,12.9544199 C41.1045742,12.9461326 40.9502547,12.9392266 40.8082789,12.9337017 C40.6663026,12.9281767 40.5644517,12.9198895 40.5027233,12.9088398 L40.5027233,7.09944751 Z M42.2527233,7.64640884 L41.9888344,7.64640884 C41.8931549,7.64640884 41.7990201,7.64917122 41.706427,7.65469613 C41.6138339,7.66022104 41.5289584,7.66574581 41.4517974,7.67127072 C41.3746364,7.67679563 41.3144517,7.6823204 41.2712419,7.6878453 L41.2712419,12.3287293 C41.3021061,12.3342542 41.3607475,12.3383978 41.4471678,12.3411602 C41.533588,12.3439227 41.6230932,12.3466851 41.7156863,12.3494475 C41.8082794,12.3522099 41.8977846,12.3549724 41.9842048,12.3577348 C42.0706251,12.3604972 42.1292665,12.3618785 42.1601307,12.3618785 C42.5922316,12.3618785 42.9548823,12.2955808 43.2480937,12.1629834 C43.5413051,12.0303861 43.7758705,11.852211 43.9517974,11.628453 C44.1277244,11.404695 44.2527228,11.1477915 44.3267974,10.8577348 C44.400872,10.5676781 44.4379085,10.2679574 44.4379085,9.95856354 C44.4379085,9.68784397 44.4039584,9.41574724 44.3360567,9.14226519 C44.2681549,8.86878315 44.150872,8.62154807 43.9842048,8.40055249 C43.8175371,8.17955691 43.5937743,7.99861948 43.3129085,7.85773481 C43.0320428,7.71685014 42.6786513,7.64640884 42.2527233,7.64640884 Z M50.7293025,12.9005525 L46.8959692,12.9005525 L46.8959692,7.09944751 L47.6644877,7.09944751 L47.6644877,12.2872928 L50.7293025,12.2872928 L50.7293025,12.9005525 Z M52.0206971,7.09944751 L55.5484749,7.09944751 L55.5484749,7.71270718 L52.7892156,7.71270718 L52.7892156,9.61049724 L55.3169934,9.61049724 L55.3169934,10.2237569 L52.7892156,10.2237569 L52.7892156,12.2872928 L55.5947712,12.2872928 L55.5947712,12.9005525 L52.0206971,12.9005525 L52.0206971,7.09944751 Z M63.9645968,12.9005525 L60.1312634,12.9005525 L60.1312634,7.09944751 L60.8997819,7.09944751 L60.8997819,12.2872928 L63.9645968,12.2872928 L63.9645968,12.9005525 Z M65.4319172,7.09944751 L66.2004357,7.09944751 L66.2004357,12.9005525 L65.4319172,12.9005525 L65.4319172,7.09944751 Z M72.1955335,8.42541436 C72.1955335,8.5635366 72.1708426,8.70441915 72.1214594,8.8480663 C72.0720767,8.99171344 71.9980031,9.12569001 71.8992372,9.25 C71.8004712,9.37431004 71.6739296,9.48342495 71.5196075,9.57734807 C71.365286,9.67127118 71.1831888,9.74309369 70.9733113,9.79281768 L70.9733113,9.82596685 C71.1584975,9.8535913 71.3359651,9.90055216 71.5057187,9.96685083 C71.6754728,10.0331495 71.8251626,10.1243088 71.9547927,10.2403315 C72.0844234,10.3563542 72.1893606,10.4972367 72.2696075,10.6629834 C72.349855,10.8287301 72.3899779,11.0248607 72.3899779,11.2513812 C72.3899779,11.5497252 72.3205345,11.8080099 72.1816446,12.0262431 C72.0427552,12.2444762 71.8606585,12.4226512 71.6353483,12.5607735 C71.4100386,12.6988957 71.1523251,12.8011047 70.8622001,12.8674033 C70.5720757,12.933702 70.2757819,12.9668508 69.9733113,12.9668508 L69.6029409,12.9668508 C69.4609651,12.9668508 69.3128185,12.9627072 69.1584964,12.9544199 C69.0041749,12.9461326 68.8498555,12.935083 68.6955335,12.9212707 C68.541212,12.9074585 68.4054111,12.8867405 68.2881261,12.859116 L68.2881261,7.14917127 C68.5165227,7.11602192 68.7819517,7.08839788 69.0844224,7.06629834 C69.386893,7.0441988 69.7171369,7.03314917 70.0751631,7.03314917 C70.3159054,7.03314917 70.5612732,7.05110479 70.8112742,7.08701657 C71.0612758,7.12292836 71.288125,7.19198844 71.4918298,7.2941989 C71.6955345,7.39640935 71.8637428,7.53867311 71.9964594,7.72099448 C72.1291765,7.90331584 72.1955335,8.13812012 72.1955335,8.42541436 Z M70.0473853,12.3701657 C70.2449172,12.3701657 70.4362737,12.3494477 70.6214594,12.308011 C70.8066456,12.2665744 70.9702243,12.2002767 71.1122001,12.109116 C71.2541765,12.0179553 71.3668298,11.906078 71.4501631,11.7734807 C71.533497,11.6408833 71.5751631,11.4834263 71.5751631,11.301105 C71.5751631,11.0745845 71.5242377,10.8922659 71.4223853,10.7541436 C71.320533,10.6160214 71.1878185,10.5082877 71.0242372,10.4309392 C70.8606564,10.3535908 70.677016,10.3011051 70.4733113,10.2734807 C70.2696065,10.2458562 70.0659049,10.2320442 69.8622001,10.2320442 L69.0566446,10.2320442 L69.0566446,12.3121547 C69.099855,12.3232045 69.1615829,12.3314917 69.2418298,12.3370166 C69.3220772,12.3425415 69.4084964,12.3480663 69.501089,12.3535912 C69.5936821,12.3591161 69.6893601,12.3632597 69.7881261,12.3660221 C69.886892,12.3687845 69.9733113,12.3701657 70.0473853,12.3701657 Z M69.5381261,9.6519337 C69.6430649,9.6519337 69.769607,9.64917132 69.9177557,9.64364641 C70.0659049,9.6381215 70.1893601,9.6298343 70.2881261,9.61878453 C70.4362752,9.57458541 70.5751626,9.52071855 70.7047927,9.45718232 C70.8344234,9.39364609 70.9501626,9.31906119 71.052015,9.23342541 C71.1538673,9.14778964 71.2341137,9.04834309 71.2927557,8.93508287 C71.3513982,8.82182265 71.3807187,8.69889567 71.3807187,8.56629834 C71.3807187,8.38397698 71.3421389,8.23342601 71.2649779,8.11464088 C71.1878174,7.99585576 71.0844234,7.90055285 70.9547927,7.82872928 C70.8251626,7.75690571 70.677016,7.70580124 70.5103483,7.67541436 C70.3436811,7.64502749 70.1739296,7.62983425 70.001089,7.62983425 C69.7973843,7.62983425 69.610658,7.63397785 69.4409038,7.64226519 C69.2711502,7.65055253 69.1430649,7.66298333 69.0566446,7.67955801 L69.0566446,9.6519337 L69.5381261,9.6519337 Z M74.0332243,7.15745856 C74.2677932,7.11878435 74.5378524,7.08839788 74.8434095,7.06629834 C75.1489666,7.0441988 75.428285,7.03314917 75.6813725,7.03314917 C75.9653246,7.03314917 76.2353838,7.0607732 76.4915576,7.1160221 C76.747732,7.17127099 76.9730381,7.26243029 77.1674836,7.38950276 C77.361929,7.51657523 77.5177917,7.68231943 77.6350762,7.88674033 C77.7523606,8.09116123 77.8110021,8.33977753 77.8110021,8.63259669 C77.8110021,9.08563762 77.6721147,9.45303725 77.3943354,9.73480663 C77.1165561,10.016576 76.7647078,10.2044194 76.3387799,10.2983425 L76.7832243,10.6049724 L78.3943354,12.9005525 L77.4961873,12.9005525 L75.7091502,10.3977901 L74.8017428,10.2734807 L74.8017428,12.9005525 L74.0332243,12.9005525 L74.0332243,7.15745856 Z M75.699891,7.62983425 L75.449891,7.62983425 C75.3634707,7.62983425 75.2801384,7.63259664 75.199891,7.63812155 C75.1196436,7.64364645 75.0440273,7.64917122 74.9730391,7.65469613 C74.902051,7.66022104 74.8449527,7.66850824 74.8017428,7.67955801 L74.8017428,9.81767956 L75.5239651,9.81767956 C75.949893,9.81767956 76.3017413,9.72375783 76.5795206,9.5359116 C76.8572999,9.34806538 76.9961873,9.0552506 76.9961873,8.65745856 C76.9961873,8.35911455 76.8819908,8.11326064 76.6535947,7.9198895 C76.4251986,7.72651837 76.1073004,7.62983425 75.699891,7.62983425 Z M82.722767,11.2928177 L80.3338781,11.2928177 L79.68573,12.9005525 L78.9264707,12.9005525 L81.3801744,7.00828729 L81.7320263,7.00828729 L84.1949892,12.9005525 L83.3894337,12.9005525 L82.722767,11.2928177 Z M80.5838781,10.6961326 L82.4912855,10.6961326 L81.7690633,8.93093923 L81.5375818,8.05248619 L81.5283226,8.05248619 L81.2968411,8.94751381 L80.5838781,10.6961326 Z M85.3937907,7.15745856 C85.6283596,7.11878435 85.8984187,7.08839788 86.2039758,7.06629834 C86.5095329,7.0441988 86.7888514,7.03314917 87.0419388,7.03314917 C87.325891,7.03314917 87.5959501,7.0607732 87.852124,7.1160221 C88.1082984,7.17127099 88.3336044,7.26243029 88.5280499,7.38950276 C88.7224954,7.51657523 88.878358,7.68231943 88.9956425,7.88674033 C89.112927,8.09116123 89.1715684,8.33977753 89.1715684,8.63259669 C89.1715684,9.08563762 89.0326811,9.45303725 88.7549018,9.73480663 C88.477123,10.016576 88.1252742,10.2044194 87.6993462,10.2983425 L88.1437906,10.6049724 L89.7549018,12.9005525 L88.8567536,12.9005525 L87.0697166,10.3977901 L86.1623092,10.2734807 L86.1623092,12.9005525 L85.3937907,12.9005525 L85.3937907,7.15745856 Z M87.0604573,7.62983425 L86.8104573,7.62983425 C86.7240371,7.62983425 86.6407047,7.63259664 86.5604573,7.63812155 C86.4802099,7.64364645 86.4045936,7.64917122 86.3336055,7.65469613 C86.2626178,7.66022104 86.2055196,7.66850824 86.1623092,7.67955801 L86.1623092,9.81767956 L86.8845314,9.81767956 C87.3104594,9.81767956 87.6623081,9.72375783 87.9400869,9.5359116 C88.2178663,9.34806538 88.3567536,9.0552506 88.3567536,8.65745856 C88.3567536,8.35911455 88.2425571,8.11326064 88.014161,7.9198895 C87.7857649,7.72651837 87.4678668,7.62983425 87.0604573,7.62983425 Z M92.1111111,10.5966851 L89.9722222,7.09944751 L90.8703704,7.09944751 L92.3888889,9.63535912 L92.5462963,10.140884 L92.5555556,10.140884 L92.7222222,9.61878453 L94.1759259,7.09944751 L95,7.09944751 L92.8796296,10.5883978 L92.8796296,12.9005525 L92.1111111,12.9005525 L92.1111111,10.5966851 Z" id="the-Doodle-Library" fill="#666666" fill-rule="nonzero" opacity="0.595278533"></path>
            </g>
        </g>
        <g id="fireworks" transform="translate(267.000000, 238.000000)" fill="#2C2C2C">
            <g id="Group-112" opacity="0.892501" transform="translate(0.000000, 55.000000)">
                <path d="M3.95737905,100.958522 C2.73833143,101.29303 1.68263619,102.103663 1.04385524,103.192647 C0.348998095,104.393947 0.309988571,105.61478 0.558674286,106.950372 C0.85368381,108.503272 2.05322667,109.868163 3.42587429,110.583572 C3.74770286,110.744722 4.10122667,110.869247 4.43524571,111.040163 C5.38610286,111.528497 6.34915048,112.004622 7.33901714,112.434355 C10.0818743,113.645422 12.8442362,114.790563 15.6529219,115.828272 C18.3494552,116.82203 21.0435505,117.83288 23.7400838,118.824197 C26.0172648,119.669013 28.3115124,120.457672 30.5765029,121.339113 C30.8641981,120.753113 31.1543314,120.171997 31.4444648,119.595763 C32.6196267,117.259088 34.0897981,115.04938 35.5087695,112.861647 C33.0267886,111.78243 30.4716648,110.879013 27.9287314,109.963388 C23.2524648,108.276197 18.5688838,106.56703 13.9681981,104.689388 C12.1957029,103.905613 10.4622171,103.038822 8.70191238,102.247722 C7.79737905,101.332097 6.5393219,100.777838 5.22518857,100.777838 C4.80583619,100.777838 4.37673143,100.836438 3.95737905,100.958522" id="Fill-52"></path>
                <path d="M58.4154057,127.083622 C58.2544914,127.799031 58.1203962,128.533972 58.0155581,129.259147 C57.9082819,130.162564 57.8156343,131.068422 57.7254248,131.974281 C58.1813486,132.086597 58.6372724,132.196472 59.0907581,132.311231 C63.90112,133.502764 68.7480533,134.647906 73.4438248,136.239872 C74.8725486,136.725764 76.29152,137.204331 77.7202438,137.670689 C77.7397486,137.509539 77.749501,137.355714 77.7665676,137.194564 C77.9201676,135.924897 78.0347581,134.599072 78.2736914,133.388006 C78.5491962,131.947422 79.2635581,130.575206 79.8340724,129.268914 C79.9876724,128.924639 80.1485867,128.570597 80.3021867,128.228764 C78.415101,127.579281 76.520701,126.939564 74.6067962,126.358447 C70.71072,125.166914 66.7878248,124.156064 62.8332343,123.164747 C61.9067581,122.932789 60.9778438,122.700831 60.0513676,122.468872 C59.8075581,124.070606 59.2565486,125.635714 58.4154057,127.083622" id="Fill-54"></path>
                <path d="M102.079741,138.916183 C102.069989,140.422692 102.194331,141.9292 102.289417,143.418617 C102.328427,144.114492 102.29917,144.8006 102.194331,145.469617 C105.966065,146.612317 109.74755,147.711067 113.546103,148.748775 C117.027703,149.70835 120.477608,150.731408 123.920198,151.795975 C124.037227,150.523867 124.205455,149.241992 124.393189,147.901517 C124.537036,146.890667 124.661379,145.87005 124.85155,144.868967 C125.03197,143.904508 125.317227,142.959583 125.700008,142.048842 C125.039284,141.8413 124.380998,141.638642 123.717836,141.443308 C121.099322,140.671742 118.471055,139.946567 115.842789,139.211625 C111.756541,138.066483 107.689798,136.90425 103.64256,135.64435 C103.108617,136.730892 102.584427,137.819875 102.079741,138.916183" id="Fill-56"></path>
                <path d="M128.915368,19.0564758 C128.971444,19.4373758 129.020206,19.8182758 129.06653,20.2016175 C129.010453,19.8109508 128.96413,19.4276092 128.915368,19.0564758 M127.020968,5.24640917 C126.935634,7.83945917 127.411063,10.4911092 127.876739,13.0377675 C128.325349,15.4428092 128.705691,17.8649425 129.076282,20.2773092 C129.62973,24.7113758 130.03933,29.1942758 130.229501,33.6674092 C130.344091,36.2848758 130.402606,38.9047842 130.451368,41.5246925 C133.569691,41.0681008 136.712396,40.7165008 139.83072,40.7165008 L139.86973,40.7165008 C139.794149,36.5754342 139.679558,32.4343675 139.343101,28.2981842 C139.057844,24.6747508 138.753082,21.0586425 138.211825,17.4645092 C137.763215,14.4978842 137.21952,11.5605592 136.773349,8.60370083 C136.639253,7.48785917 136.534415,6.36225083 136.505158,5.24640917 C136.449082,2.6509175 134.381577,0.494925833 131.763063,0.494925833 C129.115291,0.494925833 127.106301,2.6509175 127.020968,5.24640917" id="Fill-58"></path>
                <path d="M134.34403,65.5148 C133.522392,65.632 132.698316,65.7540833 131.876678,65.8786083 C132.11805,67.8417083 132.376488,69.799925 132.554469,71.7727917 C132.771459,74.2706167 132.964069,76.7684417 133.124983,79.278475 C133.315154,82.2158 133.554088,85.123825 133.839345,88.0440583 C136.821135,87.5654917 139.819992,87.1943583 142.811535,86.8500833 C142.926126,86.8403167 143.030964,86.823225 143.143116,86.8134583 C142.943192,84.8283833 142.772526,82.84575 142.628678,80.8509083 C142.477516,78.5337667 142.343421,76.2068583 142.133745,73.8994833 C141.863116,70.9914583 141.502278,68.0980833 141.163383,65.2022667 C141.02685,65.2022667 140.890316,65.199825 140.753783,65.199825 C138.625326,65.199825 136.496869,65.3072583 134.34403,65.5148" id="Fill-60"></path>
                <path d="M141.679771,111.401042 C140.509486,111.581725 139.336762,111.772175 138.176229,111.982158 C138.298133,112.783025 138.432229,113.593658 138.556571,114.404292 C139.080762,118.640583 139.5952,122.864667 140.126705,127.110725 C140.329067,128.688042 140.550933,130.265358 140.777676,131.842675 C141.743162,131.686408 142.711086,131.578975 143.659505,131.515492 C144.117867,131.488633 144.583543,131.4691 145.041905,131.4691 C146.821714,131.4691 148.628343,131.686408 150.374019,132.09905 C150.105829,130.255592 149.837638,128.412133 149.574324,126.566233 C149.213486,123.685067 148.859962,120.806342 148.489371,117.925175 C148.204114,115.608033 147.935924,113.281125 147.59459,110.971308 C145.631924,111.029908 143.659505,111.191058 141.679771,111.401042" id="Fill-62"></path>
                <path d="M245.161798,106.930106 C243.094293,108.285231 240.96096,109.496297 238.722789,110.536447 C237.096579,111.190814 235.445989,111.774372 233.79296,112.348164 C235.104655,115.253747 236.508998,118.171539 237.567131,121.184556 C241.902065,119.602356 246.158979,117.851681 250.008731,115.226889 C251.066865,114.511481 251.86656,113.625156 252.220084,112.357931 C252.551665,111.117564 252.380998,109.762439 251.732465,108.656364 C250.866941,107.186481 249.162712,106.253764 247.47555,106.253764 C246.675855,106.253764 245.866408,106.473514 245.161798,106.930106" id="Fill-64"></path>
                <path d="M206.647695,121.69462 C206.9232,122.229345 207.19139,122.781162 207.437638,123.33542 C208.551848,125.79662 209.3808,128.25782 210.029333,130.775178 C211.343467,130.345445 212.677105,129.935245 214.018057,129.544578 C214.196038,129.493303 214.369143,129.439587 214.544686,129.388312 C214.337448,128.670462 214.110705,127.952612 213.857143,127.237203 C212.847771,124.964012 211.833524,122.693262 210.868038,120.402978 C209.456381,120.818062 208.047162,121.24047 206.647695,121.69462" id="Fill-66"></path>
                <path d="M176.88099,133.826773 C174.60381,134.771698 172.404648,135.897307 170.176229,136.954548 C168.567086,137.713907 166.953067,138.453732 165.331733,139.171582 C165.960762,139.669682 166.558095,140.201965 167.109105,140.770873 C168.866971,142.58259 170.459048,144.687307 171.575695,147.002007 C174.5136,145.676182 177.390552,144.211182 180.318705,142.848732 C182.586133,141.933107 184.890133,141.085848 187.186819,140.216615 C186.784533,138.138757 186.2896,136.087757 185.624,134.05629 C185.09981,133.035673 184.539048,132.061448 183.929524,131.099432 C181.56701,131.985757 179.204495,132.862315 176.88099,133.826773" id="Fill-68"></path>
                <path d="M165.059642,184.065774 C163.686994,185.362299 162.119299,186.566041 160.419947,187.491432 C161.453699,188.995499 162.558156,190.440966 163.696747,191.876666 C166.268937,195.119199 169.002042,198.227441 171.830232,201.259991 C171.983832,201.433349 172.144747,201.594499 172.298347,201.767857 C174.487756,199.733949 176.584518,197.607257 178.517928,195.348716 C178.725166,195.014207 178.934842,194.689466 179.144518,194.345191 C176.060328,191.009874 173.107794,187.574449 170.289356,184.026707 C169.45309,182.847382 168.653394,181.648524 167.875642,180.435016 C167.039375,181.721774 166.14947,183.045157 165.059642,184.065774" id="Fill-70"></path>
                <path d="M190.630872,217.968804 C189.592244,218.999187 188.536549,219.980737 187.45891,220.925662 C188.98272,223.338029 190.32611,225.874921 191.715825,228.365421 C192.45213,229.686362 193.242072,230.965796 194.071025,232.220812 C194.721996,231.554237 195.348587,230.863246 195.955672,230.147837 C197.49411,228.016262 198.981349,225.835854 200.402758,223.611496 C200.010225,222.896087 199.622568,222.175796 199.230034,221.460387 C197.964663,219.123712 196.640777,216.843196 195.221806,214.601746 C195.048701,214.335604 194.868282,214.067021 194.697615,213.800879 C193.383482,215.231696 191.993768,216.603912 190.630872,217.968804" id="Fill-72"></path>
                <path d="M209.707261,251.036296 C209.409813,251.282904 209.109928,251.531954 208.805166,251.785887 C209.556099,252.782087 210.316785,253.792937 210.870232,254.899012 C211.165242,255.663254 211.479756,256.415287 211.830842,257.140462 C212.745128,259.027871 215.231985,259.848271 217.165394,259.315987 C219.583985,258.646971 221.222385,255.958696 220.459261,253.497496 C219.983832,251.961687 219.498651,250.377046 218.659947,249.004829 C217.738347,247.473904 216.650956,246.013787 215.597699,244.560996 C213.852023,246.934296 211.942994,249.170862 209.707261,251.036296" id="Fill-74"></path>
                <path d="M122.296427,172.462974 C118.80995,176.601599 115.286903,180.723132 111.74435,184.815366 C109.657341,187.227732 107.619093,189.669399 105.60035,192.130599 C106.429303,193.939874 107.287512,195.705199 108.326141,197.392391 C108.991741,198.107799 109.686598,198.786582 110.420465,199.433624 C110.800808,199.702207 111.173836,199.958582 111.554179,200.217399 C112.782979,198.691357 114.028846,197.184849 115.27715,195.675899 C117.639665,192.872866 120.048503,190.125991 122.430522,187.352257 C124.87837,184.500391 127.287208,181.619224 129.725303,178.757591 L130.247055,178.147174 C129.186484,175.922816 128.330712,173.581257 127.772389,171.193307 C127.101912,170.219082 126.511893,169.196024 126.021836,168.126574 C124.766217,169.559832 123.527665,171.005299 122.296427,172.462974" id="Fill-76"></path>
                <path d="M82.1631848,222.117684 C79.6519467,225.042801 77.1431467,227.967917 74.6782324,230.929659 C74.848899,231.376484 75.0220038,231.820867 75.1926705,232.265251 C76.2191086,234.516467 77.3162514,236.682226 78.6596419,238.808917 C78.9887848,239.328992 79.3179276,239.846626 79.6543848,240.359376 C82.1144229,237.373217 84.55008,234.367526 87.05888,231.427759 C90.3820038,227.555276 93.688061,223.673026 96.8210133,219.636951 C94.2390705,217.795934 91.8399848,215.708309 89.8578133,213.237342 C89.7919848,213.161651 89.7261562,213.076192 89.6578895,212.990734 C87.2197943,216.079442 84.7451276,219.121759 82.1631848,222.117684" id="Fill-78"></path>
                <path d="M52.6583314,256.482189 C52.3340648,256.882622 52.0000457,257.283056 51.6587124,257.673722 C51.2101029,258.188914 50.5908267,258.752939 50.344579,259.343822 C49.8008838,260.611047 49.4668648,261.709797 49.8496457,263.101547 C50.3055695,264.752114 51.6099505,266.029106 53.2483505,266.497906 C54.2113981,266.773814 55.2305219,266.744514 56.1716267,266.419772 C57.4686933,265.972947 58.534141,265.093947 59.1436648,263.968339 C59.3435886,263.751031 59.5435124,263.521514 59.7336838,263.282231 C60.4870552,262.347072 61.2111695,261.394822 61.99136,260.498731 C62.3960838,260.037256 62.8032457,259.578222 63.2104076,259.121631 C61.1672838,256.501722 59.1046552,253.767056 57.3614171,250.902981 C55.7522743,252.722022 54.1723886,254.565481 52.6583314,256.482189" id="Fill-80"></path>
                <path d="M137.53696,192.609166 C137.822217,197.949091 138.270827,203.271924 138.441493,208.621616 C138.47075,209.547007 138.500008,210.472399 138.517074,211.397791 C141.737798,211.722532 144.975589,211.854382 148.213379,211.558941 C148.213379,211.427091 148.213379,211.292799 148.203627,211.158507 C148.118293,205.999266 147.774522,200.857116 147.440503,195.707641 C147.31616,193.788491 147.255208,191.879107 147.25277,189.969724 C146.882179,189.930657 146.50915,189.879382 146.136122,189.813457 C145.060922,189.662074 143.985722,189.518016 142.898331,189.376399 C140.940541,188.629249 139.17536,187.923607 137.532084,186.856599 C137.44675,188.768424 137.429684,190.682691 137.53696,192.609166" id="Fill-82"></path>
                <path d="M138.229867,236.114294 C138.000686,239.815861 137.554514,243.505219 137.24,247.206786 C136.957181,250.669069 136.732876,254.136236 136.493943,257.600961 C139.873143,256.839161 143.149943,255.769711 146.387733,254.561086 C146.460876,253.352461 146.538895,252.141394 146.638857,250.935211 C146.87779,248.007652 147.13379,245.089861 147.401981,242.169627 C147.601905,240.121069 147.792076,238.060302 147.933486,235.999536 C145.429562,236.189986 142.925638,236.238819 140.429029,235.999536 C139.704914,235.933611 138.983238,235.865244 138.259124,235.789552 C138.249371,235.894544 138.239619,236.009302 138.229867,236.114294" id="Fill-84"></path>
                <path d="M134.067794,282.515727 C133.577737,282.554794 133.085242,282.588977 132.595185,282.625602 C132.495223,282.989411 132.400137,283.358102 132.305051,283.726794 C131.668709,284.547194 131.190842,285.653269 131.29568,286.664119 C131.400518,287.665202 131.429775,288.695586 132.068556,289.535519 C132.858499,290.585436 133.619185,291.386302 134.94307,291.747669 C136.440061,292.167636 138.600213,291.825802 139.619337,290.517069 C139.677851,290.441377 139.733928,290.365686 139.792442,290.299761 C140.392213,289.689344 140.801813,288.981261 141.028556,288.163302 C141.191909,287.770194 141.316251,287.389294 141.438156,286.988861 C141.562499,286.549361 141.686842,286.122069 141.811185,285.682569 C142.135451,284.517894 142.486537,283.365427 142.830309,282.210519 C142.942461,281.836944 143.049737,281.460927 143.154575,281.087352 C140.189851,281.778344 137.169051,282.271561 134.067794,282.515727" id="Fill-86"></path>
                <path d="M123.16317,157.162026 C118.162636,158.927351 113.125531,160.509551 107.98115,161.825609 C105.42115,162.484859 102.829455,163.056209 100.24995,163.656859 C99.98176,163.725226 99.7062552,163.791151 99.4405029,163.857076 C99.391741,166.584417 99.6014171,169.341059 99.8671695,172.041542 C99.9622552,172.583592 100.067093,173.128084 100.171931,173.672576 C100.771703,173.518751 101.371474,173.367367 101.973684,173.223309 C104.277684,172.688584 106.601189,172.212459 108.895436,171.631342 C113.476617,170.466667 118.021227,169.226301 122.49757,167.690492 C123.472808,167.355984 124.452922,167.019034 125.433036,166.677201 C125.072198,165.666351 124.80157,164.618876 124.638217,163.532334 C124.343208,161.454476 123.992122,159.374176 123.838522,157.286551 C123.831208,157.166909 123.823893,157.049709 123.816579,156.930068 C123.59715,157.008201 123.38016,157.086334 123.16317,157.162026" id="Fill-88"></path>
                <path d="M63.3786362,173.913812 C61.1404648,174.499812 58.9022933,175.078487 56.6641219,175.649837 C57.1712457,177.507946 57.714941,179.348962 58.2927695,181.172887 C58.7023695,182.452321 59.1144076,183.731754 59.5264457,185.013629 C62.1254552,184.337287 64.7244648,183.656062 67.3210362,182.965071 C70.4929981,182.115371 73.6259505,181.143587 76.7589029,180.171804 C76.1030552,176.926829 75.6251886,173.664762 75.3594362,170.375837 C71.3682743,171.577137 67.4063695,172.854129 63.3786362,173.913812" id="Fill-90"></path>
                <path d="M29.5976076,182.12587 C28.5394743,182.450612 27.4935314,182.821745 26.4353981,183.126953 C25.25536,183.471228 24.0558171,183.70807 22.8830933,184.032812 C21.2446933,184.491845 19.7964648,185.854295 19.3966171,187.534162 L19.3697981,187.64892 C19.0455314,188.964978 19.1796267,190.310337 19.8647314,191.492103 C20.4645029,192.51272 21.6250362,193.562637 22.8367695,193.779945 C23.4267886,193.87517 24.0168076,194.019228 24.6263314,193.980162 C25.4162743,193.924003 26.1793981,193.71402 26.8449981,193.379512 C28.6735695,192.913153 30.4558171,192.32227 32.245379,191.748478 C33.3937219,191.379787 34.549379,191.037953 35.7074743,190.718095 C34.7151695,187.54637 33.7374933,184.369762 32.8695314,181.171178 C31.7748267,181.46662 30.6849981,181.784037 29.5976076,182.12587" id="Fill-92"></path>
                <path d="M75.2487467,44.7071608 C75.0585752,47.5101942 76.4677943,50.1056858 77.7624229,52.4911942 C78.686461,54.1783858 79.610499,55.8655775 80.5637943,57.5454442 C81.0879848,58.4683942 81.6194895,59.3889025 82.1558705,60.3069692 C82.7678324,59.8577025 83.3846705,59.4108775 84.0015086,58.9664942 C85.9129752,57.5918358 87.8585752,56.1952025 89.8602514,54.8767025 C88.1511467,51.9100775 86.522499,48.9019442 85.0767086,45.7937025 C84.9157943,45.3664108 84.7719467,44.9269108 84.6573562,44.4776442 C84.4769371,42.0091192 82.5069562,39.9849775 79.9640229,39.9849775 C77.2577371,39.9849775 75.4291657,42.1409692 75.2487467,44.7071608" id="Fill-94"></path>
                <path d="M94.2190781,81.5538642 C94.4385067,81.9713892 94.6579352,82.3913558 94.8773638,82.8113225 C97.315459,87.4846725 99.8681448,92.0823308 102.611002,96.5920892 C103.057173,97.3367975 103.515535,98.0717392 103.971459,98.8042392 C106.638735,97.0413558 109.581516,95.6398392 112.553554,94.4092392 C112.000107,93.5204725 111.45885,92.6341475 110.905402,91.7380558 C108.467307,87.7508142 106.143802,83.7074142 103.964145,79.5761142 C103.344869,78.4065558 102.72803,77.2321142 102.106316,76.0625558 C99.4512305,77.8547392 96.8229638,79.6884308 94.2190781,81.5538642" id="Fill-96"></path>
                <path d="M122.37981,116.640858 C120.617067,117.441725 118.893333,118.301192 117.237867,119.302275 C117.588952,119.844325 117.942476,120.388817 118.303314,120.933308 C120.856,124.842417 123.637867,128.600142 126.331962,132.4067 C127.373029,133.861933 128.404343,135.331817 129.4064,136.818792 C131.8128,134.653033 134.867733,133.24175 138.056762,132.411583 C137.520381,131.610717 136.976686,130.814733 136.428114,130.021192 C133.436571,125.71165 130.352381,121.458267 127.380343,117.12675 C126.951238,116.516333 126.531886,115.886383 126.112533,115.268642 C124.866667,115.7057 123.618362,116.1745 122.37981,116.640858" id="Fill-98"></path>
                <path d="M215.92611,42.407355 C214.402301,42.407355 212.868739,43.0934633 211.839863,44.3533633 C211.298606,45.029705 210.725653,45.6987217 210.145387,46.3457633 C208.372891,48.3503717 206.95392,50.6284467 205.544701,52.8796633 C204.211063,55.006355 202.974949,57.18188 201.755901,59.3744967 C201.451139,59.9263133 201.151253,60.4805717 200.853806,61.03483 C202.950568,62.71958 204.961996,64.4751383 206.917349,66.3283633 C207.385463,66.7727467 207.851139,67.224455 208.311939,67.678605 C208.34851,67.6102383 208.385082,67.5418717 208.421653,67.473505 C210.869501,62.7903883 213.422187,58.038905 216.525882,53.7488967 C217.069577,53.07988 217.620587,52.4230717 218.174034,51.754055 C218.688472,51.534305 219.173653,51.2022383 219.61251,50.772505 C220.497539,49.88618 221.002225,48.6653467 221.002225,47.4054467 C221.002225,46.0796217 220.45853,45.0199383 219.61251,44.048155 C218.63971,42.9323133 217.306072,42.407355 215.955368,42.407355 L215.92611,42.407355 Z" id="Fill-100"></path>
                <path d="M181.39293,91.2311658 C180.429882,92.4617658 179.449768,93.6923658 178.459901,94.9131992 C180.773653,96.1144992 183.336091,97.2108075 185.41091,98.7759158 C185.944853,99.1665825 186.469044,99.5670158 186.983482,99.9674492 C188.478034,98.0507408 189.95552,96.1047325 191.384244,94.1391908 C192.620358,92.4471158 193.74432,90.6695825 194.899977,88.9213492 C192.688625,86.4821242 190.343177,84.1600992 187.89533,81.9601575 C185.76931,85.0781658 183.626225,88.1864075 181.39293,91.2311658" id="Fill-102"></path>
                <path d="M162.792945,114.399408 C161.239878,116.325883 159.669745,118.232825 158.087421,120.142208 C156.297859,122.295758 154.449783,124.441983 152.906469,126.788425 C152.250621,127.779742 151.565516,128.763733 150.973059,129.803883 C150.573211,130.524175 150.185554,131.246908 149.805211,131.974525 C151.246126,132.277292 152.652907,132.711908 153.984107,133.266167 C155.588373,133.927858 157.280411,134.621292 158.948069,135.400183 C159.006583,135.295192 159.067535,135.1902 159.12605,135.08765 C160.089097,133.398017 161.220373,131.80605 162.383345,130.240942 C165.411459,126.568675 168.498088,122.945242 171.479878,119.233908 C171.545707,119.14845 171.611535,119.062992 171.679802,118.9873 C170.077973,118.022842 168.403002,117.195117 166.745097,116.316117 C165.469973,115.630008 164.182659,114.9439 162.897783,114.274883 C162.858773,114.31395 162.831954,114.350575 162.792945,114.399408" id="Fill-104"></path>
                <path d="M173.073905,151.754222 C173.556648,155.077331 174.146667,158.466364 173.849219,161.835864 C177.34301,162.436514 180.82461,163.115297 184.320838,163.723272 C185.71299,163.962556 187.092952,164.228697 188.482667,164.497281 C188.767924,160.861639 188.911771,157.228439 188.655771,153.575706 C187.45379,153.355956 186.254248,153.136206 185.054705,152.926222 C182.760457,152.525789 180.502781,152.020364 178.206095,151.639464 C176.44579,151.346464 174.675733,151.070556 172.908114,150.828831 C172.973943,151.134039 173.027581,151.444131 173.073905,151.754222" id="Fill-106"></path>
                <path d="M213.06915,162.144247 C212.81315,165.081572 212.488884,168.00913 212.079284,170.929363 C212.744884,171.195505 213.40317,171.454322 214.06877,171.720463 C215.419474,172.260072 216.760427,172.831422 218.108693,173.368588 C218.16477,171.68628 218.174522,170.00153 218.155017,168.314338 C218.128198,166.16323 218.123322,164.007238 218.08675,161.851247 C217.040808,161.421513 215.994865,160.99178 214.946484,160.579138 C214.363779,160.352063 213.793265,160.132313 213.212998,159.912563 C213.173989,160.657272 213.134979,161.399538 213.06915,162.144247" id="Fill-108"></path>
                <path d="M242.430888,175.125123 C242.33824,176.516873 242.250469,177.93304 242.123688,179.346765 C243.489021,179.54454 244.849478,179.759407 246.173364,180.152515 C248.43104,180.809323 250.925211,179.742315 252.107688,177.72794 C253.468145,175.391265 252.78304,171.806898 250.220602,170.546998 C248.925973,169.897515 247.706926,169.497082 246.297707,169.240707 C245.19325,169.030723 244.07904,168.886665 242.96483,168.754815 C242.825859,168.73284 242.686888,168.710865 242.547916,168.68889 C242.577173,170.839998 242.577173,172.988665 242.430888,175.125123" id="Fill-110"></path>
            </g>
            <g id="Group-247" opacity="0.692103795" transform="translate(101.000000, 0.000000)">
                <path d="M61.9105187,4.108872 C61.3498937,6.148712 61.0622687,8.217832 61.0452062,10.333312 C61.0452062,11.304432 61.0354562,12.277992 61.0452062,13.249112 C61.0452062,14.881472 61.0549562,16.511392 61.0695812,18.146192 C61.5229562,18.129112 61.9738937,18.114472 62.4248312,18.099832 C63.4900187,18.072992 64.5576437,18.053472 65.6155187,18.053472 C66.4052687,18.053472 67.1950187,18.065672 67.9823312,18.092512 C67.9652687,16.552872 67.9482062,15.020552 67.9384562,13.478472 C67.9287062,11.667992 67.8994562,9.847752 68.0603312,8.034832 C68.1943937,7.329672 68.3650187,6.634272 68.5575812,5.938872 C69.0523937,4.128392 67.9652687,2.193472 66.1468937,1.698152 C65.8519562,1.612752 65.5570187,1.573712 65.2523312,1.573712 C63.7386437,1.573712 62.3200187,2.593632 61.9105187,4.108872" id="Fill-195"></path>
                <path d="M63.0437125,31.511048 C62.4392125,31.523248 61.83715,31.540328 61.23265,31.564728 C61.2497125,33.182448 61.2789625,34.802608 61.2155875,36.410568 C61.149775,38.164928 61.0644625,39.907088 60.9499,41.651688 C61.3764625,41.671208 61.7957125,41.710248 62.2052125,41.756608 C64.6719625,42.061608 66.0613375,42.300728 67.86265,42.986368 C67.9479625,41.861528 68.013775,40.736688 68.052775,39.602088 C68.15515,36.893688 68.1819625,34.187728 68.17465,31.479328 C67.6213375,31.459808 67.0655875,31.452488 66.5147125,31.452488 C65.3544625,31.452488 64.1990875,31.484208 63.0437125,31.511048" id="Fill-197"></path>
                <path d="M58.0924187,87.913356 C57.9681062,90.465596 57.9169187,93.022716 57.8291687,95.579836 C59.3062937,95.613996 60.7834187,95.613996 62.2629812,95.613996 L64.8808562,95.613996 L64.9539812,95.613996 C65.0076062,93.969436 65.0344187,92.319996 65.0807312,90.677876 C65.1392312,88.762476 65.2537937,86.854396 65.3391062,84.958516 C65.4049187,83.509156 65.4999812,82.069556 65.6145437,80.622636 C63.2818562,81.137476 60.8833562,81.213116 58.5482312,80.612876 C58.3678562,83.043116 58.2069812,85.473356 58.0924187,87.913356" id="Fill-199"></path>
                <path d="M57.25465,109.120372 C57.23515,110.625852 57.1985875,112.131332 57.1400875,113.629492 C57.1108375,114.295612 57.093775,114.954412 57.054775,115.620532 C57.054775,115.810852 57.045025,116.001172 57.035275,116.201252 C57.025525,116.716092 57.103525,117.194332 57.1790875,117.716492 C57.29365,118.585132 58.11265,119.451332 58.8268375,119.871012 C59.843275,120.471252 61.4642125,120.615212 62.4635875,119.871012 C62.748775,119.661172 63.0242125,119.441572 63.3094,119.224412 C63.5019625,118.985292 63.6920875,118.755932 63.8822125,118.519252 C64.5013375,117.755532 64.9279,117.021092 64.9279,116.001172 C64.9279,115.276492 64.7012125,114.571332 64.3014625,113.980852 C64.3112125,113.629492 64.328275,113.275692 64.338025,112.924332 C64.3819,111.633572 64.3989625,110.342812 64.41115,109.052052 C64.172275,109.052052 63.9309625,109.054492 63.6920875,109.054492 C61.7104,109.054492 59.73115,109.064252 57.7494625,109.005692 C57.58615,109.000812 57.4204,108.995932 57.2570875,108.991052 C57.2570875,109.032532 57.2570875,109.076452 57.25465,109.120372" id="Fill-201"></path>
                <path d="M110.403606,53.119688 C110.501106,53.697968 110.591294,54.276248 110.679044,54.854528 C110.959356,56.743088 111.161669,58.648728 111.273794,60.556808 C111.722294,60.461648 112.158606,60.315248 112.602231,60.049288 C113.430981,59.573488 114.059856,58.763408 114.308481,57.838648 C114.488856,57.182288 114.488856,56.523488 114.308481,55.864688 C114.079356,55.018008 113.440731,54.017608 112.602231,53.644288 C111.936794,53.339288 111.317669,53.112368 110.593731,53.112368 C110.530356,53.112368 110.464544,53.112368 110.403606,53.119688" id="Fill-203"></path>
                <path d="M95.7786063,53.702116 C93.7018563,53.941236 91.6372938,54.207196 89.5605438,54.426796 C87.7031688,54.607356 85.8189813,54.636636 83.9616063,54.751316 C82.1724813,54.865996 80.3833563,54.970916 78.5820438,55.046556 C79.0207938,56.332436 79.3644813,57.647596 79.5643563,59.087196 C79.7349813,60.260836 79.9251063,61.412516 80.0396688,62.576396 C82.4113563,62.471476 84.7806063,62.317756 87.1425438,62.166476 C90.7354188,61.937116 94.2941688,61.410076 97.8772938,61.127036 C97.8187938,59.904596 97.7286063,58.684596 97.6067313,57.467036 C97.3946688,56.161636 97.1460438,54.870876 96.8511063,53.587436 C96.4927938,53.621596 96.1344813,53.658196 95.7786063,53.702116" id="Fill-205"></path>
                <path d="M0.44335,57.56244 C-0.0904625,59.50712 1.091725,61.59332 3.031975,62.12768 C4.757725,62.60348 6.52735,62.79624 8.3091625,62.87188 C10.1177875,62.94752 11.8971625,62.90848 13.6960375,63.09148 C14.497975,63.22324 15.2901625,63.38672 16.0847875,63.56484 C16.1311,62.39852 16.213975,61.2322 16.31635,60.05124 C16.4309125,58.7312 16.5527875,57.41116 16.7526625,56.10332 C16.2651625,56.00816 15.7727875,55.92276 15.277975,55.84712 C13.1841625,55.53236 11.1074125,55.47624 8.9941,55.47624 C8.16535,55.46648 7.34635,55.40792 6.52735,55.33228 C6.0130375,55.23712 5.508475,55.11268 5.0039125,54.97116 C4.689475,54.88332 4.3652875,54.84672 4.05085,54.84672 C2.4226,54.84672 0.8991625,55.93252 0.44335,57.56244" id="Fill-207"></path>
                <path d="M33.9877375,57.924536 C32.664175,57.997736 31.338175,58.014816 30.012175,58.002616 C29.9366125,58.317376 29.8683625,58.634576 29.807425,58.954216 C29.6563,60.249856 29.5319875,61.555256 29.466175,62.860656 C30.07555,63.575576 30.5313625,64.434456 30.7702375,65.388496 C30.7799875,65.427536 30.7897375,65.469016 30.7994875,65.508056 C31.9646125,65.512936 33.132175,65.493416 34.302175,65.434856 C36.15955,65.339696 38.0047375,65.139616 39.8523625,65.044456 C40.0522375,65.034696 40.2423625,65.015176 40.4422375,65.005416 C39.567175,63.299856 39.1016125,61.394216 39.1016125,59.449536 C39.1016125,58.790736 39.157675,58.153896 39.2527375,57.524376 C37.490425,57.658576 35.75005,57.809856 33.9877375,57.924536" id="Fill-209"></path>
                <path d="M93.8646813,12.092308 C92.5021188,13.627068 91.2663063,15.266748 89.9890563,16.877148 C88.7849313,18.411908 87.6198063,19.963748 86.4449313,21.515588 C88.7386188,22.301268 90.9664938,23.247988 93.1285563,24.350868 C93.7720563,23.496868 94.4179938,22.645308 95.0639313,21.796188 C96.3119313,20.212628 97.5404313,18.611988 98.8737438,17.106508 C99.5099313,16.391588 99.9096813,15.581508 99.9096813,14.598188 C99.9096813,13.666108 99.5294313,12.758428 98.8737438,12.092308 C98.1961188,11.426188 97.2357438,11.062628 96.2826813,11.062628 C95.3783688,11.062628 94.4838063,11.387148 93.8646813,12.092308" id="Fill-211"></path>
                <path d="M76.383175,35.167632 C75.183925,36.748752 74.0602375,38.368912 72.97555,40.028112 C72.0883,41.382312 71.2132375,42.726752 70.240675,44.032152 C71.4326125,44.661672 72.678175,45.671832 73.526425,46.462392 C74.2698625,47.148032 74.96455,47.928832 75.564175,48.768192 C76.0979875,48.072792 76.6123,47.377392 77.1071125,46.662472 C78.1918,45.108192 79.210675,43.517312 80.24905,41.933752 C81.238675,40.401432 82.3916125,38.971592 83.50555,37.512472 C84.066175,36.775592 84.6194875,36.026512 85.1654875,35.270112 C84.9558625,35.170072 84.7462375,35.072472 84.534175,34.977312 C82.476925,34.213592 80.3441125,33.586512 78.2113,33.108272 C78.138175,33.091192 78.0626125,33.076552 77.98705,33.059472 C77.455675,33.764632 76.9218625,34.464912 76.383175,35.167632" id="Fill-213"></path>
                <path d="M46.7999687,75.614536 C44.6964062,78.588896 42.5148437,81.494936 40.4015312,84.469296 C39.6312812,85.547776 38.8634687,86.636016 38.0834687,87.712056 C39.0999062,88.797856 40.1772812,89.822656 41.3253437,90.779136 C42.0663437,91.303736 42.8122187,91.796616 43.6068437,92.226056 C45.2740937,89.959296 46.8950312,87.663256 48.5525312,85.394056 C50.2270937,83.115096 51.9235937,80.838576 53.5420937,78.510816 C52.0284062,77.683656 50.6365937,76.663736 49.4860937,75.280256 C49.0375937,74.748336 48.5988437,74.204216 48.1698437,73.650336 C47.7140312,74.309136 47.2557812,74.965496 46.7999687,75.614536" id="Fill-215"></path>
                <path d="M28.824625,100.071876 C28.463875,100.347596 28.1396875,100.681876 27.8715625,101.082036 C27.8155,101.167436 27.76675,101.252836 27.7106875,101.330916 C27.2719375,101.862836 26.845375,102.426476 26.7113125,103.102356 C26.5114375,104.066156 26.55775,104.971396 27.0623125,105.847356 C27.566875,106.706236 28.2908125,107.142996 29.195125,107.487036 C30.4991875,107.972596 32.032375,107.316236 32.909875,106.325596 C33.4339375,105.732676 33.88,105.095836 34.348,104.476076 C34.713625,103.983196 35.07925,103.487876 35.44,102.992556 C34.0920625,102.077556 32.802625,101.064956 31.5473125,100.032836 C30.979375,99.566796 30.43825,99.076356 29.91175,98.563956 C29.551,99.069036 29.1878125,99.571676 28.824625,100.071876" id="Fill-217"></path>
                <path d="M26.6442812,18.424596 C25.8545312,18.890636 25.2646562,19.664116 25.0160312,20.549836 C24.7503437,21.530716 24.9599687,22.389596 25.3767812,23.285076 C25.6156562,23.790156 25.8350312,24.314756 26.0909687,24.810076 C26.5102187,25.610396 27.1683437,26.239916 27.7387187,26.935316 C28.8160937,28.233396 29.8812812,29.529036 30.9854687,30.805156 C31.3705937,31.241916 31.8069062,31.644516 32.2310312,32.049556 C32.2505312,32.025156 32.2724687,32.000756 32.2895312,31.978796 C33.6813437,30.148796 35.1194687,28.335876 36.8232812,26.793796 L36.9573437,26.671796 C35.6142812,25.322476 34.4174687,23.873116 33.1962812,22.409116 C32.8989062,22.055316 32.6039687,21.723476 32.3090312,21.379436 C31.9945937,20.835316 31.7581562,20.264356 31.4997812,19.700716 C31.1292812,18.910156 30.1957187,18.290396 29.3767187,18.070796 C29.0720312,17.985396 28.7575937,17.948796 28.4431562,17.948796 C27.8142812,17.948796 27.1878437,18.109836 26.6442812,18.424596" id="Fill-219"></path>
                <path d="M42.6961938,40.260888 C42.3646938,40.678128 42.0283188,41.092928 41.6870688,41.505288 C42.7473813,42.642328 43.8076938,43.774488 44.9045688,44.874928 C45.4188813,45.397088 45.9526938,45.904608 46.4865063,46.399928 C48.1805688,44.970088 50.1695688,44.035568 52.2755688,43.157168 C52.5900063,43.025408 52.9215063,42.900968 53.2554438,42.786288 C52.6265688,42.215328 51.9806313,41.651688 51.3517563,41.080728 C50.5693188,40.385328 49.8478188,39.602088 49.0946313,38.860328 C48.2122563,37.974608 47.3640063,37.047408 46.5108813,36.125088 C45.1312563,37.398768 43.8661938,38.777368 42.6961938,40.260888" id="Fill-221"></path>
                <path d="M66.880825,69.692168 C67.0417,69.487208 67.202575,69.277368 67.3610125,69.067528 C67.202575,69.279808 67.0392625,69.487208 66.880825,69.692168" id="Fill-223"></path>
                <path d="M73.17445,77.406472 C74.2396375,78.665512 75.2682625,79.951392 76.2968875,81.227512 C78.7636375,84.316552 81.2962,87.356792 83.76295,90.445832 C84.372325,91.207112 84.986575,91.963512 85.600825,92.719912 C86.2906375,92.329512 86.965825,91.909832 87.638575,91.512112 C88.65745,90.911872 89.627575,90.255512 90.5708875,89.567432 C90.9413875,89.247792 91.2997,88.923272 91.64095,88.571912 C90.680575,87.373872 89.715325,86.180712 88.7622625,84.975352 C86.371075,81.971712 83.904325,79.026632 81.496075,76.025432 C80.3918875,74.651712 79.2877,73.270672 78.1347625,71.935992 C76.9257625,74.107592 75.2682625,75.996152 73.17445,77.406472" id="Fill-225"></path>
                <path d="M16.2824687,76.901392 C15.3489062,77.377192 14.4153437,77.845672 13.4842187,78.301952 C12.7115312,78.675272 11.9510312,79.036392 11.1685937,79.390192 C10.6445312,79.617112 10.2447812,79.836712 9.81821875,80.275912 C8.65553125,81.427592 8.30453125,83.430832 9.23565625,84.841152 C9.95959375,85.936712 11.0540312,86.661392 12.3970937,86.661392 C12.9796562,86.661392 13.5110312,86.536952 14.0253437,86.280752 C15.4439687,85.775672 16.8065312,85.070512 18.1666562,84.411712 C18.5152187,84.240912 18.8613437,84.070112 19.2050312,83.894432 C18.6687812,82.698832 18.1544687,81.498352 17.6450312,80.295432 C17.1453437,79.087632 16.9235312,77.916432 16.7577812,76.654952 C16.5993437,76.737912 16.4409062,76.820872 16.2824687,76.901392" id="Fill-227"></path>
                <path d="M15.2611563,35.831068 C13.9278438,37.155988 13.8717813,39.491068 15.2611563,40.806228 C16.5847188,42.065268 18.2690313,42.807028 19.8802188,43.617108 C20.4847188,43.924548 21.0794688,44.256388 21.6742188,44.585788 C22.6833438,42.970508 23.8655313,41.452828 25.1817813,40.081548 C25.5498438,39.696028 25.9154688,39.308068 26.2786563,38.917668 C25.1744688,38.329628 24.0970938,37.704988 22.9734063,37.146228 C21.9935313,36.660668 20.9259063,36.250748 20.0020938,35.640748 C19.3366563,35.125908 18.6224688,34.801388 17.7474063,34.801388 C16.8138438,34.801388 15.9192813,35.172268 15.2611563,35.831068" id="Fill-229"></path>
                <path d="M46.7911938,5.889828 C45.9234438,6.128948 45.1629438,6.709668 44.7046938,7.490468 C44.2391313,8.300548 44.1050688,9.283868 44.3536938,10.189108 C44.4487563,10.520948 44.5803813,10.818628 44.7534438,11.084588 C44.9045688,11.628708 45.0386313,12.170388 45.1897563,12.704748 C45.4846938,13.714908 45.7893813,14.725068 46.0940688,15.735228 C46.5498813,17.208988 47.0763813,18.663228 47.6199438,20.110148 C49.8892563,19.385468 52.2390063,18.926748 54.6155688,18.631508 C53.9233188,16.781988 53.2627563,14.927588 52.6948188,13.039028 C52.3901313,12.019108 52.0756938,10.999188 51.7880688,9.969508 C51.3980688,8.520148 50.9520063,6.975628 49.4846313,6.243628 C48.9045063,5.945948 48.3048813,5.765388 47.6760063,5.765388 C47.3908188,5.765388 47.0958813,5.804428 46.7911938,5.889828" id="Fill-231"></path>
                <path d="M77.4495812,0.607228 C76.8597062,1.026908 76.4404562,1.436828 76.0967687,2.076108 C75.8773937,2.486028 75.7067687,2.971588 75.5922062,3.427868 C75.1656437,5.096828 74.8024562,6.782868 74.4124562,8.461588 C74.0687687,9.910948 73.7080187,11.367628 73.2790187,12.787708 C73.0498937,13.531908 72.8597687,14.293188 72.6038312,15.027628 C72.4307687,15.208188 72.2796437,15.408268 72.1845812,15.627868 C71.7945812,16.486748 71.3850812,17.352948 71.0413937,18.241108 C71.0340812,18.255748 71.0292062,18.272828 71.0218937,18.289908 C71.6629562,18.353348 72.3064562,18.431428 72.9450812,18.526588 C74.5830812,18.770588 76.2381437,19.038988 77.8810187,19.346428 C77.9395187,19.190268 78.0004562,19.034108 78.0589562,18.877948 C78.3246437,18.202068 78.6293312,17.526188 78.8584562,16.838108 C79.1728937,15.837708 79.4970812,14.837308 79.8212687,13.846668 C80.4769562,11.777548 80.9157062,9.632788 81.4665812,7.536828 C82.7828312,6.802388 83.6286437,5.172468 83.1240812,3.696268 C82.7048312,2.466508 82.3245812,1.273348 81.1253312,0.568188 C80.5720187,0.246108 79.9163312,0.063108 79.2582062,0.063108 C78.6195812,0.063108 77.9833937,0.236348 77.4495812,0.607228" id="Fill-233"></path>
                <path d="M106.913838,29.85502 C106.353213,30.12098 105.924213,30.56994 105.619525,31.1043 C105.3514,31.23606 105.085713,31.37026 104.829775,31.4947 C104.125338,31.84362 103.425775,32.2023 102.72865,32.56586 C103.476963,33.9591 104.186275,35.3621 104.837088,36.80414 C105.2149,37.63374 105.59515,38.45602 105.970525,39.2783 C106.840713,38.8269 107.7109,38.37794 108.5884,37.94606 C109.161213,37.66058 109.731588,37.38486 110.3044,37.10914 C110.969838,36.77486 111.713275,36.49914 112.3324,36.07946 C113.436588,35.3255 114.170275,34.2397 114.170275,32.85622 C114.170275,31.52398 113.456088,30.33082 112.3324,29.63542 C111.635275,29.20598 110.874775,29.03518 110.111838,29.03518 C109.00765,29.03518 107.893713,29.38898 106.913838,29.85502" id="Fill-235"></path>
                <path d="M91.1273688,43.503892 C91.7757438,44.609212 92.9311188,45.258252 94.1376813,45.333892 C93.2553063,43.367252 92.3217438,41.410372 91.2711813,39.546212 C90.5033688,40.702772 90.3961188,42.249732 91.1273688,43.503892" id="Fill-237"></path>
                <path d="M87.5947,70.601068 C87.3387625,71.545348 87.4606375,72.575028 87.95545,73.411948 C88.4600125,74.270828 89.22295,74.775908 90.1370125,75.090668 C91.5263875,75.556708 92.9182,76.052028 94.288075,76.605908 C94.95595,76.871868 95.6213875,77.142708 96.2892625,77.403788 C96.8108875,75.581108 97.2447625,73.736468 97.544575,71.877188 C97.60795,71.306228 97.6640125,70.732828 97.710325,70.159428 C95.8358875,69.442068 93.9712,68.700308 92.06995,68.065908 C91.7457625,67.951228 91.421575,67.904868 91.090075,67.904868 C89.5178875,67.904868 88.0042,69.085828 87.5947,70.601068" id="Fill-239"></path>
                <path d="M110.42725,75.700424 C110.107938,77.574344 109.620438,79.367744 109.08175,81.161144 C109.440063,81.083064 109.78375,80.948864 110.103063,80.760984 C111.731313,79.809384 112.4455,77.501144 111.390063,75.861464 C111.153625,75.490584 110.8855,75.119704 110.578375,74.790304 C110.529625,75.095304 110.480875,75.397864 110.42725,75.700424" id="Fill-241"></path>
                <path d="M71.1559562,90.083004 C69.2620187,90.607604 68.3089562,92.523004 68.7184562,94.372524 C68.8159562,94.806844 68.9256437,95.236284 69.0426437,95.665724 C71.3875187,95.697444 73.7397062,95.697444 76.0699562,95.507124 C76.1308937,95.494924 76.1893937,95.485164 76.2503312,95.472964 C75.9383312,94.504284 75.6580187,93.523404 75.4313312,92.523004 C75.0876437,90.968724 73.5544562,89.968324 72.0310187,89.968324 C71.7360812,89.968324 71.4411437,90.007364 71.1559562,90.083004" id="Fill-243"></path>
                <path d="M38.7459813,110.288156 C37.7466063,111.947356 38.3657313,114.177516 40.0110438,115.138876 C41.6953563,116.131956 43.8671688,115.521956 44.8665438,113.872516 C46.0414188,111.913196 47.1846063,109.939236 48.3156063,107.957956 C47.9451063,107.867676 47.5770438,107.767636 47.2089813,107.657836 C45.2736063,107.077116 43.3504188,106.376836 41.4418563,105.691196 C40.5546063,107.230836 39.6600438,108.763156 38.7459813,110.288156" id="Fill-245"></path>
            </g>
            <g id="Group-288" opacity="0.504417783" transform="translate(185.000000, 83.000000)">
                <path d="M63.819102,4.77898846 C63.2460408,6.86960385 62.9497143,8.98952692 62.9374694,11.1582962 C62.9325714,12.1547577 62.9203265,13.1536615 62.9276735,14.1501231 C62.9374694,16.3408731 62.9521633,18.5291808 62.9742041,20.7223731 C63.0035918,23.7777 63.0721633,26.8305846 63.104,29.8834692 C63.9733878,29.7296038 64.8525714,29.6221423 65.7219592,29.5488731 C66.8950204,29.4536231 68.0631837,29.3901231 69.2386939,29.3705846 C69.5717551,29.3657 69.8999184,29.3583731 70.2329796,29.3534885 C70.1913469,26.0099692 70.1056327,22.6688923 70.068898,19.3278154 C70.0493061,17.6792577 70.0370612,16.0331423 70.0248163,14.3894692 C70.0150204,12.5308731 69.9856327,10.6600654 70.1497143,8.80635385 C70.2917551,8.08587308 70.4656327,7.37271923 70.661551,6.65712308 C71.1709388,4.79852692 70.0493061,2.81781538 68.1831837,2.30737308 C67.8770612,2.22433462 67.5684898,2.18037308 67.2623673,2.18037308 C65.7072653,2.18037308 64.2427755,3.22568077 63.819102,4.77898846" id="Fill-248"></path>
                <path d="M68.7814694,39.2802481 C67.7553469,39.3119981 66.7316735,39.3584019 65.710449,39.4585365 C64.7969796,39.6148442 63.8957551,39.8004596 63.0116735,40.0862096 C62.9382041,41.4905365 62.8573878,42.8948635 62.7618776,44.3016327 C62.4973878,48.0408058 62.0908571,51.7677673 61.8753469,55.511825 C61.4075918,63.3907096 61.3071837,71.2769212 60.6777959,79.1484788 C60.5749388,80.4575558 60.4720816,81.769075 60.3741224,83.0805942 C61.6696327,82.8217096 62.943102,82.4871135 64.1920816,82.054825 C64.9586122,81.642075 65.6712653,81.1145365 66.3961633,80.6334019 C66.8908571,80.3012481 67.4026939,79.9984019 67.9096327,79.6906712 C68.0124898,78.4573058 68.112898,77.2190558 68.2059592,75.9856904 C68.4826939,72.2587288 68.5488163,68.5195558 68.6859592,64.7852673 C68.8377959,60.6455558 69.0141224,56.5107288 69.312898,52.3734596 C69.5749388,48.6416135 70.0035102,44.9048827 70.143102,41.1632673 C70.1651429,40.5233827 70.1847347,39.8859404 70.2018776,39.2460558 C69.7292245,39.2533827 69.2541224,39.2680365 68.7814694,39.2802481" id="Fill-250"></path>
                <path d="M60.6981224,92.9966077 C60.7299592,92.9941654 60.756898,92.9892808 60.7862857,92.9843962 C60.8083265,92.9819538 60.8279184,92.9795115 60.8475102,92.9770692 C60.8279184,92.9795115 60.8083265,92.9819538 60.7862857,92.9843962 C60.4556735,93.0332423 60.1250612,93.0820885 59.789551,93.1284923 C59.676898,96.2912808 59.6254694,99.4540692 59.429551,102.614415 C59.3291429,104.253204 59.1993469,105.88955 59.1234286,107.528338 C59.0548571,109.152473 59.0475102,110.783935 59.0303673,112.410512 C59.0156735,113.95405 58.9740408,115.492704 58.9152653,117.036242 C58.8883265,117.715204 58.8613878,118.391723 58.829551,119.068242 C58.8222041,119.266069 58.8148571,119.466338 58.8099592,119.664165 C58.7952653,120.194146 58.8785306,120.687492 58.949551,121.222358 C59.072,122.111358 59.916898,122.997915 60.6515918,123.430204 C61.6997551,124.040781 63.3626122,124.194646 64.3936327,123.430204 C64.6850612,123.212838 64.9715918,122.993031 65.2581224,122.763454 C65.4540408,122.524108 65.6524082,122.284762 65.8507755,122.045415 C66.4899592,121.263877 66.9258776,120.506762 66.9258776,119.459012 C66.9258776,118.71655 66.6907755,117.993627 66.276898,117.390377 C66.2915918,117.026473 66.3087347,116.667454 66.3209796,116.308435 C66.3822041,114.491358 66.3846531,112.674281 66.4042449,110.857204 C66.4287347,108.913127 66.4777143,106.971492 66.5952653,105.027415 C66.7005714,103.210338 66.8450612,101.400588 66.9160816,99.5835115 C66.996898,97.5588385 67.0287347,95.5292808 67.0875102,93.5021654 C67.107102,92.8329731 67.1340408,92.1613385 67.1658776,91.4921462 C65.0989388,92.2663577 62.8875102,92.6839923 60.6981224,92.9966077" id="Fill-252"></path>
                <path d="M113.702612,55.0084654 C113.445469,55.0231192 113.183429,55.0597538 112.926286,55.0866192 C112.157306,55.1745423 111.398122,55.2062923 110.624245,55.2136192 C109.857714,55.2209462 109.093633,55.2062923 108.332,55.1940808 C107.075673,55.1745423 105.816898,55.1525615 104.56302,55.2062923 C102.601388,55.2991 100.610367,55.3699269 98.6609796,55.6043885 C97.1475102,55.7777923 95.6364898,55.9682923 94.1230204,56.1416962 C94.2307755,56.9671962 94.3091429,57.7975808 94.2993469,58.6230808 C94.292,59.3924077 94.1964898,60.1495231 94.0960816,60.9115231 C93.9564898,61.9812538 93.816898,62.9728308 93.569551,63.9570808 C96.4617959,63.6566769 99.3442449,63.2878885 102.246286,63.1144846 C104.198122,62.9996962 106.127918,62.9337538 108.082204,62.9655038 C109.791592,62.9923692 111.498531,63.0680808 113.200571,62.8433885 C114.212,62.7090615 115.07649,62.6480038 115.980163,62.1180231 C116.832408,61.6222346 117.471592,60.7967346 117.733633,59.8442346 C117.914857,59.1726 117.914857,58.4960808 117.733633,57.8220038 C117.496082,56.9574269 116.834857,55.9316577 115.980163,55.5506577 C115.292,55.2356 114.650367,55.0011385 113.905878,55.0011385 C113.839755,55.0011385 113.773633,55.0035808 113.702612,55.0084654" id="Fill-254"></path>
                <path d="M0.583265306,59.5663 C0.0297959184,61.5616654 1.24204082,63.6938 3.24285714,64.2408769 C5.02081633,64.7268962 6.84040816,64.9296077 8.67469388,65.0053192 C10.5310204,65.0834731 12.3653061,65.0419538 14.2118367,65.2251269 C15.8746939,65.5059923 17.5081633,65.9065308 19.1440816,66.3046269 C20.2436735,66.5683962 21.3457143,66.7882038 22.455102,67.0031269 C23.6453061,67.2400308 24.8820408,67.3328385 26.0820408,67.4793769 C27.0102041,67.5966077 27.9628571,67.6259154 28.8983673,67.6576654 C28.9228571,67.6576654 28.9473469,67.6601077 28.9742857,67.6601077 C28.6191837,66.9835885 28.4183673,66.2191462 28.4110204,65.4156269 C28.3963265,63.5790115 28.6044898,61.75705 29.0820408,59.9766077 C27.5489796,59.9302038 26.0330612,59.7909923 24.5122449,59.6200308 C23.6134694,59.4515115 22.7097959,59.2878769 21.8159184,59.0753962 C19.8322449,58.6040308 17.8608163,58.1058 15.8428571,57.8029538 C13.6853061,57.4781269 11.5473469,57.4219538 9.37020408,57.4219538 C8.52530612,57.4170692 7.68040816,57.3511269 6.8355102,57.2754154 C6.30897959,57.1752808 5.7922449,57.0531654 5.26816327,56.9115115 C4.94244898,56.8211462 4.61183673,56.7796269 4.28612245,56.7796269 C2.61102041,56.7796269 1.04122449,57.8933192 0.583265306,59.5663" id="Fill-256"></path>
                <path d="M80.0386939,57.0226365 C78.1235918,57.0959058 76.2011429,57.0617135 74.2835918,57.1007904 C72.1774694,57.1471942 70.0811429,57.2668673 67.9774694,57.4280596 C66.3146122,57.5599442 64.6713469,57.8652327 63.0084898,57.9580404 C61.0468571,58.0752712 59.0803265,58.1412135 57.1211429,58.2413481 C53.3937959,58.4342904 49.6835918,58.9056558 45.9635918,59.1914058 C44.2468571,59.3232904 42.5178776,59.3696942 40.8011429,59.5015788 C40.788898,59.5015788 40.779102,59.5015788 40.7668571,59.5040212 C40.668898,59.8923481 40.5195102,60.2733481 40.3162449,60.6372519 C40.2354286,61.3748288 40.1546122,62.1099635 40.0003265,62.8328865 C39.9293061,63.1650404 39.8607347,63.5020788 39.7970612,63.8391173 C39.704,64.979675 39.7358367,66.1373288 39.8582857,67.2705596 C39.8582857,67.2852135 39.8607347,67.297425 39.8631837,67.3096365 C40.2844082,67.2803288 40.7056327,67.2534635 41.1268571,67.233925 C45.3513469,67.011675 49.544,66.6844058 53.7513469,66.2936365 C55.6713469,66.1129058 57.588898,66.0030019 59.5113469,65.932175 C61.5537959,65.8613481 63.5742041,65.7221365 65.6044082,65.5120981 C67.659102,65.2996173 69.699102,65.0700404 71.7611429,64.9747904 C73.7227755,64.8819827 75.6868571,64.8746558 77.6460408,64.8477904 C79.3235918,64.8233673 81.0035918,64.7671942 82.6786939,64.6914827 C82.8476735,64.3813096 83.0117551,64.0662519 83.1586939,63.7463096 C83.6484898,62.5471365 84.0893061,61.3479635 84.2876735,60.0535404 C84.228898,60.4907135 84.1701224,60.9303288 84.1137959,61.3675019 C84.2166531,60.5639827 84.3660408,59.7482519 84.3733878,58.9374058 C84.3831837,58.2242519 84.3342041,57.518425 84.2705306,56.8174827 C82.8599184,56.8980788 81.4493061,56.9689058 80.0386939,57.0226365" id="Fill-258"></path>
                <path d="M96.6937143,12.9634058 C95.2953469,14.5362519 94.0194286,16.211675 92.7141224,17.8651173 C91.3475918,19.5893865 90.0300408,21.3454058 88.7002449,23.0965404 C86.3786122,26.149425 84.1573878,29.2731365 81.9043265,32.3748673 C81.848,32.4530212 81.7892245,32.5336173 81.732898,32.6117712 C82.9206531,33.3664442 83.9467755,34.3067327 84.8945306,35.3544827 C85.5361633,36.0700788 86.2292245,36.7514827 86.8292245,37.5012712 C86.888,37.5769827 86.9492245,37.6502519 87.005551,37.7259635 C87.8553469,36.5805212 88.683102,35.420425 89.5133061,34.2627712 C92.2659592,30.4332327 95.0626939,26.6500981 97.932898,22.910925 C99.2137143,21.2867904 100.474939,19.6431173 101.846367,18.1020212 C102.502694,17.3620019 102.911673,16.5389442 102.911673,15.5302712 C102.911673,14.5704442 102.524735,13.639925 101.846367,12.9634058 C101.155755,12.2795596 100.163918,11.9034442 99.1843265,11.9034442 C98.2537143,11.9034442 97.3353469,12.2404827 96.6937143,12.9634058" id="Fill-260"></path>
                <path d="M75.2053878,41.5914038 C74.2478367,43.0616731 73.2829388,44.5295 72.2298776,45.9338269 C71.1082449,47.4260769 69.9400816,48.87925 68.8600816,50.40325 C67.8119184,51.8906154 66.8127347,53.4219423 65.7449796,54.8922115 C64.7727347,56.2159423 63.7931429,57.5274615 62.8013061,58.8316538 C60.4086531,61.8234808 57.9547755,64.7640192 55.6086531,67.7949231 C53.0225306,71.1237885 50.7057959,74.6358269 48.2715102,78.0745962 C47.6494694,78.9489423 47.0225306,79.8184038 46.3931429,80.6854231 C46.9245714,80.9980385 47.4829388,81.2764615 48.0143673,81.5841923 C48.6657959,81.96275 49.3196735,82.3242115 49.9931429,82.6514808 C51.1196735,83.0471346 52.2755918,83.2864808 53.458449,83.4720962 C53.460898,83.4720962 53.4657959,83.4745385 53.4682449,83.4745385 C54.2886531,82.3413077 55.1017143,81.20075 55.8927347,80.0479808 C57.8151837,77.2564231 59.7400816,74.4721923 61.7972245,71.7783269 C64.2853878,68.6741538 66.8200816,65.6066154 69.2421224,62.4487115 C70.4347755,60.8905192 71.6053878,59.325 72.7098776,57.7106346 C73.7874286,56.1353462 74.8355918,54.5234231 75.9964082,53.0116346 C77.1694694,51.4851923 78.3572245,49.9709615 79.4592653,48.3932308 C79.9466122,47.6947308 80.4192653,46.9913462 80.8870204,46.2830769 C80.451102,45.5308462 79.973551,44.7957115 79.4666122,44.0923269 C79.1115102,43.6771346 78.7294694,43.2814808 78.3547755,42.8833846 C77.8013061,42.2947885 77.2723265,41.6817692 76.6894694,41.1200385 C76.4200816,40.9441923 76.140898,40.7756731 75.8568163,40.6144808 C75.6388571,40.9393077 75.420898,41.2641346 75.2053878,41.5914038" id="Fill-262"></path>
                <path d="M38.2529796,91.8936615 C37.1019592,93.4274308 35.9166531,94.9318923 34.7680816,96.4681038 C34.5868571,96.7123346 34.4056327,96.9541231 34.2219592,97.1983538 C33.2497143,98.4341615 32.2529796,99.6528731 31.3542041,100.949738 C30.8374694,101.687315 30.3109388,102.417565 29.7795102,103.142931 C29.4048163,103.418912 29.0693061,103.765719 28.8023673,104.176027 C28.7435918,104.261508 28.6872653,104.346988 28.6260408,104.434912 C28.1827755,104.977104 27.7370612,105.548604 27.5999184,106.244662 C27.401551,107.233796 27.4456327,108.166758 27.9697143,109.0582 C28.486449,109.937431 29.2309388,110.394142 30.159102,110.736065 C31.5035918,111.239181 33.0831837,110.567546 33.9819592,109.549104 C34.5182857,108.945854 34.9860408,108.293758 35.4660408,107.651431 C36.3280816,106.498662 37.1729796,105.336123 37.9982857,104.163815 C39.9623673,101.653123 41.9484898,99.1546423 43.8684898,96.6073154 C44.9778776,95.1321615 46.0627755,93.6374692 47.1452245,92.1427769 C45.6072653,91.5883731 44.1452245,90.8068346 42.7517551,89.9788923 C42.0733878,89.5783538 41.3558367,89.2535269 40.7166531,88.7919308 C40.6701224,88.7626231 40.6284898,88.7308731 40.5844082,88.6966808 C39.8178776,89.7712962 39.046449,90.8385846 38.2529796,91.8936615" id="Fill-264"></path>
                <path d="M27.5362449,19.4579904 C26.7182857,19.9366827 26.1109388,20.7255481 25.8562449,21.6340865 C25.5795102,22.6427596 25.7950204,23.5219904 26.2260408,24.4378558 C26.4684898,24.9580673 26.6986939,25.4929327 26.9680816,26.003375 C27.3917551,26.8191058 28.0725714,27.4687596 28.6578776,28.1770288 C29.7623673,29.5105288 30.8619592,30.8391442 31.9982857,32.1433365 C32.5052245,32.7221635 33.1027755,33.2374904 33.6513469,33.7772404 C34.2709388,34.3927019 34.9370612,34.9739712 35.5811429,35.5674519 C36.9256327,36.8081442 38.201551,38.131875 39.4921633,39.4262981 C39.8325714,39.7682212 40.1705306,40.1150288 40.5084898,40.4642788 C40.5868571,40.4105481 40.6652245,40.3568173 40.7460408,40.3055288 C42.7933878,38.9476058 44.9484898,37.7801827 47.1648163,36.734875 C47.0325714,36.5956635 46.9003265,36.4564519 46.7705306,36.3172404 C45.4529796,34.9495481 44.1231837,33.5940673 42.761551,32.2752212 C41.2750204,30.8440288 39.7346122,29.464125 38.2627755,28.0207212 C36.8301224,26.6115096 35.561551,25.082625 34.2709388,23.5415288 C33.9721633,23.1800673 33.6611429,22.828375 33.3550204,22.4766827 C33.0366531,21.9296058 32.7966531,21.3336827 32.5297143,20.764625 C32.1476735,19.9488942 31.1876735,19.3236635 30.3452245,19.0940865 C30.0317551,19.0061635 29.7035918,18.9622019 29.3778776,18.9622019 C28.7337959,18.9622019 28.0970612,19.1282788 27.5362449,19.4579904" id="Fill-266"></path>
                <path d="M53.2505306,44.7622519 C52.0333878,45.2995596 50.8480816,45.8905981 49.6799184,46.532925 C48.9697143,46.9261365 48.2448163,47.3193481 47.5346122,47.7345404 C48.3011429,48.4574635 49.0848163,49.1584058 49.8782857,49.8617904 C50.6031837,50.5065596 51.3329796,51.1513288 52.0603265,51.7985404 C53.4954286,53.0660981 54.7713469,54.5314827 55.9762449,56.0188481 C58.3003265,59.2207135 60.519102,62.4836365 62.9142041,65.6342135 C65.3803265,68.8751558 68.1501224,71.9085019 70.9101224,74.9027712 C71.3142041,75.3399442 71.7182857,75.7795596 72.1223673,76.219175 C72.7933878,75.8015404 73.4962449,75.457175 74.1452245,75.0053481 C74.8260408,74.4607135 75.4995102,73.9136365 76.1852245,73.3787712 C76.0603265,73.4740212 75.9329796,73.5717135 75.8105306,73.6669635 C76.5501224,73.0930212 77.1599184,72.4287135 77.8137959,71.7619635 C77.8897143,71.6862519 77.9656327,71.6129827 78.041551,71.5397135 C77.5982857,71.0512519 77.1525714,70.567675 76.7044082,70.0840981 C74.0913469,67.2705596 71.566449,64.3910788 69.1003265,61.4480981 C66.7958367,58.3976558 64.6284898,55.2544058 62.3729796,52.1770981 C61.0162449,50.3209442 59.4733878,48.6113288 57.8276735,47.0067327 C56.9705306,46.1690212 56.0423673,45.4045788 55.1386939,44.6108288 C54.9721633,44.4642904 54.8080816,44.3177519 54.641551,44.1712135 C54.1811429,44.373925 53.7158367,44.5693096 53.2505306,44.7622519" id="Fill-268"></path>
                <path d="M83.6237551,80.0015769 C83.156,80.4265385 82.6539592,80.8173077 82.1470204,81.20075 C81.1257959,82.0238077 80.1143673,82.85175 79.0588571,83.6284038 C78.9315102,83.7212115 78.8017143,83.8091346 78.6719184,83.8921731 C81.1943673,87.0329808 83.7804898,90.1249423 86.3004898,93.2706346 C87.7968163,95.1341154 89.3200816,96.9780577 90.833551,98.8268846 C90.8702857,98.8830577 90.9070204,98.9441154 90.9364082,99.0076154 C90.9829388,99.1150769 91.0270204,99.2200962 91.080898,99.3275577 C91.3747755,99.9845385 91.9674286,100.375308 92.518449,100.780731 C93.5298776,101.525635 95.2539592,101.430385 96.2776327,100.780731 C96.838449,100.426596 97.3796735,99.9747692 97.673551,99.3666346 C97.9380408,98.8268846 98.0874286,98.3701731 98.2319184,97.8108846 C98.6923265,96.0573077 97.8106939,94.2133654 96.1821224,93.4855577 C95.7143673,92.9458077 95.2539592,92.4036154 94.8082449,91.8565385 C93.6841633,90.4595385 92.5600816,89.0674231 91.4433469,87.6679808 C89.1486531,84.8031538 86.7927347,81.9847308 84.4833469,79.1272308 C84.2017143,79.4251923 83.9298776,79.7280385 83.6237551,80.0015769" id="Fill-270"></path>
                <path d="M24.0207347,74.9262173 C23.3619592,75.1118327 22.7937959,75.4439865 22.308898,75.9226788 C22.1668571,76.035025 22.0248163,76.1449288 21.8827755,76.2548327 C20.9080816,76.9948519 19.9260408,77.6957942 18.8656327,78.321025 C18.2142041,78.702025 17.5431837,79.0463904 16.8721633,79.3907558 C15.9146122,79.8792173 14.9595102,80.353025 13.9921633,80.8219481 C13.2060408,81.2005058 12.4150204,81.5790635 11.6166531,81.9356404 C11.0827755,82.1701019 10.666449,82.3996788 10.2207347,82.8441788 C9.03053061,84.0311404 8.66808163,86.0826788 9.62318367,87.528525 C10.3676735,88.6519865 11.4966531,89.3920058 12.8827755,89.3920058 C13.4705306,89.3895635 14.028898,89.2601212 14.5505306,89.0061212 C16.0150204,88.4883519 17.4158367,87.7605442 18.8117551,87.0864673 C19.7129796,86.6468519 20.6044082,86.1828135 21.5031837,85.7285442 C23.7929796,84.5562365 25.7913469,82.9833904 27.8019592,81.400775 C28.5611429,80.8024096 28.9382857,79.5836981 28.9382857,78.6605058 C28.9382857,77.6396212 28.5268571,76.6456019 27.8019592,75.9226788 C27.0770612,75.1997558 26.0803265,74.7870058 25.0542041,74.7870058 C24.7113469,74.8334096 24.3684898,74.8798135 24.0207347,74.9262173" id="Fill-272"></path>
                <path d="M15.8222857,37.2934308 C14.4582041,38.6537962 14.3920816,41.0399308 15.8222857,42.3929692 C17.1888163,43.68495 18.9177959,44.4445077 20.5782041,45.27245 C21.3741224,45.6705462 22.145551,46.1150462 22.9243265,46.5448923 C24.7243265,47.5291423 26.6100408,48.2838154 28.5520816,48.9334692 C30.4573878,49.5684692 32.5733061,48.2178731 33.0851429,46.3666038 C33.3496327,45.4189885 33.2149388,44.38345 32.712898,43.5359692 C32.2084082,42.6787192 31.4418776,42.1560654 30.5112653,41.8483346 C29.8524898,41.6260846 29.1888163,41.39895 28.5349388,41.1498346 C26.9088163,40.3805077 25.3733061,39.4426615 23.7618776,38.6415846 C22.752898,38.1433538 21.6533061,37.71595 20.7006531,37.1004885 C20.0173878,36.5705077 19.2875918,36.2383538 18.3765714,36.2383538 C17.4239184,36.2383538 16.4957551,36.6193538 15.8222857,37.2934308" id="Fill-274"></path>
                <path d="M48.2666122,6.60119423 C47.3727347,6.84786731 46.5915102,7.44623269 46.1237551,8.24730962 C45.6364082,9.07525192 45.5017143,10.083925 45.7588571,11.0071173 C45.8543673,11.353925 45.9915102,11.6567712 46.1702857,11.9303096 C46.3245714,12.4822712 46.4568163,13.0415596 46.616,13.5910788 C46.9172245,14.6266173 47.2404898,15.6597135 47.5539592,16.6903673 C48.2666122,19.0105596 49.1531429,21.2770212 50.0200816,23.5434827 C50.3702857,24.4617904 50.813551,25.1993673 51.6927347,25.7146942 C52.5351837,26.2055981 53.5613061,26.3374827 54.5017143,26.0810404 C55.4127347,25.831925 56.2013061,25.2237904 56.6813061,24.4105019 C57.1319184,23.6338481 57.3817143,22.4786365 57.0486531,21.609175 C56.0764082,19.0716173 55.1262041,16.5316173 54.3400816,13.9305596 C54.0217143,12.8876942 53.7033469,11.8399442 53.4119184,10.782425 C53.0004898,9.29994423 52.5474286,7.71732885 51.0388571,6.96021346 C50.4364082,6.65736731 49.8192653,6.47663654 49.1776327,6.47663654 C48.8788571,6.47663654 48.5776327,6.51571346 48.2666122,6.60119423" id="Fill-276"></path>
                <path d="M79.8067755,1.19075 C79.1994286,1.61571154 78.7733061,2.03823077 78.4157551,2.69032692 C78.188,3.11284615 78.0165714,3.61107692 77.8965714,4.08244231 C77.4533061,5.79205769 77.0835102,7.51876923 76.6794286,9.23815385 C76.3292245,10.7279615 75.9594286,12.2177692 75.5112653,13.6782692 C75.2810612,14.4353846 75.0851429,15.2218077 74.825551,15.9715962 C74.6418776,16.1547692 74.4900408,16.3599231 74.3871837,16.5821731 C73.985551,17.4662885 73.5618776,18.3528462 73.2092245,19.2613846 C73.1186122,19.5007308 73.0671837,19.7669423 73.0157551,20.0185 C72.9251429,20.4605577 72.8002449,21.0125192 72.8173878,21.4252692 C72.8565714,22.2996154 73.1382041,23.0884808 73.7675918,23.7137115 C74.3235102,24.2681154 75.2565714,24.7541346 76.0671837,24.6662115 C76.3659592,24.6320192 76.6671837,24.5929423 76.9659592,24.5465385 C77.5120816,24.3951154 78.0557551,24.0702885 78.4573878,23.6673077 C78.8124898,23.3156154 79.0990204,22.8491346 79.3439184,22.4119615 C79.7847347,21.6230962 80.105551,20.7536346 80.4361633,19.9183654 C80.710449,19.2223077 81.0239184,18.5335769 81.2541224,17.8228654 C81.5847347,16.8019808 81.912898,15.7786538 82.2410612,14.7577692 C82.9243265,12.6378462 83.3749388,10.4446538 83.9406531,8.28809615 C85.2924898,7.54319231 86.1643265,5.87021154 85.6426939,4.34865385 C85.2165714,3.09575 84.8198367,1.86971154 83.588,1.14678846 C83.0173878,0.812192308 82.3414694,0.631461538 81.672898,0.631461538 C81.0116735,0.631461538 80.3577959,0.807307692 79.8067755,1.19075" id="Fill-278"></path>
                <path d="M110.122449,31.1637269 C109.546939,31.4348231 109.098776,31.8964192 108.787755,32.4483808 C108.515918,32.5827077 108.244082,32.7170346 107.974694,32.8489192 C106.453878,33.6035923 104.96,34.3924577 103.456327,35.1837654 C100.666939,36.6589192 97.9804082,38.3514385 95.2546939,39.9389385 C93.4595918,40.9915731 92.8302041,43.3654962 93.8832653,45.15815 C94.9387755,46.9532462 97.3167347,47.5809192 99.1167347,46.5282846 C101.844898,44.9383423 104.531429,43.2507077 107.325714,41.7804385 C108.826939,40.9915731 110.328163,40.2075923 111.846531,39.4578038 C112.431837,39.1696115 113.019592,38.8838615 113.602449,38.5981115 C114.297959,38.2635154 115.054694,37.9777654 115.691429,37.5430346 C116.832653,36.7688231 117.589388,35.6600154 117.589388,34.2410346 C117.589388,32.8733423 116.847347,31.6546308 115.691429,30.9439192 C114.978776,30.5043038 114.2,30.3284577 113.40898,30.3284577 C112.28,30.3284577 111.126531,30.6899192 110.122449,31.1637269" id="Fill-280"></path>
                <path d="M90.2411429,72.9323173 C89.9766531,73.8994712 90.1113469,74.9521058 90.6182857,75.8142404 C91.1301224,76.6861442 91.9162449,77.2112404 92.8566531,77.5287404 C94.2917551,78.009875 95.7219592,78.5227596 97.1301224,79.0844904 C98.4844082,79.6217981 99.8313469,80.1810865 101.210122,80.645125 C102.640327,81.1238173 104.060735,81.5414519 105.51298,81.9346635 C106.693388,82.2472788 107.886041,82.4890673 109.054204,82.835875 C109.470531,83.2388558 109.948082,83.5417019 110.570122,83.7126635 C111.517878,83.9739904 112.553796,83.8396635 113.403592,83.343875 C115.078694,82.3669519 115.80849,80.0076827 114.726041,78.3249327 C114.27298,77.6215481 113.724408,76.9157212 112.972571,76.4980865 C112.281959,76.1097596 111.537469,75.8166827 110.783184,75.5773365 C110.092571,75.3599712 109.389714,75.1792404 108.684408,75.0009519 C107.178286,74.6223942 105.669714,74.2487212 104.190531,73.755375 C101.041143,72.707625 97.9970612,71.3790096 94.8501224,70.326375 C94.5170612,70.2164712 94.179102,70.1651827 93.8435918,70.1651827 C92.2223673,70.1651827 90.6721633,71.3765673 90.2411429,72.9323173" id="Fill-282"></path>
                <path d="M73.328,92.9013577 C71.3786122,93.4386654 70.4014694,95.3973962 70.8251429,97.2975115 C71.6161633,100.814435 73.0953469,104.113992 74.1777959,107.542992 C74.763102,109.389377 76.6414694,110.554358 78.5663673,110.024377 C80.405551,109.521262 81.6202449,107.506358 81.0569796,105.652646 C80.0112653,102.211435 78.5198367,98.9118769 77.7337143,95.3973962 C77.3737143,93.8074538 75.7990204,92.7816846 74.2292245,92.7816846 C73.925551,92.7816846 73.6218776,92.8207615 73.328,92.9013577" id="Fill-284"></path>
                <path d="M46.4394286,102.459329 C44.3161633,106.193617 42.2026939,109.930348 39.9839184,113.608463 C38.9602449,115.310752 39.5920816,117.591867 41.2892245,118.585887 C43.023102,119.59456 45.2590204,118.976656 46.2826939,117.279252 C48.4990204,113.601137 50.6100408,109.864406 52.7333061,106.127675 C53.7177959,104.403406 53.1569796,102.166252 51.428,101.152694 C50.8671837,100.825425 50.2377959,100.669117 49.6108571,100.669117 C48.3422857,100.669117 47.0933061,101.30656 46.4394286,102.459329" id="Fill-286"></path>
            </g>
        </g>
    </g>
</svg>