<?xml version="1.0" encoding="UTF-8"?>
<svg width="800px" height="1000px" viewBox="0 0 800 1000" version="1.1" xmlns="http://www.w3.org/2000/svg" xmlns:xlink="http://www.w3.org/1999/xlink">
    <!-- Generator: Sketch 51.1 (57501) - http://www.bohemiancoding.com/sketch -->
    <title>game_console_DL</title>
    <desc>Created with Sketch.</desc>
    <defs></defs>
    <g id="game_console_DL" stroke="none" stroke-width="1" fill="none" fill-rule="evenodd">
        <g id="logo-footer" transform="translate(441.000000, 654.000000)">
            <g>
                <path d="M110.812545,8.25651402 C110.904572,8.56348079 110.810146,8.81874549 110.573746,9.09365441 C110.548096,9.12348237 110.524607,9.14951827 110.482164,9.19539003 C110.410296,9.27306357 110.388406,9.29969141 110.394575,9.28699974 C110.158488,9.77253772 109.949286,10.3963755 109.78094,11.1092981 C109.323962,13.0450464 110.241419,14.6677006 112.137009,15.2172501 C114.194676,15.8138908 116.608374,14.6870388 117.500673,12.7424366 C118.556971,10.4412591 118.361229,8.87677042 116.832238,7.67717368 C114.960938,6.20902274 112.357851,6.27012948 111.072216,7.83985899 L110.795491,8.1777337 C110.794947,8.20051389 110.804056,8.228204 110.812545,8.25651402 Z M110.106083,6.26944954 C110.423589,5.88663707 110.955421,5.49967933 111.419965,5.30848582 C112.37958,4.91358991 113.68037,4.90617957 115.133698,5.23840657 C117.932917,5.87841333 120.108577,8.22064492 119.995807,10.6570534 C119.760531,15.7499925 113.426094,19.0246323 109.732148,15.5763745 C107.943744,13.9068501 107.553768,11.8021869 108.499361,9.2850154 C108.62423,8.95356867 108.851111,8.49010331 109.049811,8.18524994 C109.270059,7.84733807 109.481086,7.64146186 109.750777,7.55562368 C109.778602,7.54676715 109.806094,7.5393618 109.833231,7.53336632 C109.647627,7.16965375 109.747904,6.70130236 110.106083,6.26944954 Z" id="Fill-4" fill="#000000" fill-rule="nonzero"></path>
                <path d="M116,2.36382675 C116.035222,2.23410526 116.077249,2.03952302 116.14169,1.8509661 C116.280178,1.44230796 116.378641,1.03435869 116.377039,0.600890425 C116.376639,0.410561355 116.256963,0.110004457 116.623996,0.0412449782 C116.938196,-0.017590452 117.272408,-0.0501980398 117.512961,0.20711836 C117.655051,0.358460099 117.796741,0.518308165 117.8896,0.694814455 C118.216208,1.3175485 117.776729,2.53572545 117.114308,2.89086461 C116.612389,3.15987721 116.012808,2.911776 116,2.36382675" id="Fill-103" fill="#000000" fill-rule="nonzero"></path>
                <path d="M113.597281,1.30015424 C113.547641,1.6054057 113.484683,1.90995301 113.451993,2.21696486 C113.409214,2.61727733 113.068594,2.79366831 112.724342,2.93802021 C112.426905,3.06335991 112.146418,3.01090032 112.073774,2.6669203 C111.908307,1.88389925 112.059649,1.1040469 112.154086,0.329475719 C112.197269,-0.0278832593 112.773982,-0.106396611 113.167067,0.152380579 C113.512933,0.380527 113.619074,0.676272361 113.597281,1.30015424" id="Fill-107" fill="#000000" fill-rule="nonzero"></path>
                <path d="M112.19066,11.6823452 C110.632914,12.6206952 108.591708,13.9682577 107.051494,14.9237702 C106.603919,15.2015633 106.260092,15.3386205 105.847581,15.6483439 C105.453117,15.9444969 105.00264,16.1407116 104.673147,15.8744932 C104.334372,15.6006913 103.968388,15.4738054 104.253536,15.0032335 C104.507231,14.584149 104.804932,14.5525935 105.343775,14.3418539 C106.408054,13.9255633 108.032176,12.8044553 108.976827,12.2352987 C109.267132,12.0600815 109.780582,11.6912496 110.031699,11.4841022 C110.690685,10.9400907 110.546085,10.7856194 109.803565,10.2635599 C108.494872,9.34277154 106.87805,8.31351987 105.559045,7.40151231 C105.221301,7.16842154 104.87376,6.94291422 104.554064,6.69585398 C103.681603,6.022525 103.837029,5.29651112 105.037953,5.02270928 C105.314335,4.95964705 105.519044,5.02949445 105.664454,5.21269422 C106.875175,6.74015718 109.059218,7.93310366 110.770108,9.0590438 C111.354328,9.44340412 111.803432,9.85804585 112.62433,10.0292717 C113.067264,10.1214703 112.94712,10.4970498 112.994043,10.9392837 C113.057467,11.2214672 112.602656,11.4340876 112.19066,11.6823452 Z" id="chevron" fill="#000000" fill-rule="nonzero" transform="translate(108.500000, 10.500000) rotate(-2.000000) translate(-108.500000, -10.500000) "></path>
                <path d="M4.80555555,7.71270718 L2.78703703,7.71270718 L2.78703703,12.9005525 L2.01851852,12.9005525 L2.01851852,7.71270718 L0,7.71270718 L0,7.09944751 L4.80555555,7.09944751 L4.80555555,7.71270718 Z M9.97657951,10.2403315 L6.8654684,10.2403315 L6.8654684,12.9005525 L6.09694989,12.9005525 L6.09694989,7.09944751 L6.8654684,7.09944751 L6.8654684,9.62707182 L9.97657951,9.62707182 L9.97657951,7.09944751 L10.745098,7.09944751 L10.745098,12.9005525 L9.97657951,12.9005525 L9.97657951,10.2403315 Z M12.6568627,7.09944751 L16.1846405,7.09944751 L16.1846405,7.71270718 L13.4253813,7.71270718 L13.4253813,9.61049724 L15.953159,9.61049724 L15.953159,10.2237569 L13.4253813,10.2237569 L13.4253813,12.2872928 L16.2309368,12.2872928 L16.2309368,12.9005525 L12.6568627,12.9005525 L12.6568627,7.09944751 Z M20.7674291,7.09944751 C20.8847137,7.08287284 21.0158852,7.07044203 21.1609477,7.0621547 C21.3060102,7.05386736 21.4572432,7.04834254 21.6146514,7.04558011 C21.7720596,7.04281768 21.926379,7.04005525 22.0776143,7.03729282 C22.2288497,7.03453039 22.3692805,7.03314917 22.4989106,7.03314917 C23.0174317,7.03314917 23.4665011,7.10497164 23.8461328,7.24861878 C24.2257645,7.39226593 24.539033,7.59254015 24.7859476,7.84944751 C25.0328623,8.10635488 25.2165027,8.41436285 25.3368736,8.77348066 C25.4572445,9.13259848 25.5174291,9.52762215 25.5174291,9.95856354 C25.5174291,10.3508307 25.4603309,10.7278988 25.3461328,11.089779 C25.2319348,11.4516593 25.0513808,11.7720981 24.8044662,12.051105 C24.5575516,12.3301119 24.236567,12.5538666 23.8415032,12.7223757 C23.4464394,12.8908848 22.9680495,12.9751381 22.406318,12.9751381 C22.3075521,12.9751381 22.179467,12.9737569 22.0220588,12.9709945 C21.8646506,12.968232 21.7026152,12.9627072 21.5359477,12.9544199 C21.3692802,12.9461326 21.2149607,12.9392266 21.0729847,12.9337017 C20.9310087,12.9281767 20.8291578,12.9198895 20.7674291,12.9088398 L20.7674291,7.09944751 Z M22.5174291,7.64640884 L22.2535402,7.64640884 C22.1578608,7.64640884 22.0637259,7.64917122 21.9711328,7.65469613 C21.8785398,7.66022104 21.7936641,7.66574581 21.7165032,7.67127072 C21.6393424,7.67679563 21.5791578,7.6823204 21.5359477,7.6878453 L21.5359477,12.3287293 C21.566812,12.3342542 21.6254534,12.3383978 21.7118736,12.3411602 C21.7982938,12.3439227 21.887799,12.3466851 21.9803921,12.3494475 C22.0729851,12.3522099 22.1624904,12.3549724 22.2489106,12.3577348 C22.3353309,12.3604972 22.3939723,12.3618785 22.4248365,12.3618785 C22.8569374,12.3618785 23.2195881,12.2955808 23.5127995,12.1629834 C23.8060109,12.0303861 24.0405762,11.852211 24.2165032,11.628453 C24.3924302,11.404695 24.5174286,11.1477915 24.5915032,10.8577348 C24.6655778,10.5676781 24.7026143,10.2679574 24.7026143,9.95856354 C24.7026143,9.68784397 24.6686642,9.41574724 24.6007625,9.14226519 C24.5328607,8.86878315 24.4155783,8.62154807 24.2489106,8.40055249 C24.0822429,8.17955691 23.8584801,7.99861948 23.5776143,7.85773481 C23.2967486,7.71685014 22.9433571,7.64640884 22.5174291,7.64640884 Z M26.892157,10 C26.892157,9.03314434 27.1205495,8.29143904 27.5773422,7.77486188 C28.0341344,7.25828471 28.6853622,7 29.5310459,7 C29.9878381,7 30.3828957,7.07182247 30.7162311,7.21546961 C31.0495659,7.35911676 31.3257979,7.56215336 31.5449348,7.82458564 C31.7640716,8.08701791 31.9261071,8.40193186 32.0310459,8.76933702 C32.1359847,9.13674217 32.1884533,9.54695907 32.1884533,10 C32.1884533,10.9668557 31.9585171,11.708561 31.4986385,12.2251381 C31.0387594,12.7417153 30.3829019,13 29.5310459,13 C29.080426,13 28.6899981,12.9281775 28.3597496,12.7845304 C28.0295006,12.6408832 27.7548124,12.4378466 27.5356755,12.1754144 C27.3165387,11.9129821 27.1545032,11.5980681 27.0495644,11.230663 C26.9446256,10.8632578 26.892157,10.4530409 26.892157,10 Z M27.7069718,10 C27.7069718,10.3204436 27.7424651,10.624308 27.8134533,10.9116022 C27.884441,11.1988965 27.9940078,11.4516564 28.142157,11.6698895 C28.2903057,11.8881227 28.4801184,12.0621541 28.7116014,12.191989 C28.943084,12.3218238 29.2162295,12.3867403 29.5310459,12.3867403 C30.1051225,12.3867403 30.5557352,12.1919909 30.8828977,11.8024862 C31.2100598,11.4129815 31.3736385,10.8121587 31.3736385,10 C31.3736385,9.68508131 31.3381447,9.38259816 31.267157,9.09254144 C31.1961688,8.80248476 31.0850587,8.54834365 30.9338237,8.3301105 C30.7825881,8.11187735 30.5912321,7.93784595 30.3597496,7.80801105 C30.1282666,7.67817615 29.8520351,7.61325967 29.5310459,7.61325967 C28.9631416,7.61325967 28.5171585,7.80800912 28.1930829,8.19751381 C27.8690068,8.58701851 27.7069718,9.18784125 27.7069718,10 Z M33.5631807,10 C33.5631807,9.03314434 33.7915737,8.29143904 34.2483658,7.77486188 C34.7051585,7.25828471 35.3563864,7 36.2020695,7 C36.6588622,7 37.0539198,7.07182247 37.3872547,7.21546961 C37.7205896,7.35911676 37.9968216,7.56215336 38.2159584,7.82458564 C38.4350953,8.08701791 38.5971308,8.40193186 38.7020695,8.76933702 C38.8070083,9.13674217 38.8594769,9.54695907 38.8594769,10 C38.8594769,10.9668557 38.6295412,11.708561 38.1696621,12.2251381 C37.7097835,12.7417153 37.053926,13 36.2020695,13 C35.7514502,13 35.3610217,12.9281775 35.0307732,12.7845304 C34.7005248,12.6408832 34.425836,12.4378466 34.2066992,12.1754144 C33.9875623,11.9129821 33.8255268,11.5980681 33.7205881,11.230663 C33.6156493,10.8632578 33.5631807,10.4530409 33.5631807,10 Z M34.3779955,10 C34.3779955,10.3204436 34.4134893,10.624308 34.484477,10.9116022 C34.5554651,11.1988965 34.665032,11.4516564 34.8131807,11.6698895 C34.9613298,11.8881227 35.1511426,12.0621541 35.3826251,12.191989 C35.6141076,12.3218238 35.8872532,12.3867403 36.2020695,12.3867403 C36.7761467,12.3867403 37.2267594,12.1919909 37.5539214,11.8024862 C37.8810834,11.4129815 38.0446621,10.8121587 38.0446621,10 C38.0446621,9.68508131 38.0091688,9.38259816 37.9381806,9.09254144 C37.867193,8.80248476 37.7560829,8.54834365 37.6048473,8.3301105 C37.4536122,8.11187735 37.2622558,7.93784595 37.0307732,7.80801105 C36.7992907,7.67817615 36.5230587,7.61325967 36.2020695,7.61325967 C35.6341657,7.61325967 35.1881822,7.80800912 34.8641066,8.19751381 C34.540031,8.58701851 34.3779955,9.18784125 34.3779955,10 Z M40.5027233,7.09944751 C40.6200078,7.08287284 40.7511791,7.07044203 40.8962419,7.0621547 C41.0413041,7.05386736 41.1925371,7.04834254 41.3499456,7.04558011 C41.5073535,7.04281768 41.6616729,7.04005525 41.8129085,7.03729282 C41.9641436,7.03453039 42.1045747,7.03314917 42.2342048,7.03314917 C42.7527259,7.03314917 43.2017954,7.10497164 43.581427,7.24861878 C43.9610587,7.39226593 44.2743267,7.59254015 44.5212419,7.84944751 C44.7681565,8.10635488 44.9517969,8.41436285 45.0721678,8.77348066 C45.1925387,9.13259848 45.2527233,9.52762215 45.2527233,9.95856354 C45.2527233,10.3508307 45.1956251,10.7278988 45.081427,11.089779 C44.967229,11.4516593 44.786675,11.7720981 44.5397604,12.051105 C44.2928452,12.3301119 43.9718612,12.5538666 43.5767974,12.7223757 C43.1817336,12.8908848 42.7033432,12.9751381 42.1416122,12.9751381 C42.0428463,12.9751381 41.9147609,12.9737569 41.757353,12.9709945 C41.5999445,12.968232 41.437909,12.9627072 41.2712419,12.9544199 C41.1045742,12.9461326 40.9502547,12.9392266 40.8082789,12.9337017 C40.6663026,12.9281767 40.5644517,12.9198895 40.5027233,12.9088398 L40.5027233,7.09944751 Z M42.2527233,7.64640884 L41.9888344,7.64640884 C41.8931549,7.64640884 41.7990201,7.64917122 41.706427,7.65469613 C41.6138339,7.66022104 41.5289584,7.66574581 41.4517974,7.67127072 C41.3746364,7.67679563 41.3144517,7.6823204 41.2712419,7.6878453 L41.2712419,12.3287293 C41.3021061,12.3342542 41.3607475,12.3383978 41.4471678,12.3411602 C41.533588,12.3439227 41.6230932,12.3466851 41.7156863,12.3494475 C41.8082794,12.3522099 41.8977846,12.3549724 41.9842048,12.3577348 C42.0706251,12.3604972 42.1292665,12.3618785 42.1601307,12.3618785 C42.5922316,12.3618785 42.9548823,12.2955808 43.2480937,12.1629834 C43.5413051,12.0303861 43.7758705,11.852211 43.9517974,11.628453 C44.1277244,11.404695 44.2527228,11.1477915 44.3267974,10.8577348 C44.400872,10.5676781 44.4379085,10.2679574 44.4379085,9.95856354 C44.4379085,9.68784397 44.4039584,9.41574724 44.3360567,9.14226519 C44.2681549,8.86878315 44.150872,8.62154807 43.9842048,8.40055249 C43.8175371,8.17955691 43.5937743,7.99861948 43.3129085,7.85773481 C43.0320428,7.71685014 42.6786513,7.64640884 42.2527233,7.64640884 Z M50.7293025,12.9005525 L46.8959692,12.9005525 L46.8959692,7.09944751 L47.6644877,7.09944751 L47.6644877,12.2872928 L50.7293025,12.2872928 L50.7293025,12.9005525 Z M52.0206971,7.09944751 L55.5484749,7.09944751 L55.5484749,7.71270718 L52.7892156,7.71270718 L52.7892156,9.61049724 L55.3169934,9.61049724 L55.3169934,10.2237569 L52.7892156,10.2237569 L52.7892156,12.2872928 L55.5947712,12.2872928 L55.5947712,12.9005525 L52.0206971,12.9005525 L52.0206971,7.09944751 Z M63.9645968,12.9005525 L60.1312634,12.9005525 L60.1312634,7.09944751 L60.8997819,7.09944751 L60.8997819,12.2872928 L63.9645968,12.2872928 L63.9645968,12.9005525 Z M65.4319172,7.09944751 L66.2004357,7.09944751 L66.2004357,12.9005525 L65.4319172,12.9005525 L65.4319172,7.09944751 Z M72.1955335,8.42541436 C72.1955335,8.5635366 72.1708426,8.70441915 72.1214594,8.8480663 C72.0720767,8.99171344 71.9980031,9.12569001 71.8992372,9.25 C71.8004712,9.37431004 71.6739296,9.48342495 71.5196075,9.57734807 C71.365286,9.67127118 71.1831888,9.74309369 70.9733113,9.79281768 L70.9733113,9.82596685 C71.1584975,9.8535913 71.3359651,9.90055216 71.5057187,9.96685083 C71.6754728,10.0331495 71.8251626,10.1243088 71.9547927,10.2403315 C72.0844234,10.3563542 72.1893606,10.4972367 72.2696075,10.6629834 C72.349855,10.8287301 72.3899779,11.0248607 72.3899779,11.2513812 C72.3899779,11.5497252 72.3205345,11.8080099 72.1816446,12.0262431 C72.0427552,12.2444762 71.8606585,12.4226512 71.6353483,12.5607735 C71.4100386,12.6988957 71.1523251,12.8011047 70.8622001,12.8674033 C70.5720757,12.933702 70.2757819,12.9668508 69.9733113,12.9668508 L69.6029409,12.9668508 C69.4609651,12.9668508 69.3128185,12.9627072 69.1584964,12.9544199 C69.0041749,12.9461326 68.8498555,12.935083 68.6955335,12.9212707 C68.541212,12.9074585 68.4054111,12.8867405 68.2881261,12.859116 L68.2881261,7.14917127 C68.5165227,7.11602192 68.7819517,7.08839788 69.0844224,7.06629834 C69.386893,7.0441988 69.7171369,7.03314917 70.0751631,7.03314917 C70.3159054,7.03314917 70.5612732,7.05110479 70.8112742,7.08701657 C71.0612758,7.12292836 71.288125,7.19198844 71.4918298,7.2941989 C71.6955345,7.39640935 71.8637428,7.53867311 71.9964594,7.72099448 C72.1291765,7.90331584 72.1955335,8.13812012 72.1955335,8.42541436 Z M70.0473853,12.3701657 C70.2449172,12.3701657 70.4362737,12.3494477 70.6214594,12.308011 C70.8066456,12.2665744 70.9702243,12.2002767 71.1122001,12.109116 C71.2541765,12.0179553 71.3668298,11.906078 71.4501631,11.7734807 C71.533497,11.6408833 71.5751631,11.4834263 71.5751631,11.301105 C71.5751631,11.0745845 71.5242377,10.8922659 71.4223853,10.7541436 C71.320533,10.6160214 71.1878185,10.5082877 71.0242372,10.4309392 C70.8606564,10.3535908 70.677016,10.3011051 70.4733113,10.2734807 C70.2696065,10.2458562 70.0659049,10.2320442 69.8622001,10.2320442 L69.0566446,10.2320442 L69.0566446,12.3121547 C69.099855,12.3232045 69.1615829,12.3314917 69.2418298,12.3370166 C69.3220772,12.3425415 69.4084964,12.3480663 69.501089,12.3535912 C69.5936821,12.3591161 69.6893601,12.3632597 69.7881261,12.3660221 C69.886892,12.3687845 69.9733113,12.3701657 70.0473853,12.3701657 Z M69.5381261,9.6519337 C69.6430649,9.6519337 69.769607,9.64917132 69.9177557,9.64364641 C70.0659049,9.6381215 70.1893601,9.6298343 70.2881261,9.61878453 C70.4362752,9.57458541 70.5751626,9.52071855 70.7047927,9.45718232 C70.8344234,9.39364609 70.9501626,9.31906119 71.052015,9.23342541 C71.1538673,9.14778964 71.2341137,9.04834309 71.2927557,8.93508287 C71.3513982,8.82182265 71.3807187,8.69889567 71.3807187,8.56629834 C71.3807187,8.38397698 71.3421389,8.23342601 71.2649779,8.11464088 C71.1878174,7.99585576 71.0844234,7.90055285 70.9547927,7.82872928 C70.8251626,7.75690571 70.677016,7.70580124 70.5103483,7.67541436 C70.3436811,7.64502749 70.1739296,7.62983425 70.001089,7.62983425 C69.7973843,7.62983425 69.610658,7.63397785 69.4409038,7.64226519 C69.2711502,7.65055253 69.1430649,7.66298333 69.0566446,7.67955801 L69.0566446,9.6519337 L69.5381261,9.6519337 Z M74.0332243,7.15745856 C74.2677932,7.11878435 74.5378524,7.08839788 74.8434095,7.06629834 C75.1489666,7.0441988 75.428285,7.03314917 75.6813725,7.03314917 C75.9653246,7.03314917 76.2353838,7.0607732 76.4915576,7.1160221 C76.747732,7.17127099 76.9730381,7.26243029 77.1674836,7.38950276 C77.361929,7.51657523 77.5177917,7.68231943 77.6350762,7.88674033 C77.7523606,8.09116123 77.8110021,8.33977753 77.8110021,8.63259669 C77.8110021,9.08563762 77.6721147,9.45303725 77.3943354,9.73480663 C77.1165561,10.016576 76.7647078,10.2044194 76.3387799,10.2983425 L76.7832243,10.6049724 L78.3943354,12.9005525 L77.4961873,12.9005525 L75.7091502,10.3977901 L74.8017428,10.2734807 L74.8017428,12.9005525 L74.0332243,12.9005525 L74.0332243,7.15745856 Z M75.699891,7.62983425 L75.449891,7.62983425 C75.3634707,7.62983425 75.2801384,7.63259664 75.199891,7.63812155 C75.1196436,7.64364645 75.0440273,7.64917122 74.9730391,7.65469613 C74.902051,7.66022104 74.8449527,7.66850824 74.8017428,7.67955801 L74.8017428,9.81767956 L75.5239651,9.81767956 C75.949893,9.81767956 76.3017413,9.72375783 76.5795206,9.5359116 C76.8572999,9.34806538 76.9961873,9.0552506 76.9961873,8.65745856 C76.9961873,8.35911455 76.8819908,8.11326064 76.6535947,7.9198895 C76.4251986,7.72651837 76.1073004,7.62983425 75.699891,7.62983425 Z M82.722767,11.2928177 L80.3338781,11.2928177 L79.68573,12.9005525 L78.9264707,12.9005525 L81.3801744,7.00828729 L81.7320263,7.00828729 L84.1949892,12.9005525 L83.3894337,12.9005525 L82.722767,11.2928177 Z M80.5838781,10.6961326 L82.4912855,10.6961326 L81.7690633,8.93093923 L81.5375818,8.05248619 L81.5283226,8.05248619 L81.2968411,8.94751381 L80.5838781,10.6961326 Z M85.3937907,7.15745856 C85.6283596,7.11878435 85.8984187,7.08839788 86.2039758,7.06629834 C86.5095329,7.0441988 86.7888514,7.03314917 87.0419388,7.03314917 C87.325891,7.03314917 87.5959501,7.0607732 87.852124,7.1160221 C88.1082984,7.17127099 88.3336044,7.26243029 88.5280499,7.38950276 C88.7224954,7.51657523 88.878358,7.68231943 88.9956425,7.88674033 C89.112927,8.09116123 89.1715684,8.33977753 89.1715684,8.63259669 C89.1715684,9.08563762 89.0326811,9.45303725 88.7549018,9.73480663 C88.477123,10.016576 88.1252742,10.2044194 87.6993462,10.2983425 L88.1437906,10.6049724 L89.7549018,12.9005525 L88.8567536,12.9005525 L87.0697166,10.3977901 L86.1623092,10.2734807 L86.1623092,12.9005525 L85.3937907,12.9005525 L85.3937907,7.15745856 Z M87.0604573,7.62983425 L86.8104573,7.62983425 C86.7240371,7.62983425 86.6407047,7.63259664 86.5604573,7.63812155 C86.4802099,7.64364645 86.4045936,7.64917122 86.3336055,7.65469613 C86.2626178,7.66022104 86.2055196,7.66850824 86.1623092,7.67955801 L86.1623092,9.81767956 L86.8845314,9.81767956 C87.3104594,9.81767956 87.6623081,9.72375783 87.9400869,9.5359116 C88.2178663,9.34806538 88.3567536,9.0552506 88.3567536,8.65745856 C88.3567536,8.35911455 88.2425571,8.11326064 88.014161,7.9198895 C87.7857649,7.72651837 87.4678668,7.62983425 87.0604573,7.62983425 Z M92.1111111,10.5966851 L89.9722222,7.09944751 L90.8703704,7.09944751 L92.3888889,9.63535912 L92.5462963,10.140884 L92.5555556,10.140884 L92.7222222,9.61878453 L94.1759259,7.09944751 L95,7.09944751 L92.8796296,10.5883978 L92.8796296,12.9005525 L92.1111111,12.9005525 L92.1111111,10.5966851 Z" id="the-Doodle-Library" fill="#666666" fill-rule="nonzero" opacity="0.595278533"></path>
            </g>
        </g>
        <g id="game_console" transform="translate(191.000000, 249.000000)">
            <path d="M105.471547,85.3633711 C95.5712488,78.9864021 80.0261292,94.9799378 58.836188,133.343978 C27.0512764,190.890039 -10.8836733,324.587333 8.08380154,324.587333 C27.0512764,324.587333 104.269229,285.588029 117.276122,263.229694 C125.947384,248.324138 137.159301,233.440487 150.911874,218.578741 L240.488197,204.293666 L381.742327,335.072822 C397.914109,341.201528 406,337.706365 406,324.587333 C406,311.468301 392.529182,252.150319 365.587547,146.633387 C368.560551,105.78671 355.145599,85.3633711 325.34269,85.3633711 C295.539781,85.3633711 273.013931,101.356907 257.76514,133.343978 L150.911874,120.821266 L105.471547,85.3633711 Z" id="Path-8" fill="#FFFFFF"></path>
            <path d="M125.74969,244.033809 C125.582975,244.104267 125.417097,244.174726 125.249544,244.245184 C125.252057,244.241829 125.253733,244.239312 125.256246,244.235957 C125.415422,244.15795 125.579624,244.090847 125.74969,244.033809 M101.588551,77.0008388 C96.7487839,77.0041939 91.8302664,77.1384001 87.0524935,77.9805437 C82.4020608,78.7992012 77.7943541,80.2838567 73.8275375,82.9084256 C71.6485111,84.3469478 69.5080219,85.8634772 67.5610564,87.6098347 C65.898931,89.1012005 64.4227893,90.748581 63.0153443,92.4823566 C60.0077685,96.1780584 57.1970674,100.047389 54.6636665,104.084478 C53.5150909,105.915553 52.3799195,107.754177 51.3553331,109.660743 C50.3340978,111.571503 49.4309873,113.527558 48.5479831,115.50626 C46.6496079,119.765627 44.9573229,124.182687 43.5272583,128.622394 C42.8570465,130.712655 42.2287228,132.806271 41.7051198,134.942665 C41.2108385,136.95408 40.8573018,139.009111 40.5104671,141.049884 C40.0555608,143.70381 39.6525959,146.364447 39.4138329,149.044376 C39.2295246,151.123732 39.2177959,153.208122 39.0519185,155.285801 C38.3858954,159.055316 37.1518678,162.641136 35.9320822,166.272251 C34.5087197,170.499745 33.075304,174.719689 31.8479785,179.008415 C30.6801343,183.087443 29.5700959,187.183247 28.3302039,191.239627 C27.0769077,195.337948 25.7381595,199.407749 24.5175361,203.516135 C23.8959146,205.616461 23.2868595,207.723497 22.8026314,209.863247 C22.3117012,212.04829 21.8668481,214.2434 21.2711973,216.40328 C20.1192706,220.580446 18.6012407,224.650248 17.363862,228.804767 C16.0577866,233.201696 14.8405143,237.621272 13.5059549,242.008974 C12.2065816,246.275052 10.8217563,250.517644 9.44111979,254.757719 C6.73765262,263.047465 4.46982316,271.464707 2.7884291,280.022865 C1.81913517,284.93481 1.18159611,289.938183 0.595160718,294.904649 C0.343831262,297.057819 0.170413938,299.220216 0.0422359152,301.382612 C-0.111075053,304.036539 0.172927232,306.63175 0.572541067,309.256319 C0.762713688,310.488499 1.01404314,311.710614 1.33490708,312.919308 C1.72446774,314.393898 2.39551739,315.868488 3.21317588,317.159383 C4.43128598,319.082725 5.9920419,320.363555 7.78820974,321.709811 C9.10098726,322.692871 10.737142,323.285894 12.2325523,323.91163 C12.8868466,324.187592 13.5478431,324.445938 14.2121906,324.701769 C15.2108063,325.091806 16.2152864,325.468422 17.2231175,325.825745 C19.3242318,326.575622 21.4286971,327.293625 23.5457288,327.998207 C26.7753124,329.076051 30.139776,329.763857 33.5369125,329.976909 C35.3230271,330.088468 37.1233838,329.773922 38.8776634,329.502155 C40.8673549,329.193481 42.7682434,328.354692 44.6012729,327.565393 C49.7485001,325.350152 54.3109675,322.063779 58.7511212,318.689334 C62.8293605,315.593366 66.9226796,312.509979 70.922169,309.311679 C78.1445398,303.532427 84.699212,297.011686 91.1064376,290.354222 C97.5270674,283.685854 102.815877,276.005907 108.225325,268.525592 C111.327568,264.230157 114.420596,259.931366 117.535405,255.645996 C119.034167,253.581738 120.53963,251.517479 121.969695,249.403733 C122.995119,247.888042 123.894878,246.29015 124.901034,244.764394 L125.104611,244.774459 C125.461499,244.810527 125.818386,244.83653 126.175274,244.859177 C127.202374,244.927958 128.230312,244.741747 129.241494,244.604185 C132.127594,244.207438 134.841114,242.913188 137.341004,241.458729 C139.559406,240.167833 141.641251,238.516259 143.454174,236.704476 C145.076925,235.082259 146.434942,233.179048 147.734315,231.291774 C148.722878,229.856607 149.55394,228.35266 150.300389,226.779931 C150.741891,225.848876 151.170826,224.910272 151.660919,224.006897 C152.482766,223.933084 153.299587,223.815653 154.118921,223.715837 C156.072589,223.483493 158.020392,223.221791 159.97406,222.988608 C163.864639,222.520564 167.78873,222.316738 171.696065,222.041616 C179.676613,221.47795 187.559143,220.150148 195.473507,219.026171 C201.366345,218.356818 207.295207,217.844318 213.162074,216.960235 C218.377161,216.174291 223.551196,215.175294 228.766283,214.399414 C230.631147,214.171264 232.499363,213.957373 234.368416,213.755225 C234.789812,213.70993 235.21037,213.662119 235.63009,213.616825 C236.04981,216.905714 236.606086,220.198798 237.748797,223.293088 C238.265698,224.692187 238.835378,226.075349 239.431029,227.441735 C239.829805,228.356015 240.23277,229.276166 240.772291,230.114954 C241.992914,232.005583 243.459003,233.493594 245.360729,234.695578 C246.692775,235.541076 248.224209,236.124034 249.670191,236.723768 C250.858142,237.218653 252.023473,237.634692 253.296875,237.890523 C255.024346,238.237781 256.797895,238.4047 258.548823,238.600977 C260.623967,238.837515 262.730945,238.89623 264.816142,238.886165 C267.319383,238.876938 269.865351,238.604332 272.296544,237.992016 C273.020373,237.808322 273.719907,237.543264 274.433682,237.326857 C275.245477,237.081092 275.988574,236.838682 276.766858,236.415933 C278.94002,235.239951 279.951202,233.152207 280.726972,230.931095 C281.305868,229.276166 280.910443,227.199326 280.045869,225.724736 C279.162865,224.214078 277.69929,223.083391 276.014545,222.618702 C274.270318,222.139754 272.371943,222.385519 270.811187,223.299798 C270.362983,223.648734 269.914779,223.993476 269.466575,224.341574 C269.139846,224.409515 268.810605,224.471586 268.482201,224.528623 C264.961913,224.836459 261.398061,224.628439 257.889502,224.259372 C256.81465,224.084904 255.755715,223.876046 254.710185,223.512851 C254.312246,223.376967 253.919335,223.231018 253.527261,223.079197 C253.182101,222.916472 252.844482,222.74452 252.514403,222.555793 C252.091332,221.862954 251.726066,221.142434 251.382583,220.406817 C250.469419,217.959232 249.940789,215.443706 249.502638,212.864432 C249.377811,211.70271 249.290684,210.540988 249.228689,209.368361 C249.081243,206.638944 248.656496,203.490132 246.522709,201.517302 C245.125317,200.22389 243.841861,199.571313 242.052395,198.945577 C240.203448,198.303065 238.186948,198.139501 236.246685,198.00865 C234.597126,197.900446 232.95762,197.929804 231.308061,198.00865 C223.784933,198.374362 216.359823,200.066198 208.938902,201.263149 C202.878511,202.049094 196.801365,202.746966 190.764431,203.70654 C187.77026,204.181294 184.795357,204.74496 181.811238,205.262492 C179.165577,205.723826 176.524942,206.135671 173.870065,206.513964 C168.608064,207.082663 163.361981,207.683236 158.121761,208.42808 C155.981272,208.73256 153.854187,209.23751 151.730453,209.636774 C150.575176,209.853181 149.419898,210.076299 148.26462,210.285996 C147.933703,210.344711 147.626243,210.406782 147.302866,210.492338 C145.845993,210.879019 145.09368,211.537468 143.941754,212.457619 C143.132473,213.105164 142.676729,214.108355 142.291357,215.077994 C141.518938,216.71447 140.629231,218.312362 139.804871,219.918642 C138.68059,222.102847 137.402161,224.146975 135.956179,226.11645 C134.964265,227.29327 133.907006,228.376146 132.734973,229.370949 C131.416331,230.314586 130.034857,231.150858 128.575471,231.858795 C128.031761,232.0492 127.488052,232.206893 126.929263,232.33355 C126.250673,232.347809 125.578786,232.317613 124.892656,232.310063 C123.573177,232.297482 122.290559,232.461045 120.997888,232.749589 C120.140854,232.936638 119.126321,233.522952 118.383223,234.030419 C117.542108,234.61086 116.867707,235.200528 116.203359,235.94705 C115.581738,236.641567 115.045568,237.418285 114.489292,238.16229 C113.483975,239.503513 112.509654,240.867383 111.514389,242.211961 C109.80116,244.329063 108.033476,246.40087 106.326949,248.523005 C104.065822,251.34385 101.935386,254.276255 99.7756283,257.169236 C96.402787,261.689467 93.0793738,266.240733 89.7090458,270.756769 C88.6601642,272.071151 87.6121204,273.384694 86.5615633,274.699075 C85.4841977,276.04533 84.3096514,277.306868 83.1610757,278.594408 C80.8211985,281.232398 78.3405768,283.738698 75.8339843,286.21564 C73.1967006,288.820917 70.5192041,291.382577 67.7805508,293.883005 C65.2764717,296.167026 62.6500789,298.287483 60.0010664,300.397036 C57.1468015,302.596339 54.2933745,304.800675 51.4014102,306.946296 C47.2787694,310.006196 43.1427243,313.00822 38.4805629,315.183198 C37.3998462,315.585816 36.3132652,315.919654 35.1831204,316.158709 C34.1493186,316.230845 33.1238944,316.21994 32.0867415,316.138578 C28.9602031,315.578267 25.9040369,314.663149 22.8847324,313.689316 C20.4878871,312.912598 18.0751244,312.166915 15.7109519,311.290381 C15.1664048,311.025324 14.6436395,310.737619 14.135954,310.412169 C14.0295579,310.30816 13.925675,310.203311 13.8243055,310.095107 C13.7355024,309.949158 13.6508882,309.801531 13.569625,309.651388 C13.1398516,308.377269 12.8717669,307.059532 12.6388682,305.732569 C12.2342278,300.600023 12.8935488,295.391985 13.5243857,290.301378 C14.104119,286.25003 14.8044904,282.24146 15.6950344,278.24044 C16.6567885,273.922357 17.8221194,269.646214 19.0360406,265.393556 C20.2633662,261.094766 21.7587764,256.868111 23.1201443,252.612098 C24.4588925,248.420673 25.7641302,244.220859 26.9587829,239.987494 C28.1366802,235.822909 29.2626362,231.648259 30.5812781,227.523098 C31.269083,225.377477 31.9526991,223.227662 32.6036424,221.068621 C33.2520724,218.925517 33.6935745,216.717826 34.1551829,214.528588 C35.0222696,210.416847 36.2655126,206.422537 37.5162955,202.415644 C38.8056156,198.290483 40.0915847,194.165321 41.2862374,190.014158 C42.3267413,186.409884 43.2817932,182.782963 44.3558078,179.192109 C45.3762054,175.784112 46.5582916,172.419732 47.6574391,169.037737 C48.7507222,165.689293 50.023287,162.294717 50.5050018,158.78942 C50.8091104,156.554888 51.0445224,154.362295 51.1031659,152.111825 C51.1475674,150.451863 51.2447482,148.797772 51.4081123,147.147037 C52.0515157,142.72746 52.8800652,138.327176 54.170223,134.047678 C55.5114846,129.592034 57.2087961,125.242916 58.9572114,120.935737 C60.4986987,117.481607 62.21863,114.16336 64.1873774,110.925636 C66.3320554,107.401886 68.6233423,104.008148 71.0746422,100.695773 C71.8881119,99.6590303 72.710797,98.6197715 73.6348516,97.6786509 C74.6636268,96.6335205 75.7259127,95.6747853 76.8501931,94.7554732 C78.7678369,93.4226384 80.7131268,92.2290425 82.7983236,91.1797182 C83.8095057,90.7947143 84.8282278,90.4457783 85.8871626,90.1756885 C87.1136503,89.8619816 88.3451646,89.6254433 89.5884077,89.4207789 C92.7451057,89.1288805 95.9043169,89.0441629 99.0752569,88.9795762 C101.9002,88.9216998 104.705037,89.1431399 107.50736,89.4694286 C109.280071,89.7630046 111.043566,90.0809054 112.790305,90.5195917 C114.566367,90.962472 116.282947,91.5093621 118.000365,92.1342594 C119.506666,92.8187108 120.984483,93.5492955 122.39863,94.4216354 C124.181394,95.5229646 125.893785,96.6880417 127.588584,97.9177056 C129.373023,99.3386131 131.123114,100.789717 132.851422,102.281922 C134.552923,103.749801 136.073466,105.349371 137.531177,107.048756 C138.569168,108.48644 139.554379,109.945093 140.42733,111.499368 C141.308659,113.06958 142.060134,114.690958 142.77726,116.338338 C143.125771,117.23668 143.449986,118.135862 143.672831,119.069433 C143.62089,119.288357 143.561408,119.505603 143.494387,119.721172 C143.383802,119.934224 143.270704,120.146437 143.15593,120.358651 C141.781996,122.914439 142.494934,126.142097 145.064358,127.64269 C147.495552,129.071146 150.968087,128.287718 152.338671,125.73193 C153.648097,123.297766 154.681899,120.617837 154.328362,117.796152 C154.125623,116.171419 153.762871,114.700184 153.241781,113.153458 C153.026476,112.521012 152.774308,111.901986 152.54141,111.279605 C152.034562,109.913219 151.425507,108.579545 150.849963,107.24 C150.463753,106.338302 150.0189,105.414796 149.521267,104.572653 C149.001015,103.691086 148.503383,102.796938 147.93119,101.948084 C147.011324,100.585053 146.01941,99.2874471 145.001526,97.9931965 C143.718908,96.3583979 142.194176,94.9039388 140.652689,93.5107112 C136.97155,90.1882703 133.135425,86.9975192 128.917279,84.369595 C124.807204,81.8070964 120.290814,80.0313813 115.608546,78.8419794 C113.127925,78.2128881 110.587821,77.8228514 108.048556,77.5116609 C105.929011,77.2516365 103.773442,77.0008388 101.63044,77 C101.616198,77 101.602793,77 101.588551,77.0008388" id="Fill-2" fill="#2C2C2C"></path>
            <path d="M146.248364,120.349162 C145.219379,124.121277 147.479977,128.423846 151.323245,129.37782 C156.101272,130.561658 160.967688,131.167049 165.879966,131.360707 C168.084696,131.449958 170.293595,131.498793 172.495823,131.669717 C174.762259,131.844009 177.026193,132.078082 179.293462,132.261636 C183.807988,132.630428 188.332521,132.903232 192.843712,133.304861 C197.04554,133.679547 201.204841,134.45923 205.40667,134.804446 C208.227623,135.034309 210.986871,135.113456 213.801153,134.7514 C217.22749,134.312723 220.643821,133.797426 224.058484,133.283812 C228.355372,132.74999 232.659766,132.343309 236.96666,131.874321 C239.777608,131.567836 242.605232,131.167049 245.36031,130.518717 C246.36428,130.282118 247.344067,129.943638 248.33803,129.669991 C249.908191,129.239734 251.422484,128.758958 252.849221,127.923704 C255.314949,126.476323 256.533221,123.430845 255.777742,120.654804 C255.012258,117.849294 252.474817,115.991022 249.630515,115.932083 C248.657399,115.909349 247.709298,115.761159 246.728677,115.806626 C245.689686,115.852936 244.65403,115.948081 243.618374,116.030596 C241.520378,116.18889 239.425718,116.32024 237.328556,116.435593 C232.934106,116.682296 228.559669,116.85322 224.181896,117.326418 C219.882506,117.790355 215.608965,118.540568 211.292898,118.852946 C209.257442,118.997768 207.195303,118.82937 205.162348,118.701388 C203.065186,118.566669 200.973862,118.319966 198.882537,118.099365 C195.446194,117.731415 192.006515,117.316314 188.550159,117.181596 C185.091301,117.046878 181.632444,116.905423 178.176088,116.682296 C174.560464,116.444855 170.958182,116.290771 167.332553,116.267195 C164.271447,116.246987 161.230354,116.182996 158.194264,115.872302 C157.186126,115.679486 156.186326,115.467304 155.189861,115.221443 C154.579474,115.072411 153.964085,115 153.357867,115 C150.139996,115 147.15227,117.03088 146.248364,120.349162" id="Fill-4" fill="#2C2C2C"></path>
            <path d="M303.74716,84.155053 C301.527147,84.3184873 299.314689,84.5548384 297.104748,84.8163332 C294.347568,85.1440399 291.593746,85.4776135 288.845798,85.8606364 C286.616553,86.168228 284.341146,86.4431329 282.157224,87.009705 C281.226414,87.251923 280.295603,87.494141 279.36731,87.7338446 C278.544773,87.9492426 277.74154,88.2928736 276.938306,88.5686166 C275.80354,88.9608588 274.708222,89.4687623 273.600314,89.9364357 C272.396723,90.4476917 271.219991,90.9874438 270.062563,91.6068178 C265.547838,94.0256451 261.686107,97.8659315 258.531927,101.886415 C257.23685,103.540034 255.94513,105.193654 254.797774,106.954553 C253.922359,108.297229 253.109054,109.685163 252.335197,111.086507 C250.748035,113.954569 249.400919,116.943321 247.755005,119.778696 C246.207291,122.443932 247.11544,125.949807 249.781133,127.505366 C252.440112,129.060087 255.971149,128.137312 257.52222,125.482133 C258.865978,123.167233 260.10566,120.797017 261.433471,118.475413 C262.591738,116.447151 263.883458,114.516113 265.255753,112.627818 C267.530322,109.857817 269.977791,107.208505 272.734131,104.911206 C274.063621,103.972507 275.454381,103.183831 276.931592,102.501598 C278.457483,101.914073 280.008554,101.412036 281.587323,100.972859 C283.018371,100.573912 284.467044,100.298169 285.922432,100.009016 C290.315455,99.4952455 294.728622,99.1775963 299.147663,98.9043677 C301.662279,98.7468003 304.173537,98.5900711 306.694866,98.6026429 C308.835143,98.616891 310.93765,98.7794872 313.055265,99.0082952 C317.638814,99.7659597 322.169486,100.689573 326.589367,102.155453 C328.828684,102.894678 331.005891,103.870255 333.192331,104.757829 C335.212584,105.577515 337.258017,106.330989 339.283306,107.14397 C341.200323,107.964493 343.122375,108.775798 345.046106,109.581236 C346.398257,110.197257 347.672351,110.876138 348.895247,111.699176 C350.664542,113.237135 352.172808,114.991329 353.669323,116.796649 C354.006731,117.248398 354.344139,117.700147 354.684066,118.151897 C356.14365,120.100536 357.297721,122.286365 358.293999,124.509071 C359.845909,128.454961 360.90094,132.49053 361.580792,136.672771 C361.786427,138.706061 361.797338,140.697445 361.58415,142.739955 C361.456572,143.585622 361.309691,144.426261 361.106574,145.262709 C360.221087,148.916932 362.221197,152.730399 365.936046,153.752072 C369.660127,154.777098 373.316223,152.517515 374.43756,148.932856 C375.299546,146.176265 375.765371,143.19338 375.958416,140.332023 C376.145585,137.595547 375.663813,134.842308 375.253383,132.147737 C374.886599,129.714662 374.32593,127.321817 373.610826,124.970877 C372.174742,120.249722 370.175472,115.571311 367.434239,111.459473 C366.056908,109.386791 364.467228,107.438989 362.893495,105.51717 C360.27984,102.325592 357.099641,99.5027886 353.391506,97.647181 C351.614657,96.7596072 349.746322,96.0363057 347.930024,95.2409256 C344.785076,93.863049 341.626699,92.5220498 338.460769,91.2020037 C334.191966,89.3447198 329.948343,87.4723497 325.409278,86.3718923 C323.25809,85.8505789 321.094312,85.4348691 318.917105,85.0392744 C316.27827,84.5573528 313.550466,84.1718155 310.867986,84.060345 C309.921229,84.0209531 308.978668,84 308.037785,84 C306.608416,84 305.182404,84.0486112 303.74716,84.155053" id="Fill-6" fill="#2C2C2C"></path>
            <path d="M365.730046,141.751036 C363.076897,143.322834 362.24545,146.778102 363.732909,149.456292 C365.110618,151.947143 366.339497,154.481679 367.479412,157.084261 C368.983501,160.989814 370.373681,164.938212 371.845343,168.853847 C373.482463,173.208006 375.161987,177.542842 376.704323,181.930605 C378.169333,186.088184 379.413179,190.308769 380.754304,194.509192 C382.161113,198.916276 383.619472,203.297318 385.103606,207.678359 C386.626818,212.161051 388.094323,216.649623 389.516929,221.168439 C390.823133,225.320137 391.823365,229.562565 393.050581,233.736945 C395.691259,242.702329 398.659527,251.566062 401.059916,260.603693 C401.87224,263.65824 402.557353,266.746392 403.232488,269.834543 C403.76794,272.28255 404.157889,274.746518 404.504603,277.223087 C404.762352,280.22387 405.005966,283.215411 405.019269,286.228795 C405.028415,289.182533 404.828868,292.088385 404.54285,295.022801 C404.246854,297.042365 403.919264,299.051847 403.421227,301.038647 C402.889932,303.159021 402.187359,305.185305 401.399146,307.207389 C400.598462,308.893439 399.775329,310.529924 398.7302,312.07736 C397.69089,313.319845 396.562616,314.432957 395.332905,315.472982 C394.938799,315.737609 394.540536,315.978713 394.126475,316.198815 C392.27983,316.811237 390.350871,317.173313 388.429396,317.488345 C387.809136,317.53791 387.191371,317.553031 386.565291,317.545471 C383.219546,317.509347 380.430039,320.393358 380.430039,323.747816 C380.430039,325.385141 381.0794,326.972901 382.225966,328.131377 C383.449857,329.368822 384.889092,329.802306 386.565291,329.9468 C388.620629,330.123218 390.598643,329.831709 392.625712,329.499875 C393.586865,329.34278 394.573793,329.122677 395.512498,328.85385 C397.779855,328.203625 400.004809,327.403024 401.972845,326.067289 C403.787895,324.834045 405.484048,323.373138 406.974002,321.758495 C408.764109,319.826301 410.410375,317.610997 411.570244,315.231878 C412.313558,313.705444 412.989525,312.163888 413.638886,310.59125 C414.519389,308.461635 415.220299,306.302618 415.811458,304.074713 C417.08191,299.28035 417.594913,294.252443 417.910032,289.316946 C418.049715,287.16801 418.003986,285.008152 417.925829,282.859215 C417.851831,280.702718 417.750394,278.54034 417.490982,276.397284 C417.126808,273.414984 416.698613,270.461246 416.182284,267.500788 C415.824761,265.44342 415.32423,263.396134 414.840328,261.364809 C413.720368,256.682177 412.414164,252.070953 411.037286,247.460568 C409.829193,243.41472 408.423215,239.430199 407.198493,235.391072 C405.879817,231.036073 404.632646,226.661752 403.317296,222.307593 C402.015249,217.992079 400.660821,213.700086 399.144261,209.456818 C397.60442,205.154745 395.9964,200.871993 394.541367,196.543877 C392.999032,191.946094 391.52737,187.322268 389.910204,182.754728 C388.455171,178.642513 386.83468,174.602546 385.197559,170.563419 C383.362555,166.021921 381.566628,161.470343 379.757398,156.918764 C378.818694,154.548885 377.82844,152.173126 376.681873,149.902377 C375.629261,147.822327 374.492672,145.803604 373.356083,143.772279 C372.359178,141.987099 370.445185,141 368.51207,141 C367.552579,141 366.588932,141.242784 365.730046,141.751036" id="Fill-8" fill="#2C2C2C"></path>
            <path d="M277.097893,229.20364 C275.701272,229.58997 274.490478,230.526044 273.761335,231.783081 C273.00636,233.079506 272.801367,234.657507 273.19802,236.107291 C273.387181,236.55312 273.573008,237.001463 273.761335,237.446455 C274.256319,238.291184 274.923797,238.962442 275.762936,239.462743 C276.100425,239.713312 276.437081,239.963882 276.772903,240.214451 C278.903667,241.995255 280.73944,244.102888 282.582713,246.173647 C283.911003,247.662818 285.180128,249.204784 286.446754,250.74675 C289.411657,254.367018 292.413225,257.945385 295.551456,261.418161 C298.607189,264.806297 301.852916,268.017609 305.059478,271.262442 C308.213542,274.456993 311.201777,277.81915 314.251677,281.115102 C317.093251,284.182274 319.892326,287.319002 322.83223,290.293991 C325.967127,293.470106 329.202022,296.474425 332.659409,299.296894 C336.109296,302.11182 339.537517,304.953563 343.01407,307.739158 C344.865676,309.224977 346.731448,310.698225 348.589721,312.178177 C350.558823,313.749474 352.502093,315.369376 354.540359,316.849329 C356.629458,318.365316 358.755222,319.828508 360.900151,321.259017 C362.895919,322.588124 364.989184,323.749627 367.06245,324.948003 C369.034885,326.090231 371.063152,327.141114 373.068087,328.228033 C374.552205,329.033375 376.078821,329.717203 377.65127,330.326448 C378.26625,330.565285 378.875397,330.807474 379.487043,331.049663 C381.231986,331.7469 383.035261,332.081272 384.913532,331.983223 C386.556812,331.897745 388.031764,331.384035 389.216725,330.192364 C390.352521,329.050136 391,327.481353 391,325.864802 C391,322.443984 388.226757,319.854487 384.913532,319.743029 C384.777704,319.743867 384.641875,319.742191 384.506879,319.738001 C383.377749,319.466481 382.266119,319.027356 381.179488,318.57566 C377.692102,316.851843 374.37721,314.775217 371.036486,312.789935 C367.477436,310.675598 364.089214,308.278846 360.75099,305.832651 C354.025376,300.56315 347.424759,295.134423 340.787476,289.757655 C334.075196,284.323062 328.297051,277.884516 322.333913,271.657989 C319.186516,268.374607 316.068285,265.061894 312.806725,261.893322 C309.518499,258.697932 306.23444,255.506733 303.092876,252.163851 C299.967978,248.835215 296.993075,245.37501 294.011506,241.914804 C292.657384,240.343507 291.270762,238.801541 289.854975,237.286392 C289.141665,236.526303 288.432522,235.780461 287.69338,235.050541 C285.929271,233.302421 284.066831,231.734476 282.061897,230.261228 L281.397752,229.770145 C280.665276,229.227943 279.650309,229 278.670341,229 C278.116193,229 277.572877,229.072908 277.097893,229.20364" id="Fill-10" fill="#2C2C2C"></path>
            <path d="M200.200907,67.9539632 C200.223876,67.9564694 200.247696,67.959811 200.271516,67.9631526 L200.270666,67.963988 L200.200907,67.9539632 Z M200.206862,42.3314019 C200.162624,42.3506161 200.118387,42.3689949 200.075001,42.3865383 C200.118387,42.3681595 200.162624,42.3497807 200.206862,42.3314019 Z M205.557878,0.218039467 C203.945767,0.651612201 202.786239,1.65409251 201.879373,2.99490992 C200.390617,5.1945188 199.961855,8.16102512 200.154117,10.7323871 C200.324261,13.0397626 201.05843,15.2092971 201.722841,17.408906 C202.726688,20.7429884 203.650568,24.0804124 204.208639,27.5147429 C204.429826,29.5740045 204.503838,31.6048626 204.312427,33.661618 C203.997661,35.3491265 203.545079,36.990688 202.936816,38.5979981 C202.696913,39.0783533 202.439146,39.5428358 202.164364,39.9981289 C200.449316,40.1727276 198.747881,40.8677806 197.648753,42.2035856 C197.352703,42.5820219 197.054101,42.9637999 196.754648,43.3422362 C196.426271,43.9002835 196.19998,44.4875699 196.073223,45.1107785 C195.814605,46.17842 195.804396,47.418154 196.103849,48.4849602 C196.376079,49.4414935 196.871197,50.2702105 197.582397,50.9719467 C198.293597,51.748869 199.346786,52.636064 200.45357,52.7864361 C200.616057,52.8089919 200.782798,52.8315477 200.945285,52.8549389 C201.968699,53.1256086 202.992112,53.1256086 204.015526,52.8549389 C204.713115,52.7312997 205.348601,52.4531114 205.985789,52.1615567 C206.17635,52.2718295 206.363508,52.3871148 206.548113,52.5082478 C206.884147,52.8014733 207.199763,53.105559 207.501768,53.4280235 C207.627674,53.6293549 207.745924,53.8323572 207.85907,54.0395365 C207.935634,54.2851441 208.002841,54.5307518 208.06069,54.7797011 C208.092166,55.4079221 208.081107,56.0302953 208.034318,56.6568455 C207.851413,57.4797147 207.608959,58.2725096 207.31461,59.060292 C206.390731,60.9549798 205.269484,62.7218514 204.012974,64.4218909 C203.690552,64.8086812 203.358772,65.1887883 203.017634,65.559706 C202.012936,65.2088379 200.96315,65.0024941 199.892096,65.0041649 C198.92483,65.0041649 197.413104,65.3625516 196.588758,65.8980431 C196.465404,65.9765708 196.342901,66.0550984 196.219547,66.1361322 C195.362874,66.63236 194.681449,67.3015156 194.172719,68.143599 C192.899195,69.886244 192.750319,72.1343061 193.30839,74.1509623 C193.926862,76.3931766 195.914139,78.2009827 198.097081,78.9286164 C199.425903,79.3730493 200.776843,79.4407167 202.126081,79.2677889 C202.708823,81.1140234 203.054215,83.0179006 203.360473,84.9301318 C203.828368,89.6793823 203.696507,94.4286327 203.338355,99.1803894 C202.687555,103.602998 201.824077,108.058188 200.163475,112.227671 C199.801069,113.004593 199.428455,113.777338 199.048184,114.546742 C198.439921,115.780628 198.160885,117.001148 198.539455,118.362015 C198.888249,119.601749 199.732161,120.675238 200.858512,121.325179 C202.025697,121.994335 203.444694,122.176452 204.747143,121.823913 C205.929641,121.50479 207.205718,120.659365 207.761237,119.546612 C209.007539,117.043753 210.144098,114.520844 211.027994,111.870955 C211.436339,110.644587 211.755358,109.381462 212.117764,108.140893 C212.722624,106.072442 213.108,103.934652 213.47636,101.816913 C214.284542,97.1670748 214.629934,92.3367905 214.464044,87.6217914 C214.373868,85.1289571 214.081221,82.6453121 213.659265,80.1850583 C213.543567,79.5125611 213.430422,78.8367223 213.300262,78.1650605 C212.988048,76.506791 212.446992,74.9763377 211.774924,73.4266703 C211.763865,73.3999374 211.751104,73.3732046 211.739194,73.3464718 C211.835325,73.2462238 211.929755,73.1459758 212.024185,73.0448923 C213.779216,71.155217 215.327523,68.9982135 216.660598,66.8019462 C217.417737,65.5588706 218.006433,64.2305842 218.567907,62.8956146 C219.275705,61.1989167 219.647468,59.5473304 219.866954,57.7269932 C220.166406,55.2659041 219.986905,52.6460888 219.056219,50.3286885 C218.590877,49.1674822 218.099162,48.1098654 217.371798,47.0948541 C216.786504,46.2761619 216.134854,45.5092644 215.43046,44.7908202 C214.937894,44.2854031 214.302408,43.8108957 213.704353,43.3781584 C214.029327,42.644677 214.31772,41.8928167 214.61292,41.1626769 C215.171841,39.7884435 215.560619,38.3523904 215.885594,36.907148 C217.025556,31.8362684 216.613808,26.6308894 215.646542,21.5666931 C215.284136,19.6703345 214.902164,17.7873423 214.430866,15.9110333 C214.001253,14.1951212 213.480614,12.4641718 213.142879,10.7181853 C213.098642,9.15515142 213.470405,7.61801495 213.347051,6.04328546 C213.343648,4.95308813 213.06121,3.93473521 212.506542,2.99490992 C211.702613,1.64072611 210.366136,0.632397995 208.828038,0.218039467 C208.282727,0.0726798224 207.737417,0 207.192958,0 C206.647647,0 206.102337,0.0726798224 205.557878,0.218039467 Z" id="Fill-12" fill="#2C2C2C"></path>
            <path d="M130.26569,158.016586 C125.588662,158.415532 120.907435,158.616314 116.230407,158.968119 C111.588646,159.314687 107.046806,160.436449 102.455425,161.184581 C97.8640448,161.668204 93.2953356,161.477897 88.6846423,161.477897 C86.444371,161.477897 84.2074584,161.59051 81.9772633,161.80526 C80.8462118,161.91438 79.721038,162.081117 78.5857881,162.145716 C78.0181631,162.177143 77.4538969,162.177143 76.8904703,162.1527 C75.7552204,162.102068 75.6964427,161.91438 74.0657804,162.374433 C72.3864166,162.844962 71.5702458,163.558176 70.2317929,164.6424 C69.2871507,165.63147 68.6347179,166.794261 68.2736547,168.137756 C67.742136,170.135976 67.9780866,172.458066 69.0411239,174.238044 C69.8841645,175.64963 70.9959034,176.945985 72.4493928,177.695863 C74.1447105,178.568829 75.6964427,178.916269 77.5949634,178.991344 C78.303655,179.019279 79.0157052,178.974758 79.7243967,178.926745 C81.3970431,178.81064 83.0663307,178.620334 84.7423358,178.517324 C86.9271881,178.391617 89.1179182,178.411695 91.3086482,178.432646 C92.3943569,178.442249 93.4767069,178.452724 94.5624156,178.442249 C98.7448712,178.411695 102.900457,178.12187 107.026654,177.361517 C110.271185,176.760916 113.47793,175.983976 116.726659,175.417421 C121.231552,174.91983 125.75156,174.509536 130.26569,174.098369 C132.381688,173.907189 134.188684,173.35111 135.733699,171.745725 C137.176272,170.241605 138,168.182277 138,166.057478 C138,163.932678 137.176272,161.873351 135.733699,160.372722 C134.475015,159.065019 132.507641,158 130.658661,158 C130.526831,158 130.395841,158.005238 130.26569,158.016586" id="Fill-14" fill="#2C2C2C"></path>
            <path d="M96.1961183,133.914436 C95.0668399,135.045199 94.1338488,136.891053 94.2841965,138.537016 C94.698488,143.117778 94.6625716,147.701049 94.6792769,152.295193 C94.695147,156.731264 94.9499028,161.164826 95.0183945,165.601734 C95.0868863,170.067914 95.2171876,174.556676 94.8321304,179.01282 C94.6558895,181.045183 94.4312032,183.073364 94.2808555,185.109072 C94.1271667,187.144781 94.1146377,189.189689 94.0653571,191.232088 C94.0327818,192.581142 93.9868422,193.926851 94.0035475,195.276742 C94.0169117,196.322196 94.1731063,197.448777 94.3493472,198.454922 C94.8814111,201.48423 97.9192701,204.214957 101.070725,203.986629 C102.874898,203.858666 104.444361,203.356011 105.752386,202.04543 L106.79062,200.703067 C107.387,199.670995 107.691036,198.553613 107.694377,197.357614 C107.739482,196.949468 107.60918,196.485287 107.602498,196.067105 C107.59331,195.56696 107.615862,195.067651 107.631732,194.567505 C107.667649,193.35896 107.667649,192.152924 107.681013,190.944379 C107.709412,188.566598 107.833031,186.213908 108.118692,183.852855 C108.567229,180.441329 108.93057,177.044857 108.989038,173.592349 C109.055024,169.652241 108.810291,165.71297 108.598134,161.778717 C108.392659,158.0385 108.117857,154.300792 108.010943,150.553884 C107.89317,146.535159 107.739482,142.539851 107.341895,138.537016 C107.26338,137.959089 107.184866,137.377816 107.107186,136.799053 C106.796467,135.691708 106.23851,134.731563 105.429974,133.914436 C104.209651,132.692509 102.53578,132 100.812628,132 C99.0869707,132 97.4130995,132.692509 96.1961183,133.914436" id="Fill-16" fill="#2C2C2C"></path>
            <path d="M309.113437,137.706387 L308.922548,137.954259 C308.973053,137.874769 309.026981,137.799553 309.086045,137.727755 L309.113437,137.706387 Z M309.539726,137.350818 C309.512334,137.414923 309.484942,137.479028 309.45755,137.543987 C309.48323,137.479028 309.509766,137.415777 309.537158,137.352527 C309.538014,137.351672 309.53887,137.350818 309.539726,137.350818 Z M304.047613,127.25642 C303.462107,127.494036 302.884305,127.737635 302.305647,127.988071 C301.637109,128.429114 300.991683,128.899217 300.439561,129.483854 C299.399518,130.585605 298.858524,131.820695 298.350058,133.223312 C297.738016,134.899443 298.055593,137.062773 298.346634,138.772239 C298.473323,139.506455 298.660787,140.20819 298.91502,140.909072 C299.450022,142.378358 299.967903,143.392926 300.967715,144.578441 C301.847686,145.613522 303.104298,146.421245 304.419118,146.781943 C305.087656,146.985369 305.763042,147.046055 306.438428,146.96571 C306.97343,146.895622 307.508432,146.822115 308.043434,146.752027 C308.665748,146.505009 309.280358,146.240897 309.885552,145.960544 C311.26714,145.329751 312.206175,143.760461 312.938913,142.515115 C313.560371,141.456955 313.998645,140.257765 314.40011,139.103021 C314.821264,137.877333 314.97192,136.528564 314.998456,135.239627 C315.03184,133.633584 314.519951,132.248061 313.838572,130.832623 C313.276179,129.667622 311.949374,128.435097 310.774938,127.92824 C309.852167,127.394032 308.852356,127.123082 307.782353,127.119663 C307.414272,127.088892 307.044478,127.089747 306.678965,127.12821 C306.28606,127.046156 305.883739,127 305.490833,127 C304.980656,127 304.485886,127.077781 304.047613,127.25642 Z" id="Fill-18" fill="#2C2C2C"></path>
            <path d="M283.326385,156.005982 C282.017543,156.09571 280.754089,156.316185 279.65486,157.130574 C279.589666,157.179283 279.526947,157.226284 279.465878,157.271575 C278.095143,157.321994 276.444648,157.910781 275.557507,159.026828 C274.535851,160.308658 273.590943,161.553742 273.223708,163.219266 C273.097445,163.83369 273.023998,164.45495 273.004192,165.082192 C272.953027,166.330694 273.378029,167.245066 273.852546,168.344022 C274.167791,169.081501 274.745464,169.689089 275.225758,170.309494 C275.728333,170.950409 276.479308,171.440923 277.123827,171.888709 C278.117424,172.580042 279.619374,172.960318 280.801954,172.997064 C283.181142,173.067138 285.183192,171.875036 286.875774,170.249676 C288.22918,168.950755 289.045349,167.292067 289.679964,165.53596 C289.741033,165.322321 289.78312,165.105265 289.799625,164.885645 C290.005937,163.356849 290.121472,162.868899 289.799625,161.343522 C289.686566,160.712861 289.46705,160.12151 289.138602,159.560923 C288.570832,158.43975 287.861944,157.855235 286.907959,157.107501 C286.146255,156.514441 284.562606,156 283.516192,156 C283.450172,156 283.387454,156.002564 283.326385,156.005982" id="Fill-20" fill="#2C2C2C"></path>
            <path d="M308.713302,191.274294 C308.630337,191.285226 308.549031,191.296158 308.466066,191.307089 C308.473533,191.303726 308.481829,191.299521 308.488466,191.295317 C308.562305,191.284385 308.636974,191.276817 308.713302,191.274294 M303.650767,182.125985 C302.377251,182.884489 301.16513,183.711949 299.982876,184.612569 C299.641889,184.878298 299.301732,185.144027 298.958256,185.41396 C298.332699,186.053896 297.898791,186.806515 297.659021,187.677702 C297.59182,187.924931 297.5437,188.175524 297.513832,188.428639 C297.201883,189.13753 297.041761,189.912012 297.007745,190.726018 C296.909846,193.107488 297.742816,195.43598 299.350681,197.177514 C301.301193,199.292414 304.315318,200.531081 307.164342,199.778463 C309.627578,199.128436 311.305964,197.443243 312.74458,195.420002 C314.145032,193.445535 315.058479,191.057338 314.997085,188.600186 C314.925735,185.955509 313.354374,183.48238 311.159945,182.086462 C309.998433,181.348139 308.761422,181 307.521092,181 C306.206094,181 304.887778,181.391866 303.650767,182.125985" id="Fill-22" fill="#2C2C2C"></path>
            <path d="M337.708265,167.335281 L337.667161,167.648324 C337.67867,167.542851 337.691823,167.439066 337.708265,167.335281 M337.848842,166.712568 C337.866106,166.848417 337.884192,166.984266 337.901456,167.120959 C337.875971,166.98511 337.858707,166.849261 337.848842,166.712568 M331.562335,155.989759 C330.220687,156.444558 329.105936,157.229278 328.380032,158.501704 C327.694411,159.705784 327.483956,161.161312 327.795528,162.518117 C327.53246,162.952666 327.342557,163.417591 327.269392,163.887578 C326.996458,165.640962 326.764629,167.380845 327.449429,169.078539 C327.901577,170.195709 328.28056,171.056369 329.134709,171.93306 C330.030785,172.852785 331.122518,173.353149 332.304681,173.755634 C334.218501,174.401973 336.27701,173.653536 337.988597,172.819877 C339.109103,172.272262 339.921326,171.217531 340.64723,170.235367 C341.045942,169.694501 341.369845,169.124947 341.67484,168.521641 C343.274623,165.366732 343.617434,161.385758 341.630447,158.316916 C341.106777,157.512789 340.239474,156.461434 339.369705,156.015916 C338.184254,155.406704 337.323528,155.126568 336.007365,155.017719 C335.868432,155.005906 335.729499,155 335.591388,155 C334.205348,155 332.85959,155.552679 331.562335,155.989759" id="Fill-24" fill="#2C2C2C"></path>
        </g>
    </g>
</svg>