<?xml version="1.0" encoding="UTF-8" standalone="no"?>
<svg width="800px" height="1000px" viewBox="0 0 800 1000" version="1.1" xmlns="http://www.w3.org/2000/svg" xmlns:xlink="http://www.w3.org/1999/xlink">
    <!-- Generator: Sketch 50.2 (55047) - http://www.bohemiancoding.com/sketch -->
    <title>ghost_0001_DL</title>
    <desc>Created with Sketch.</desc>
    <defs></defs>
    <g id="ghost_0001_DL" stroke="none" stroke-width="1" fill="none" fill-rule="evenodd">
        <g id="logo-footer" transform="translate(50.000000, 907.000000)">
            <g id="logo" stroke-width="1" fill="#000000">
                <path d="M22.6934388,15.0316664 L22.6934618,15.0316568 C24.8540713,14.125507 27.8150617,14.1839247 30.9241771,14.9082707 C36.9845962,16.3204451 41.9619502,21.5064706 41.7115946,27.0189937 C41.2068812,38.153553 27.364354,46.2112467 18.9772966,38.232092 C14.9642137,34.4140282 14.2194926,29.7032983 16.2924593,24.079381 C16.5230095,23.4556991 17.0218953,22.3638417 17.504613,21.609055 C17.8990211,20.9923509 18.2694725,20.5968403 18.6858348,20.461781 C19.3399419,20.2496022 19.8246592,20.6931146 20.0757675,21.546582 C20.1972365,21.9595166 20.0384374,22.2974069 19.6891545,22.7113641 C19.6345871,22.7760354 19.5832938,22.8337164 19.4944641,22.9315608 C19.2600186,23.1897983 19.1811818,23.2867499 19.1413061,23.3702534 C18.5369963,24.6368708 18.0271956,26.2160344 17.6275809,27.9407514 C16.4561885,32.9977698 18.8129728,37.4217163 23.802912,38.8960497 C29.1341919,40.4715099 35.2467476,37.4833282 37.5113922,32.4534374 C40.079836,26.7508533 39.7580937,22.4471852 35.6756452,19.1828931 C31.0107515,15.4529094 24.2860993,15.4389598 20.8518667,19.712373 L20.615264,20.0067914 L20.2673823,19.8596814 C19.0047929,19.3257653 19.026203,18.2039119 19.937096,17.0846287 C20.6022272,16.2673318 21.7434415,15.4301465 22.6934388,15.0316664 Z" id="Fill-4" stroke="#000000" stroke-linecap="round"></path>
                <g id="Group-132" transform="translate(22.214577, 0.000813)">
                    <path d="M7.97488966,7.4513341 C8.05946614,7.04580446 8.16038126,6.43751001 8.31511778,5.84805164 C8.64765713,4.5705225 8.88408684,3.29520937 8.88024245,1.94011991 C8.87928136,1.34512152 8.59191354,0.405533734 9.47323892,0.190580869 C10.2276996,0.00665212852 11.0302151,-0.0952842818 11.607834,0.709126956 C11.9490232,1.18224486 12.2892513,1.68195487 12.5122257,2.23374109 C13.2964803,4.18050493 12.2411965,7.98871626 10.650582,9.09893673 C9.44536713,9.93991211 8.00564474,9.16430899 7.97488966,7.4513341" id="Fill-103"></path>
                    <path d="M3.80382745,4.09164297 C3.6856126,5.05228284 3.53568156,6.0107067 3.45783276,6.97688659 C3.35595654,8.23668766 2.54479119,8.79179789 1.72497597,9.24607972 C1.01664794,9.64052931 0.348685949,9.47543664 0.1756886,8.39291629 C-0.218360918,5.92871437 0.142050227,3.47448449 0.366946781,1.03687468 C0.469784094,-0.0877498515 1.84319083,-0.334834846 2.77929871,0.479548432 C3.60295831,1.19753532 3.85572666,2.12825907 3.80382745,4.09164297" id="Fill-107"></path>
                </g>
                <path d="M20.2634362,30.3053657 C16.5080524,32.7713726 11.5871517,36.3128002 7.87403308,38.8239106 C6.7950284,39.5539578 5.96613752,39.9141475 4.97166316,40.7281081 C4.02069706,41.5064055 2.93469704,42.0220626 2.14036065,41.3224341 C1.32364858,40.6028761 0.441341274,40.2694166 1.12877167,39.032742 C1.7403734,37.9313777 2.4580647,37.848449 3.75709683,37.2946201 C6.32284067,36.2005983 10.2382439,33.2542987 12.5155902,31.7585412 C13.2154515,31.298066 14.453267,30.3287667 15.0586532,29.7843781 C16.647326,28.3547025 16.2987261,27.948748 14.5086723,26.5767629 C11.3537024,24.1569083 7.45589768,21.4520095 4.27606592,19.0552311 C3.46184004,18.4426628 2.6239954,17.850024 1.85327777,17.2007436 C-0.250035497,15.4312184 0.12466323,13.523236 3.0198267,12.803678 C3.68612452,12.6379489 4.17963243,12.8215096 4.53018464,13.3029631 C7.44896688,17.3171735 12.714215,20.4522663 16.8387974,23.4112648 C18.2472217,24.4213732 19.3299145,25.5110619 21.3089184,25.9610478 C22.3767353,26.2033479 22.0870946,27.1903801 22.2002161,28.3525816 C22.3531165,29.0941668 21.2566675,29.6529385 20.2634362,30.3053657 Z" id="chevron" transform="translate(11.366064, 27.198133) rotate(-2.000000) translate(-11.366064, -27.198133) "></path>
            </g>
            <path d="M66.1285417,20.732 L62.2045417,20.732 L62.2045417,32 L60.7105417,32 L60.7105417,20.732 L56.7865417,20.732 L56.7865417,19.4 L66.1285417,19.4 L66.1285417,20.732 Z M76.1810123,26.222 L70.1330123,26.222 L70.1330123,32 L68.6390123,32 L68.6390123,19.4 L70.1330123,19.4 L70.1330123,24.89 L76.1810123,24.89 L76.1810123,19.4 L77.6750123,19.4 L77.6750123,32 L76.1810123,32 L76.1810123,26.222 Z M81.3914829,19.4 L88.2494829,19.4 L88.2494829,20.732 L82.8854829,20.732 L82.8854829,24.854 L87.7994829,24.854 L87.7994829,26.186 L82.8854829,26.186 L82.8854829,30.668 L88.3394829,30.668 L88.3394829,32 L81.3914829,32 L81.3914829,19.4 Z M97.158424,19.4 C97.3864252,19.3639998 97.6414226,19.3370001 97.923424,19.319 C98.2054255,19.3009999 98.4994225,19.289 98.805424,19.283 C99.1114256,19.277 99.4114226,19.271 99.705424,19.265 C99.9994255,19.259 100.272423,19.256 100.524424,19.256 C101.532429,19.256 102.40542,19.4119984 103.143424,19.724 C103.881428,20.0360016 104.490422,20.4709972 104.970424,21.029 C105.450426,21.5870028 105.807423,22.2559961 106.041424,23.036 C106.275425,23.8160039 106.392424,24.6739953 106.392424,25.61 C106.392424,26.4620043 106.281425,27.2809961 106.059424,28.067 C105.837423,28.8530039 105.486426,29.548997 105.006424,30.155 C104.526422,30.761003 103.902428,31.2469982 103.134424,31.613 C102.36642,31.9790018 101.43643,32.162 100.344424,32.162 C100.152423,32.162 99.9034256,32.159 99.597424,32.153 C99.2914225,32.147 98.9764257,32.1350001 98.652424,32.117 C98.3284224,32.0989999 98.0284254,32.0840001 97.752424,32.072 C97.4764227,32.0599999 97.2784246,32.0420001 97.158424,32.018 L97.158424,19.4 Z M100.560424,20.588 L100.047424,20.588 C99.8614231,20.588 99.6784249,20.5939999 99.498424,20.606 C99.3184231,20.6180001 99.1534248,20.6299999 99.003424,20.642 C98.8534233,20.6540001 98.7364245,20.6659999 98.652424,20.678 L98.652424,30.758 C98.7124243,30.7700001 98.8264232,30.779 98.994424,30.785 C99.1624249,30.791 99.3364231,30.797 99.516424,30.803 C99.6964249,30.809 99.8704232,30.815 100.038424,30.821 C100.206425,30.827 100.320424,30.83 100.380424,30.83 C101.220428,30.83 101.925421,30.6860014 102.495424,30.398 C103.065427,30.1099986 103.521422,29.7230024 103.863424,29.237 C104.205426,28.7509976 104.448423,28.1930031 104.592424,27.563 C104.736425,26.9329968 104.808424,26.2820034 104.808424,25.61 C104.808424,25.0219971 104.742425,24.431003 104.610424,23.837 C104.478423,23.242997 104.250426,22.7060024 103.926424,22.226 C103.602422,21.7459976 103.167427,21.3530015 102.621424,21.047 C102.075421,20.7409985 101.388428,20.588 100.560424,20.588 Z M109.064895,25.7 C109.064895,23.5999895 109.50889,21.9890056 110.396895,20.867 C111.284899,19.7449944 112.550886,19.184 114.194895,19.184 C115.082899,19.184 115.850891,19.3399984 116.498895,19.652 C117.146898,19.9640016 117.683893,20.4049971 118.109895,20.975 C118.535897,21.5450028 118.850894,22.228996 119.054895,23.027 C119.258896,23.825004 119.360895,24.7159951 119.360895,25.7 C119.360895,27.8000105 118.913899,29.4109944 118.019895,30.533 C117.12589,31.6550056 115.850903,32.216 114.194895,32.216 C113.31889,32.216 112.559898,32.0600016 111.917895,31.748 C111.275891,31.4359984 110.741897,30.9950028 110.315895,30.425 C109.889893,29.8549971 109.574896,29.171004 109.370895,28.373 C109.166894,27.574996 109.064895,26.6840049 109.064895,25.7 Z M110.648895,25.7 C110.648895,26.3960035 110.717894,27.0559969 110.855895,27.68 C110.993895,28.3040031 111.206893,28.8529976 111.494895,29.327 C111.782896,29.8010024 112.151892,30.1789986 112.601895,30.461 C113.051897,30.7430014 113.582892,30.884 114.194895,30.884 C115.3109,30.884 116.186891,30.4610042 116.822895,29.615 C117.458898,28.7689958 117.776895,27.4640088 117.776895,25.7 C117.776895,25.0159966 117.707895,24.3590031 117.569895,23.729 C117.431894,23.0989968 117.215896,22.5470024 116.921895,22.073 C116.627893,21.5989976 116.255897,21.2210014 115.805895,20.939 C115.355892,20.6569986 114.818898,20.516 114.194895,20.516 C113.090889,20.516 112.223898,20.9389958 111.593895,21.785 C110.963891,22.6310042 110.648895,23.9359912 110.648895,25.7 Z M122.033365,25.7 C122.033365,23.5999895 122.477361,21.9890056 123.365365,20.867 C124.25337,19.7449944 125.519357,19.184 127.163365,19.184 C128.05137,19.184 128.819362,19.3399984 129.467365,19.652 C130.115368,19.9640016 130.652363,20.4049971 131.078365,20.975 C131.504367,21.5450028 131.819364,22.228996 132.023365,23.027 C132.227366,23.825004 132.329365,24.7159951 132.329365,25.7 C132.329365,27.8000105 131.88237,29.4109944 130.988365,30.533 C130.094361,31.6550056 128.819374,32.216 127.163365,32.216 C126.287361,32.216 125.528368,32.0600016 124.886365,31.748 C124.244362,31.4359984 123.710367,30.9950028 123.284365,30.425 C122.858363,29.8549971 122.543366,29.171004 122.339365,28.373 C122.135364,27.574996 122.033365,26.6840049 122.033365,25.7 Z M123.617365,25.7 C123.617365,26.3960035 123.686365,27.0559969 123.824365,27.68 C123.962366,28.3040031 124.175364,28.8529976 124.463365,29.327 C124.751367,29.8010024 125.120363,30.1789986 125.570365,30.461 C126.020367,30.7430014 126.551362,30.884 127.163365,30.884 C128.279371,30.884 129.155362,30.4610042 129.791365,29.615 C130.427368,28.7689958 130.745365,27.4640088 130.745365,25.7 C130.745365,25.0159966 130.676366,24.3590031 130.538365,23.729 C130.400365,23.0989968 130.184367,22.5470024 129.890365,22.073 C129.596364,21.5989976 129.224367,21.2210014 128.774365,20.939 C128.324363,20.6569986 127.787368,20.516 127.163365,20.516 C126.05936,20.516 125.192368,20.9389958 124.562365,21.785 C123.932362,22.6310042 123.617365,23.9359912 123.617365,25.7 Z M135.523836,19.4 C135.751837,19.3639998 136.006834,19.3370001 136.288836,19.319 C136.570837,19.3009999 136.864834,19.289 137.170836,19.283 C137.476837,19.277 137.776834,19.271 138.070836,19.265 C138.364837,19.259 138.637835,19.256 138.889836,19.256 C139.897841,19.256 140.770832,19.4119984 141.508836,19.724 C142.24684,20.0360016 142.855833,20.4709972 143.335836,21.029 C143.815838,21.5870028 144.172835,22.2559961 144.406836,23.036 C144.640837,23.8160039 144.757836,24.6739953 144.757836,25.61 C144.757836,26.4620043 144.646837,27.2809961 144.424836,28.067 C144.202835,28.8530039 143.851838,29.548997 143.371836,30.155 C142.891833,30.761003 142.26784,31.2469982 141.499836,31.613 C140.731832,31.9790018 139.801841,32.162 138.709836,32.162 C138.517835,32.162 138.268837,32.159 137.962836,32.153 C137.656834,32.147 137.341837,32.1350001 137.017836,32.117 C136.693834,32.0989999 136.393837,32.0840001 136.117836,32.072 C135.841834,32.0599999 135.643836,32.0420001 135.523836,32.018 L135.523836,19.4 Z M138.925836,20.588 L138.412836,20.588 C138.226835,20.588 138.043837,20.5939999 137.863836,20.606 C137.683835,20.6180001 137.518837,20.6299999 137.368836,20.642 C137.218835,20.6540001 137.101836,20.6659999 137.017836,20.678 L137.017836,30.758 C137.077836,30.7700001 137.191835,30.779 137.359836,30.785 C137.527837,30.791 137.701835,30.797 137.881836,30.803 C138.061837,30.809 138.235835,30.815 138.403836,30.821 C138.571837,30.827 138.685836,30.83 138.745836,30.83 C139.58584,30.83 140.290833,30.6860014 140.860836,30.398 C141.430839,30.1099986 141.886834,29.7230024 142.228836,29.237 C142.570838,28.7509976 142.813835,28.1930031 142.957836,27.563 C143.101837,26.9329968 143.173836,26.2820034 143.173836,25.61 C143.173836,25.0219971 143.107837,24.431003 142.975836,23.837 C142.843835,23.242997 142.615837,22.7060024 142.291836,22.226 C141.967834,21.7459976 141.532839,21.3530015 140.986836,21.047 C140.440833,20.7409985 139.75384,20.588 138.925836,20.588 Z M155.404306,32 L147.952306,32 L147.952306,19.4 L149.446306,19.4 L149.446306,30.668 L155.404306,30.668 L155.404306,32 Z M157.914777,19.4 L164.772777,19.4 L164.772777,20.732 L159.408777,20.732 L159.408777,24.854 L164.322777,24.854 L164.322777,26.186 L159.408777,26.186 L159.408777,30.668 L164.862777,30.668 L164.862777,32 L157.914777,32 L157.914777,19.4 Z M181.133718,32 L173.681718,32 L173.681718,19.4 L175.175718,19.4 L175.175718,30.668 L181.133718,30.668 L181.133718,32 Z M183.986189,19.4 L185.480189,19.4 L185.480189,32 L183.986189,32 L183.986189,19.4 Z M197.134659,22.28 C197.134659,22.5800015 197.08666,22.8859984 196.990659,23.198 C196.894659,23.5100016 196.75066,23.8009986 196.558659,24.071 C196.366658,24.3410013 196.120661,24.577999 195.820659,24.782 C195.520658,24.986001 195.166661,25.1419995 194.758659,25.25 L194.758659,25.322 C195.118661,25.3820003 195.463658,25.4839993 195.793659,25.628 C196.123661,25.7720007 196.414658,25.9699987 196.666659,26.222 C196.918661,26.4740013 197.122659,26.7799982 197.278659,27.14 C197.43466,27.5000018 197.512659,27.9259975 197.512659,28.418 C197.512659,29.0660032 197.377661,29.6269976 197.107659,30.101 C196.837658,30.5750024 196.483662,30.9619985 196.045659,31.262 C195.607657,31.5620015 195.106662,31.7839993 194.542659,31.928 C193.978657,32.0720007 193.402662,32.144 192.814659,32.144 L192.094659,32.144 C191.818658,32.144 191.530661,32.1350001 191.230659,32.117 C190.930658,32.0989999 190.630661,32.0750002 190.330659,32.045 C190.030658,32.0149999 189.766661,31.9700003 189.538659,31.91 L189.538659,19.508 C189.982662,19.4359996 190.498656,19.3760002 191.086659,19.328 C191.674662,19.2799998 192.316656,19.256 193.012659,19.256 C193.480662,19.256 193.957657,19.2949996 194.443659,19.373 C194.929662,19.4510004 195.370657,19.6009989 195.766659,19.823 C196.162661,20.0450011 196.489658,20.353998 196.747659,20.75 C197.005661,21.146002 197.134659,21.6559969 197.134659,22.28 Z M192.958659,30.848 C193.342661,30.848 193.714658,30.8030004 194.074659,30.713 C194.434661,30.6229995 194.752658,30.479001 195.028659,30.281 C195.304661,30.082999 195.523659,29.8400014 195.685659,29.552 C195.84766,29.2639986 195.928659,28.922002 195.928659,28.526 C195.928659,28.0339975 195.82966,27.6380015 195.631659,27.338 C195.433658,27.0379985 195.175661,26.8040008 194.857659,26.636 C194.539658,26.4679992 194.182661,26.3540003 193.786659,26.294 C193.390657,26.2339997 192.994661,26.204 192.598659,26.204 L191.032659,26.204 L191.032659,30.722 C191.11666,30.7460001 191.236659,30.7639999 191.392659,30.776 C191.54866,30.7880001 191.716659,30.7999999 191.896659,30.812 C192.07666,30.8240001 192.262658,30.833 192.454659,30.839 C192.64666,30.845 192.814659,30.848 192.958659,30.848 Z M191.968659,24.944 C192.17266,24.944 192.418658,24.9380001 192.706659,24.926 C192.994661,24.9139999 193.234658,24.8960001 193.426659,24.872 C193.714661,24.7759995 193.984658,24.6590007 194.236659,24.521 C194.488661,24.3829993 194.713658,24.2210009 194.911659,24.035 C195.10966,23.8489991 195.265659,23.6330012 195.379659,23.387 C195.49366,23.1409988 195.550659,22.8740014 195.550659,22.586 C195.550659,22.189998 195.47566,21.8630013 195.325659,21.605 C195.175659,21.3469987 194.974661,21.1400008 194.722659,20.984 C194.470658,20.8279992 194.182661,20.7170003 193.858659,20.651 C193.534658,20.5849997 193.204661,20.552 192.868659,20.552 C192.472657,20.552 192.109661,20.5609999 191.779659,20.579 C191.449658,20.5970001 191.20066,20.6239998 191.032659,20.66 L191.032659,24.944 L191.968659,24.944 Z M200.70713,19.526 C201.163132,19.4419996 201.688127,19.3760002 202.28213,19.328 C202.876133,19.2799998 203.419128,19.256 203.91113,19.256 C204.463133,19.256 204.988128,19.3159994 205.48613,19.436 C205.984133,19.5560006 206.422128,19.7539986 206.80013,20.03 C207.178132,20.3060014 207.481129,20.6659978 207.70913,21.11 C207.937131,21.5540022 208.05113,22.0939968 208.05113,22.73 C208.05113,23.7140049 207.781133,24.5119969 207.24113,25.124 C206.701127,25.7360031 206.017134,26.143999 205.18913,26.348 L206.05313,27.014 L209.18513,32 L207.43913,32 L203.96513,26.564 L202.20113,26.294 L202.20113,32 L200.70713,32 L200.70713,19.526 Z M203.94713,20.552 L203.46113,20.552 C203.293129,20.552 203.131131,20.5579999 202.97513,20.57 C202.819129,20.5820001 202.672131,20.5939999 202.53413,20.606 C202.396129,20.6180001 202.28513,20.6359999 202.20113,20.66 L202.20113,25.304 L203.60513,25.304 C204.433134,25.304 205.117127,25.100002 205.65713,24.692 C206.197133,24.283998 206.46713,23.6480043 206.46713,22.784 C206.46713,22.1359968 206.245132,21.6020021 205.80113,21.182 C205.357128,20.7619979 204.739134,20.552 203.94713,20.552 Z M217.599601,28.508 L212.955601,28.508 L211.695601,32 L210.219601,32 L214.989601,19.202 L215.673601,19.202 L220.461601,32 L218.895601,32 L217.599601,28.508 Z M213.441601,27.212 L217.149601,27.212 L215.745601,23.378 L215.295601,21.47 L215.277601,21.47 L214.827601,23.414 L213.441601,27.212 Z M222.792071,19.526 C223.248073,19.4419996 223.773068,19.3760002 224.367071,19.328 C224.961074,19.2799998 225.504069,19.256 225.996071,19.256 C226.548074,19.256 227.073069,19.3159994 227.571071,19.436 C228.069074,19.5560006 228.507069,19.7539986 228.885071,20.03 C229.263073,20.3060014 229.56607,20.6659978 229.794071,21.11 C230.022072,21.5540022 230.136071,22.0939968 230.136071,22.73 C230.136071,23.7140049 229.866074,24.5119969 229.326071,25.124 C228.786069,25.7360031 228.102075,26.143999 227.274071,26.348 L228.138071,27.014 L231.270071,32 L229.524071,32 L226.050071,26.564 L224.286071,26.294 L224.286071,32 L222.792071,32 L222.792071,19.526 Z M226.032071,20.552 L225.546071,20.552 C225.37807,20.552 225.216072,20.5579999 225.060071,20.57 C224.90407,20.5820001 224.757072,20.5939999 224.619071,20.606 C224.481071,20.6180001 224.370072,20.6359999 224.286071,20.66 L224.286071,25.304 L225.690071,25.304 C226.518075,25.304 227.202069,25.100002 227.742071,24.692 C228.282074,24.283998 228.552071,23.6480043 228.552071,22.784 C228.552071,22.1359968 228.330073,21.6020021 227.886071,21.182 C227.442069,20.7619979 226.824075,20.552 226.032071,20.552 Z M235.850542,26.996 L231.692542,19.4 L233.438542,19.4 L236.390542,24.908 L236.696542,26.006 L236.714542,26.006 L237.038542,24.872 L239.864542,19.4 L241.466542,19.4 L237.344542,26.978 L237.344542,32 L235.850542,32 L235.850542,26.996 Z" id="the-Doodle-Library" fill="#666666" opacity="0.739717371"></path>
        </g>
        <g id="Name" transform="translate(309.000000, 921.000000)" fill="#000000" font-family="OpenSans-Regular, Open Sans" font-size="18" font-weight="normal" letter-spacing="0.654545426">
            <text id="Griffin">
                <tspan x="0" y="18">ghost</tspan>
            </text>
        </g>
        <g id="ghost_0001" transform="translate(258.000000, 258.051443)">
            <path d="M115.419702,1.38371527 C189.355831,1.38371527 242.995768,57.923108 242.995768,128.959781 C242.995768,199.996454 209.652023,205.795366 218.350391,256.535846 C227.048759,307.276327 307.31948,369.501187 268.176824,384.111912 C144.068745,320.210434 186.992055,384.111912 161.810999,384.111912 C136.629942,384.111912 102.90783,334.707714 18.2879249,384.111912 C-2.00712066,395.960902 18.2879249,224.64183 18.2879249,176.800805 C18.2879249,128.959781 41.4835732,1.38371527 115.419702,1.38371527 Z" id="Path-74" fill="#FFFFFF"></path>
            <path d="M98.9274327,6.85216186 C91.9788863,8.9238232 85.2521483,11.5376828 78.7356209,14.7836238 C74.9126881,16.6871167 71.075258,18.6978895 67.7017409,21.1290834 C61.7477079,25.4188286 56.1532075,30.2348251 51.1878891,35.7814844 C43.9522965,43.8622684 39.7611328,53.4319231 36.4832978,63.5234798 C34.5131174,69.5905915 32.5733813,75.6794492 30.9714319,81.8509414 C29.8739878,86.079798 28.3097312,90.1593327 27.2920222,94.3983374 C24.5621843,105.775803 23.2356832,117.362029 21.9512241,128.972901 C20.8958221,138.501963 20.2535926,148.003481 20.971208,157.580384 C21.6699769,166.909384 22.271614,176.247082 22.964584,185.577531 C23.2458313,189.364221 23.129853,193.284285 24.1156681,196.892658 C26.216324,204.592164 26.4917723,212.519277 27.5834175,220.328962 C28.3952652,226.130773 28.470651,232.093504 29.0693887,237.933009 C29.6376821,243.478219 29.4260218,248.946593 29.1824675,254.420766 C28.619973,267.08269 26.6497926,279.553251 23.1153557,291.749812 C22.191879,294.936315 21.5221046,298.192404 20.2825872,301.293372 C16.9090701,309.735138 12.3206809,317.685447 10.6114516,326.801336 C8.30203485,339.132723 7.05381903,351.162566 13.3456386,362.957553 C15.8536681,367.660471 19.2532803,370.552678 23.9996898,371.986459 C28.8519295,373.455034 33.7259151,373.424589 38.8057621,372.053147 C46.8242077,369.887253 54.4280312,366.81238 61.4099213,362.487841 C68.5135886,358.090816 75.4432885,353.456036 83.1253973,350.086868 C90.3638893,346.913413 97.7922956,344.299554 105.381622,342.091618 C110.836948,340.504166 116.018276,341.098554 120.802379,343.995111 C128.878814,348.882144 135.801265,355.259497 142.452617,361.863009 C146.96852,366.347017 152.017922,369.63935 158.025595,371.618228 C163.362044,373.376748 168.204136,373.199882 172.189438,368.637588 C174.622082,365.849761 177.106915,363.096727 179.142334,359.998658 C181.419856,356.533808 184.451238,353.953292 188.143695,352.184624 C189.355667,351.604733 190.770602,351.107476 192.153643,351.478607 C197.374113,352.886293 202.203157,355.342132 206.845186,357.958891 C211.955478,360.839501 216.984584,363.914374 222.341329,366.261483 C232.744577,370.817978 243.298597,375.027989 253.817824,379.316284 C258.133664,381.073354 262.593027,382.347665 267.311892,381.3633 C269.139999,380.982022 270.833282,380.478966 271.922027,378.397157 C274.177804,374.084216 274.824383,369.74373 274.540236,364.866845 C274.079223,356.981774 271.524802,350.320274 266.4725,344.192274 C262.327727,339.170416 257.19714,335.241653 252.900146,330.421307 C249.484587,326.589676 245.196291,323.662675 241.190693,320.442829 C234.675615,315.202063 230.023438,308.385441 226.471604,300.910644 C224.350652,296.449831 221.787533,292.203577 220.652396,287.219412 C218.221202,276.539266 217.522433,265.772136 218.151615,254.909324 C218.624226,246.747355 219.663681,238.627429 220.213128,230.46256 C220.639348,224.169291 221.503386,217.913715 222.799443,211.711778 C223.840348,206.721814 224.381096,201.62892 225.316171,196.614311 C227.318245,185.868927 229.497187,175.155437 231.473166,164.405703 C232.808365,157.152714 238.205123,138.17389 232.959137,113.565191 C227.713151,88.9564933 229.756688,102.003611 228.405541,96.1481591 C227.060194,90.3086546 224.882702,84.8895713 221.889014,79.8401686 C217.017928,71.6260097 220.919726,73.8658395 205.641912,53.3739339 C190.364098,32.8820284 168.227331,22.4686321 164.382653,19.9069627 C159.382541,16.5740379 154.21861,13.4629216 148.690797,10.9447441 C142.478712,8.11487496 136.25358,5.57785093 129.363023,5.26181023 C122.887088,4.96461598 116.403904,4.96316625 110.062794,5.26470968 C106.165925,5.13568389 102.493764,5.7880615 98.9274327,6.85216186 Z M7.40610294,312.820159 C14.4517811,297.165996 18.7009339,280.726081 19.9810438,263.487365 C20.7117067,253.664008 20.576882,243.875444 19.9766946,234.115875 C19.2982219,223.093593 17.9412764,212.116252 16.0841748,201.194002 C14.3546493,191.024159 13.5399022,180.723842 13.1310789,170.397429 C12.8976727,164.499936 12.032185,158.641585 11.9828943,152.719446 C11.9423019,148.00783 12.2365967,143.336806 12.7193561,138.657084 C13.1281794,134.709475 13.5978913,130.745918 13.7892554,126.801208 C14.2865121,116.544383 16.0551803,106.476021 18.5487125,96.6033737 C20.0346837,90.7160282 22.0889483,84.9026189 23.7416382,79.0239718 C25.2522548,73.6483803 26.3424503,68.1321652 28.4141116,62.9450383 C31.3947524,55.478939 33.5403499,47.6228629 38.1330883,40.8700298 C42.0444545,35.1204085 46.8662498,30.2464229 52.2229949,25.8030065 C56.1459589,22.5469174 60.2269433,19.569176 64.4586993,16.7509048 C69.561742,13.3556417 75.0054707,10.6113066 80.6347646,8.25694831 C85.5246972,6.21283181 90.4552221,4.19046122 95.5176724,2.64940034 C99.3449543,1.48526874 103.385346,0.687918331 107.373548,0.451612664 C114.390232,0.0355407229 121.444608,0.048588275 128.480138,0.116725492 C134.395029,0.173264885 140.063465,1.53745895 145.746399,3.31772495 C154.025796,5.91418783 165.984602,8.38887356 173.330374,12.7569041 C180.039715,16.7465556 193.430273,26.9362589 199.062466,32.3437444 C205.197715,38.2368888 217.908931,49.7404806 226.742703,67.1372168 C236.785525,86.9149854 245.004927,120.419603 245.004927,138.657084 C245.004927,160.886199 238.157862,173.11132 235.897736,183.981381 C232.924344,198.2728 230.678715,212.671498 228.99993,227.16153 C228.09385,234.974114 227.247209,242.805545 226.742703,250.652923 C225.969998,262.694363 226.445509,274.686514 229.742191,286.397417 C231.030999,290.978557 233.673853,294.956611 235.858593,299.134727 C239.292999,305.699095 243.807452,311.405225 249.642607,315.96317 C254.536889,319.786103 259.419573,323.565543 263.874587,327.948071 C269.88081,333.861512 275.543448,340.00111 280.244916,347.013444 C282.232493,349.976688 282.412259,353.253074 282.660163,356.664284 C282.953008,360.677131 284.314302,364.874094 282.890669,368.628889 C281.28727,372.851947 281.190138,377.492526 278.886521,381.483627 C278.221096,382.637611 277.50348,383.745203 276.510416,384.486014 C273.571818,386.686701 270.640468,388.714871 266.669663,389.099049 C259.045543,389.834061 251.960722,388.572797 245.004927,385.365999 C238.420263,382.330269 231.536954,379.946916 224.881253,377.051809 C219.907236,374.888815 215.078192,372.388034 210.201307,370.003231 C203.770313,366.860221 197.653911,363.096727 191.012707,360.36109 C188.80912,359.453561 187.226017,360.187123 185.889368,361.841263 C183.116038,365.271319 180.586263,368.921734 177.607072,372.158977 C172.418495,377.79407 166.013597,381.757626 158.176367,380.284702 C151.812061,379.090127 145.514443,376.950328 140.343263,372.459071 C135.685287,368.414329 131.009914,364.401482 126.495461,360.191472 C122.489862,356.454073 118.152276,352.987774 113.339179,350.375364 C109.959863,348.541458 106.167374,348.418231 102.256008,349.575114 C95.6278517,351.536596 89.1649642,353.902552 82.8934408,356.758516 C78.6703831,358.682305 74.7952601,361.21788 70.979576,363.930321 C66.0925428,367.403869 60.6981049,370.096014 55.1586941,372.546054 C50.3586446,374.668456 45.5991876,376.872043 40.5642822,378.289877 C33.5446991,380.265856 26.4308837,381.776473 19.1126567,379.580135 C12.7802447,377.680991 8.22519927,373.779773 5.06769164,367.972162 C1.02729966,360.539407 0.0472835198,352.565903 0.466254917,340.463573 C0.889575498,333.412096 2.8612056,322.927663 7.40610294,312.820159 Z" id="Fill-350" stroke="#000000" stroke-width="4" fill="#000000"></path>
            <path d="M171.915439,161.242107 C167.589451,161.076838 167.370542,160.888373 166.460113,156.552237 C165.030681,149.745764 164.481234,142.874053 164.832068,135.922607 C164.895856,134.643947 164.613159,133.34934 164.514578,132.061981 C164.214484,128.170911 169.179803,124.504549 172.807022,125.846997 C174.7888,126.582009 175.27011,127.853421 174.956969,129.8323 C173.524638,138.871354 173.576828,147.824874 176.754632,156.563835 C177.660712,159.058816 175.246914,161.369683 171.915439,161.242107" id="Fill-352" stroke="#000000" stroke-width="4" fill="#000000"></path>
            <path d="M131.647214,149.840431 C131.647214,145.424559 131.648664,141.007238 131.645764,136.589917 C131.644315,136.352161 131.695055,136.057867 131.581976,135.88245 C130.533823,134.264553 130.185888,132.724942 132.115476,131.515869 C134.052313,130.302446 135.87752,128.874464 138.472534,130.195167 C140.36008,131.154887 140.748607,132.717693 141.082044,134.490711 C141.982325,139.29366 141.170477,144.158947 141.63584,148.972044 C141.935934,152.078811 141.818506,155.210224 142.610057,158.295245 C143.400159,161.375917 141.402434,163.517165 138.230429,163.357695 C133.452126,163.11849 133.37529,163.00976 132.757706,158.295245 C132.388025,155.487122 132.031392,152.681898 131.647214,149.840431" id="Fill-354" stroke="#000000" stroke-width="4" fill="#000000"></path>
        </g>
    </g>
</svg>