<?xml version="1.0" encoding="UTF-8"?>
<svg width="800px" height="1000px" viewBox="0 0 800 1000" version="1.1" xmlns="http://www.w3.org/2000/svg" xmlns:xlink="http://www.w3.org/1999/xlink">
    <!-- Generator: Sketch 51.1 (57501) - http://www.bohemiancoding.com/sketch -->
    <title>hand OK_DL</title>
    <desc>Created with Sketch.</desc>
    <defs></defs>
    <g id="hand-OK_DL" stroke="none" stroke-width="1" fill="none" fill-rule="evenodd">
        <g id="logo-footer" transform="translate(456.000000, 711.000000)">
            <g>
                <path d="M110.812545,8.25651402 C110.904572,8.56348079 110.810146,8.81874549 110.573746,9.09365441 C110.548096,9.12348237 110.524607,9.14951827 110.482164,9.19539003 C110.410296,9.27306357 110.388406,9.29969141 110.394575,9.28699974 C110.158488,9.77253772 109.949286,10.3963755 109.78094,11.1092981 C109.323962,13.0450464 110.241419,14.6677006 112.137009,15.2172501 C114.194676,15.8138908 116.608374,14.6870388 117.500673,12.7424366 C118.556971,10.4412591 118.361229,8.87677042 116.832238,7.67717368 C114.960938,6.20902274 112.357851,6.27012948 111.072216,7.83985899 L110.795491,8.1777337 C110.794947,8.20051389 110.804056,8.228204 110.812545,8.25651402 Z M110.106083,6.26944954 C110.423589,5.88663707 110.955421,5.49967933 111.419965,5.30848582 C112.37958,4.91358991 113.68037,4.90617957 115.133698,5.23840657 C117.932917,5.87841333 120.108577,8.22064492 119.995807,10.6570534 C119.760531,15.7499925 113.426094,19.0246323 109.732148,15.5763745 C107.943744,13.9068501 107.553768,11.8021869 108.499361,9.2850154 C108.62423,8.95356867 108.851111,8.49010331 109.049811,8.18524994 C109.270059,7.84733807 109.481086,7.64146186 109.750777,7.55562368 C109.778602,7.54676715 109.806094,7.5393618 109.833231,7.53336632 C109.647627,7.16965375 109.747904,6.70130236 110.106083,6.26944954 Z" id="Fill-4" fill="#000000" fill-rule="nonzero"></path>
                <path d="M116,2.36382675 C116.035222,2.23410526 116.077249,2.03952302 116.14169,1.8509661 C116.280178,1.44230796 116.378641,1.03435869 116.377039,0.600890425 C116.376639,0.410561355 116.256963,0.110004457 116.623996,0.0412449782 C116.938196,-0.017590452 117.272408,-0.0501980398 117.512961,0.20711836 C117.655051,0.358460099 117.796741,0.518308165 117.8896,0.694814455 C118.216208,1.3175485 117.776729,2.53572545 117.114308,2.89086461 C116.612389,3.15987721 116.012808,2.911776 116,2.36382675" id="Fill-103" fill="#000000" fill-rule="nonzero"></path>
                <path d="M113.597281,1.30015424 C113.547641,1.6054057 113.484683,1.90995301 113.451993,2.21696486 C113.409214,2.61727733 113.068594,2.79366831 112.724342,2.93802021 C112.426905,3.06335991 112.146418,3.01090032 112.073774,2.6669203 C111.908307,1.88389925 112.059649,1.1040469 112.154086,0.329475719 C112.197269,-0.0278832593 112.773982,-0.106396611 113.167067,0.152380579 C113.512933,0.380527 113.619074,0.676272361 113.597281,1.30015424" id="Fill-107" fill="#000000" fill-rule="nonzero"></path>
                <path d="M112.19066,11.6823452 C110.632914,12.6206952 108.591708,13.9682577 107.051494,14.9237702 C106.603919,15.2015633 106.260092,15.3386205 105.847581,15.6483439 C105.453117,15.9444969 105.00264,16.1407116 104.673147,15.8744932 C104.334372,15.6006913 103.968388,15.4738054 104.253536,15.0032335 C104.507231,14.584149 104.804932,14.5525935 105.343775,14.3418539 C106.408054,13.9255633 108.032176,12.8044553 108.976827,12.2352987 C109.267132,12.0600815 109.780582,11.6912496 110.031699,11.4841022 C110.690685,10.9400907 110.546085,10.7856194 109.803565,10.2635599 C108.494872,9.34277154 106.87805,8.31351987 105.559045,7.40151231 C105.221301,7.16842154 104.87376,6.94291422 104.554064,6.69585398 C103.681603,6.022525 103.837029,5.29651112 105.037953,5.02270928 C105.314335,4.95964705 105.519044,5.02949445 105.664454,5.21269422 C106.875175,6.74015718 109.059218,7.93310366 110.770108,9.0590438 C111.354328,9.44340412 111.803432,9.85804585 112.62433,10.0292717 C113.067264,10.1214703 112.94712,10.4970498 112.994043,10.9392837 C113.057467,11.2214672 112.602656,11.4340876 112.19066,11.6823452 Z" id="chevron" fill="#000000" fill-rule="nonzero" transform="translate(108.500000, 10.500000) rotate(-2.000000) translate(-108.500000, -10.500000) "></path>
                <path d="M4.80555555,7.71270718 L2.78703703,7.71270718 L2.78703703,12.9005525 L2.01851852,12.9005525 L2.01851852,7.71270718 L0,7.71270718 L0,7.09944751 L4.80555555,7.09944751 L4.80555555,7.71270718 Z M9.97657951,10.2403315 L6.8654684,10.2403315 L6.8654684,12.9005525 L6.09694989,12.9005525 L6.09694989,7.09944751 L6.8654684,7.09944751 L6.8654684,9.62707182 L9.97657951,9.62707182 L9.97657951,7.09944751 L10.745098,7.09944751 L10.745098,12.9005525 L9.97657951,12.9005525 L9.97657951,10.2403315 Z M12.6568627,7.09944751 L16.1846405,7.09944751 L16.1846405,7.71270718 L13.4253813,7.71270718 L13.4253813,9.61049724 L15.953159,9.61049724 L15.953159,10.2237569 L13.4253813,10.2237569 L13.4253813,12.2872928 L16.2309368,12.2872928 L16.2309368,12.9005525 L12.6568627,12.9005525 L12.6568627,7.09944751 Z M20.7674291,7.09944751 C20.8847137,7.08287284 21.0158852,7.07044203 21.1609477,7.0621547 C21.3060102,7.05386736 21.4572432,7.04834254 21.6146514,7.04558011 C21.7720596,7.04281768 21.926379,7.04005525 22.0776143,7.03729282 C22.2288497,7.03453039 22.3692805,7.03314917 22.4989106,7.03314917 C23.0174317,7.03314917 23.4665011,7.10497164 23.8461328,7.24861878 C24.2257645,7.39226593 24.539033,7.59254015 24.7859476,7.84944751 C25.0328623,8.10635488 25.2165027,8.41436285 25.3368736,8.77348066 C25.4572445,9.13259848 25.5174291,9.52762215 25.5174291,9.95856354 C25.5174291,10.3508307 25.4603309,10.7278988 25.3461328,11.089779 C25.2319348,11.4516593 25.0513808,11.7720981 24.8044662,12.051105 C24.5575516,12.3301119 24.236567,12.5538666 23.8415032,12.7223757 C23.4464394,12.8908848 22.9680495,12.9751381 22.406318,12.9751381 C22.3075521,12.9751381 22.179467,12.9737569 22.0220588,12.9709945 C21.8646506,12.968232 21.7026152,12.9627072 21.5359477,12.9544199 C21.3692802,12.9461326 21.2149607,12.9392266 21.0729847,12.9337017 C20.9310087,12.9281767 20.8291578,12.9198895 20.7674291,12.9088398 L20.7674291,7.09944751 Z M22.5174291,7.64640884 L22.2535402,7.64640884 C22.1578608,7.64640884 22.0637259,7.64917122 21.9711328,7.65469613 C21.8785398,7.66022104 21.7936641,7.66574581 21.7165032,7.67127072 C21.6393424,7.67679563 21.5791578,7.6823204 21.5359477,7.6878453 L21.5359477,12.3287293 C21.566812,12.3342542 21.6254534,12.3383978 21.7118736,12.3411602 C21.7982938,12.3439227 21.887799,12.3466851 21.9803921,12.3494475 C22.0729851,12.3522099 22.1624904,12.3549724 22.2489106,12.3577348 C22.3353309,12.3604972 22.3939723,12.3618785 22.4248365,12.3618785 C22.8569374,12.3618785 23.2195881,12.2955808 23.5127995,12.1629834 C23.8060109,12.0303861 24.0405762,11.852211 24.2165032,11.628453 C24.3924302,11.404695 24.5174286,11.1477915 24.5915032,10.8577348 C24.6655778,10.5676781 24.7026143,10.2679574 24.7026143,9.95856354 C24.7026143,9.68784397 24.6686642,9.41574724 24.6007625,9.14226519 C24.5328607,8.86878315 24.4155783,8.62154807 24.2489106,8.40055249 C24.0822429,8.17955691 23.8584801,7.99861948 23.5776143,7.85773481 C23.2967486,7.71685014 22.9433571,7.64640884 22.5174291,7.64640884 Z M26.892157,10 C26.892157,9.03314434 27.1205495,8.29143904 27.5773422,7.77486188 C28.0341344,7.25828471 28.6853622,7 29.5310459,7 C29.9878381,7 30.3828957,7.07182247 30.7162311,7.21546961 C31.0495659,7.35911676 31.3257979,7.56215336 31.5449348,7.82458564 C31.7640716,8.08701791 31.9261071,8.40193186 32.0310459,8.76933702 C32.1359847,9.13674217 32.1884533,9.54695907 32.1884533,10 C32.1884533,10.9668557 31.9585171,11.708561 31.4986385,12.2251381 C31.0387594,12.7417153 30.3829019,13 29.5310459,13 C29.080426,13 28.6899981,12.9281775 28.3597496,12.7845304 C28.0295006,12.6408832 27.7548124,12.4378466 27.5356755,12.1754144 C27.3165387,11.9129821 27.1545032,11.5980681 27.0495644,11.230663 C26.9446256,10.8632578 26.892157,10.4530409 26.892157,10 Z M27.7069718,10 C27.7069718,10.3204436 27.7424651,10.624308 27.8134533,10.9116022 C27.884441,11.1988965 27.9940078,11.4516564 28.142157,11.6698895 C28.2903057,11.8881227 28.4801184,12.0621541 28.7116014,12.191989 C28.943084,12.3218238 29.2162295,12.3867403 29.5310459,12.3867403 C30.1051225,12.3867403 30.5557352,12.1919909 30.8828977,11.8024862 C31.2100598,11.4129815 31.3736385,10.8121587 31.3736385,10 C31.3736385,9.68508131 31.3381447,9.38259816 31.267157,9.09254144 C31.1961688,8.80248476 31.0850587,8.54834365 30.9338237,8.3301105 C30.7825881,8.11187735 30.5912321,7.93784595 30.3597496,7.80801105 C30.1282666,7.67817615 29.8520351,7.61325967 29.5310459,7.61325967 C28.9631416,7.61325967 28.5171585,7.80800912 28.1930829,8.19751381 C27.8690068,8.58701851 27.7069718,9.18784125 27.7069718,10 Z M33.5631807,10 C33.5631807,9.03314434 33.7915737,8.29143904 34.2483658,7.77486188 C34.7051585,7.25828471 35.3563864,7 36.2020695,7 C36.6588622,7 37.0539198,7.07182247 37.3872547,7.21546961 C37.7205896,7.35911676 37.9968216,7.56215336 38.2159584,7.82458564 C38.4350953,8.08701791 38.5971308,8.40193186 38.7020695,8.76933702 C38.8070083,9.13674217 38.8594769,9.54695907 38.8594769,10 C38.8594769,10.9668557 38.6295412,11.708561 38.1696621,12.2251381 C37.7097835,12.7417153 37.053926,13 36.2020695,13 C35.7514502,13 35.3610217,12.9281775 35.0307732,12.7845304 C34.7005248,12.6408832 34.425836,12.4378466 34.2066992,12.1754144 C33.9875623,11.9129821 33.8255268,11.5980681 33.7205881,11.230663 C33.6156493,10.8632578 33.5631807,10.4530409 33.5631807,10 Z M34.3779955,10 C34.3779955,10.3204436 34.4134893,10.624308 34.484477,10.9116022 C34.5554651,11.1988965 34.665032,11.4516564 34.8131807,11.6698895 C34.9613298,11.8881227 35.1511426,12.0621541 35.3826251,12.191989 C35.6141076,12.3218238 35.8872532,12.3867403 36.2020695,12.3867403 C36.7761467,12.3867403 37.2267594,12.1919909 37.5539214,11.8024862 C37.8810834,11.4129815 38.0446621,10.8121587 38.0446621,10 C38.0446621,9.68508131 38.0091688,9.38259816 37.9381806,9.09254144 C37.867193,8.80248476 37.7560829,8.54834365 37.6048473,8.3301105 C37.4536122,8.11187735 37.2622558,7.93784595 37.0307732,7.80801105 C36.7992907,7.67817615 36.5230587,7.61325967 36.2020695,7.61325967 C35.6341657,7.61325967 35.1881822,7.80800912 34.8641066,8.19751381 C34.540031,8.58701851 34.3779955,9.18784125 34.3779955,10 Z M40.5027233,7.09944751 C40.6200078,7.08287284 40.7511791,7.07044203 40.8962419,7.0621547 C41.0413041,7.05386736 41.1925371,7.04834254 41.3499456,7.04558011 C41.5073535,7.04281768 41.6616729,7.04005525 41.8129085,7.03729282 C41.9641436,7.03453039 42.1045747,7.03314917 42.2342048,7.03314917 C42.7527259,7.03314917 43.2017954,7.10497164 43.581427,7.24861878 C43.9610587,7.39226593 44.2743267,7.59254015 44.5212419,7.84944751 C44.7681565,8.10635488 44.9517969,8.41436285 45.0721678,8.77348066 C45.1925387,9.13259848 45.2527233,9.52762215 45.2527233,9.95856354 C45.2527233,10.3508307 45.1956251,10.7278988 45.081427,11.089779 C44.967229,11.4516593 44.786675,11.7720981 44.5397604,12.051105 C44.2928452,12.3301119 43.9718612,12.5538666 43.5767974,12.7223757 C43.1817336,12.8908848 42.7033432,12.9751381 42.1416122,12.9751381 C42.0428463,12.9751381 41.9147609,12.9737569 41.757353,12.9709945 C41.5999445,12.968232 41.437909,12.9627072 41.2712419,12.9544199 C41.1045742,12.9461326 40.9502547,12.9392266 40.8082789,12.9337017 C40.6663026,12.9281767 40.5644517,12.9198895 40.5027233,12.9088398 L40.5027233,7.09944751 Z M42.2527233,7.64640884 L41.9888344,7.64640884 C41.8931549,7.64640884 41.7990201,7.64917122 41.706427,7.65469613 C41.6138339,7.66022104 41.5289584,7.66574581 41.4517974,7.67127072 C41.3746364,7.67679563 41.3144517,7.6823204 41.2712419,7.6878453 L41.2712419,12.3287293 C41.3021061,12.3342542 41.3607475,12.3383978 41.4471678,12.3411602 C41.533588,12.3439227 41.6230932,12.3466851 41.7156863,12.3494475 C41.8082794,12.3522099 41.8977846,12.3549724 41.9842048,12.3577348 C42.0706251,12.3604972 42.1292665,12.3618785 42.1601307,12.3618785 C42.5922316,12.3618785 42.9548823,12.2955808 43.2480937,12.1629834 C43.5413051,12.0303861 43.7758705,11.852211 43.9517974,11.628453 C44.1277244,11.404695 44.2527228,11.1477915 44.3267974,10.8577348 C44.400872,10.5676781 44.4379085,10.2679574 44.4379085,9.95856354 C44.4379085,9.68784397 44.4039584,9.41574724 44.3360567,9.14226519 C44.2681549,8.86878315 44.150872,8.62154807 43.9842048,8.40055249 C43.8175371,8.17955691 43.5937743,7.99861948 43.3129085,7.85773481 C43.0320428,7.71685014 42.6786513,7.64640884 42.2527233,7.64640884 Z M50.7293025,12.9005525 L46.8959692,12.9005525 L46.8959692,7.09944751 L47.6644877,7.09944751 L47.6644877,12.2872928 L50.7293025,12.2872928 L50.7293025,12.9005525 Z M52.0206971,7.09944751 L55.5484749,7.09944751 L55.5484749,7.71270718 L52.7892156,7.71270718 L52.7892156,9.61049724 L55.3169934,9.61049724 L55.3169934,10.2237569 L52.7892156,10.2237569 L52.7892156,12.2872928 L55.5947712,12.2872928 L55.5947712,12.9005525 L52.0206971,12.9005525 L52.0206971,7.09944751 Z M63.9645968,12.9005525 L60.1312634,12.9005525 L60.1312634,7.09944751 L60.8997819,7.09944751 L60.8997819,12.2872928 L63.9645968,12.2872928 L63.9645968,12.9005525 Z M65.4319172,7.09944751 L66.2004357,7.09944751 L66.2004357,12.9005525 L65.4319172,12.9005525 L65.4319172,7.09944751 Z M72.1955335,8.42541436 C72.1955335,8.5635366 72.1708426,8.70441915 72.1214594,8.8480663 C72.0720767,8.99171344 71.9980031,9.12569001 71.8992372,9.25 C71.8004712,9.37431004 71.6739296,9.48342495 71.5196075,9.57734807 C71.365286,9.67127118 71.1831888,9.74309369 70.9733113,9.79281768 L70.9733113,9.82596685 C71.1584975,9.8535913 71.3359651,9.90055216 71.5057187,9.96685083 C71.6754728,10.0331495 71.8251626,10.1243088 71.9547927,10.2403315 C72.0844234,10.3563542 72.1893606,10.4972367 72.2696075,10.6629834 C72.349855,10.8287301 72.3899779,11.0248607 72.3899779,11.2513812 C72.3899779,11.5497252 72.3205345,11.8080099 72.1816446,12.0262431 C72.0427552,12.2444762 71.8606585,12.4226512 71.6353483,12.5607735 C71.4100386,12.6988957 71.1523251,12.8011047 70.8622001,12.8674033 C70.5720757,12.933702 70.2757819,12.9668508 69.9733113,12.9668508 L69.6029409,12.9668508 C69.4609651,12.9668508 69.3128185,12.9627072 69.1584964,12.9544199 C69.0041749,12.9461326 68.8498555,12.935083 68.6955335,12.9212707 C68.541212,12.9074585 68.4054111,12.8867405 68.2881261,12.859116 L68.2881261,7.14917127 C68.5165227,7.11602192 68.7819517,7.08839788 69.0844224,7.06629834 C69.386893,7.0441988 69.7171369,7.03314917 70.0751631,7.03314917 C70.3159054,7.03314917 70.5612732,7.05110479 70.8112742,7.08701657 C71.0612758,7.12292836 71.288125,7.19198844 71.4918298,7.2941989 C71.6955345,7.39640935 71.8637428,7.53867311 71.9964594,7.72099448 C72.1291765,7.90331584 72.1955335,8.13812012 72.1955335,8.42541436 Z M70.0473853,12.3701657 C70.2449172,12.3701657 70.4362737,12.3494477 70.6214594,12.308011 C70.8066456,12.2665744 70.9702243,12.2002767 71.1122001,12.109116 C71.2541765,12.0179553 71.3668298,11.906078 71.4501631,11.7734807 C71.533497,11.6408833 71.5751631,11.4834263 71.5751631,11.301105 C71.5751631,11.0745845 71.5242377,10.8922659 71.4223853,10.7541436 C71.320533,10.6160214 71.1878185,10.5082877 71.0242372,10.4309392 C70.8606564,10.3535908 70.677016,10.3011051 70.4733113,10.2734807 C70.2696065,10.2458562 70.0659049,10.2320442 69.8622001,10.2320442 L69.0566446,10.2320442 L69.0566446,12.3121547 C69.099855,12.3232045 69.1615829,12.3314917 69.2418298,12.3370166 C69.3220772,12.3425415 69.4084964,12.3480663 69.501089,12.3535912 C69.5936821,12.3591161 69.6893601,12.3632597 69.7881261,12.3660221 C69.886892,12.3687845 69.9733113,12.3701657 70.0473853,12.3701657 Z M69.5381261,9.6519337 C69.6430649,9.6519337 69.769607,9.64917132 69.9177557,9.64364641 C70.0659049,9.6381215 70.1893601,9.6298343 70.2881261,9.61878453 C70.4362752,9.57458541 70.5751626,9.52071855 70.7047927,9.45718232 C70.8344234,9.39364609 70.9501626,9.31906119 71.052015,9.23342541 C71.1538673,9.14778964 71.2341137,9.04834309 71.2927557,8.93508287 C71.3513982,8.82182265 71.3807187,8.69889567 71.3807187,8.56629834 C71.3807187,8.38397698 71.3421389,8.23342601 71.2649779,8.11464088 C71.1878174,7.99585576 71.0844234,7.90055285 70.9547927,7.82872928 C70.8251626,7.75690571 70.677016,7.70580124 70.5103483,7.67541436 C70.3436811,7.64502749 70.1739296,7.62983425 70.001089,7.62983425 C69.7973843,7.62983425 69.610658,7.63397785 69.4409038,7.64226519 C69.2711502,7.65055253 69.1430649,7.66298333 69.0566446,7.67955801 L69.0566446,9.6519337 L69.5381261,9.6519337 Z M74.0332243,7.15745856 C74.2677932,7.11878435 74.5378524,7.08839788 74.8434095,7.06629834 C75.1489666,7.0441988 75.428285,7.03314917 75.6813725,7.03314917 C75.9653246,7.03314917 76.2353838,7.0607732 76.4915576,7.1160221 C76.747732,7.17127099 76.9730381,7.26243029 77.1674836,7.38950276 C77.361929,7.51657523 77.5177917,7.68231943 77.6350762,7.88674033 C77.7523606,8.09116123 77.8110021,8.33977753 77.8110021,8.63259669 C77.8110021,9.08563762 77.6721147,9.45303725 77.3943354,9.73480663 C77.1165561,10.016576 76.7647078,10.2044194 76.3387799,10.2983425 L76.7832243,10.6049724 L78.3943354,12.9005525 L77.4961873,12.9005525 L75.7091502,10.3977901 L74.8017428,10.2734807 L74.8017428,12.9005525 L74.0332243,12.9005525 L74.0332243,7.15745856 Z M75.699891,7.62983425 L75.449891,7.62983425 C75.3634707,7.62983425 75.2801384,7.63259664 75.199891,7.63812155 C75.1196436,7.64364645 75.0440273,7.64917122 74.9730391,7.65469613 C74.902051,7.66022104 74.8449527,7.66850824 74.8017428,7.67955801 L74.8017428,9.81767956 L75.5239651,9.81767956 C75.949893,9.81767956 76.3017413,9.72375783 76.5795206,9.5359116 C76.8572999,9.34806538 76.9961873,9.0552506 76.9961873,8.65745856 C76.9961873,8.35911455 76.8819908,8.11326064 76.6535947,7.9198895 C76.4251986,7.72651837 76.1073004,7.62983425 75.699891,7.62983425 Z M82.722767,11.2928177 L80.3338781,11.2928177 L79.68573,12.9005525 L78.9264707,12.9005525 L81.3801744,7.00828729 L81.7320263,7.00828729 L84.1949892,12.9005525 L83.3894337,12.9005525 L82.722767,11.2928177 Z M80.5838781,10.6961326 L82.4912855,10.6961326 L81.7690633,8.93093923 L81.5375818,8.05248619 L81.5283226,8.05248619 L81.2968411,8.94751381 L80.5838781,10.6961326 Z M85.3937907,7.15745856 C85.6283596,7.11878435 85.8984187,7.08839788 86.2039758,7.06629834 C86.5095329,7.0441988 86.7888514,7.03314917 87.0419388,7.03314917 C87.325891,7.03314917 87.5959501,7.0607732 87.852124,7.1160221 C88.1082984,7.17127099 88.3336044,7.26243029 88.5280499,7.38950276 C88.7224954,7.51657523 88.878358,7.68231943 88.9956425,7.88674033 C89.112927,8.09116123 89.1715684,8.33977753 89.1715684,8.63259669 C89.1715684,9.08563762 89.0326811,9.45303725 88.7549018,9.73480663 C88.477123,10.016576 88.1252742,10.2044194 87.6993462,10.2983425 L88.1437906,10.6049724 L89.7549018,12.9005525 L88.8567536,12.9005525 L87.0697166,10.3977901 L86.1623092,10.2734807 L86.1623092,12.9005525 L85.3937907,12.9005525 L85.3937907,7.15745856 Z M87.0604573,7.62983425 L86.8104573,7.62983425 C86.7240371,7.62983425 86.6407047,7.63259664 86.5604573,7.63812155 C86.4802099,7.64364645 86.4045936,7.64917122 86.3336055,7.65469613 C86.2626178,7.66022104 86.2055196,7.66850824 86.1623092,7.67955801 L86.1623092,9.81767956 L86.8845314,9.81767956 C87.3104594,9.81767956 87.6623081,9.72375783 87.9400869,9.5359116 C88.2178663,9.34806538 88.3567536,9.0552506 88.3567536,8.65745856 C88.3567536,8.35911455 88.2425571,8.11326064 88.014161,7.9198895 C87.7857649,7.72651837 87.4678668,7.62983425 87.0604573,7.62983425 Z M92.1111111,10.5966851 L89.9722222,7.09944751 L90.8703704,7.09944751 L92.3888889,9.63535912 L92.5462963,10.140884 L92.5555556,10.140884 L92.7222222,9.61878453 L94.1759259,7.09944751 L95,7.09944751 L92.8796296,10.5883978 L92.8796296,12.9005525 L92.1111111,12.9005525 L92.1111111,10.5966851 Z" id="the-Doodle-Library" fill="#666666" fill-rule="nonzero" opacity="0.595278533"></path>
            </g>
        </g>
        <path d="M347.821921,345.573814 C343.554941,344.514995 339.799508,341.336167 338.804087,336.876139 C338.358447,334.882943 337.931436,332.862521 337.389791,330.882221 C337.327609,330.917386 337.265641,330.952808 337.203873,330.98849 C335.579809,335.451822 334.561557,340.139744 333.390359,344.723131 C332.084966,349.842484 330.917133,354.952154 329.959941,360.142052 C329.823813,361.396646 329.684819,362.649857 329.544393,363.904451 C329.141741,367.574174 329.158936,371.339339 329.035705,375.02981 C328.918205,378.623455 328.794974,382.211567 328.62159,385.803828 C328.269091,393.060279 327.799092,400.327796 327.104124,407.563498 C326.381931,415.089679 325.58236,422.600646 324.63663,430.106079 C323.706663,437.459356 322.654898,444.840298 322.329624,452.241989 C321.663315,467.360747 321.809473,482.592931 322.799623,497.700624 C323.806968,512.948023 325.050745,528.200956 327.009551,543.362595 C327.176997,544.658292 326.869826,546.066112 326.295692,547.390829 C326.035514,548.716817 325.544858,550.010763 324.80242,551.213524 C319.423226,559.9171 314.074123,568.643603 308.762276,577.3916 C306.399386,581.281987 304.049391,585.189569 301.732354,589.107181 C300.578851,591.060256 299.425348,593.014763 298.277576,594.967837 C297.781785,595.811829 297.214347,596.651522 296.674135,597.504112 C296.070874,599.65493 294.749719,601.745565 293.346887,603.151262 C291.035582,605.462568 287.855925,606.777991 284.587427,606.777991 C281.313197,606.777991 278.13354,605.462568 275.822235,603.151262 C274.287574,601.606571 273.224345,599.781027 272.636847,597.683227 C271.248344,593.91034 272.284347,589.561418 274.260349,586.224139 C274.830652,585.262648 275.406687,584.299723 275.972692,583.331067 C277.018726,581.545645 278.060461,579.765954 279.112227,577.990562 C281.519538,573.938255 283.938313,569.897411 286.384313,565.878061 C291.934703,556.752504 297.518024,547.644129 303.129982,538.557229 C302.466796,533.219906 301.86746,527.882897 301.423273,522.517243 C300.891658,516.108715 300.163733,509.711253 299.688003,503.298576 C299.150656,496.040742 298.630505,488.789824 298.474317,481.518157 C298.316695,473.996125 297.948434,466.410465 298.245049,458.893966 C298.389774,455.214561 298.378311,451.501958 298.759468,447.839151 C299.150656,444.061537 299.487393,440.274239 299.951661,436.50769 C300.885927,428.992575 301.860314,421.476076 302.576776,413.938828 C303.326195,406.082053 303.959547,398.221129 304.496893,390.342222 C304.984087,383.167382 304.999849,375.964877 305.442623,368.788654 C305.962774,360.446364 307.077588,352.189834 309.130967,344.057795 C310.066666,340.363175 311.012396,336.667171 311.94093,332.971167 C312.774891,329.648636 313.525743,326.281842 314.739429,323.061671 C314.838514,322.797326 314.941335,322.537423 315.048515,322.282124 C315.489609,320.048891 316.551253,317.775165 318.217277,316.389634 C319.740475,315.124363 321.290898,313.899214 322.868546,312.689826 C325.241467,310.865715 327.648779,309.695017 330.420052,308.548678 C333.430624,307.29487 336.878238,306.343409 340.159632,306.382098 C340.272833,306.380665 340.386034,306.379232 340.500668,306.379232 C341.794597,306.379232 343.081363,306.52539 344.356664,306.81914 C344.720627,306.875024 345.084589,306.925176 345.454284,306.98106 C347.13367,307.478284 349.007933,308.01563 350.446588,309.045902 C352.108779,310.232363 353.772403,311.380134 355.109321,312.930557 C355.971941,313.943634 357.354712,315.595795 358.042515,316.932712 C358.524236,317.873894 358.985495,318.832581 359.41425,319.806148 C365.97102,305.84939 373.38435,292.321318 380.935614,278.879284 C383.064938,275.089202 387.171696,273 391.315711,273 C393.373389,273 395.441097,273.514419 397.279537,274.591978 C397.308487,274.608929 397.337335,274.625983 397.366082,274.643141 C397.370621,274.643136 397.37516,274.643133 397.379699,274.643133 C399.357133,274.643133 401.337433,275.151821 403.10566,276.24944 C404.661815,277.218096 406.233732,278.175289 407.706777,279.267177 C408.764275,280.050986 410.511008,281.09702 411.451006,282.267718 C412.558655,283.643324 413.841122,285.016065 414.557583,286.666793 C415.268313,288.300325 416.063586,289.918096 416.612395,291.620409 C418.111233,296.333293 418.694433,301.281178 419.299127,306.167446 C419.740467,309.722529 419.880894,313.28191 419.75193,316.864219 C419.727815,317.563993 419.696612,318.265368 419.657113,318.967415 C422.045251,316.714142 424.450541,314.455948 427.040065,312.433333 C430.857373,309.449987 434.686144,306.495299 438.592293,303.635184 C444.957338,298.96672 451.538755,294.696608 458.429683,290.84491 C460.338337,289.780248 462.428972,289.264396 464.492382,289.265829 C468.31231,289.265829 472.04214,291.023988 474.360873,294.304615 C474.790244,294.506544 475.202705,294.731656 475.58722,294.991504 C476.61176,295.663545 477.584715,296.4015 478.514683,297.202505 C479.466144,298.080887 480.28291,299.076768 480.972146,300.185851 C482.886532,302.676272 483.98845,305.923276 484.554454,308.989732 C484.912685,310.938507 485.270916,313.28277 485.197837,315.320387 C485.119026,317.633125 484.855368,319.927235 484.487107,322.217047 C483.98845,325.283503 483.283451,328.368587 482.147143,331.26739 C480.764372,334.788083 479.269833,338.123929 477.210722,341.292122 C476.521486,342.351052 475.810756,343.397086 475.11149,344.448852 C473.823292,346.357506 472.553722,348.271891 471.276987,350.186277 C470.079063,351.983163 468.892602,353.780049 467.65599,355.549709 C464.901911,359.490248 462.113442,363.531092 458.671561,366.899894 C457.516912,368.030183 456.319127,369.108937 455.090818,370.150824 C455.144458,370.150391 455.198101,370.150038 455.251746,370.149764 C455.357782,370.148332 455.463818,370.148332 455.572721,370.148332 C459.92021,370.148332 464.157364,370.591105 468.467597,371.257414 C473.767981,372.075613 479.162937,373.776493 483.569176,376.91173 C485.158288,378.048038 487.022521,379.407882 488.393829,380.873763 C489.62471,382.189186 490.677909,383.550463 491.774095,385.00488 C492.66394,386.197073 493.459213,387.417923 494.23729,388.683195 C495.138599,390.137612 495.832134,391.728157 496.554327,393.272848 C498.41856,397.269271 500.013404,401.517889 501.21706,405.760775 C501.704254,407.467386 502.157057,409.17973 502.605562,410.897805 C503.214515,413.221082 503.530703,415.601 503.488497,417.968233 C505.34406,418.314314 507.155715,418.853225 508.936647,419.585189 C511.034447,420.45354 513.116485,421.320459 515.13834,422.362194 C517.790681,423.733502 520.667991,425.815539 522.006341,428.529496 C522.266325,429.058625 522.501279,429.588438 522.707301,430.120311 C523.920603,431.044793 524.956522,432.20196 525.734807,433.529539 C527.161999,435.969807 528.057576,439.844432 526.921268,442.581315 C524.522554,448.354563 522.378901,454.146439 521.284148,460.292247 C521.156617,461.556086 521.036252,462.819924 520.881496,464.080897 C520.355613,468.502898 519.729426,472.879046 518.575923,477.177816 C517.557114,480.97363 516.432269,484.694931 515.032303,488.361782 C513.789959,491.63028 512.379962,495.067863 510.527192,498.045478 C508.915154,500.630472 507.089609,503.116593 505.180955,505.483783 C502.836693,508.388318 500.452309,511.282823 497.765577,513.885012 C491.652726,519.791522 484.723109,524.498675 477.379377,528.718634 C473.887343,530.727593 470.438297,532.782405 467.040836,534.943253 C464.035996,536.86337 461.203106,539.084402 458.354455,541.228055 C458.493448,541.119153 458.633875,541.01025 458.775734,540.901348 C454.528549,544.18131 450.278499,547.454107 446.028448,550.722605 C442.616658,553.469519 439.286544,556.256554 435.992253,559.145328 C432.970218,561.79337 430.188914,564.759521 427.440567,567.681252 C421.80488,573.673737 416.42282,579.894057 411.131034,586.186024 C408.544607,589.60068 406.03126,593.049726 403.724253,596.670724 C400.920022,601.058335 398.15448,605.474604 395.517902,609.963953 C391.058644,617.56991 386.830088,625.420897 383.246346,633.485389 C383.194761,633.627249 383.144609,633.770541 383.097322,633.915266 C383.104487,633.869413 383.110219,633.823559 383.117383,633.776273 C383.093024,633.827858 383.07153,633.880876 383.04717,633.932461 C382.548513,635.990139 381.644338,637.831446 379.990745,639.485039 C377.752518,641.723265 374.673166,643 371.504973,643 C368.336779,643 365.25886,641.723265 363.019201,639.485039 C361.530394,637.9905 360.501555,636.22084 359.93555,634.188955 C359.482746,631.615424 359.163204,628.88284 360.176281,626.380955 C360.79817,624.841996 361.435821,623.320231 362.107862,621.802765 C362.600787,620.689384 363.138134,619.586033 363.68551,618.499877 C365.000934,615.891957 366.339284,613.30553 367.716323,610.736299 C370.312781,605.88442 373.005243,601.052603 375.899749,596.362645 C379.934861,589.819917 383.863936,583.069415 388.566791,576.97376 C391.673368,572.942946 394.807172,568.963718 398.087133,565.073332 C400.409902,562.313521 402.828676,559.632522 405.234555,556.945791 C410.563596,551.007756 416.043095,545.2646 422.038446,539.997174 C428.063889,534.705388 434.533537,529.928022 440.900016,525.050351 C446.817989,520.436338 452.727365,515.717721 459.205611,511.914743 C462.709109,509.855632 466.246996,507.83521 469.733299,505.747441 C472.144909,504.301621 474.443318,502.728271 476.710202,501.084708 C480.677967,497.608436 484.230184,493.862775 487.588956,489.813333 C488.471637,488.608245 489.350019,487.397425 490.108035,486.112093 C490.969222,484.64048 491.718641,483.144508 492.420773,481.615579 C494.650402,475.667515 496.425794,469.5432 497.427407,463.266996 C497.961888,458.766184 498.416125,454.268238 499.477921,449.851968 C500.004962,447.664174 500.692178,445.514835 501.463087,443.393923 C500.916239,443.102025 500.365128,442.817375 499.80606,442.542053 C499.413439,442.410224 499.017952,442.289859 498.616734,442.180957 C498.348777,442.176658 498.079388,442.175225 497.811431,442.179524 C496.55619,442.493334 495.342504,442.91318 494.125952,443.363118 C492.174311,444.316012 490.343035,445.415064 488.567643,446.663141 C485.922466,448.888471 483.376161,451.17255 481.113576,453.791934 C477.875169,458.43174 475.573894,463.501422 473.135059,468.61266 C470.661833,473.812739 468.169979,479.001354 465.136481,483.899086 C463.379717,486.737707 461.471063,489.647974 459.119636,492.020895 C457.898785,493.251776 456.634947,494.220432 455.217785,495.283661 C454.747787,495.676282 454.244831,496.028782 453.711783,496.33686 C452.04386,497.215242 450.19109,498.128014 448.32829,498.547861 C444.124093,499.505054 441.140747,499.3417 437.003897,498.726976 C431.227783,497.870088 426.794319,493.190161 424.371245,488.164898 C423.156126,485.642953 422.220427,483.012106 421.214515,480.408485 C419.439123,476.584012 417.500378,472.79393 415.065841,469.350615 C412.988103,466.85303 410.755608,464.478676 408.342565,462.302066 C408.100401,462.314962 407.858237,462.327858 407.613207,462.34362 C404.500898,462.534199 401.175083,460.939356 399.019966,458.784239 C396.748783,456.511623 395.460585,453.399313 395.460585,450.186699 C395.460585,446.974085 396.748783,443.861776 399.019966,441.589159 C401.147126,439.463277 403.691184,438.458235 406.554645,438.122104 C407.797312,436.395245 409.28399,434.822258 410.735404,433.24496 C412.045096,431.817769 413.422135,430.462223 414.916674,429.242805 C421.930834,423.526874 429.744564,417.952803 438.817835,416.3293 C441.275298,415.88796 443.72703,415.650095 446.187359,415.650095 C447.691929,415.650095 449.20223,415.738936 450.718263,415.926649 C452.856185,416.194606 454.988374,416.491221 457.116266,416.827958 C459.343028,417.186189 461.536834,417.616066 463.747835,418.076034 C467.890416,418.931489 471.96565,420.090724 475.983567,421.417611 C476.608255,421.623885 477.211374,421.860921 477.789737,422.131684 C477.748894,420.911342 477.910703,419.674131 478.307482,418.460774 C478.399189,418.177055 478.48803,417.896202 478.569707,417.616782 C478.048123,415.291148 477.325929,412.968379 476.661053,410.714391 C476.077853,408.736956 475.381452,406.805376 474.640631,404.888124 C473.686304,402.896361 472.661764,400.986274 471.442346,399.152132 C470.956585,398.626249 470.453629,398.126159 469.927746,397.64613 C469.443418,397.343783 468.951926,397.060064 468.444671,396.793541 C466.441444,396.120067 464.416723,395.640037 462.330387,395.25888 C456.746285,394.70004 451.206603,394.830436 445.6268,395.446593 C441.060073,396.180249 436.559261,397.061497 432.128662,398.421341 C427.954557,399.702375 423.856396,401.123835 419.811253,402.744471 C416.327817,404.369406 412.956148,406.093213 409.644663,408.060617 C406.568176,409.887594 403.646446,411.955302 400.726148,414.025876 C399.611334,414.905691 398.509416,415.805567 397.49204,416.792851 C396.332805,417.917696 395.292503,419.105589 394.288023,420.343635 C393.267782,422.01729 391.909371,423.358506 390.215655,424.360119 C389.292853,424.751307 388.368617,425.138197 387.445815,425.529385 C384.456737,426.353316 381.192537,425.927737 378.51727,424.360119 C375.926544,422.842653 373.989232,420.330739 373.188228,417.436234 C373.062982,416.978633 372.962597,416.483845 372.891167,415.966414 C371.278557,418.004983 369.135243,419.248462 366.605091,420.160508 C363.022783,421.453004 359.407518,420.80389 356.14905,418.98551 C352.672778,417.042466 349.785438,412.59324 350.132205,408.49078 C350.243973,407.146698 350.272632,405.77539 350.736899,404.504387 C351.169426,403.482469 351.59824,402.459621 352.032309,401.439582 C350.53487,402.998711 348.636015,404.174047 346.574113,404.741536 C343.500493,405.592693 340.147452,405.149919 337.399105,403.543612 C335.613683,402.486115 334.192223,401.064655 333.134725,399.273501 C330.145647,394.817109 331.796375,389.466574 333.369725,384.865457 C334.124875,382.66592 334.908685,380.476413 335.703957,378.288339 C337.321727,373.83338 338.743187,369.30391 340.243458,364.810262 C342.428159,358.25043 345.010787,351.873974 347.821921,345.573814 Z M400.805558,339.000136 C398.705058,337.956122 396.918692,336.305653 395.727538,334.267072 C394.020927,331.355372 393.797391,328.19291 394.508121,324.953071 C394.787541,323.67347 395.03257,322.39387 395.250375,321.107104 C395.816379,315.512972 395.711776,309.947498 395.128576,304.354798 C395.05382,303.883333 394.975209,303.413384 394.891293,302.945084 C390.81601,310.372313 386.840161,317.855556 383.090731,325.449292 C380.275037,331.148028 377.717268,336.957099 375.136574,342.767603 C372.700604,348.254266 370.170061,353.696509 367.701134,359.164545 C365.262299,365.220078 363.194591,371.374484 361.171303,377.589072 C359.240609,383.512435 357.005812,389.336325 355.194294,395.29707 C356.182877,393.596805 357.209738,391.91231 358.298435,390.276892 C360.985166,386.240347 363.868208,382.34996 366.745518,378.443811 C373.147819,369.734503 379.948473,361.298884 387.209096,353.283111 C391.62502,348.414923 396.305628,343.793399 400.805558,339.000136 Z M461.398757,317.086718 C460.483129,317.673544 459.576694,318.274495 458.681878,318.892951 C454.844509,321.551024 451.057293,324.252085 447.297302,327.007596 C444.908619,328.906219 442.560057,330.826337 440.238722,332.813801 C437.557722,335.115076 435.077332,337.655649 432.619868,340.191923 C427.750795,345.211454 423.27291,350.584916 418.464019,355.667495 C413.29833,361.1255 408.042368,366.493231 402.992746,372.057272 C398.712604,376.774456 394.673193,381.720907 390.70113,386.700315 C387.475619,390.970427 384.307426,395.287825 381.208013,399.646777 C380.70502,400.352655 380.214593,401.065452 379.736263,401.784943 C380.454356,401.003203 381.20711,400.252487 382.010737,399.547619 C384.160122,397.660459 386.421275,395.813421 388.73258,394.139767 C391.88931,391.861419 395.051772,389.605997 398.366123,387.556917 C402.431335,385.049457 406.67565,382.892563 411.026825,380.959395 C411.630077,379.413609 412.528812,378.04123 413.719323,376.841516 C417.189864,373.891127 419.932479,370.15263 422.753905,366.609011 C424.069328,364.952552 425.356094,363.25597 426.929443,361.834511 C428.911176,360.043356 431.05483,358.442781 433.214245,356.875163 C434.47665,355.955226 435.737623,355.039588 436.994297,354.11392 C439.90743,351.670785 442.628551,349.118749 445.058789,346.188421 C447.264058,343.186447 449.330333,340.079869 451.412371,336.98762 C454.162151,332.900923 457.174156,328.913097 459.363662,324.491096 C460.229148,322.10098 460.904055,319.663577 461.392682,317.167425 C461.394739,317.140518 461.396764,317.113616 461.398757,317.086718 Z M459.96882,442.103589 C456.734176,441.342121 453.470362,440.707044 450.172319,440.161681 C448.146166,439.971102 446.141506,439.893724 444.116785,440.015523 C443.125202,440.240492 442.159412,440.509881 441.193622,440.833722 C438.418049,442.213627 435.858848,443.920239 433.326873,445.722856 C432.128949,446.698677 430.969714,447.716053 429.895021,448.843763 C429.81008,448.933286 429.725448,449.023173 429.641119,449.113406 C433.150823,452.981241 436.589346,456.995794 439.064441,461.627159 C440.418553,464.163433 441.74544,466.698274 442.937633,469.317658 C443.4019,470.333601 443.818881,471.365306 444.218666,472.402742 C447.041525,467.999369 449.361428,463.276454 451.573861,458.54924 C452.895017,455.727814 454.171751,452.889192 455.487175,450.063468 C456.752446,447.336615 458.285674,444.784578 459.880518,442.244005 C459.909849,442.197153 459.939283,442.150347 459.96882,442.103589 Z" id="hand-OK" fill="#000000"></path>
    </g>
</svg>