<svg width="100%" height="100%" viewBox="0 0 496 424" version="1.1" 
    xmlns="http://www.w3.org/2000/svg" 
    xmlns:xlink="http://www.w3.org/1999/xlink" xml:space="preserve" 
    xmlns:serif="http://www.serif.com/" style="fill-rule:evenodd;clip-rule:evenodd;stroke-linecap:round;stroke-linejoin:round;stroke-miterlimit:1.5;">
    <path d="M304.642,411.426c-14.886,-0.7 -40.886,-0.932 -61.335,-0.041c-3.588,0.156 -53.623,2.611 -66.106,1.456c-5.346,-0.494 -10.455,-2.482 -15.747,-3.392c-16.846,-2.896 -33.857,-3.158 -49.816,-10.057c-13.551,-5.859 -53.633,-17.083 -69.829,-36.022c-19.768,-23.116 -29.679,-54.556 -37.663,-83.004c-0.673,-2.398 -0.418,-16.825 -0.651,-19.22c-1.809,-18.545 -3.109,-30.834 0.825,-50.347c1.696,-8.414 4.195,-16.668 7.013,-24.776c0.612,-1.759 9.801,-20.499 10.962,-28.365c1.028,-6.966 0.329,-14.111 1.314,-21.084c1.905,-13.48 4.174,-26.907 6.381,-40.341c1.563,-9.516 3.264,-27.942 11.679,-36.102c16.346,-15.849 28.729,-25.519 48.625,-36.692c4.694,-2.637 16.826,-5.455 21.96,-6.565c35.901,-7.766 67.554,-14.171 103.929,-14.876c11.79,-0.229 35.284,-0.717 49.377,0.937c15.069,1.768 15.833,3.89 30.759,4.377c15.532,0.506 30.319,-2.996 45.668,1.455c10.611,3.076 28.319,11.497 37.789,16.619c37.014,20.018 77.55,50.392 94.304,90.519c9.115,21.832 13.656,40.503 17.317,63.81c3.222,20.514 2.404,35.612 0.878,55.459c-1.89,24.59 -1.484,51.076 -11.297,74.299c-9.202,21.777 -26.528,38.078 -38.045,58.448c-2.227,3.939 -3.741,8.255 -6.003,12.174c-5.751,9.967 -6.932,9.008 -12.737,18.769c-5.249,8.828 -3.734,9.772 -10.899,16.94c-6.413,6.415 -21.646,6.494 -28.508,6.382c-13.297,-0.216 -15.408,-2.597 -26.524,-3.091c-5.412,-0.241 -12.17,0.855 -17.577,-0.343c-2.818,-0.624 -5.32,-2.258 -8.06,-3.165c-9.313,-3.082 -18.563,-3.718 -27.983,-4.161Z" style="fill:none;stroke:#ff5a2d;stroke-width:3.5px;"/>
</svg> 