<?xml version="1.0" encoding="UTF-8"?>
<svg width="800px" height="1000px" viewBox="0 0 800 1000" version="1.1" xmlns="http://www.w3.org/2000/svg" xmlns:xlink="http://www.w3.org/1999/xlink">
    <!-- Generator: Sketch 52.5 (67469) - http://www.bohemiancoding.com/sketch -->
    <title>joyful girl_DL</title>
    <desc>Created with Sketch.</desc>
    <g id="joyful-girl_DL" stroke="none" stroke-width="1" fill="none" fill-rule="evenodd">
        <g id="logo-footer" transform="translate(441.000000, 732.000000)">
            <g>
                <path d="M110.812545,8.25651402 C110.904572,8.56348079 110.810146,8.81874549 110.573746,9.09365441 C110.548096,9.12348237 110.524607,9.14951827 110.482164,9.19539003 C110.410296,9.27306357 110.388406,9.29969141 110.394575,9.28699974 C110.158488,9.77253772 109.949286,10.3963755 109.78094,11.1092981 C109.323962,13.0450464 110.241419,14.6677006 112.137009,15.2172501 C114.194676,15.8138908 116.608374,14.6870388 117.500673,12.7424366 C118.556971,10.4412591 118.361229,8.87677042 116.832238,7.67717368 C114.960938,6.20902274 112.357851,6.27012948 111.072216,7.83985899 L110.795491,8.1777337 C110.794947,8.20051389 110.804056,8.228204 110.812545,8.25651402 Z M110.106083,6.26944954 C110.423589,5.88663707 110.955421,5.49967933 111.419965,5.30848582 C112.37958,4.91358991 113.68037,4.90617957 115.133698,5.23840657 C117.932917,5.87841333 120.108577,8.22064492 119.995807,10.6570534 C119.760531,15.7499925 113.426094,19.0246323 109.732148,15.5763745 C107.943744,13.9068501 107.553768,11.8021869 108.499361,9.2850154 C108.62423,8.95356867 108.851111,8.49010331 109.049811,8.18524994 C109.270059,7.84733807 109.481086,7.64146186 109.750777,7.55562368 C109.778602,7.54676715 109.806094,7.5393618 109.833231,7.53336632 C109.647627,7.16965375 109.747904,6.70130236 110.106083,6.26944954 Z" id="Fill-4" fill="#000000" fill-rule="nonzero"></path>
                <path d="M116,2.36382675 C116.035222,2.23410526 116.077249,2.03952302 116.14169,1.8509661 C116.280178,1.44230796 116.378641,1.03435869 116.377039,0.600890425 C116.376639,0.410561355 116.256963,0.110004457 116.623996,0.0412449782 C116.938196,-0.017590452 117.272408,-0.0501980398 117.512961,0.20711836 C117.655051,0.358460099 117.796741,0.518308165 117.8896,0.694814455 C118.216208,1.3175485 117.776729,2.53572545 117.114308,2.89086461 C116.612389,3.15987721 116.012808,2.911776 116,2.36382675" id="Fill-103" fill="#000000" fill-rule="nonzero"></path>
                <path d="M113.597281,1.30015424 C113.547641,1.6054057 113.484683,1.90995301 113.451993,2.21696486 C113.409214,2.61727733 113.068594,2.79366831 112.724342,2.93802021 C112.426905,3.06335991 112.146418,3.01090032 112.073774,2.6669203 C111.908307,1.88389925 112.059649,1.1040469 112.154086,0.329475719 C112.197269,-0.0278832593 112.773982,-0.106396611 113.167067,0.152380579 C113.512933,0.380527 113.619074,0.676272361 113.597281,1.30015424" id="Fill-107" fill="#000000" fill-rule="nonzero"></path>
                <path d="M112.19066,11.6823452 C110.632914,12.6206952 108.591708,13.9682577 107.051494,14.9237702 C106.603919,15.2015633 106.260092,15.3386205 105.847581,15.6483439 C105.453117,15.9444969 105.00264,16.1407116 104.673147,15.8744932 C104.334372,15.6006913 103.968388,15.4738054 104.253536,15.0032335 C104.507231,14.584149 104.804932,14.5525935 105.343775,14.3418539 C106.408054,13.9255633 108.032176,12.8044553 108.976827,12.2352987 C109.267132,12.0600815 109.780582,11.6912496 110.031699,11.4841022 C110.690685,10.9400907 110.546085,10.7856194 109.803565,10.2635599 C108.494872,9.34277154 106.87805,8.31351987 105.559045,7.40151231 C105.221301,7.16842154 104.87376,6.94291422 104.554064,6.69585398 C103.681603,6.022525 103.837029,5.29651112 105.037953,5.02270928 C105.314335,4.95964705 105.519044,5.02949445 105.664454,5.21269422 C106.875175,6.74015718 109.059218,7.93310366 110.770108,9.0590438 C111.354328,9.44340412 111.803432,9.85804585 112.62433,10.0292717 C113.067264,10.1214703 112.94712,10.4970498 112.994043,10.9392837 C113.057467,11.2214672 112.602656,11.4340876 112.19066,11.6823452 Z" id="chevron" fill="#000000" fill-rule="nonzero" transform="translate(108.500000, 10.500000) rotate(-2.000000) translate(-108.500000, -10.500000) "></path>
                <path d="M4.80555555,7.71270718 L2.78703703,7.71270718 L2.78703703,12.9005525 L2.01851852,12.9005525 L2.01851852,7.71270718 L0,7.71270718 L0,7.09944751 L4.80555555,7.09944751 L4.80555555,7.71270718 Z M9.97657951,10.2403315 L6.8654684,10.2403315 L6.8654684,12.9005525 L6.09694989,12.9005525 L6.09694989,7.09944751 L6.8654684,7.09944751 L6.8654684,9.62707182 L9.97657951,9.62707182 L9.97657951,7.09944751 L10.745098,7.09944751 L10.745098,12.9005525 L9.97657951,12.9005525 L9.97657951,10.2403315 Z M12.6568627,7.09944751 L16.1846405,7.09944751 L16.1846405,7.71270718 L13.4253813,7.71270718 L13.4253813,9.61049724 L15.953159,9.61049724 L15.953159,10.2237569 L13.4253813,10.2237569 L13.4253813,12.2872928 L16.2309368,12.2872928 L16.2309368,12.9005525 L12.6568627,12.9005525 L12.6568627,7.09944751 Z M20.7674291,7.09944751 C20.8847137,7.08287284 21.0158852,7.07044203 21.1609477,7.0621547 C21.3060102,7.05386736 21.4572432,7.04834254 21.6146514,7.04558011 C21.7720596,7.04281768 21.926379,7.04005525 22.0776143,7.03729282 C22.2288497,7.03453039 22.3692805,7.03314917 22.4989106,7.03314917 C23.0174317,7.03314917 23.4665011,7.10497164 23.8461328,7.24861878 C24.2257645,7.39226593 24.539033,7.59254015 24.7859476,7.84944751 C25.0328623,8.10635488 25.2165027,8.41436285 25.3368736,8.77348066 C25.4572445,9.13259848 25.5174291,9.52762215 25.5174291,9.95856354 C25.5174291,10.3508307 25.4603309,10.7278988 25.3461328,11.089779 C25.2319348,11.4516593 25.0513808,11.7720981 24.8044662,12.051105 C24.5575516,12.3301119 24.236567,12.5538666 23.8415032,12.7223757 C23.4464394,12.8908848 22.9680495,12.9751381 22.406318,12.9751381 C22.3075521,12.9751381 22.179467,12.9737569 22.0220588,12.9709945 C21.8646506,12.968232 21.7026152,12.9627072 21.5359477,12.9544199 C21.3692802,12.9461326 21.2149607,12.9392266 21.0729847,12.9337017 C20.9310087,12.9281767 20.8291578,12.9198895 20.7674291,12.9088398 L20.7674291,7.09944751 Z M22.5174291,7.64640884 L22.2535402,7.64640884 C22.1578608,7.64640884 22.0637259,7.64917122 21.9711328,7.65469613 C21.8785398,7.66022104 21.7936641,7.66574581 21.7165032,7.67127072 C21.6393424,7.67679563 21.5791578,7.6823204 21.5359477,7.6878453 L21.5359477,12.3287293 C21.566812,12.3342542 21.6254534,12.3383978 21.7118736,12.3411602 C21.7982938,12.3439227 21.887799,12.3466851 21.9803921,12.3494475 C22.0729851,12.3522099 22.1624904,12.3549724 22.2489106,12.3577348 C22.3353309,12.3604972 22.3939723,12.3618785 22.4248365,12.3618785 C22.8569374,12.3618785 23.2195881,12.2955808 23.5127995,12.1629834 C23.8060109,12.0303861 24.0405762,11.852211 24.2165032,11.628453 C24.3924302,11.404695 24.5174286,11.1477915 24.5915032,10.8577348 C24.6655778,10.5676781 24.7026143,10.2679574 24.7026143,9.95856354 C24.7026143,9.68784397 24.6686642,9.41574724 24.6007625,9.14226519 C24.5328607,8.86878315 24.4155783,8.62154807 24.2489106,8.40055249 C24.0822429,8.17955691 23.8584801,7.99861948 23.5776143,7.85773481 C23.2967486,7.71685014 22.9433571,7.64640884 22.5174291,7.64640884 Z M26.892157,10 C26.892157,9.03314434 27.1205495,8.29143904 27.5773422,7.77486188 C28.0341344,7.25828471 28.6853622,7 29.5310459,7 C29.9878381,7 30.3828957,7.07182247 30.7162311,7.21546961 C31.0495659,7.35911676 31.3257979,7.56215336 31.5449348,7.82458564 C31.7640716,8.08701791 31.9261071,8.40193186 32.0310459,8.76933702 C32.1359847,9.13674217 32.1884533,9.54695907 32.1884533,10 C32.1884533,10.9668557 31.9585171,11.708561 31.4986385,12.2251381 C31.0387594,12.7417153 30.3829019,13 29.5310459,13 C29.080426,13 28.6899981,12.9281775 28.3597496,12.7845304 C28.0295006,12.6408832 27.7548124,12.4378466 27.5356755,12.1754144 C27.3165387,11.9129821 27.1545032,11.5980681 27.0495644,11.230663 C26.9446256,10.8632578 26.892157,10.4530409 26.892157,10 Z M27.7069718,10 C27.7069718,10.3204436 27.7424651,10.624308 27.8134533,10.9116022 C27.884441,11.1988965 27.9940078,11.4516564 28.142157,11.6698895 C28.2903057,11.8881227 28.4801184,12.0621541 28.7116014,12.191989 C28.943084,12.3218238 29.2162295,12.3867403 29.5310459,12.3867403 C30.1051225,12.3867403 30.5557352,12.1919909 30.8828977,11.8024862 C31.2100598,11.4129815 31.3736385,10.8121587 31.3736385,10 C31.3736385,9.68508131 31.3381447,9.38259816 31.267157,9.09254144 C31.1961688,8.80248476 31.0850587,8.54834365 30.9338237,8.3301105 C30.7825881,8.11187735 30.5912321,7.93784595 30.3597496,7.80801105 C30.1282666,7.67817615 29.8520351,7.61325967 29.5310459,7.61325967 C28.9631416,7.61325967 28.5171585,7.80800912 28.1930829,8.19751381 C27.8690068,8.58701851 27.7069718,9.18784125 27.7069718,10 Z M33.5631807,10 C33.5631807,9.03314434 33.7915737,8.29143904 34.2483658,7.77486188 C34.7051585,7.25828471 35.3563864,7 36.2020695,7 C36.6588622,7 37.0539198,7.07182247 37.3872547,7.21546961 C37.7205896,7.35911676 37.9968216,7.56215336 38.2159584,7.82458564 C38.4350953,8.08701791 38.5971308,8.40193186 38.7020695,8.76933702 C38.8070083,9.13674217 38.8594769,9.54695907 38.8594769,10 C38.8594769,10.9668557 38.6295412,11.708561 38.1696621,12.2251381 C37.7097835,12.7417153 37.053926,13 36.2020695,13 C35.7514502,13 35.3610217,12.9281775 35.0307732,12.7845304 C34.7005248,12.6408832 34.425836,12.4378466 34.2066992,12.1754144 C33.9875623,11.9129821 33.8255268,11.5980681 33.7205881,11.230663 C33.6156493,10.8632578 33.5631807,10.4530409 33.5631807,10 Z M34.3779955,10 C34.3779955,10.3204436 34.4134893,10.624308 34.484477,10.9116022 C34.5554651,11.1988965 34.665032,11.4516564 34.8131807,11.6698895 C34.9613298,11.8881227 35.1511426,12.0621541 35.3826251,12.191989 C35.6141076,12.3218238 35.8872532,12.3867403 36.2020695,12.3867403 C36.7761467,12.3867403 37.2267594,12.1919909 37.5539214,11.8024862 C37.8810834,11.4129815 38.0446621,10.8121587 38.0446621,10 C38.0446621,9.68508131 38.0091688,9.38259816 37.9381806,9.09254144 C37.867193,8.80248476 37.7560829,8.54834365 37.6048473,8.3301105 C37.4536122,8.11187735 37.2622558,7.93784595 37.0307732,7.80801105 C36.7992907,7.67817615 36.5230587,7.61325967 36.2020695,7.61325967 C35.6341657,7.61325967 35.1881822,7.80800912 34.8641066,8.19751381 C34.540031,8.58701851 34.3779955,9.18784125 34.3779955,10 Z M40.5027233,7.09944751 C40.6200078,7.08287284 40.7511791,7.07044203 40.8962419,7.0621547 C41.0413041,7.05386736 41.1925371,7.04834254 41.3499456,7.04558011 C41.5073535,7.04281768 41.6616729,7.04005525 41.8129085,7.03729282 C41.9641436,7.03453039 42.1045747,7.03314917 42.2342048,7.03314917 C42.7527259,7.03314917 43.2017954,7.10497164 43.581427,7.24861878 C43.9610587,7.39226593 44.2743267,7.59254015 44.5212419,7.84944751 C44.7681565,8.10635488 44.9517969,8.41436285 45.0721678,8.77348066 C45.1925387,9.13259848 45.2527233,9.52762215 45.2527233,9.95856354 C45.2527233,10.3508307 45.1956251,10.7278988 45.081427,11.089779 C44.967229,11.4516593 44.786675,11.7720981 44.5397604,12.051105 C44.2928452,12.3301119 43.9718612,12.5538666 43.5767974,12.7223757 C43.1817336,12.8908848 42.7033432,12.9751381 42.1416122,12.9751381 C42.0428463,12.9751381 41.9147609,12.9737569 41.757353,12.9709945 C41.5999445,12.968232 41.437909,12.9627072 41.2712419,12.9544199 C41.1045742,12.9461326 40.9502547,12.9392266 40.8082789,12.9337017 C40.6663026,12.9281767 40.5644517,12.9198895 40.5027233,12.9088398 L40.5027233,7.09944751 Z M42.2527233,7.64640884 L41.9888344,7.64640884 C41.8931549,7.64640884 41.7990201,7.64917122 41.706427,7.65469613 C41.6138339,7.66022104 41.5289584,7.66574581 41.4517974,7.67127072 C41.3746364,7.67679563 41.3144517,7.6823204 41.2712419,7.6878453 L41.2712419,12.3287293 C41.3021061,12.3342542 41.3607475,12.3383978 41.4471678,12.3411602 C41.533588,12.3439227 41.6230932,12.3466851 41.7156863,12.3494475 C41.8082794,12.3522099 41.8977846,12.3549724 41.9842048,12.3577348 C42.0706251,12.3604972 42.1292665,12.3618785 42.1601307,12.3618785 C42.5922316,12.3618785 42.9548823,12.2955808 43.2480937,12.1629834 C43.5413051,12.0303861 43.7758705,11.852211 43.9517974,11.628453 C44.1277244,11.404695 44.2527228,11.1477915 44.3267974,10.8577348 C44.400872,10.5676781 44.4379085,10.2679574 44.4379085,9.95856354 C44.4379085,9.68784397 44.4039584,9.41574724 44.3360567,9.14226519 C44.2681549,8.86878315 44.150872,8.62154807 43.9842048,8.40055249 C43.8175371,8.17955691 43.5937743,7.99861948 43.3129085,7.85773481 C43.0320428,7.71685014 42.6786513,7.64640884 42.2527233,7.64640884 Z M50.7293025,12.9005525 L46.8959692,12.9005525 L46.8959692,7.09944751 L47.6644877,7.09944751 L47.6644877,12.2872928 L50.7293025,12.2872928 L50.7293025,12.9005525 Z M52.0206971,7.09944751 L55.5484749,7.09944751 L55.5484749,7.71270718 L52.7892156,7.71270718 L52.7892156,9.61049724 L55.3169934,9.61049724 L55.3169934,10.2237569 L52.7892156,10.2237569 L52.7892156,12.2872928 L55.5947712,12.2872928 L55.5947712,12.9005525 L52.0206971,12.9005525 L52.0206971,7.09944751 Z M63.9645968,12.9005525 L60.1312634,12.9005525 L60.1312634,7.09944751 L60.8997819,7.09944751 L60.8997819,12.2872928 L63.9645968,12.2872928 L63.9645968,12.9005525 Z M65.4319172,7.09944751 L66.2004357,7.09944751 L66.2004357,12.9005525 L65.4319172,12.9005525 L65.4319172,7.09944751 Z M72.1955335,8.42541436 C72.1955335,8.5635366 72.1708426,8.70441915 72.1214594,8.8480663 C72.0720767,8.99171344 71.9980031,9.12569001 71.8992372,9.25 C71.8004712,9.37431004 71.6739296,9.48342495 71.5196075,9.57734807 C71.365286,9.67127118 71.1831888,9.74309369 70.9733113,9.79281768 L70.9733113,9.82596685 C71.1584975,9.8535913 71.3359651,9.90055216 71.5057187,9.96685083 C71.6754728,10.0331495 71.8251626,10.1243088 71.9547927,10.2403315 C72.0844234,10.3563542 72.1893606,10.4972367 72.2696075,10.6629834 C72.349855,10.8287301 72.3899779,11.0248607 72.3899779,11.2513812 C72.3899779,11.5497252 72.3205345,11.8080099 72.1816446,12.0262431 C72.0427552,12.2444762 71.8606585,12.4226512 71.6353483,12.5607735 C71.4100386,12.6988957 71.1523251,12.8011047 70.8622001,12.8674033 C70.5720757,12.933702 70.2757819,12.9668508 69.9733113,12.9668508 L69.6029409,12.9668508 C69.4609651,12.9668508 69.3128185,12.9627072 69.1584964,12.9544199 C69.0041749,12.9461326 68.8498555,12.935083 68.6955335,12.9212707 C68.541212,12.9074585 68.4054111,12.8867405 68.2881261,12.859116 L68.2881261,7.14917127 C68.5165227,7.11602192 68.7819517,7.08839788 69.0844224,7.06629834 C69.386893,7.0441988 69.7171369,7.03314917 70.0751631,7.03314917 C70.3159054,7.03314917 70.5612732,7.05110479 70.8112742,7.08701657 C71.0612758,7.12292836 71.288125,7.19198844 71.4918298,7.2941989 C71.6955345,7.39640935 71.8637428,7.53867311 71.9964594,7.72099448 C72.1291765,7.90331584 72.1955335,8.13812012 72.1955335,8.42541436 Z M70.0473853,12.3701657 C70.2449172,12.3701657 70.4362737,12.3494477 70.6214594,12.308011 C70.8066456,12.2665744 70.9702243,12.2002767 71.1122001,12.109116 C71.2541765,12.0179553 71.3668298,11.906078 71.4501631,11.7734807 C71.533497,11.6408833 71.5751631,11.4834263 71.5751631,11.301105 C71.5751631,11.0745845 71.5242377,10.8922659 71.4223853,10.7541436 C71.320533,10.6160214 71.1878185,10.5082877 71.0242372,10.4309392 C70.8606564,10.3535908 70.677016,10.3011051 70.4733113,10.2734807 C70.2696065,10.2458562 70.0659049,10.2320442 69.8622001,10.2320442 L69.0566446,10.2320442 L69.0566446,12.3121547 C69.099855,12.3232045 69.1615829,12.3314917 69.2418298,12.3370166 C69.3220772,12.3425415 69.4084964,12.3480663 69.501089,12.3535912 C69.5936821,12.3591161 69.6893601,12.3632597 69.7881261,12.3660221 C69.886892,12.3687845 69.9733113,12.3701657 70.0473853,12.3701657 Z M69.5381261,9.6519337 C69.6430649,9.6519337 69.769607,9.64917132 69.9177557,9.64364641 C70.0659049,9.6381215 70.1893601,9.6298343 70.2881261,9.61878453 C70.4362752,9.57458541 70.5751626,9.52071855 70.7047927,9.45718232 C70.8344234,9.39364609 70.9501626,9.31906119 71.052015,9.23342541 C71.1538673,9.14778964 71.2341137,9.04834309 71.2927557,8.93508287 C71.3513982,8.82182265 71.3807187,8.69889567 71.3807187,8.56629834 C71.3807187,8.38397698 71.3421389,8.23342601 71.2649779,8.11464088 C71.1878174,7.99585576 71.0844234,7.90055285 70.9547927,7.82872928 C70.8251626,7.75690571 70.677016,7.70580124 70.5103483,7.67541436 C70.3436811,7.64502749 70.1739296,7.62983425 70.001089,7.62983425 C69.7973843,7.62983425 69.610658,7.63397785 69.4409038,7.64226519 C69.2711502,7.65055253 69.1430649,7.66298333 69.0566446,7.67955801 L69.0566446,9.6519337 L69.5381261,9.6519337 Z M74.0332243,7.15745856 C74.2677932,7.11878435 74.5378524,7.08839788 74.8434095,7.06629834 C75.1489666,7.0441988 75.428285,7.03314917 75.6813725,7.03314917 C75.9653246,7.03314917 76.2353838,7.0607732 76.4915576,7.1160221 C76.747732,7.17127099 76.9730381,7.26243029 77.1674836,7.38950276 C77.361929,7.51657523 77.5177917,7.68231943 77.6350762,7.88674033 C77.7523606,8.09116123 77.8110021,8.33977753 77.8110021,8.63259669 C77.8110021,9.08563762 77.6721147,9.45303725 77.3943354,9.73480663 C77.1165561,10.016576 76.7647078,10.2044194 76.3387799,10.2983425 L76.7832243,10.6049724 L78.3943354,12.9005525 L77.4961873,12.9005525 L75.7091502,10.3977901 L74.8017428,10.2734807 L74.8017428,12.9005525 L74.0332243,12.9005525 L74.0332243,7.15745856 Z M75.699891,7.62983425 L75.449891,7.62983425 C75.3634707,7.62983425 75.2801384,7.63259664 75.199891,7.63812155 C75.1196436,7.64364645 75.0440273,7.64917122 74.9730391,7.65469613 C74.902051,7.66022104 74.8449527,7.66850824 74.8017428,7.67955801 L74.8017428,9.81767956 L75.5239651,9.81767956 C75.949893,9.81767956 76.3017413,9.72375783 76.5795206,9.5359116 C76.8572999,9.34806538 76.9961873,9.0552506 76.9961873,8.65745856 C76.9961873,8.35911455 76.8819908,8.11326064 76.6535947,7.9198895 C76.4251986,7.72651837 76.1073004,7.62983425 75.699891,7.62983425 Z M82.722767,11.2928177 L80.3338781,11.2928177 L79.68573,12.9005525 L78.9264707,12.9005525 L81.3801744,7.00828729 L81.7320263,7.00828729 L84.1949892,12.9005525 L83.3894337,12.9005525 L82.722767,11.2928177 Z M80.5838781,10.6961326 L82.4912855,10.6961326 L81.7690633,8.93093923 L81.5375818,8.05248619 L81.5283226,8.05248619 L81.2968411,8.94751381 L80.5838781,10.6961326 Z M85.3937907,7.15745856 C85.6283596,7.11878435 85.8984187,7.08839788 86.2039758,7.06629834 C86.5095329,7.0441988 86.7888514,7.03314917 87.0419388,7.03314917 C87.325891,7.03314917 87.5959501,7.0607732 87.852124,7.1160221 C88.1082984,7.17127099 88.3336044,7.26243029 88.5280499,7.38950276 C88.7224954,7.51657523 88.878358,7.68231943 88.9956425,7.88674033 C89.112927,8.09116123 89.1715684,8.33977753 89.1715684,8.63259669 C89.1715684,9.08563762 89.0326811,9.45303725 88.7549018,9.73480663 C88.477123,10.016576 88.1252742,10.2044194 87.6993462,10.2983425 L88.1437906,10.6049724 L89.7549018,12.9005525 L88.8567536,12.9005525 L87.0697166,10.3977901 L86.1623092,10.2734807 L86.1623092,12.9005525 L85.3937907,12.9005525 L85.3937907,7.15745856 Z M87.0604573,7.62983425 L86.8104573,7.62983425 C86.7240371,7.62983425 86.6407047,7.63259664 86.5604573,7.63812155 C86.4802099,7.64364645 86.4045936,7.64917122 86.3336055,7.65469613 C86.2626178,7.66022104 86.2055196,7.66850824 86.1623092,7.67955801 L86.1623092,9.81767956 L86.8845314,9.81767956 C87.3104594,9.81767956 87.6623081,9.72375783 87.9400869,9.5359116 C88.2178663,9.34806538 88.3567536,9.0552506 88.3567536,8.65745856 C88.3567536,8.35911455 88.2425571,8.11326064 88.014161,7.9198895 C87.7857649,7.72651837 87.4678668,7.62983425 87.0604573,7.62983425 Z M92.1111111,10.5966851 L89.9722222,7.09944751 L90.8703704,7.09944751 L92.3888889,9.63535912 L92.5462963,10.140884 L92.5555556,10.140884 L92.7222222,9.61878453 L94.1759259,7.09944751 L95,7.09944751 L92.8796296,10.5883978 L92.8796296,12.9005525 L92.1111111,12.9005525 L92.1111111,10.5966851 Z" id="the-Doodle-Library" fill="#666666" fill-rule="nonzero" opacity="0.595278533"></path>
            </g>
        </g>
        <g id="joyful-girl" transform="translate(273.000000, 298.000000)">
            <path d="M175.89272,264.205682 L63.0265457,259.740463 L102.031305,182.214235 C66.0104351,149.941381 48,124.873157 48,107.009563 C48,80.2141728 76.5164626,24.1058636 133.42076,23.0171434 C190.325058,21.9284232 217,72.9677662 217,98.4284696 C217,123.889173 179.246228,163.352783 163.986998,168.165183 C153.814177,171.373449 157.782751,203.386949 175.89272,264.205682 Z" id="Path-9" fill="#FFFFFF"></path>
            <path d="M107.155984,97.1900347 C105.820132,98.5979141 105.0615,100.51854 105.0615,102.504345 C105.0615,104.285921 105.754164,106.645423 107.155984,107.796929 C107.696097,108.248841 108.244456,108.687717 108.780446,109.148319 C108.479467,109.326477 108.178488,109.500289 107.877509,109.669756 C105.016147,110.612688 103,113.467554 103,116.65701 C103,120.511297 106.17471,124.196117 109.959624,123.991888 C112.066477,123.891946 113.7734,123.244495 115.595766,122.158168 C116.28843,121.749709 116.964602,121.293452 117.640774,120.83285 C119.347696,119.681343 121.165939,118.595017 122.567759,117.048087 C124.678735,114.705967 125.420875,111.551274 124.773564,108.426998 C124.45197,106.797508 123.730445,105.202781 123.021289,103.707995 C121.714298,100.940035 119.442525,99.0585167 117.207859,97.1900347 C115.661734,95.8994785 114.243422,95 112.181921,95 C110.29771,95 108.475344,95.7995365 107.155984,97.1900347" id="Fill-235" fill="#000000"></path>
            <path d="M20.3992853,277.232987 C20.6096871,277.507775 20.8253488,277.787951 21.0410106,278.068127 L21.0357506,278.068127 C20.8253488,277.793339 20.6149471,277.507775 20.3992853,277.232987 M72.9576352,260.018332 C70.4696349,261.284511 67.9342942,262.453707 65.4042135,263.639067 C58.129574,266.694062 50.8181142,269.684401 43.4119736,272.394564 C36.8316598,274.808388 29.9199632,276.834275 22.9924866,277.992695 C22.3612814,278.046575 21.7405963,278.073515 21.1251713,278.068127 C19.8312007,276.101507 18.7055515,274.070232 17.6956232,271.931197 C17.4063209,271.203817 17.1380587,270.476437 16.9171369,269.732893 C16.4174328,266.284574 14.2555551,263.358891 10.826007,262.372887 C6.38653073,261.133647 1.74191274,263.886915 0.490022499,268.391281 C-1.1353308,274.285752 1.55781123,279.991642 4.53499558,284.916273 C5.72902535,286.893669 7.06507628,288.725588 8.48002785,290.535956 C9.96335999,292.405591 11.8306753,293.650219 14.0504134,294.512298 C16.1439105,295.331274 19.2473359,294.889458 21.4881143,294.808638 C25.617248,294.620058 29.7253416,293.542459 33.7334944,292.599559 C41.3342566,290.810743 48.7772175,288.008984 56.0255567,285.104853 C64.4731858,281.715802 72.9155549,278.305199 81.0528415,274.221096 C84.9978737,272.2437 86.0288422,266.624018 83.9511252,262.965567 C82.4099326,260.282344 79.8325115,259 77.1235893,259 C75.7296779,259 74.2989462,259.344832 72.9576352,260.018332" id="Fill-219" fill="#000000"></path>
            <path d="M140.658954,22.0053186 C135.888999,22.0691423 131.187412,22.4627213 126.459529,22.962673 C121.715869,23.4838993 116.993245,24.1061797 112.307434,24.9784359 C107.027352,25.9570649 101.605275,27.0367479 96.572367,28.9248635 C90.4298007,31.2544259 84.5133733,34.142445 79.2753629,38.1739708 C75.4309998,41.0992203 71.5918958,44.008514 68.0998889,47.3752103 C65.4072571,49.9494299 62.7356614,52.5289682 60.3533133,55.3744382 C56.9664873,59.405964 54.4999945,64.0597701 51.9493569,68.6497526 C49.9614373,72.2876993 51.0658371,76.9574613 54.6630249,79.0795969 C58.1550319,81.1591834 62.9618004,79.9731277 64.9760153,76.3564555 C66.8429768,72.9578474 68.667866,69.5751952 70.8819246,66.4159256 C74.3476362,62.1663358 78.5233192,58.4220164 82.6937431,54.895761 C84.2819752,53.6831121 85.8754663,52.4811004 87.4689574,51.2790888 C90.6769758,48.8963401 94.1795009,46.9656754 97.7977249,45.3168983 C99.8171988,44.5244216 101.831414,43.7479008 103.924514,43.0937087 C106.285826,42.3703742 108.794391,41.950202 111.218812,41.498118 C114.579342,40.8492445 117.918837,40.2801504 121.274109,39.7748801 C126.422715,39.2164233 131.655467,38.4611771 136.835628,38.4611771 C139.796471,38.4611771 142.709983,38.4824516 145.670826,38.6686039 C147.790222,38.7962511 149.899099,39.0515456 152.018495,39.3281147 L151.892278,39.3121588 C156.635938,40.1578218 161.163977,41.4342944 165.61313,43.2054 C169.993916,45.1998883 174.059159,47.5613625 177.935076,50.4121512 C181.33768,53.2310281 184.566734,56.092454 187.448692,59.4378758 C188.747676,61.3153541 189.846817,63.3045238 190.903885,65.3681544 C192.197611,67.8891877 193.52815,70.4155396 194.711435,72.9844406 C197.593393,80.7868789 198.892377,89.1584113 200.165066,97.3703846 C200.801411,102.907084 201.343093,108.592706 200.959182,114.155998 C200.406982,117.272719 199.59183,120.245836 198.466394,123.229591 C196.830831,126.851582 194.95861,130.28742 192.960173,133.71794 C191.356163,136.462356 189.305135,138.978071 187.390842,141.488467 L188.626718,139.871601 C185.644839,143.653151 182.321121,146.977299 178.597716,150.030195 C176.709719,151.588556 174.816462,153.152234 172.923205,154.715913 C166.380951,159.619695 159.744034,164.39583 152.302484,167.821031 C148.857808,169.2677 145.386837,170.655864 141.847499,171.820645 C138.402823,172.958833 134.689937,173.613026 131.061194,174.144889 C127.337789,174.559743 123.69327,174.698027 119.959347,174.33636 C115.436567,173.549202 110.997932,172.166357 106.701291,170.490986 C101.74201,168.246522 96.8826508,165.534018 92.496606,162.310925 C89.1308161,159.433543 86.180491,156.24768 83.4352687,152.774611 C78.8125668,146.477347 75.0733847,139.738636 71.8653663,132.622301 C70.5295684,128.994992 69.7354524,125.277265 69.0885897,121.474441 C68.3733593,115.076122 67.9000452,108.683122 66.9902301,102.327353 C66.5800245,100.854091 65.8384989,99.5616625 64.7709124,98.4819795 C63.1669032,96.8438397 60.9475856,95.9290344 58.6704184,95.9290344 C53.7374327,95.9290344 50.3716429,99.8967365 50.0613592,104.635641 C49.7142621,109.683026 50.9238428,114.730411 51.5812237,119.698017 C51.4813018,118.926815 51.3761208,118.160931 51.276199,117.368454 C52.2596407,124.787951 53.3061909,131.973428 56.245998,138.914247 C59.5960106,146.764553 63.8453203,154.269148 68.9413364,161.061046 C72.7015547,166.065882 76.6458396,170.719688 81.5157167,174.650159 C86.2593767,178.511489 91.6183452,181.484606 97.1035307,184.165198 C100.63761,185.909711 104.355756,187.154272 108.094938,188.361602 C113.517015,190.08484 119.249376,191.02092 124.939664,190.999645 C129.399336,190.957096 133.916857,190.191213 138.276606,189.334912 C142.362886,188.52648 146.328207,187.531895 150.209383,185.98949 C153.396365,184.723655 156.557052,183.436545 159.701962,182.064337 C163.604175,180.383649 167.180326,178.181733 170.751219,175.873446 C174.448329,173.485378 177.961372,170.847335 181.453379,168.188017 C186.407401,164.449016 191.256241,160.396216 195.689618,156.05621 C198.508467,153.311794 200.764598,150.008921 203.146946,146.870926 C204.361785,145.248742 205.613439,143.568053 206.644212,141.823541 C210.378135,135.462453 213.833328,128.856707 215.70029,121.671231 C216.972979,116.68235 217.141269,111.549867 216.91513,106.438658 C216.688991,101.577425 216.215676,96.7587416 215.495187,91.9613323 C214.32242,84.1482566 213.028694,76.2926319 210.483316,68.8146303 C209.084409,64.7245995 206.970273,60.8579515 205.082275,56.9753475 C203.273163,53.2523026 201.159026,49.7845522 198.38225,46.6891063 C195.053273,42.9926546 191.314091,39.7695614 187.369806,36.7592137 C177.698419,29.3822662 165.986523,24.4572096 153.948565,22.9839476 C149.762364,22.4733586 145.612976,22 141.416257,22 C141.163823,22 140.90613,22.0053186 140.658954,22.0053186" id="Fill-211" fill="#000000"></path>
            <path d="M80.5634298,185.672224 C78.7662902,191.302157 76.7478022,196.815791 74.5922888,202.308279 C72.8583917,206.315312 71.1192245,210.28534 69.1797894,214.191932 C66.997925,218.669446 64.6684949,223.067667 62.3232542,227.444741 C60.1413898,231.472919 57.9384446,235.501096 55.6142847,239.444693 C53.448231,243.060537 51.329609,246.813826 48.7841005,250.186499 C48.562752,250.471961 48.3466736,250.757422 48.1305953,251.037597 C47.1977692,252.211161 46.2596729,253.395297 45.4427913,254.642869 C44.9263113,255.44639 44.6628011,256.376782 44.3307783,257.243739 C43.7563261,258.771486 44.0619979,260.299233 44.2675358,261.82698 C44.6628011,264.639304 46.986961,266.8437 49.3111209,268.149422 C53.0371551,270.253378 57.4219647,270.459545 61.5643449,271.019895 C63.5986436,271.284211 65.7383463,271.326501 67.798996,271.24192 C72.2892097,271.035754 76.7530724,270.708002 81.243286,270.374963 C85.6070148,270.047211 89.9707436,269.941485 94.3344724,269.86219 C102.877473,269.698314 111.362501,270.665711 119.86334,271.226061 C128.738363,271.823416 137.650278,272.32033 146.546382,272.711518 C150.820517,272.891253 155.131544,272.859535 159.405679,273.277154 C159.969591,273.367022 160.533503,273.462176 161.097415,273.557329 C162.230509,273.742351 163.384683,273.906227 164.517777,273.990808 C166.741803,274.112393 169.7669,273.018124 171.268908,271.284211 C172.459974,269.883335 173.181992,268.868362 173.698472,267.071012 C174.193871,265.315953 174.046306,263.333582 173.492934,261.620814 C173.092399,260.389101 172.470515,259.16796 171.917143,257.952106 C171.759037,257.566205 171.590391,257.180303 171.427014,256.794402 C168.881506,250.556542 166.288566,244.334541 163.30036,238.308133 C160.101346,231.85882 156.976115,225.393648 153.972099,218.843895 C151.742803,213.409556 149.634721,207.996362 148.127443,202.297707 C147.368534,199.427234 146.730839,196.51447 145.887606,193.665143 C145.039104,190.852819 144.585866,188.024637 143.104939,185.423767 C139.874304,179.64053 131.268061,179.788547 127.974184,185.423767 C127.025547,187.05724 126.783118,188.627278 126.698794,190.482777 C126.625011,191.962947 127.030817,193.400827 127.758105,194.664258 C128.121749,195.901257 128.517015,197.13297 128.92282,198.348824 C129.866187,201.182293 130.567124,204.068625 131.373465,206.923239 C133.370872,213.880039 136.169351,220.466796 138.98891,227.116989 C141.539688,233.143397 144.606947,238.968924 147.552991,244.831455 C149.276348,248.283423 150.88903,251.767109 152.44901,255.282514 C148.970676,255.171501 145.487071,255.049916 142.014007,254.912471 C133.181145,254.558288 124.332473,254.103664 115.520692,253.405869 C106.68783,252.681643 97.8971302,252.433186 89.0221069,252.660498 C84.7216206,252.782083 80.4000534,253.194416 76.1364585,253.64904 C72.347182,254.024369 68.4630417,254.431416 64.6526843,254.36798 C64.8424117,254.06666 65.0268688,253.765339 65.2060557,253.464019 C66.8134679,250.820858 68.4156099,248.177697 69.9597796,245.492245 C73.1113615,240.126628 76.0152438,234.612994 78.8980453,229.09936 C82.0021954,223.109957 84.8849969,217.078264 87.5622605,210.88798 C90.550466,203.968185 93.1223255,196.947949 95.4043238,189.779696 C96.6849833,185.77795 93.9444773,181.358585 90.0339861,180.280175 C89.3488596,180.089867 88.6637331,180 87.9944172,180 C84.6056761,180 81.6122003,182.325982 80.5634298,185.672224" id="Fill-213" fill="#000000"></path>
            <path d="M199.728839,178.414812 C198.919598,179.209228 198.29831,180.171996 197.885858,181.208419 C193.975397,183.954676 189.897867,186.511536 185.736802,188.810606 C183.309079,190.146907 180.67774,191.193852 178.192587,192.388106 C175.331529,193.755973 172.428703,195.071231 169.525878,196.360183 C165.594533,197.959536 161.694513,199.437885 157.517786,200.263866 C154.667169,200.442741 151.884424,200.116557 149.039028,199.806157 C148.031393,199.66937 147.028978,199.522061 146.031784,199.374752 C143.604062,199.00648 141.520919,198.943348 139.317695,200.258605 C137.359854,201.410771 135.913662,203.29948 135.302815,205.49859 C134.691969,207.760833 135.015665,210.222994 136.179928,212.259013 C137.218889,214.026718 139.281148,215.97856 141.400838,216.288961 C145.394833,216.904501 149.414934,217.420082 153.450697,217.872531 C157.470797,218.324979 161.610979,217.498998 165.505777,216.557273 C168.011814,215.920689 170.439537,214.931615 172.825492,213.963586 C178.578935,211.622428 184.207075,209.012958 189.856099,206.424531 C192.283822,205.314454 194.669778,204.246465 197.013966,202.973296 C199.321609,201.71591 201.503949,200.237561 203.701952,198.822344 C206.27586,197.154598 209.006396,195.513157 211.329701,193.498183 C213.553808,191.546341 215,188.689602 215,185.669772 C215,182.071228 212.859427,178.804129 209.77909,177.120599 C208.452979,176.373533 206.985904,176 205.534491,176 C203.420023,176 201.326438,176.799676 199.728839,178.414812 Z" id="Fill-215" fill="#000000"></path>
            <path d="M39.6726812,158.677438 C39.9362805,159.020439 40.1947112,159.368798 40.4479733,159.717158 C40.1895426,159.368798 39.9311119,159.020439 39.6726812,158.677438 M33,149.668321 C33,153.334137 35.4447546,156.662311 38.8560401,157.627 C38.8612087,157.627 38.871546,157.627 38.8767146,157.632359 C39.0110985,157.803859 39.1454825,157.980719 39.2798665,158.152219 C44.2572422,165.001506 49.017536,171.990137 53.896708,178.87694 C59.5304977,186.808822 65.4847415,194.386985 72.0075329,201.525679 C75.0983643,204.896729 80.5254094,204.752025 83.6369153,201.525679 C86.8672993,198.176067 86.7070722,192.859562 83.6369153,189.467075 C80.5460839,186.096025 77.6206481,182.580272 74.6538634,179.085956 C72.2918067,176.299079 70.2088551,173.158482 68.0070253,170.205464 C68.4515262,170.794996 68.8753525,171.357731 69.2991789,171.947262 C65.3245144,166.271679 61.3860303,160.558581 57.4475461,154.840122 C55.3490887,151.763838 53.2506312,148.687554 50.9712723,145.755974 C48.6247213,142.701127 45.8026579,140 41.7608014,140 C36.592187,140 33.0206745,144.58227 33,149.668321" id="Fill-217" fill="#000000"></path>
            <path d="M150.822158,335.686628 C150.822158,335.697208 150.82748,335.707788 150.82748,335.718368 C150.550767,335.914102 150.279376,336.109836 150.02395,336.30557 C150.284698,336.104546 150.550767,335.892942 150.822158,335.686628 M141.488437,266.280376 C139.450344,266.841128 137.683642,268.205976 136.603399,269.999324 C135.416729,272.025436 135.416729,274.009228 135.794548,276.241654 C136.560828,280.955143 137.539964,285.562829 138.684063,290.191676 C139.700449,294.259771 141.030797,298.269675 142.281324,302.258418 C144.526952,309.548191 147.320682,316.811513 148.613781,324.33934 C148.959671,327.074327 149.262991,329.841055 149.885593,332.512561 C150.14102,333.597034 150.460304,334.649766 150.816837,335.681337 C148.869208,337.173149 146.900293,338.68083 144.856878,340.061549 C143.861778,339.64363 142.765571,339.416156 141.594865,339.416156 C139.349237,339.416156 137.146181,340.320764 135.544442,341.913088 C133.841597,343.605923 133.256244,345.589715 133.048709,347.927944 C132.59107,352.969419 135.379479,358.301851 140.514622,359.70373 C144.21299,360.719431 147.411146,358.941954 150.449661,357.122156 C153.983065,354.974371 157.245078,352.308155 160.485806,349.747742 C164.269316,346.769409 169.260781,343.605923 168.98939,338.130659 C168.866998,335.580825 167.72822,333.332528 166.669263,331.057781 C165.322951,327.100778 164.881276,323.016813 164.232066,318.895816 C163.439178,314.018334 161.60862,309.204334 160.092023,304.512005 C158.453034,299.44937 156.872581,294.344413 155.371948,289.239456 C153.711674,283.536717 152.487754,277.791657 151.508618,271.946084 C151.17337,269.983453 149.427954,268.057853 147.767679,267.110923 C146.501188,266.375598 145.064412,266 143.616994,266 C142.903927,266 142.185539,266.089932 141.488437,266.280376" id="Fill-221" fill="#000000"></path>
            <path d="M255.592365,51.5529587 C255.902753,51.5902118 256.202619,51.6381086 256.507746,51.6806836 C256.202619,51.6593961 255.902753,51.622143 255.602887,51.5582806 C255.597626,51.5582806 255.597626,51.5529587 255.592365,51.5529587 M256.918089,51.2230028 C256.591919,51.2815433 256.27101,51.3294402 255.944839,51.3560495 C256.27101,51.3081527 256.591919,51.2655777 256.918089,51.2230028 M196.82912,1.45287062 C192.699384,2.28308241 188.795863,3.94882785 184.950211,5.65182638 C181.788465,7.06744391 178.76876,8.83430489 175.970009,10.8885469 C173.628949,12.5968673 171.593015,14.6138562 169.541299,16.6521325 C166.931938,19.2492053 164.627703,22.0325435 162.512857,25.050044 C159.819323,28.8498595 158.093777,33.1978277 156.347188,37.4819333 C155.584371,39.3286224 156.184103,41.9256951 157.125788,43.5701531 C158.156907,45.3583016 159.861409,46.6674817 161.81317,47.2103125 C163.82806,47.7691089 166.027078,47.476406 167.831536,46.4173538 C169.746471,45.2731516 170.609244,43.697878 171.42993,41.7021766 C171.482538,41.5691298 171.535146,41.4414049 171.577233,41.31368 C172.939782,38.2003858 174.496982,35.2840009 176.43296,32.4793751 C178.847672,29.5150933 181.614858,26.7317551 184.539868,24.2783728 C187.228142,22.4316838 190.090022,20.9202726 193.046598,19.5685175 C196.613427,18.1795093 200.248646,17.2375383 204.031168,16.6202013 C206.061841,16.4232921 208.055688,16.4020046 210.070578,16.5776263 C210.975437,16.7479262 211.848732,16.9501573 212.722026,17.2215727 C213.06924,17.4238037 213.405931,17.6313567 213.742623,17.8601971 C214.921045,18.9511806 215.952163,20.1858545 216.951717,21.4418159 C219.319082,24.9223192 220.944672,28.7753533 222.680739,32.6177438 C224.016985,35.56606 225.290101,38.5409856 226.626346,41.4733361 C227.920506,44.2992493 229.235708,47.1251625 230.819212,49.7648103 C232.792016,53.0271168 235.359291,55.8796394 237.931827,58.6629776 C241.298745,62.303137 245.349569,66.0018369 249.97382,67.7899854 C254.45603,69.530237 259.643189,68.3328161 264.062269,66.8320487 C261.910598,74.0804362 261.879033,81.8344014 259.438017,88.9923171 C258.922458,90.0513693 258.343769,91.0625247 257.691428,92.0417488 C257.128522,92.6856952 256.544572,93.2923884 255.923796,93.8671504 C255.471367,93.8884379 255.024198,93.8937597 254.566507,93.8777941 C252.793614,93.4999413 251.068069,92.9730762 249.358306,92.323808 C243.161072,89.4180667 237.474136,85.5171357 231.745114,81.7598952 C229.772311,80.4507151 227.757421,79.5353534 225.579445,78.6199917 C222.375612,77.2469491 218.877174,77.1830866 215.447126,77.289524 C212.15912,77.4119271 208.871113,77.6407675 205.583107,77.8110673 C201.106158,78.0399078 197.365722,81.4246174 197.365722,86.1238289 C197.365722,90.5729126 201.106158,94.5643154 205.583107,94.4631999 C209.860146,94.3514406 214.279226,93.9735878 218.577307,94.2609688 C219.129693,94.4259468 219.671556,94.6015685 220.213419,94.7984777 C222.333526,95.8734955 224.295808,97.25186 226.300176,98.5557182 C228.294023,99.8648984 230.324696,101.152791 232.339586,102.424718 C236.879665,105.271919 241.609133,107.746588 246.664771,109.470874 C249.705519,110.508639 252.993525,111.094045 256.197358,110.987608 C260.064054,110.886492 263.536188,109.57199 266.53485,107.139895 C271.469489,103.16978 274.589149,97.6403565 276.398868,91.6106773 C277.403683,88.2685427 277.819287,84.7507864 278.371672,81.3022143 C279.029273,77.1139023 279.702657,72.9096247 281.128336,68.9235438 C281.954283,67.3216608 282.990663,65.8528245 284.058607,64.3999539 C286.646925,61.190866 289.356243,58.1041812 291.813041,54.7780122 C292.470642,53.841363 293.291328,52.9260013 293.722715,51.8669491 C294.690704,49.5785448 295.532433,47.0825876 294.585487,44.6079178 C294.012059,43.1337597 293.517543,41.7394297 292.244427,40.7229524 C290.555707,39.3499099 288.361949,37.9342923 286.015628,38.1631328 C283.737698,38.4132607 282.275193,38.7911135 280.24452,39.8075907 C279.381747,40.2439841 278.534757,40.7016649 277.693027,41.1806333 L271.900876,44.3631118 C268.61813,46.1778696 265.23543,47.7744307 261.805382,49.2964857 C259.664232,50.1373412 257.533604,50.8557937 255.308282,51.3826589 C254.945286,51.1644622 254.598072,50.9302999 254.245598,50.6854938 C251.289023,48.2001804 248.463968,45.4540952 246.00717,42.4472384 C242.961161,37.9662235 240.798968,32.9583435 238.547341,28.0409352 C237.374181,25.4651499 236.222064,22.8627553 235.033121,20.28697 C234.023045,18.1050032 233.102403,15.9017488 231.703028,13.9486224 C230.387825,12.1178989 229.009493,10.3297505 227.573292,8.58417698 C225.663618,6.25319774 223.275211,4.27878381 220.665849,2.78333823 C217.398886,0.931327323 213.637407,0.580083875 210.002188,0.143690501 C209.155197,0.0425749633 208.292424,0 207.424391,0 C203.873344,0 200.238125,0.750383729 196.82912,1.45287062" id="Fill-223" fill="#000000"></path>
            <path d="M118.934022,30.2761733 C114.509978,31.5030202 112.239745,36.0014589 113.229333,40.3405668 C114.758698,47.0590142 116.266895,53.7402844 119.018692,60.092271 C121.871036,66.6035884 125.511876,72.6422245 129.787747,78.3037778 C138.201897,89.4675535 148.4153,99.2557737 159.660627,107.535663 C164.121714,110.812565 168.588094,114.089468 173.117976,117.30795 C177.250964,120.234325 181.341617,123.447495 185.765661,125.938366 C189.634054,128.094643 194.634917,126.894351 196.910442,122.990747 C199.180675,119.092454 197.757149,114.1532 193.994595,111.832282 C189.655222,109.155525 185.580444,105.958288 181.426288,103.031913 C176.896406,99.8346755 172.430027,96.5790168 167.94248,93.296803 C158.962094,86.1853397 150.611446,78.4471754 143.45148,69.4662312 C139.593672,64.2614261 136.270347,58.7751367 133.587344,52.8692762 C131.512912,47.3989198 130.274603,41.6789453 128.962207,35.9802148 C128.131376,32.3527843 124.564623,30 120.99787,30 C120.304629,30 119.606095,30.0902874 118.934022,30.2761733" id="Fill-225" fill="#000000"></path>
            <path d="M117.909275,40.164629 C113.582101,43.1661955 109.313619,46.0248303 104.538254,48.1899815 C103.780599,48.4811388 103.017608,48.7246521 102.227939,48.9258153 C101.662365,48.9416966 101.112798,48.9364028 100.552559,48.9046402 C98.7597969,48.5393702 97.0310616,48.0099934 95.33434,47.3694474 C94.0698022,46.7500766 92.8426136,46.0989431 91.6047538,45.416047 C91.0018307,45.0878334 90.42025,44.775501 89.7906489,44.4843438 C87.5817094,43.4097089 85.6662281,42.8750383 83.1851729,42.7691629 C79.5783055,42.583881 76.2275471,45.3736968 75.288481,48.7246521 C74.0986417,53.0073105 76.7024157,57.5334823 81.0189182,58.7139926 C81.5738209,58.8675119 82.1340592,59.0263249 82.6836263,59.2116068 C83.86813,59.77804 85.0152846,60.4132922 86.2104596,60.9691378 C88.64883,62.107298 91.1245496,63.0760575 93.7123168,63.8436539 C96.3587757,64.6271316 99.1919807,64.960639 101.966494,64.9976954 C105.38128,65.0612206 108.529285,63.8013038 111.591921,62.4778617 C116.804805,60.2227165 121.388087,57.1629185 126.019391,53.9390137 C127.790811,52.6949782 129.124711,51.2921296 129.706292,49.1587411 C130.287873,47.1100528 129.99975,44.8602013 128.89528,43.01797 C127.492017,40.6251868 124.573442,39 121.718895,39 C120.379659,39 119.056429,39.3599762 117.909275,40.164629" id="Fill-227" fill="#000000"></path>
            <path d="M154.965132,126.053813 C154.881436,126.24728 154.80297,126.440747 154.719274,126.634214 C154.792508,126.435518 154.870974,126.24728 154.965132,126.053813 M150.100295,111.904588 C147.32263,113.295458 144.769898,115.094177 143.090744,117.77134 C141.929461,119.606661 141.212813,121.567474 141.029727,123.753126 C140.825718,126.205449 141.704527,128.145347 142.661802,130.330999 C143.132592,131.413368 143.786468,132.537567 144.482192,133.515359 C145.931182,135.559834 147.631259,137.90758 149.938133,139.07361 C153.537067,140.888015 157.904958,140.051402 160.013054,136.438278 C161.969451,133.097053 160.923249,128.66823 157.70618,126.576697 C157.355702,126.226365 157.020918,125.865575 156.691364,125.489099 C156.56582,125.300861 156.440276,125.107394 156.319963,124.919156 C156.67044,124.730918 157.03138,124.553138 157.39755,124.3649 C160.912787,122.608012 161.870062,117.729509 159.971206,114.503319 C158.605913,112.150343 156.267653,111 153.824772,111 C152.574561,111 151.292964,111.303272 150.100295,111.904588" id="Fill-231" fill="#000000"></path>
            <path d="M126.856296,154.14146 C126.567286,154.289871 126.278277,154.411781 125.973503,154.517789 C126.273022,154.390579 126.562032,154.263369 126.856296,154.14146 M107.130062,142.194365 C104.376587,144.977073 104.339804,149.387004 106.746468,152.339325 C106.809524,152.450634 106.862072,152.561942 106.919874,152.67325 C108.144224,155.917093 109.352811,159.086731 111.255021,162.033752 C112.815674,164.456034 114.686356,166.295272 117.124547,167.811185 C119.878023,169.528514 123.204263,170.106257 126.383371,169.984348 C129.504677,169.857139 132.379011,168.489636 135.027392,166.93662 C137.612716,165.447208 139.83021,163.395954 141.82175,161.20159 C144.612008,158.116758 144.837962,153.420606 141.82175,150.356977 C138.989454,147.494762 133.855589,147.250944 131.044311,150.356977 C130.240338,151.236843 129.436366,152.079606 128.558827,152.869365 C127.597212,153.516013 126.619834,154.109658 125.595162,154.639698 C125.563634,154.644998 125.532106,154.655599 125.505832,154.660899 C125.369209,154.6662 125.222077,154.6662 125.085454,154.660899 C125.038162,154.650298 124.985614,154.634397 124.943577,154.618496 C124.796444,154.544291 124.659822,154.459484 124.523199,154.374678 C124.517944,154.374678 124.517944,154.374678 124.517944,154.369377 C123.650915,153.060179 122.894234,151.724479 122.21112,150.314573 C121.964148,149.678526 121.722431,149.031877 121.480714,148.385229 C121.044572,147.229742 120.555882,146.090157 119.956844,145.014176 C119.016248,143.275646 117.63951,142.194365 116.120895,141.017676 C114.949092,140.355127 113.719486,140 112.363768,140 C110.414265,140 108.5068,140.810961 107.130062,142.194365" id="Fill-233" fill="#000000"></path>
            <path d="M154.517528,33.2669227 C150.531562,34.3719825 148.200247,38.6267296 149.252246,42.6305694 C149.934195,45.2143807 150.63729,47.7821767 151.356244,50.3232804 C152.244364,53.4729677 153.444383,56.4358092 154.744844,59.414666 C157.26647,65.1107955 160.549341,70.5133101 163.832212,75.7877017 C166.30626,79.7701878 168.827885,83.7740276 171.555682,87.5910216 C174.568945,91.8030611 177.603354,95.9510392 180.806929,100.040294 C182.207832,101.834015 183.677459,103.606381 185.141799,105.378747 C186.378823,106.857499 187.663425,108.320235 189.043182,109.676202 C191.110175,111.715491 193.568364,113.365073 195.984261,114.971948 C199.330569,117.160713 204.056635,115.660608 205.996754,112.302721 C206.990602,110.610431 207.26021,108.528435 206.74214,106.627945 C206.202924,104.668733 204.987046,103.312766 203.374686,102.207706 C202.661018,101.721907 201.979069,101.230769 201.286547,100.728955 C198.225706,98.0917589 195.783377,94.8139487 193.256465,91.6749382 C192.008868,90.1428022 190.824708,88.573297 189.629976,87.0091302 C187.018481,83.3522898 184.438704,79.7114648 181.95937,75.9745476 C176.731094,68.0522832 171.550395,60.0499419 167.62258,51.3749556 C166.01022,47.232316 164.937075,42.8921536 163.811066,38.584022 C162.928233,35.226135 159.788095,33 156.478792,33 C155.828561,33 155.167758,33.0854152 154.517528,33.2669227" id="Fill-237" fill="#000000"></path>
        </g>
    </g>
</svg>