<?xml version="1.0" encoding="UTF-8"?>
<svg width="800px" height="1000px" viewBox="0 0 800 1000" version="1.1" xmlns="http://www.w3.org/2000/svg" xmlns:xlink="http://www.w3.org/1999/xlink">
    <!-- Generator: Sketch 52.5 (67469) - http://www.bohemiancoding.com/sketch -->
    <title>magic wand_DL</title>
    <desc>Created with Sketch.</desc>
    <g id="magic-wand_DL" stroke="none" stroke-width="1" fill="none" fill-rule="evenodd">
        <g id="logo-footer" transform="translate(510.000000, 745.000000)">
            <g>
                <path d="M110.812545,8.25651402 C110.904572,8.56348079 110.810146,8.81874549 110.573746,9.09365441 C110.548096,9.12348237 110.524607,9.14951827 110.482164,9.19539003 C110.410296,9.27306357 110.388406,9.29969141 110.394575,9.28699974 C110.158488,9.77253772 109.949286,10.3963755 109.78094,11.1092981 C109.323962,13.0450464 110.241419,14.6677006 112.137009,15.2172501 C114.194676,15.8138908 116.608374,14.6870388 117.500673,12.7424366 C118.556971,10.4412591 118.361229,8.87677042 116.832238,7.67717368 C114.960938,6.20902274 112.357851,6.27012948 111.072216,7.83985899 L110.795491,8.1777337 C110.794947,8.20051389 110.804056,8.228204 110.812545,8.25651402 Z M110.106083,6.26944954 C110.423589,5.88663707 110.955421,5.49967933 111.419965,5.30848582 C112.37958,4.91358991 113.68037,4.90617957 115.133698,5.23840657 C117.932917,5.87841333 120.108577,8.22064492 119.995807,10.6570534 C119.760531,15.7499925 113.426094,19.0246323 109.732148,15.5763745 C107.943744,13.9068501 107.553768,11.8021869 108.499361,9.2850154 C108.62423,8.95356867 108.851111,8.49010331 109.049811,8.18524994 C109.270059,7.84733807 109.481086,7.64146186 109.750777,7.55562368 C109.778602,7.54676715 109.806094,7.5393618 109.833231,7.53336632 C109.647627,7.16965375 109.747904,6.70130236 110.106083,6.26944954 Z" id="Fill-4" fill="#000000" fill-rule="nonzero"></path>
                <path d="M116,2.36382675 C116.035222,2.23410526 116.077249,2.03952302 116.14169,1.8509661 C116.280178,1.44230796 116.378641,1.03435869 116.377039,0.600890425 C116.376639,0.410561355 116.256963,0.110004457 116.623996,0.0412449782 C116.938196,-0.017590452 117.272408,-0.0501980398 117.512961,0.20711836 C117.655051,0.358460099 117.796741,0.518308165 117.8896,0.694814455 C118.216208,1.3175485 117.776729,2.53572545 117.114308,2.89086461 C116.612389,3.15987721 116.012808,2.911776 116,2.36382675" id="Fill-103" fill="#000000" fill-rule="nonzero"></path>
                <path d="M113.597281,1.30015424 C113.547641,1.6054057 113.484683,1.90995301 113.451993,2.21696486 C113.409214,2.61727733 113.068594,2.79366831 112.724342,2.93802021 C112.426905,3.06335991 112.146418,3.01090032 112.073774,2.6669203 C111.908307,1.88389925 112.059649,1.1040469 112.154086,0.329475719 C112.197269,-0.0278832593 112.773982,-0.106396611 113.167067,0.152380579 C113.512933,0.380527 113.619074,0.676272361 113.597281,1.30015424" id="Fill-107" fill="#000000" fill-rule="nonzero"></path>
                <path d="M112.19066,11.6823452 C110.632914,12.6206952 108.591708,13.9682577 107.051494,14.9237702 C106.603919,15.2015633 106.260092,15.3386205 105.847581,15.6483439 C105.453117,15.9444969 105.00264,16.1407116 104.673147,15.8744932 C104.334372,15.6006913 103.968388,15.4738054 104.253536,15.0032335 C104.507231,14.584149 104.804932,14.5525935 105.343775,14.3418539 C106.408054,13.9255633 108.032176,12.8044553 108.976827,12.2352987 C109.267132,12.0600815 109.780582,11.6912496 110.031699,11.4841022 C110.690685,10.9400907 110.546085,10.7856194 109.803565,10.2635599 C108.494872,9.34277154 106.87805,8.31351987 105.559045,7.40151231 C105.221301,7.16842154 104.87376,6.94291422 104.554064,6.69585398 C103.681603,6.022525 103.837029,5.29651112 105.037953,5.02270928 C105.314335,4.95964705 105.519044,5.02949445 105.664454,5.21269422 C106.875175,6.74015718 109.059218,7.93310366 110.770108,9.0590438 C111.354328,9.44340412 111.803432,9.85804585 112.62433,10.0292717 C113.067264,10.1214703 112.94712,10.4970498 112.994043,10.9392837 C113.057467,11.2214672 112.602656,11.4340876 112.19066,11.6823452 Z" id="chevron" fill="#000000" fill-rule="nonzero" transform="translate(108.500000, 10.500000) rotate(-2.000000) translate(-108.500000, -10.500000) "></path>
                <path d="M4.80555555,7.71270718 L2.78703703,7.71270718 L2.78703703,12.9005525 L2.01851852,12.9005525 L2.01851852,7.71270718 L0,7.71270718 L0,7.09944751 L4.80555555,7.09944751 L4.80555555,7.71270718 Z M9.97657951,10.2403315 L6.8654684,10.2403315 L6.8654684,12.9005525 L6.09694989,12.9005525 L6.09694989,7.09944751 L6.8654684,7.09944751 L6.8654684,9.62707182 L9.97657951,9.62707182 L9.97657951,7.09944751 L10.745098,7.09944751 L10.745098,12.9005525 L9.97657951,12.9005525 L9.97657951,10.2403315 Z M12.6568627,7.09944751 L16.1846405,7.09944751 L16.1846405,7.71270718 L13.4253813,7.71270718 L13.4253813,9.61049724 L15.953159,9.61049724 L15.953159,10.2237569 L13.4253813,10.2237569 L13.4253813,12.2872928 L16.2309368,12.2872928 L16.2309368,12.9005525 L12.6568627,12.9005525 L12.6568627,7.09944751 Z M20.7674291,7.09944751 C20.8847137,7.08287284 21.0158852,7.07044203 21.1609477,7.0621547 C21.3060102,7.05386736 21.4572432,7.04834254 21.6146514,7.04558011 C21.7720596,7.04281768 21.926379,7.04005525 22.0776143,7.03729282 C22.2288497,7.03453039 22.3692805,7.03314917 22.4989106,7.03314917 C23.0174317,7.03314917 23.4665011,7.10497164 23.8461328,7.24861878 C24.2257645,7.39226593 24.539033,7.59254015 24.7859476,7.84944751 C25.0328623,8.10635488 25.2165027,8.41436285 25.3368736,8.77348066 C25.4572445,9.13259848 25.5174291,9.52762215 25.5174291,9.95856354 C25.5174291,10.3508307 25.4603309,10.7278988 25.3461328,11.089779 C25.2319348,11.4516593 25.0513808,11.7720981 24.8044662,12.051105 C24.5575516,12.3301119 24.236567,12.5538666 23.8415032,12.7223757 C23.4464394,12.8908848 22.9680495,12.9751381 22.406318,12.9751381 C22.3075521,12.9751381 22.179467,12.9737569 22.0220588,12.9709945 C21.8646506,12.968232 21.7026152,12.9627072 21.5359477,12.9544199 C21.3692802,12.9461326 21.2149607,12.9392266 21.0729847,12.9337017 C20.9310087,12.9281767 20.8291578,12.9198895 20.7674291,12.9088398 L20.7674291,7.09944751 Z M22.5174291,7.64640884 L22.2535402,7.64640884 C22.1578608,7.64640884 22.0637259,7.64917122 21.9711328,7.65469613 C21.8785398,7.66022104 21.7936641,7.66574581 21.7165032,7.67127072 C21.6393424,7.67679563 21.5791578,7.6823204 21.5359477,7.6878453 L21.5359477,12.3287293 C21.566812,12.3342542 21.6254534,12.3383978 21.7118736,12.3411602 C21.7982938,12.3439227 21.887799,12.3466851 21.9803921,12.3494475 C22.0729851,12.3522099 22.1624904,12.3549724 22.2489106,12.3577348 C22.3353309,12.3604972 22.3939723,12.3618785 22.4248365,12.3618785 C22.8569374,12.3618785 23.2195881,12.2955808 23.5127995,12.1629834 C23.8060109,12.0303861 24.0405762,11.852211 24.2165032,11.628453 C24.3924302,11.404695 24.5174286,11.1477915 24.5915032,10.8577348 C24.6655778,10.5676781 24.7026143,10.2679574 24.7026143,9.95856354 C24.7026143,9.68784397 24.6686642,9.41574724 24.6007625,9.14226519 C24.5328607,8.86878315 24.4155783,8.62154807 24.2489106,8.40055249 C24.0822429,8.17955691 23.8584801,7.99861948 23.5776143,7.85773481 C23.2967486,7.71685014 22.9433571,7.64640884 22.5174291,7.64640884 Z M26.892157,10 C26.892157,9.03314434 27.1205495,8.29143904 27.5773422,7.77486188 C28.0341344,7.25828471 28.6853622,7 29.5310459,7 C29.9878381,7 30.3828957,7.07182247 30.7162311,7.21546961 C31.0495659,7.35911676 31.3257979,7.56215336 31.5449348,7.82458564 C31.7640716,8.08701791 31.9261071,8.40193186 32.0310459,8.76933702 C32.1359847,9.13674217 32.1884533,9.54695907 32.1884533,10 C32.1884533,10.9668557 31.9585171,11.708561 31.4986385,12.2251381 C31.0387594,12.7417153 30.3829019,13 29.5310459,13 C29.080426,13 28.6899981,12.9281775 28.3597496,12.7845304 C28.0295006,12.6408832 27.7548124,12.4378466 27.5356755,12.1754144 C27.3165387,11.9129821 27.1545032,11.5980681 27.0495644,11.230663 C26.9446256,10.8632578 26.892157,10.4530409 26.892157,10 Z M27.7069718,10 C27.7069718,10.3204436 27.7424651,10.624308 27.8134533,10.9116022 C27.884441,11.1988965 27.9940078,11.4516564 28.142157,11.6698895 C28.2903057,11.8881227 28.4801184,12.0621541 28.7116014,12.191989 C28.943084,12.3218238 29.2162295,12.3867403 29.5310459,12.3867403 C30.1051225,12.3867403 30.5557352,12.1919909 30.8828977,11.8024862 C31.2100598,11.4129815 31.3736385,10.8121587 31.3736385,10 C31.3736385,9.68508131 31.3381447,9.38259816 31.267157,9.09254144 C31.1961688,8.80248476 31.0850587,8.54834365 30.9338237,8.3301105 C30.7825881,8.11187735 30.5912321,7.93784595 30.3597496,7.80801105 C30.1282666,7.67817615 29.8520351,7.61325967 29.5310459,7.61325967 C28.9631416,7.61325967 28.5171585,7.80800912 28.1930829,8.19751381 C27.8690068,8.58701851 27.7069718,9.18784125 27.7069718,10 Z M33.5631807,10 C33.5631807,9.03314434 33.7915737,8.29143904 34.2483658,7.77486188 C34.7051585,7.25828471 35.3563864,7 36.2020695,7 C36.6588622,7 37.0539198,7.07182247 37.3872547,7.21546961 C37.7205896,7.35911676 37.9968216,7.56215336 38.2159584,7.82458564 C38.4350953,8.08701791 38.5971308,8.40193186 38.7020695,8.76933702 C38.8070083,9.13674217 38.8594769,9.54695907 38.8594769,10 C38.8594769,10.9668557 38.6295412,11.708561 38.1696621,12.2251381 C37.7097835,12.7417153 37.053926,13 36.2020695,13 C35.7514502,13 35.3610217,12.9281775 35.0307732,12.7845304 C34.7005248,12.6408832 34.425836,12.4378466 34.2066992,12.1754144 C33.9875623,11.9129821 33.8255268,11.5980681 33.7205881,11.230663 C33.6156493,10.8632578 33.5631807,10.4530409 33.5631807,10 Z M34.3779955,10 C34.3779955,10.3204436 34.4134893,10.624308 34.484477,10.9116022 C34.5554651,11.1988965 34.665032,11.4516564 34.8131807,11.6698895 C34.9613298,11.8881227 35.1511426,12.0621541 35.3826251,12.191989 C35.6141076,12.3218238 35.8872532,12.3867403 36.2020695,12.3867403 C36.7761467,12.3867403 37.2267594,12.1919909 37.5539214,11.8024862 C37.8810834,11.4129815 38.0446621,10.8121587 38.0446621,10 C38.0446621,9.68508131 38.0091688,9.38259816 37.9381806,9.09254144 C37.867193,8.80248476 37.7560829,8.54834365 37.6048473,8.3301105 C37.4536122,8.11187735 37.2622558,7.93784595 37.0307732,7.80801105 C36.7992907,7.67817615 36.5230587,7.61325967 36.2020695,7.61325967 C35.6341657,7.61325967 35.1881822,7.80800912 34.8641066,8.19751381 C34.540031,8.58701851 34.3779955,9.18784125 34.3779955,10 Z M40.5027233,7.09944751 C40.6200078,7.08287284 40.7511791,7.07044203 40.8962419,7.0621547 C41.0413041,7.05386736 41.1925371,7.04834254 41.3499456,7.04558011 C41.5073535,7.04281768 41.6616729,7.04005525 41.8129085,7.03729282 C41.9641436,7.03453039 42.1045747,7.03314917 42.2342048,7.03314917 C42.7527259,7.03314917 43.2017954,7.10497164 43.581427,7.24861878 C43.9610587,7.39226593 44.2743267,7.59254015 44.5212419,7.84944751 C44.7681565,8.10635488 44.9517969,8.41436285 45.0721678,8.77348066 C45.1925387,9.13259848 45.2527233,9.52762215 45.2527233,9.95856354 C45.2527233,10.3508307 45.1956251,10.7278988 45.081427,11.089779 C44.967229,11.4516593 44.786675,11.7720981 44.5397604,12.051105 C44.2928452,12.3301119 43.9718612,12.5538666 43.5767974,12.7223757 C43.1817336,12.8908848 42.7033432,12.9751381 42.1416122,12.9751381 C42.0428463,12.9751381 41.9147609,12.9737569 41.757353,12.9709945 C41.5999445,12.968232 41.437909,12.9627072 41.2712419,12.9544199 C41.1045742,12.9461326 40.9502547,12.9392266 40.8082789,12.9337017 C40.6663026,12.9281767 40.5644517,12.9198895 40.5027233,12.9088398 L40.5027233,7.09944751 Z M42.2527233,7.64640884 L41.9888344,7.64640884 C41.8931549,7.64640884 41.7990201,7.64917122 41.706427,7.65469613 C41.6138339,7.66022104 41.5289584,7.66574581 41.4517974,7.67127072 C41.3746364,7.67679563 41.3144517,7.6823204 41.2712419,7.6878453 L41.2712419,12.3287293 C41.3021061,12.3342542 41.3607475,12.3383978 41.4471678,12.3411602 C41.533588,12.3439227 41.6230932,12.3466851 41.7156863,12.3494475 C41.8082794,12.3522099 41.8977846,12.3549724 41.9842048,12.3577348 C42.0706251,12.3604972 42.1292665,12.3618785 42.1601307,12.3618785 C42.5922316,12.3618785 42.9548823,12.2955808 43.2480937,12.1629834 C43.5413051,12.0303861 43.7758705,11.852211 43.9517974,11.628453 C44.1277244,11.404695 44.2527228,11.1477915 44.3267974,10.8577348 C44.400872,10.5676781 44.4379085,10.2679574 44.4379085,9.95856354 C44.4379085,9.68784397 44.4039584,9.41574724 44.3360567,9.14226519 C44.2681549,8.86878315 44.150872,8.62154807 43.9842048,8.40055249 C43.8175371,8.17955691 43.5937743,7.99861948 43.3129085,7.85773481 C43.0320428,7.71685014 42.6786513,7.64640884 42.2527233,7.64640884 Z M50.7293025,12.9005525 L46.8959692,12.9005525 L46.8959692,7.09944751 L47.6644877,7.09944751 L47.6644877,12.2872928 L50.7293025,12.2872928 L50.7293025,12.9005525 Z M52.0206971,7.09944751 L55.5484749,7.09944751 L55.5484749,7.71270718 L52.7892156,7.71270718 L52.7892156,9.61049724 L55.3169934,9.61049724 L55.3169934,10.2237569 L52.7892156,10.2237569 L52.7892156,12.2872928 L55.5947712,12.2872928 L55.5947712,12.9005525 L52.0206971,12.9005525 L52.0206971,7.09944751 Z M63.9645968,12.9005525 L60.1312634,12.9005525 L60.1312634,7.09944751 L60.8997819,7.09944751 L60.8997819,12.2872928 L63.9645968,12.2872928 L63.9645968,12.9005525 Z M65.4319172,7.09944751 L66.2004357,7.09944751 L66.2004357,12.9005525 L65.4319172,12.9005525 L65.4319172,7.09944751 Z M72.1955335,8.42541436 C72.1955335,8.5635366 72.1708426,8.70441915 72.1214594,8.8480663 C72.0720767,8.99171344 71.9980031,9.12569001 71.8992372,9.25 C71.8004712,9.37431004 71.6739296,9.48342495 71.5196075,9.57734807 C71.365286,9.67127118 71.1831888,9.74309369 70.9733113,9.79281768 L70.9733113,9.82596685 C71.1584975,9.8535913 71.3359651,9.90055216 71.5057187,9.96685083 C71.6754728,10.0331495 71.8251626,10.1243088 71.9547927,10.2403315 C72.0844234,10.3563542 72.1893606,10.4972367 72.2696075,10.6629834 C72.349855,10.8287301 72.3899779,11.0248607 72.3899779,11.2513812 C72.3899779,11.5497252 72.3205345,11.8080099 72.1816446,12.0262431 C72.0427552,12.2444762 71.8606585,12.4226512 71.6353483,12.5607735 C71.4100386,12.6988957 71.1523251,12.8011047 70.8622001,12.8674033 C70.5720757,12.933702 70.2757819,12.9668508 69.9733113,12.9668508 L69.6029409,12.9668508 C69.4609651,12.9668508 69.3128185,12.9627072 69.1584964,12.9544199 C69.0041749,12.9461326 68.8498555,12.935083 68.6955335,12.9212707 C68.541212,12.9074585 68.4054111,12.8867405 68.2881261,12.859116 L68.2881261,7.14917127 C68.5165227,7.11602192 68.7819517,7.08839788 69.0844224,7.06629834 C69.386893,7.0441988 69.7171369,7.03314917 70.0751631,7.03314917 C70.3159054,7.03314917 70.5612732,7.05110479 70.8112742,7.08701657 C71.0612758,7.12292836 71.288125,7.19198844 71.4918298,7.2941989 C71.6955345,7.39640935 71.8637428,7.53867311 71.9964594,7.72099448 C72.1291765,7.90331584 72.1955335,8.13812012 72.1955335,8.42541436 Z M70.0473853,12.3701657 C70.2449172,12.3701657 70.4362737,12.3494477 70.6214594,12.308011 C70.8066456,12.2665744 70.9702243,12.2002767 71.1122001,12.109116 C71.2541765,12.0179553 71.3668298,11.906078 71.4501631,11.7734807 C71.533497,11.6408833 71.5751631,11.4834263 71.5751631,11.301105 C71.5751631,11.0745845 71.5242377,10.8922659 71.4223853,10.7541436 C71.320533,10.6160214 71.1878185,10.5082877 71.0242372,10.4309392 C70.8606564,10.3535908 70.677016,10.3011051 70.4733113,10.2734807 C70.2696065,10.2458562 70.0659049,10.2320442 69.8622001,10.2320442 L69.0566446,10.2320442 L69.0566446,12.3121547 C69.099855,12.3232045 69.1615829,12.3314917 69.2418298,12.3370166 C69.3220772,12.3425415 69.4084964,12.3480663 69.501089,12.3535912 C69.5936821,12.3591161 69.6893601,12.3632597 69.7881261,12.3660221 C69.886892,12.3687845 69.9733113,12.3701657 70.0473853,12.3701657 Z M69.5381261,9.6519337 C69.6430649,9.6519337 69.769607,9.64917132 69.9177557,9.64364641 C70.0659049,9.6381215 70.1893601,9.6298343 70.2881261,9.61878453 C70.4362752,9.57458541 70.5751626,9.52071855 70.7047927,9.45718232 C70.8344234,9.39364609 70.9501626,9.31906119 71.052015,9.23342541 C71.1538673,9.14778964 71.2341137,9.04834309 71.2927557,8.93508287 C71.3513982,8.82182265 71.3807187,8.69889567 71.3807187,8.56629834 C71.3807187,8.38397698 71.3421389,8.23342601 71.2649779,8.11464088 C71.1878174,7.99585576 71.0844234,7.90055285 70.9547927,7.82872928 C70.8251626,7.75690571 70.677016,7.70580124 70.5103483,7.67541436 C70.3436811,7.64502749 70.1739296,7.62983425 70.001089,7.62983425 C69.7973843,7.62983425 69.610658,7.63397785 69.4409038,7.64226519 C69.2711502,7.65055253 69.1430649,7.66298333 69.0566446,7.67955801 L69.0566446,9.6519337 L69.5381261,9.6519337 Z M74.0332243,7.15745856 C74.2677932,7.11878435 74.5378524,7.08839788 74.8434095,7.06629834 C75.1489666,7.0441988 75.428285,7.03314917 75.6813725,7.03314917 C75.9653246,7.03314917 76.2353838,7.0607732 76.4915576,7.1160221 C76.747732,7.17127099 76.9730381,7.26243029 77.1674836,7.38950276 C77.361929,7.51657523 77.5177917,7.68231943 77.6350762,7.88674033 C77.7523606,8.09116123 77.8110021,8.33977753 77.8110021,8.63259669 C77.8110021,9.08563762 77.6721147,9.45303725 77.3943354,9.73480663 C77.1165561,10.016576 76.7647078,10.2044194 76.3387799,10.2983425 L76.7832243,10.6049724 L78.3943354,12.9005525 L77.4961873,12.9005525 L75.7091502,10.3977901 L74.8017428,10.2734807 L74.8017428,12.9005525 L74.0332243,12.9005525 L74.0332243,7.15745856 Z M75.699891,7.62983425 L75.449891,7.62983425 C75.3634707,7.62983425 75.2801384,7.63259664 75.199891,7.63812155 C75.1196436,7.64364645 75.0440273,7.64917122 74.9730391,7.65469613 C74.902051,7.66022104 74.8449527,7.66850824 74.8017428,7.67955801 L74.8017428,9.81767956 L75.5239651,9.81767956 C75.949893,9.81767956 76.3017413,9.72375783 76.5795206,9.5359116 C76.8572999,9.34806538 76.9961873,9.0552506 76.9961873,8.65745856 C76.9961873,8.35911455 76.8819908,8.11326064 76.6535947,7.9198895 C76.4251986,7.72651837 76.1073004,7.62983425 75.699891,7.62983425 Z M82.722767,11.2928177 L80.3338781,11.2928177 L79.68573,12.9005525 L78.9264707,12.9005525 L81.3801744,7.00828729 L81.7320263,7.00828729 L84.1949892,12.9005525 L83.3894337,12.9005525 L82.722767,11.2928177 Z M80.5838781,10.6961326 L82.4912855,10.6961326 L81.7690633,8.93093923 L81.5375818,8.05248619 L81.5283226,8.05248619 L81.2968411,8.94751381 L80.5838781,10.6961326 Z M85.3937907,7.15745856 C85.6283596,7.11878435 85.8984187,7.08839788 86.2039758,7.06629834 C86.5095329,7.0441988 86.7888514,7.03314917 87.0419388,7.03314917 C87.325891,7.03314917 87.5959501,7.0607732 87.852124,7.1160221 C88.1082984,7.17127099 88.3336044,7.26243029 88.5280499,7.38950276 C88.7224954,7.51657523 88.878358,7.68231943 88.9956425,7.88674033 C89.112927,8.09116123 89.1715684,8.33977753 89.1715684,8.63259669 C89.1715684,9.08563762 89.0326811,9.45303725 88.7549018,9.73480663 C88.477123,10.016576 88.1252742,10.2044194 87.6993462,10.2983425 L88.1437906,10.6049724 L89.7549018,12.9005525 L88.8567536,12.9005525 L87.0697166,10.3977901 L86.1623092,10.2734807 L86.1623092,12.9005525 L85.3937907,12.9005525 L85.3937907,7.15745856 Z M87.0604573,7.62983425 L86.8104573,7.62983425 C86.7240371,7.62983425 86.6407047,7.63259664 86.5604573,7.63812155 C86.4802099,7.64364645 86.4045936,7.64917122 86.3336055,7.65469613 C86.2626178,7.66022104 86.2055196,7.66850824 86.1623092,7.67955801 L86.1623092,9.81767956 L86.8845314,9.81767956 C87.3104594,9.81767956 87.6623081,9.72375783 87.9400869,9.5359116 C88.2178663,9.34806538 88.3567536,9.0552506 88.3567536,8.65745856 C88.3567536,8.35911455 88.2425571,8.11326064 88.014161,7.9198895 C87.7857649,7.72651837 87.4678668,7.62983425 87.0604573,7.62983425 Z M92.1111111,10.5966851 L89.9722222,7.09944751 L90.8703704,7.09944751 L92.3888889,9.63535912 L92.5462963,10.140884 L92.5555556,10.140884 L92.7222222,9.61878453 L94.1759259,7.09944751 L95,7.09944751 L92.8796296,10.5883978 L92.8796296,12.9005525 L92.1111111,12.9005525 L92.1111111,10.5966851 Z" id="the-Doodle-Library" fill="#666666" fill-rule="nonzero" opacity="0.595278533"></path>
            </g>
        </g>
        <path d="M405.309024,526.035258 C404.436266,527.172625 403.535111,528.285355 402.60057,529.362211 C397.663027,535.095986 392.469065,540.574266 387.603081,546.3734 C377.94267,557.906309 368.41345,569.54617 359.075054,581.334573 C354.30448,587.739764 349.605466,594.156839 345.204612,600.823467 C340.666605,607.739647 336.194192,614.703361 331.298392,621.387814 C324.243907,630.995601 316.92704,640.347893 309.383571,649.563525 C305.769862,653.99606 302.203859,658.476128 298.435106,662.79577 C294.541126,667.252072 290.235683,671.868801 284.528885,673.936525 C279.841797,675.629919 274.623983,675.142697 269.942858,673.585962 C263.675518,671.500413 257.271023,668.529545 252.566046,663.746448 C250.449104,661.589598 248.350052,658.779157 247.533091,655.808289 C247.211077,654.673418 247.115666,653.48507 247.026218,652.302665 C246.835395,650.353776 247.723914,648.523721 248.469316,646.824385 C249.328019,644.899262 250.985793,643.253401 252.285774,641.625366 C258.761827,633.574314 265.166322,625.285593 272.369887,617.834656 C280.521604,609.409275 289.233863,601.542417 297.731446,593.467598 C301.905698,589.498518 305.954722,585.458138 310.057415,581.441525 C313.665161,577.894308 317.326576,574.246083 320.65405,570.467139 C335.102924,554.067948 348.866027,537.116176 362.390602,519.986152 C364.994801,516.502161 367.614847,513.039224 370.066786,509.448726 C370.039235,509.450857 370.011684,509.452986 369.984133,509.455114 C364.808615,509.870239 359.633098,510.083732 354.45758,510.593742 C351.623227,510.848747 348.794815,511.145264 345.960462,511.423991 C342.924079,511.75016 339.650015,512.052608 336.726531,511.008866 C333.844641,509.965125 331.711448,508.411372 330.273475,505.659689 C328.877095,502.96731 328.787964,500.743428 329.251444,497.825695 C329.827821,494.119225 331.800579,490.644039 333.892177,487.566187 C335.496528,485.199977 337.142474,482.88714 338.883492,480.639536 C342.829007,475.539434 346.79829,470.492705 350.90424,465.534931 C354.178304,461.597178 357.66034,457.843265 361.142376,454.113074 C363.638033,451.408834 366.121806,448.710524 368.766014,446.160473 C368.72442,446.059657 368.688768,445.95291 368.653115,445.852095 C367.227026,442.714939 365.640501,439.660808 364.208469,436.529582 C362.301074,432.336823 360.447157,428.144065 358.819038,423.862351 C357.541499,420.547285 356.198598,417.119542 355.479611,413.644356 C354.713088,410.00905 354.130768,406.278859 355.432075,402.685066 C357.428601,397.217282 362.301074,393.908146 367.940071,393.000802 C378.04154,391.358095 388.463879,395.343291 397.400708,399.71989 C400.948107,401.457483 404.501447,403.218798 407.959715,405.163953 C411.417982,407.13283 414.87625,409.101706 418.215677,411.260354 C420.859885,412.938644 423.361484,414.765192 425.833373,416.656974 C426.516708,416.218128 427.188158,415.767421 427.847725,415.292993 C431.733819,412.155837 435.524841,408.900074 439.410936,405.745127 C443.659495,402.293663 447.973417,398.913362 452.340817,395.598296 C456.351694,392.514513 460.41605,389.484104 464.735914,386.815445 C467.683166,385.03634 470.885926,383.553752 474.136222,382.486289 C475.06318,382.183841 476.536806,382 477.951012,382 C479.10971,382 480.238698,382.118607 481.005221,382.391403 C483.209718,383.156419 485.182476,383.85027 486.923494,385.522629 C488.058423,386.607883 488.967556,387.859187 489.823209,389.181656 C490.453066,390.545637 491.005675,391.939269 491.492923,393.374414 C491.843503,395.455968 492.330751,397.614615 492.306982,399.71989 C492.259446,401.528647 492.146547,403.289962 491.938576,405.092789 C491.492923,408.82298 490.797704,412.529449 489.734079,416.146964 C488.735816,419.598428 487.594944,423.00245 486.460014,426.406472 C484.974504,430.783071 483.417689,435.14188 481.795512,439.471036 C479.008695,446.943279 475.895066,454.231681 472.561581,461.448919 C474.409556,463.311049 476.245646,465.17911 477.91536,467.225081 C480.933916,470.836665 483.833632,474.566856 486.691754,478.297048 C489.335962,481.748512 491.962344,485.176255 494.606552,488.609929 C496.674382,491.272657 498.920474,493.911663 500.596129,496.853117 C501.891494,499.148163 502.98483,501.603329 503.959324,504.058494 C505.795415,508.690099 505.331936,513.76648 501.523088,517.330621 C493.95887,524.375879 483.904937,517.241666 476.54869,513.345425 C469.840126,509.805005 462.994896,506.51366 455.983288,503.548484 C456.821115,503.898375 457.629233,504.242335 458.467061,504.592226 C455.650533,503.406156 452.857774,502.172643 450.065015,500.933199 C447.165299,508.897661 445.358919,517.277248 443.14848,525.437412 C441.288621,532.251385 438.852384,538.994195 436.208176,545.523512 C435.25745,547.842279 434.44339,550.528729 433.04701,552.657725 C431.311935,555.367896 429.125264,557.710384 425.874967,558.611798 C423.046556,559.376813 419.612056,559.009131 417.080747,557.526543 C412.600448,554.905328 410.467256,549.645106 409.118413,544.900825 C408.423194,542.44566 407.840874,539.966773 407.288264,537.487886 C406.443807,533.710798 405.832935,529.880285 405.309024,526.035258 Z M380.406472,423.043963 C380.572849,423.453157 380.75111,423.868282 380.917487,424.277476 C380.75111,423.868282 380.578791,423.453157 380.406472,423.043963 Z M427.705116,418.092119 C427.954682,418.28189 428.204247,418.477592 428.453813,418.673294 C428.216131,418.477592 427.972508,418.293751 427.728884,418.10398 C427.722942,418.09805 427.711058,418.09805 427.705116,418.092119 Z M470.149113,408.437507 C467.802007,410.103936 465.514321,411.86525 463.244461,413.614704 C458.419524,417.380477 453.636182,421.187763 448.947911,425.107725 C445.465876,428.007667 442.031376,431.061798 438.341369,433.659292 C436.184408,435.165601 434.09281,436.274577 431.656573,437.270876 C429.891787,437.988448 428.614248,438.17822 426.617722,438.433225 C422.719744,438.919514 418.726692,437.644488 415.619005,435.278278 C405.701739,427.811965 394.762442,421.359743 383.389376,416.307083 C381.268068,415.482765 379.134875,414.753331 376.960088,414.172157 C377.881105,416.906049 378.980382,419.592498 380.067776,422.231505 C381.309662,424.971327 382.575317,427.693358 383.888508,430.41539 C385.748367,434.258257 387.905327,438.267175 389.040257,442.3947 C389.854317,445.401388 390.222723,448.206444 389.693882,451.266505 C389.414606,452.790606 388.719387,454.113074 388.113299,455.500776 C387.251703,457.428141 385.166047,458.584559 383.704305,460.043426 C381.731547,462.012302 379.824152,464.052343 377.922699,466.092384 C370.685293,473.843354 363.80441,481.819676 357.244397,490.110308 C359.318169,489.950188 361.397884,489.801929 363.48354,489.64774 C370.548626,489.173312 377.554292,488.639581 384.5659,487.874565 C387.025905,487.45351 389.491852,487.079898 391.898379,486.475002 C395.445777,485.59731 398.904045,484.648454 402.38608,483.462384 C407.585366,481.724791 413.39074,485.43126 414.781177,490.507641 C414.81683,490.632179 414.852482,490.768577 414.882192,490.893114 C419.404085,492.013951 423.313948,496.200779 422.99902,501.045876 C422.963367,501.61519 422.969309,502.13113 423.004962,502.658931 C423.587282,506.442496 424.104239,510.243851 424.603371,514.045206 C425.251053,511.548528 425.904678,509.04592 426.617722,506.561103 C427.271347,504.266057 427.871493,501.929498 428.59048,499.658174 C429.452076,496.971724 430.379034,494.326788 431.47237,491.735224 C432.773677,488.675163 434.09281,485.502425 436.487452,483.094702 C438.852384,480.686979 442.774131,477.83448 446.398776,478.231814 C448.181388,478.439376 449.898638,478.552053 451.574293,479.18067 C452.52502,479.572073 453.475746,479.987198 454.402705,480.384531 C456.096186,481.125825 457.771842,481.890841 459.441555,482.655856 C461.818372,483.72925 464.224898,484.761131 466.61954,485.793012 C466.32838,485.413469 466.043162,485.039857 465.752002,484.666245 C463.933738,482.442363 462.121416,480.248133 460.208079,478.136928 C456.957782,474.590578 452.732991,471.489004 451.176177,466.786235 C449.880812,462.848482 450.920669,459.60458 452.548788,456.058229 C453.059804,454.925532 453.612413,453.786905 454.123429,452.654208 C455.074155,450.584515 456.007056,448.502962 456.92213,446.397687 C459.132569,440.965485 461.25982,435.509562 463.202867,429.976544 C465.710408,422.895704 468.378384,415.761491 470.149113,408.437507 Z M470.677954,397.241003 C470.767085,397.472287 470.874042,397.703571 470.969114,397.940785 C470.879984,397.703571 470.778969,397.472287 470.677954,397.241003 Z M280.056473,654.043594 C279.776202,654.085186 279.495931,654.126778 279.209696,654.16837 C279.495931,654.144603 279.776202,654.108953 280.056473,654.043594 Z M275.697362,644.99433 C274.039588,647.020462 272.369887,649.028769 270.70615,651.048959 C271.767602,651.613424 272.852908,652.136296 273.95014,652.62946 C275.297826,653.134508 276.645513,653.580138 278.034943,653.948526 C283.634403,649.070361 288.136631,642.849363 292.793903,637.145297 C296.789258,632.26119 300.736908,627.359258 304.648778,622.409792 C304.917122,622.053288 305.179504,621.696784 305.441885,621.34028 C310.945934,614.085421 316.181638,606.670135 321.226519,599.08848 C318.054088,602.255425 314.851841,605.392661 311.595925,608.482364 C303.068525,616.563125 294.380119,624.477517 286.204549,632.879131 C282.477539,636.705609 279.078506,640.858882 275.697362,644.99433 Z M358.55029,581.988164 C358.377357,582.202067 358.210387,582.415969 358.043417,582.629872 C358.210387,582.415969 358.377357,582.202067 358.55029,581.988164 Z M290.330465,432.094183 C292.113072,428.926372 295.555145,427 298.991354,427 C300.639092,427 302.28683,427.446429 303.75279,428.412673 C305.465031,429.556265 307.183135,430.602009 308.989197,431.513214 C315.374917,433.806513 322.135922,434.754411 328.767922,435.916349 C331.172096,436.344432 333.482448,438.545999 334.655215,440.643604 C335.980443,443.010289 336.349864,445.902905 335.657932,448.550901 C334.971863,451.131628 333.324124,453.357658 331.125185,454.690829 C328.674101,456.195234 326.246472,456.195234 323.543243,455.718227 C313.258071,453.926396 302.538975,452.611571 293.860495,446.092484 C291.702603,444.46577 290.07832,442.722863 289.34534,439.977018 C288.659271,437.322906 288.999374,434.460868 290.330465,432.094183 Z M410.945444,326.850888 C412.804228,325.030796 415.360806,324 417.995586,324 C420.624351,324 423.186945,325.030796 425.045728,326.850888 C427.066929,328.830018 427.650431,331.062428 427.95722,333.754279 C428.005344,334.172488 428.053468,334.584807 428.107607,335.003016 C429.725771,345.464127 432.474845,355.636615 435.620941,365.756091 C437.166919,370.798158 433.810282,376.276105 428.709155,377.654427 C423.421549,379.079871 418.133942,375.95214 416.563902,370.910073 C412.780166,358.693663 409.537822,346.453691 408.033952,333.754279 C407.751225,331.339271 409.279157,328.506053 410.945444,326.850888 Z M540.089242,394.438806 C540.992512,394.134567 541.91971,394 542.834944,394 C547.249601,394 551.472837,397.258862 552.639311,401.407037 C553.363123,403.993064 552.986262,406.801419 551.610421,409.089059 C550.162796,411.534668 548.105015,412.675562 545.508862,413.68189 C545.239676,413.793054 544.970489,413.892516 544.701303,414.003681 C538.623672,416.68917 532.988703,420.024092 527.425517,423.575491 C522.729709,426.594473 516.089777,424.540863 513.379967,419.988988 C510.46079,415.097769 512.398932,409.247029 517.070812,406.257301 C524.362773,401.594261 531.792318,397.206206 540.089242,394.438806 Z M458.017414,550.038921 C460.009492,548.062435 462.877605,547 465.709717,547 C468.403823,547 471.085929,547.961534 472.946002,550.038921 C478.688228,556.413532 484.172444,563.090848 488.582617,570.444798 C491.510733,575.288078 489.728663,581.781397 484.83247,584.606644 C479.76827,587.526857 473.558026,585.651273 470.509906,580.897024 C468.33782,577.51385 465.973727,574.296868 463.531631,571.115498 C461.707559,569.002498 459.889488,566.871692 458.017414,564.806176 C454.219264,560.562371 453.775247,554.235243 458.017414,550.038921 Z" id="magic-wand" fill="#000000"></path>
    </g>
</svg>