<?xml version="1.0" encoding="UTF-8"?>
<svg width="800px" height="1000px" viewBox="0 0 800 1000" version="1.1" xmlns="http://www.w3.org/2000/svg" xmlns:xlink="http://www.w3.org/1999/xlink">
    <!-- Generator: Sketch 52.5 (67469) - http://www.bohemiancoding.com/sketch -->
    <title>potted seedling_DL</title>
    <desc>Created with Sketch.</desc>
    <g id="potted-seedling_DL" stroke="none" stroke-width="1" fill="none" fill-rule="evenodd">
        <g id="logo-footer" transform="translate(498.000000, 784.000000)">
            <g>
                <path d="M110.812545,8.25651402 C110.904572,8.56348079 110.810146,8.81874549 110.573746,9.09365441 C110.548096,9.12348237 110.524607,9.14951827 110.482164,9.19539003 C110.410296,9.27306357 110.388406,9.29969141 110.394575,9.28699974 C110.158488,9.77253772 109.949286,10.3963755 109.78094,11.1092981 C109.323962,13.0450464 110.241419,14.6677006 112.137009,15.2172501 C114.194676,15.8138908 116.608374,14.6870388 117.500673,12.7424366 C118.556971,10.4412591 118.361229,8.87677042 116.832238,7.67717368 C114.960938,6.20902274 112.357851,6.27012948 111.072216,7.83985899 L110.795491,8.1777337 C110.794947,8.20051389 110.804056,8.228204 110.812545,8.25651402 Z M110.106083,6.26944954 C110.423589,5.88663707 110.955421,5.49967933 111.419965,5.30848582 C112.37958,4.91358991 113.68037,4.90617957 115.133698,5.23840657 C117.932917,5.87841333 120.108577,8.22064492 119.995807,10.6570534 C119.760531,15.7499925 113.426094,19.0246323 109.732148,15.5763745 C107.943744,13.9068501 107.553768,11.8021869 108.499361,9.2850154 C108.62423,8.95356867 108.851111,8.49010331 109.049811,8.18524994 C109.270059,7.84733807 109.481086,7.64146186 109.750777,7.55562368 C109.778602,7.54676715 109.806094,7.5393618 109.833231,7.53336632 C109.647627,7.16965375 109.747904,6.70130236 110.106083,6.26944954 Z" id="Fill-4" fill="#000000" fill-rule="nonzero"></path>
                <path d="M116,2.36382675 C116.035222,2.23410526 116.077249,2.03952302 116.14169,1.8509661 C116.280178,1.44230796 116.378641,1.03435869 116.377039,0.600890425 C116.376639,0.410561355 116.256963,0.110004457 116.623996,0.0412449782 C116.938196,-0.017590452 117.272408,-0.0501980398 117.512961,0.20711836 C117.655051,0.358460099 117.796741,0.518308165 117.8896,0.694814455 C118.216208,1.3175485 117.776729,2.53572545 117.114308,2.89086461 C116.612389,3.15987721 116.012808,2.911776 116,2.36382675" id="Fill-103" fill="#000000" fill-rule="nonzero"></path>
                <path d="M113.597281,1.30015424 C113.547641,1.6054057 113.484683,1.90995301 113.451993,2.21696486 C113.409214,2.61727733 113.068594,2.79366831 112.724342,2.93802021 C112.426905,3.06335991 112.146418,3.01090032 112.073774,2.6669203 C111.908307,1.88389925 112.059649,1.1040469 112.154086,0.329475719 C112.197269,-0.0278832593 112.773982,-0.106396611 113.167067,0.152380579 C113.512933,0.380527 113.619074,0.676272361 113.597281,1.30015424" id="Fill-107" fill="#000000" fill-rule="nonzero"></path>
                <path d="M112.19066,11.6823452 C110.632914,12.6206952 108.591708,13.9682577 107.051494,14.9237702 C106.603919,15.2015633 106.260092,15.3386205 105.847581,15.6483439 C105.453117,15.9444969 105.00264,16.1407116 104.673147,15.8744932 C104.334372,15.6006913 103.968388,15.4738054 104.253536,15.0032335 C104.507231,14.584149 104.804932,14.5525935 105.343775,14.3418539 C106.408054,13.9255633 108.032176,12.8044553 108.976827,12.2352987 C109.267132,12.0600815 109.780582,11.6912496 110.031699,11.4841022 C110.690685,10.9400907 110.546085,10.7856194 109.803565,10.2635599 C108.494872,9.34277154 106.87805,8.31351987 105.559045,7.40151231 C105.221301,7.16842154 104.87376,6.94291422 104.554064,6.69585398 C103.681603,6.022525 103.837029,5.29651112 105.037953,5.02270928 C105.314335,4.95964705 105.519044,5.02949445 105.664454,5.21269422 C106.875175,6.74015718 109.059218,7.93310366 110.770108,9.0590438 C111.354328,9.44340412 111.803432,9.85804585 112.62433,10.0292717 C113.067264,10.1214703 112.94712,10.4970498 112.994043,10.9392837 C113.057467,11.2214672 112.602656,11.4340876 112.19066,11.6823452 Z" id="chevron" fill="#000000" fill-rule="nonzero" transform="translate(108.500000, 10.500000) rotate(-2.000000) translate(-108.500000, -10.500000) "></path>
                <path d="M4.80555555,7.71270718 L2.78703703,7.71270718 L2.78703703,12.9005525 L2.01851852,12.9005525 L2.01851852,7.71270718 L0,7.71270718 L0,7.09944751 L4.80555555,7.09944751 L4.80555555,7.71270718 Z M9.97657951,10.2403315 L6.8654684,10.2403315 L6.8654684,12.9005525 L6.09694989,12.9005525 L6.09694989,7.09944751 L6.8654684,7.09944751 L6.8654684,9.62707182 L9.97657951,9.62707182 L9.97657951,7.09944751 L10.745098,7.09944751 L10.745098,12.9005525 L9.97657951,12.9005525 L9.97657951,10.2403315 Z M12.6568627,7.09944751 L16.1846405,7.09944751 L16.1846405,7.71270718 L13.4253813,7.71270718 L13.4253813,9.61049724 L15.953159,9.61049724 L15.953159,10.2237569 L13.4253813,10.2237569 L13.4253813,12.2872928 L16.2309368,12.2872928 L16.2309368,12.9005525 L12.6568627,12.9005525 L12.6568627,7.09944751 Z M20.7674291,7.09944751 C20.8847137,7.08287284 21.0158852,7.07044203 21.1609477,7.0621547 C21.3060102,7.05386736 21.4572432,7.04834254 21.6146514,7.04558011 C21.7720596,7.04281768 21.926379,7.04005525 22.0776143,7.03729282 C22.2288497,7.03453039 22.3692805,7.03314917 22.4989106,7.03314917 C23.0174317,7.03314917 23.4665011,7.10497164 23.8461328,7.24861878 C24.2257645,7.39226593 24.539033,7.59254015 24.7859476,7.84944751 C25.0328623,8.10635488 25.2165027,8.41436285 25.3368736,8.77348066 C25.4572445,9.13259848 25.5174291,9.52762215 25.5174291,9.95856354 C25.5174291,10.3508307 25.4603309,10.7278988 25.3461328,11.089779 C25.2319348,11.4516593 25.0513808,11.7720981 24.8044662,12.051105 C24.5575516,12.3301119 24.236567,12.5538666 23.8415032,12.7223757 C23.4464394,12.8908848 22.9680495,12.9751381 22.406318,12.9751381 C22.3075521,12.9751381 22.179467,12.9737569 22.0220588,12.9709945 C21.8646506,12.968232 21.7026152,12.9627072 21.5359477,12.9544199 C21.3692802,12.9461326 21.2149607,12.9392266 21.0729847,12.9337017 C20.9310087,12.9281767 20.8291578,12.9198895 20.7674291,12.9088398 L20.7674291,7.09944751 Z M22.5174291,7.64640884 L22.2535402,7.64640884 C22.1578608,7.64640884 22.0637259,7.64917122 21.9711328,7.65469613 C21.8785398,7.66022104 21.7936641,7.66574581 21.7165032,7.67127072 C21.6393424,7.67679563 21.5791578,7.6823204 21.5359477,7.6878453 L21.5359477,12.3287293 C21.566812,12.3342542 21.6254534,12.3383978 21.7118736,12.3411602 C21.7982938,12.3439227 21.887799,12.3466851 21.9803921,12.3494475 C22.0729851,12.3522099 22.1624904,12.3549724 22.2489106,12.3577348 C22.3353309,12.3604972 22.3939723,12.3618785 22.4248365,12.3618785 C22.8569374,12.3618785 23.2195881,12.2955808 23.5127995,12.1629834 C23.8060109,12.0303861 24.0405762,11.852211 24.2165032,11.628453 C24.3924302,11.404695 24.5174286,11.1477915 24.5915032,10.8577348 C24.6655778,10.5676781 24.7026143,10.2679574 24.7026143,9.95856354 C24.7026143,9.68784397 24.6686642,9.41574724 24.6007625,9.14226519 C24.5328607,8.86878315 24.4155783,8.62154807 24.2489106,8.40055249 C24.0822429,8.17955691 23.8584801,7.99861948 23.5776143,7.85773481 C23.2967486,7.71685014 22.9433571,7.64640884 22.5174291,7.64640884 Z M26.892157,10 C26.892157,9.03314434 27.1205495,8.29143904 27.5773422,7.77486188 C28.0341344,7.25828471 28.6853622,7 29.5310459,7 C29.9878381,7 30.3828957,7.07182247 30.7162311,7.21546961 C31.0495659,7.35911676 31.3257979,7.56215336 31.5449348,7.82458564 C31.7640716,8.08701791 31.9261071,8.40193186 32.0310459,8.76933702 C32.1359847,9.13674217 32.1884533,9.54695907 32.1884533,10 C32.1884533,10.9668557 31.9585171,11.708561 31.4986385,12.2251381 C31.0387594,12.7417153 30.3829019,13 29.5310459,13 C29.080426,13 28.6899981,12.9281775 28.3597496,12.7845304 C28.0295006,12.6408832 27.7548124,12.4378466 27.5356755,12.1754144 C27.3165387,11.9129821 27.1545032,11.5980681 27.0495644,11.230663 C26.9446256,10.8632578 26.892157,10.4530409 26.892157,10 Z M27.7069718,10 C27.7069718,10.3204436 27.7424651,10.624308 27.8134533,10.9116022 C27.884441,11.1988965 27.9940078,11.4516564 28.142157,11.6698895 C28.2903057,11.8881227 28.4801184,12.0621541 28.7116014,12.191989 C28.943084,12.3218238 29.2162295,12.3867403 29.5310459,12.3867403 C30.1051225,12.3867403 30.5557352,12.1919909 30.8828977,11.8024862 C31.2100598,11.4129815 31.3736385,10.8121587 31.3736385,10 C31.3736385,9.68508131 31.3381447,9.38259816 31.267157,9.09254144 C31.1961688,8.80248476 31.0850587,8.54834365 30.9338237,8.3301105 C30.7825881,8.11187735 30.5912321,7.93784595 30.3597496,7.80801105 C30.1282666,7.67817615 29.8520351,7.61325967 29.5310459,7.61325967 C28.9631416,7.61325967 28.5171585,7.80800912 28.1930829,8.19751381 C27.8690068,8.58701851 27.7069718,9.18784125 27.7069718,10 Z M33.5631807,10 C33.5631807,9.03314434 33.7915737,8.29143904 34.2483658,7.77486188 C34.7051585,7.25828471 35.3563864,7 36.2020695,7 C36.6588622,7 37.0539198,7.07182247 37.3872547,7.21546961 C37.7205896,7.35911676 37.9968216,7.56215336 38.2159584,7.82458564 C38.4350953,8.08701791 38.5971308,8.40193186 38.7020695,8.76933702 C38.8070083,9.13674217 38.8594769,9.54695907 38.8594769,10 C38.8594769,10.9668557 38.6295412,11.708561 38.1696621,12.2251381 C37.7097835,12.7417153 37.053926,13 36.2020695,13 C35.7514502,13 35.3610217,12.9281775 35.0307732,12.7845304 C34.7005248,12.6408832 34.425836,12.4378466 34.2066992,12.1754144 C33.9875623,11.9129821 33.8255268,11.5980681 33.7205881,11.230663 C33.6156493,10.8632578 33.5631807,10.4530409 33.5631807,10 Z M34.3779955,10 C34.3779955,10.3204436 34.4134893,10.624308 34.484477,10.9116022 C34.5554651,11.1988965 34.665032,11.4516564 34.8131807,11.6698895 C34.9613298,11.8881227 35.1511426,12.0621541 35.3826251,12.191989 C35.6141076,12.3218238 35.8872532,12.3867403 36.2020695,12.3867403 C36.7761467,12.3867403 37.2267594,12.1919909 37.5539214,11.8024862 C37.8810834,11.4129815 38.0446621,10.8121587 38.0446621,10 C38.0446621,9.68508131 38.0091688,9.38259816 37.9381806,9.09254144 C37.867193,8.80248476 37.7560829,8.54834365 37.6048473,8.3301105 C37.4536122,8.11187735 37.2622558,7.93784595 37.0307732,7.80801105 C36.7992907,7.67817615 36.5230587,7.61325967 36.2020695,7.61325967 C35.6341657,7.61325967 35.1881822,7.80800912 34.8641066,8.19751381 C34.540031,8.58701851 34.3779955,9.18784125 34.3779955,10 Z M40.5027233,7.09944751 C40.6200078,7.08287284 40.7511791,7.07044203 40.8962419,7.0621547 C41.0413041,7.05386736 41.1925371,7.04834254 41.3499456,7.04558011 C41.5073535,7.04281768 41.6616729,7.04005525 41.8129085,7.03729282 C41.9641436,7.03453039 42.1045747,7.03314917 42.2342048,7.03314917 C42.7527259,7.03314917 43.2017954,7.10497164 43.581427,7.24861878 C43.9610587,7.39226593 44.2743267,7.59254015 44.5212419,7.84944751 C44.7681565,8.10635488 44.9517969,8.41436285 45.0721678,8.77348066 C45.1925387,9.13259848 45.2527233,9.52762215 45.2527233,9.95856354 C45.2527233,10.3508307 45.1956251,10.7278988 45.081427,11.089779 C44.967229,11.4516593 44.786675,11.7720981 44.5397604,12.051105 C44.2928452,12.3301119 43.9718612,12.5538666 43.5767974,12.7223757 C43.1817336,12.8908848 42.7033432,12.9751381 42.1416122,12.9751381 C42.0428463,12.9751381 41.9147609,12.9737569 41.757353,12.9709945 C41.5999445,12.968232 41.437909,12.9627072 41.2712419,12.9544199 C41.1045742,12.9461326 40.9502547,12.9392266 40.8082789,12.9337017 C40.6663026,12.9281767 40.5644517,12.9198895 40.5027233,12.9088398 L40.5027233,7.09944751 Z M42.2527233,7.64640884 L41.9888344,7.64640884 C41.8931549,7.64640884 41.7990201,7.64917122 41.706427,7.65469613 C41.6138339,7.66022104 41.5289584,7.66574581 41.4517974,7.67127072 C41.3746364,7.67679563 41.3144517,7.6823204 41.2712419,7.6878453 L41.2712419,12.3287293 C41.3021061,12.3342542 41.3607475,12.3383978 41.4471678,12.3411602 C41.533588,12.3439227 41.6230932,12.3466851 41.7156863,12.3494475 C41.8082794,12.3522099 41.8977846,12.3549724 41.9842048,12.3577348 C42.0706251,12.3604972 42.1292665,12.3618785 42.1601307,12.3618785 C42.5922316,12.3618785 42.9548823,12.2955808 43.2480937,12.1629834 C43.5413051,12.0303861 43.7758705,11.852211 43.9517974,11.628453 C44.1277244,11.404695 44.2527228,11.1477915 44.3267974,10.8577348 C44.400872,10.5676781 44.4379085,10.2679574 44.4379085,9.95856354 C44.4379085,9.68784397 44.4039584,9.41574724 44.3360567,9.14226519 C44.2681549,8.86878315 44.150872,8.62154807 43.9842048,8.40055249 C43.8175371,8.17955691 43.5937743,7.99861948 43.3129085,7.85773481 C43.0320428,7.71685014 42.6786513,7.64640884 42.2527233,7.64640884 Z M50.7293025,12.9005525 L46.8959692,12.9005525 L46.8959692,7.09944751 L47.6644877,7.09944751 L47.6644877,12.2872928 L50.7293025,12.2872928 L50.7293025,12.9005525 Z M52.0206971,7.09944751 L55.5484749,7.09944751 L55.5484749,7.71270718 L52.7892156,7.71270718 L52.7892156,9.61049724 L55.3169934,9.61049724 L55.3169934,10.2237569 L52.7892156,10.2237569 L52.7892156,12.2872928 L55.5947712,12.2872928 L55.5947712,12.9005525 L52.0206971,12.9005525 L52.0206971,7.09944751 Z M63.9645968,12.9005525 L60.1312634,12.9005525 L60.1312634,7.09944751 L60.8997819,7.09944751 L60.8997819,12.2872928 L63.9645968,12.2872928 L63.9645968,12.9005525 Z M65.4319172,7.09944751 L66.2004357,7.09944751 L66.2004357,12.9005525 L65.4319172,12.9005525 L65.4319172,7.09944751 Z M72.1955335,8.42541436 C72.1955335,8.5635366 72.1708426,8.70441915 72.1214594,8.8480663 C72.0720767,8.99171344 71.9980031,9.12569001 71.8992372,9.25 C71.8004712,9.37431004 71.6739296,9.48342495 71.5196075,9.57734807 C71.365286,9.67127118 71.1831888,9.74309369 70.9733113,9.79281768 L70.9733113,9.82596685 C71.1584975,9.8535913 71.3359651,9.90055216 71.5057187,9.96685083 C71.6754728,10.0331495 71.8251626,10.1243088 71.9547927,10.2403315 C72.0844234,10.3563542 72.1893606,10.4972367 72.2696075,10.6629834 C72.349855,10.8287301 72.3899779,11.0248607 72.3899779,11.2513812 C72.3899779,11.5497252 72.3205345,11.8080099 72.1816446,12.0262431 C72.0427552,12.2444762 71.8606585,12.4226512 71.6353483,12.5607735 C71.4100386,12.6988957 71.1523251,12.8011047 70.8622001,12.8674033 C70.5720757,12.933702 70.2757819,12.9668508 69.9733113,12.9668508 L69.6029409,12.9668508 C69.4609651,12.9668508 69.3128185,12.9627072 69.1584964,12.9544199 C69.0041749,12.9461326 68.8498555,12.935083 68.6955335,12.9212707 C68.541212,12.9074585 68.4054111,12.8867405 68.2881261,12.859116 L68.2881261,7.14917127 C68.5165227,7.11602192 68.7819517,7.08839788 69.0844224,7.06629834 C69.386893,7.0441988 69.7171369,7.03314917 70.0751631,7.03314917 C70.3159054,7.03314917 70.5612732,7.05110479 70.8112742,7.08701657 C71.0612758,7.12292836 71.288125,7.19198844 71.4918298,7.2941989 C71.6955345,7.39640935 71.8637428,7.53867311 71.9964594,7.72099448 C72.1291765,7.90331584 72.1955335,8.13812012 72.1955335,8.42541436 Z M70.0473853,12.3701657 C70.2449172,12.3701657 70.4362737,12.3494477 70.6214594,12.308011 C70.8066456,12.2665744 70.9702243,12.2002767 71.1122001,12.109116 C71.2541765,12.0179553 71.3668298,11.906078 71.4501631,11.7734807 C71.533497,11.6408833 71.5751631,11.4834263 71.5751631,11.301105 C71.5751631,11.0745845 71.5242377,10.8922659 71.4223853,10.7541436 C71.320533,10.6160214 71.1878185,10.5082877 71.0242372,10.4309392 C70.8606564,10.3535908 70.677016,10.3011051 70.4733113,10.2734807 C70.2696065,10.2458562 70.0659049,10.2320442 69.8622001,10.2320442 L69.0566446,10.2320442 L69.0566446,12.3121547 C69.099855,12.3232045 69.1615829,12.3314917 69.2418298,12.3370166 C69.3220772,12.3425415 69.4084964,12.3480663 69.501089,12.3535912 C69.5936821,12.3591161 69.6893601,12.3632597 69.7881261,12.3660221 C69.886892,12.3687845 69.9733113,12.3701657 70.0473853,12.3701657 Z M69.5381261,9.6519337 C69.6430649,9.6519337 69.769607,9.64917132 69.9177557,9.64364641 C70.0659049,9.6381215 70.1893601,9.6298343 70.2881261,9.61878453 C70.4362752,9.57458541 70.5751626,9.52071855 70.7047927,9.45718232 C70.8344234,9.39364609 70.9501626,9.31906119 71.052015,9.23342541 C71.1538673,9.14778964 71.2341137,9.04834309 71.2927557,8.93508287 C71.3513982,8.82182265 71.3807187,8.69889567 71.3807187,8.56629834 C71.3807187,8.38397698 71.3421389,8.23342601 71.2649779,8.11464088 C71.1878174,7.99585576 71.0844234,7.90055285 70.9547927,7.82872928 C70.8251626,7.75690571 70.677016,7.70580124 70.5103483,7.67541436 C70.3436811,7.64502749 70.1739296,7.62983425 70.001089,7.62983425 C69.7973843,7.62983425 69.610658,7.63397785 69.4409038,7.64226519 C69.2711502,7.65055253 69.1430649,7.66298333 69.0566446,7.67955801 L69.0566446,9.6519337 L69.5381261,9.6519337 Z M74.0332243,7.15745856 C74.2677932,7.11878435 74.5378524,7.08839788 74.8434095,7.06629834 C75.1489666,7.0441988 75.428285,7.03314917 75.6813725,7.03314917 C75.9653246,7.03314917 76.2353838,7.0607732 76.4915576,7.1160221 C76.747732,7.17127099 76.9730381,7.26243029 77.1674836,7.38950276 C77.361929,7.51657523 77.5177917,7.68231943 77.6350762,7.88674033 C77.7523606,8.09116123 77.8110021,8.33977753 77.8110021,8.63259669 C77.8110021,9.08563762 77.6721147,9.45303725 77.3943354,9.73480663 C77.1165561,10.016576 76.7647078,10.2044194 76.3387799,10.2983425 L76.7832243,10.6049724 L78.3943354,12.9005525 L77.4961873,12.9005525 L75.7091502,10.3977901 L74.8017428,10.2734807 L74.8017428,12.9005525 L74.0332243,12.9005525 L74.0332243,7.15745856 Z M75.699891,7.62983425 L75.449891,7.62983425 C75.3634707,7.62983425 75.2801384,7.63259664 75.199891,7.63812155 C75.1196436,7.64364645 75.0440273,7.64917122 74.9730391,7.65469613 C74.902051,7.66022104 74.8449527,7.66850824 74.8017428,7.67955801 L74.8017428,9.81767956 L75.5239651,9.81767956 C75.949893,9.81767956 76.3017413,9.72375783 76.5795206,9.5359116 C76.8572999,9.34806538 76.9961873,9.0552506 76.9961873,8.65745856 C76.9961873,8.35911455 76.8819908,8.11326064 76.6535947,7.9198895 C76.4251986,7.72651837 76.1073004,7.62983425 75.699891,7.62983425 Z M82.722767,11.2928177 L80.3338781,11.2928177 L79.68573,12.9005525 L78.9264707,12.9005525 L81.3801744,7.00828729 L81.7320263,7.00828729 L84.1949892,12.9005525 L83.3894337,12.9005525 L82.722767,11.2928177 Z M80.5838781,10.6961326 L82.4912855,10.6961326 L81.7690633,8.93093923 L81.5375818,8.05248619 L81.5283226,8.05248619 L81.2968411,8.94751381 L80.5838781,10.6961326 Z M85.3937907,7.15745856 C85.6283596,7.11878435 85.8984187,7.08839788 86.2039758,7.06629834 C86.5095329,7.0441988 86.7888514,7.03314917 87.0419388,7.03314917 C87.325891,7.03314917 87.5959501,7.0607732 87.852124,7.1160221 C88.1082984,7.17127099 88.3336044,7.26243029 88.5280499,7.38950276 C88.7224954,7.51657523 88.878358,7.68231943 88.9956425,7.88674033 C89.112927,8.09116123 89.1715684,8.33977753 89.1715684,8.63259669 C89.1715684,9.08563762 89.0326811,9.45303725 88.7549018,9.73480663 C88.477123,10.016576 88.1252742,10.2044194 87.6993462,10.2983425 L88.1437906,10.6049724 L89.7549018,12.9005525 L88.8567536,12.9005525 L87.0697166,10.3977901 L86.1623092,10.2734807 L86.1623092,12.9005525 L85.3937907,12.9005525 L85.3937907,7.15745856 Z M87.0604573,7.62983425 L86.8104573,7.62983425 C86.7240371,7.62983425 86.6407047,7.63259664 86.5604573,7.63812155 C86.4802099,7.64364645 86.4045936,7.64917122 86.3336055,7.65469613 C86.2626178,7.66022104 86.2055196,7.66850824 86.1623092,7.67955801 L86.1623092,9.81767956 L86.8845314,9.81767956 C87.3104594,9.81767956 87.6623081,9.72375783 87.9400869,9.5359116 C88.2178663,9.34806538 88.3567536,9.0552506 88.3567536,8.65745856 C88.3567536,8.35911455 88.2425571,8.11326064 88.014161,7.9198895 C87.7857649,7.72651837 87.4678668,7.62983425 87.0604573,7.62983425 Z M92.1111111,10.5966851 L89.9722222,7.09944751 L90.8703704,7.09944751 L92.3888889,9.63535912 L92.5462963,10.140884 L92.5555556,10.140884 L92.7222222,9.61878453 L94.1759259,7.09944751 L95,7.09944751 L92.8796296,10.5883978 L92.8796296,12.9005525 L92.1111111,12.9005525 L92.1111111,10.5966851 Z" id="the-Doodle-Library" fill="#666666" fill-rule="nonzero" opacity="0.595278533"></path>
            </g>
        </g>
        <path d="M409.571185,424.144086 C409.797993,426.824404 410.071758,429.502494 410.210307,432.196849 C410.401798,435.769826 410.383985,439.307294 410.366172,442.880271 C410.317186,450.492264 410.143508,458.117573 410.366172,465.729566 C410.495641,469.712096 410.868235,473.684529 411.242237,477.655089 C413.461751,477.546776 415.683055,477.467126 417.907421,477.424454 C422.869196,477.335095 427.808781,477.370839 432.748366,477.107231 C434.146361,477.031276 435.535481,477 436.924601,477 C440.58158,477 444.220807,477.214461 447.899977,477.352967 C453.048151,477.56296 458.493678,477.580832 463.504272,478.889938 C466.952661,479.79693 470.596327,481.646657 472.881939,484.492735 C476.055167,488.437925 478.047866,493.741369 476.41909,498.85716 C475.065475,503.04362 472.571273,506.358831 469.642139,509.571279 C468.772275,510.531886 467.751516,511.367391 466.744072,512.189492 C465.323885,513.360092 463.952518,514.597711 462.412504,515.611934 C461.768982,516.027452 461.081079,516.384887 460.393177,516.742322 C460.197901,519.128202 460.095825,521.531953 459.949369,523.917833 C459.687522,527.863024 459.532189,531.826086 459.447865,535.802552 C459.257028,543.429325 459.257028,555.541909 459.168266,563.186554 C459.132761,566.466021 459.132761,569.732085 458.786591,572.993681 C458.529182,575.455516 458.231831,578.037985 456.913721,580.204935 C455.631115,582.295931 454.437271,583.430788 452.493391,584.864996 C450.034694,586.661108 446.963541,587.183857 444.016655,587.447465 C440.825674,587.724478 389.255165,589.145282 386.547935,589.533993 C386.823096,589.493782 387.093819,589.458038 387.364542,589.417827 C380.427821,590.414177 373.562108,591.951149 366.59432,592.648147 C364.566117,592.85814 362.311571,593.135152 360.265615,592.925159 C358.117584,592.715166 355.934048,592.558788 354.061177,591.303297 C352.290383,590.132697 350.714864,588.841463 349.6586,586.93812 C348.34049,584.61926 347.661463,582.193169 347.248722,579.592828 C346.640705,575.754868 346.05044,571.827549 346.05044,567.935973 C346.05044,565.036281 346.121449,562.158928 346.103697,559.277107 C346.085944,553.710054 345.553375,548.134065 344.874348,542.602756 C344.43054,539.787954 343.862465,536.924005 343.813646,534.07346 C343.778142,532.277348 343.933475,530.289115 344.332902,528.560022 C344.665758,527.076666 345.358099,525.713945 345.961678,524.319948 C346.534191,522.997438 347.683654,521.840241 349.001764,520.960057 C348.788736,520.93325 348.580146,520.901974 348.371556,520.870698 C344.710139,520.397097 341.084226,519.936899 337.46719,519.15501 C335.234835,518.681408 333.11787,518.051429 331.071914,516.938912 C326.944498,514.68707 324.312715,510.688264 322.923596,506.27394 C321.587733,502.083013 321.538914,496.846587 323.860031,492.972884 C325.732902,489.885538 328.209351,487.66944 331.227247,485.748226 C333.153374,484.541882 335.217082,483.567871 337.382866,482.853001 C339.730611,482.066643 342.25588,481.847714 344.696825,481.539427 C349.183725,480.931787 353.639559,480.42691 358.184155,480.25266 C363.110426,480.060539 368.014506,479.676296 372.954091,479.359072 C377.742781,479.064188 382.509281,478.590586 387.293533,478.402933 C389.028752,478.343841 390.773069,478.358018 392.521469,478.384899 C392.465345,477.864963 392.406215,477.345252 392.343811,476.825766 C390.584772,463.883158 390.495707,450.873973 390.30867,437.815965 C390.206244,431.557708 389.355671,425.348275 388.97269,419.107772 C388.7812,416.07629 388.638695,413.058124 388.607523,410.022203 C388.58971,408.304511 388.643149,406.569066 388.527364,404.851374 C388.220089,403.22689 387.854921,401.637914 387.734683,399.933538 C387.605538,398.255793 387.436314,396.586924 387.249277,394.918056 C385.54813,395.006825 383.851436,395.135541 382.154743,395.317519 C378.507519,395.952221 374.846936,396.879864 371.14182,397.052965 C366.964659,397.243819 362.809763,396.467085 358.703853,395.787998 C350.96408,394.505277 343.549395,391.176417 337.862577,385.73484 C335.72501,383.653193 333.738854,381.451707 331.87739,379.125944 C330.015925,376.840126 328.105475,374.585379 326.836295,371.913414 C325.86103,369.836205 324.939204,367.701296 324.244495,365.517564 C321.648242,357.350761 320.886734,348.527062 324.226682,340.449029 C325.197494,338.105511 326.172758,336.387819 327.896172,334.483711 L328.728932,333.547192 C329.356842,332.903613 329.998112,332.299979 330.697275,331.709661 C333.324701,329.490421 336.036739,327.39102 339.203009,325.988461 C342.155524,324.674671 345.250542,323.995583 348.470252,324.000022 C348.866593,324.000022 349.27184,324.00446 349.672634,324.026652 C351.534098,324.133176 353.377749,324.408362 355.225854,324.652478 C357.572724,324.963172 359.901782,325.362635 362.128414,326.197069 C367.28084,328.154439 372.66929,330.355925 377.40311,333.200991 C380.832123,335.24713 383.962768,337.723802 386.63918,340.688707 C388.416032,342.668269 390.117179,344.696654 391.773793,346.773863 C398.556115,355.411145 402.782263,366.036866 405.356249,376.649272 C405.654755,377.868593 405.910456,379.098847 406.134369,380.336501 C406.566787,379.619456 407.014347,378.914983 407.480591,378.226894 C410.50036,373.740404 414.080497,369.566717 417.745135,365.589649 C420.524745,362.55099 423.775777,360.213904 427.596073,358.658826 C431.434159,357.103748 435.552429,356.58092 439.635121,356.142996 C440.520148,356.044686 441.400729,356 442.285757,356 C447.02666,356 451.683063,357.362928 455.948096,359.409554 C461.405027,362.046037 464.407006,367.613932 465.692297,373.320354 C466.301588,376.095364 467.066537,379.01337 466.995379,381.855409 C466.910878,385.506268 466.266009,388.978383 464.495953,392.209192 C459.910708,400.637 451.571878,406.607071 443.802312,411.915786 C441.022702,413.819416 438.22975,415.754327 435.169955,417.188752 C431.41637,418.931512 427.524915,419.910139 423.531172,420.799394 C419.501849,421.706523 415.419158,422.336597 411.456545,423.556529 C410.830369,423.753144 410.204192,423.949759 409.571185,424.144086 Z M446.599619,499.674793 C441.731043,499.607774 436.929039,499.518415 432.038273,499.902658 C427.471487,500.237754 422.891386,500.237754 418.311286,500.327112 C420.579146,502.293006 422.034837,505.183763 422.034837,508.418551 C422.034837,514.213468 417.197327,519.186285 411.392317,519.137138 C407.056311,519.083523 402.826819,519.552656 398.526318,519.905623 C394.070484,520.240719 389.610212,520.62943 385.181006,521.125371 C379.935193,521.898324 374.764828,522.626599 369.452444,522.782976 C367.273346,522.845528 365.116439,522.787444 362.968407,522.635534 C363.895966,523.689968 364.592745,524.882908 365.054306,526.214354 C365.680075,527.594947 366.212645,529.029156 366.474492,530.530384 C366.922738,533.117321 367.131328,535.748937 367.459746,538.349278 L367.042566,535.261932 C368.085515,542.960191 368.706847,550.622708 368.32961,558.387987 C368.169839,561.564692 367.91243,564.741397 367.757097,567.935973 C367.708278,568.887645 367.694964,569.843784 367.712716,570.795455 C373.016224,569.942078 418.444428,571.756062 425.416655,570.902685 C428.936054,570.464827 432.539776,570.219091 436.094679,570.272706 C436.866906,570.281642 437.648008,570.308449 438.424672,570.339725 C438.446863,566.340919 438.269339,562.319773 438.278216,558.352243 C438.295968,550.761214 438.366977,534.234306 438.832976,526.65668 C439.041566,523.497847 439.423241,520.356885 439.716154,517.215924 C439.924744,514.964082 440.115581,512.712241 440.634837,510.514014 C441.242854,507.87793 442.680793,504.64761 444.833262,502.887242 C446.275639,501.685366 447.664758,500.550509 449.297972,499.710537 C448.40148,499.697133 447.500549,499.688197 446.599619,499.674793 Z M354.580131,345.544404 C354.869593,345.668681 355.159055,345.797397 355.452971,345.917236 C355.159055,345.792959 354.869593,345.668681 354.580131,345.544404 Z M350.924001,344.985155 C349.917563,344.896386 348.924485,344.843124 347.913594,344.860878 C347.094194,345.313603 346.310419,345.815151 345.535551,346.352207 C344.836389,346.946963 344.155039,347.559474 343.509316,348.21193 C343.322279,348.868825 343.161961,349.52572 343.019457,350.191492 C342.957111,351.22122 342.957111,352.237632 343.02391,353.271797 C343.527129,355.917132 344.257464,358.518081 345.170384,361.052453 C345.646883,362.020042 346.167915,362.938807 346.773559,363.853134 C348.781981,366.205528 350.870562,368.473592 353.190712,370.528608 C354.237229,371.212134 355.314919,371.820206 356.423782,372.392769 C358.654868,373.133996 360.921579,373.671052 363.237276,374.08383 C365.441642,374.31907 367.628195,374.478855 369.837014,374.367893 C372.789528,373.804206 375.706416,373.031911 378.707916,372.628009 C379.754433,372.477101 380.805404,372.330631 381.856374,372.184161 C381.696057,371.758067 381.531286,371.331973 381.366515,370.90144 C379.665368,367.173117 377.786091,363.586825 375.461487,360.191388 C373.372906,357.594877 371.186353,355.020559 368.692525,352.819072 C364.925064,350.235877 360.765715,348.234123 356.561833,346.40103 C354.713729,345.73082 352.838904,345.313603 350.924001,344.985155 Z M349.378718,344.554623 C349.08035,344.576815 348.786434,344.616761 348.496972,344.670023 C348.790887,344.630077 349.084803,344.594569 349.378718,344.554623 Z M445.470078,380.112649 L445.536789,380.568448 C445.518999,380.416515 445.496762,380.264582 445.470078,380.112649 Z M442.708258,377.386794 C440.849254,377.30189 439.012488,377.404668 437.171274,377.596819 C436.117246,377.797906 435.116586,378.039212 434.102585,378.343078 C433.684531,378.570977 433.275373,378.812282 432.870662,379.071462 C429.984314,381.618573 427.351468,384.53211 424.878727,387.490334 C422.036853,391.476339 419.782034,395.815364 417.473845,400.136515 C420.275692,399.618156 423.05975,399.005956 425.750412,398.080952 C430.268946,395.815364 434.409454,392.714145 438.456566,389.684424 C440.867044,387.669078 443.130758,385.559892 445.163209,383.173651 C445.318867,382.932346 445.470078,382.682103 445.612394,382.431861 C445.630184,382.378237 445.643526,382.320145 445.661315,382.266522 C445.656868,382.150338 445.65242,382.029685 445.647973,381.913501 C445.381131,380.563979 445.083156,379.223395 444.705129,377.909622 C444.046918,377.708534 443.379811,377.534258 442.708258,377.386794 Z M443.544364,375.644034 C443.780075,375.9479 444.020233,376.256234 444.260392,376.569037 C444.046918,376.242828 443.806759,375.934494 443.544364,375.644034 Z" id="potted-seedling" fill="#000000"></path>
    </g>
</svg>