<?xml version="1.0" encoding="UTF-8"?>
<svg width="800px" height="1000px" viewBox="0 0 800 1000" version="1.1" xmlns="http://www.w3.org/2000/svg" xmlns:xlink="http://www.w3.org/1999/xlink">
    <!-- Generator: Sketch 51 (57462) - http://www.bohemiancoding.com/sketch -->
    <title>star_0001_DL</title>
    <desc>Created with Sketch.</desc>
    <defs></defs>
    <g id="star_0001_DL" stroke="none" stroke-width="1" fill="none" fill-rule="evenodd">
        <g id="star_0001" transform="translate(207.000000, 223.000000)">
            <polygon id="Path-103" fill="#FFFFFF" points="203.405983 11.072724 246.294872 148.237358 385.053042 148.237358 271.52363 243.005651 294.229513 390.145895 203.405983 310.341017 81.0465061 390.145895 135.288336 243.005651 0.314479947 179.411139 135.288336 148.237358"></polygon>
            <path d="M356.183897,146.197549 C345.190465,144.505436 334.108733,144.754826 323.039616,144.848348 C317.828616,144.893238 312.60374,145.425686 307.409139,145.201235 C300.42708,144.899473 293.445021,144.440595 286.466746,143.921863 C278.941008,143.363229 271.48591,142.325765 263.989184,141.607521 C261.30106,141.350649 258.644472,141.899308 255.989145,142.159921 C253.752616,142.380631 251.418956,141.081308 251.523655,138.683421 C251.711609,134.362735 249.348936,130.957311 247.869269,127.282546 C244.681616,119.369393 241.900145,111.341521 239.398714,103.197683 C237.19372,96.0189848 234.718779,88.9200915 232.346014,81.7925183 C229.49138,73.209753 226.702341,64.6045427 223.734178,56.0604329 C220.116374,45.6521311 216.34089,35.2962012 212.634786,24.9178262 C211.175302,20.8290732 209.715818,16.7415671 208.258858,12.6515671 C208.103701,12.2163811 207.909439,11.8186037 207.141224,11.4619756 C205.633805,14.6142683 203.977537,17.6917439 202.663119,20.9063841 C199.071805,29.6886616 195.118459,38.3075884 191.143668,46.9240213 C186.917851,56.0803841 163.651768,119.287095 157.994219,127.282546 C155.471343,130.847579 156.626942,134.637064 153.961524,138.119799 C152.626923,139.864284 151.087969,139.301909 149.985472,138.604863 C148.715204,137.799332 147.578648,136.301744 148.745478,134.552271 C151.397021,130.57325 152.637014,123.990595 155.082942,119.905582 C159.336511,112.801701 176.136341,67.7593293 179.05657,61.9335732 C186.316145,47.4477409 192.065779,30.3482988 197.61989,15.0930976 C198.787982,11.8834451 200.290354,8.62765549 202.414616,5.78460671 C202.9974,5.0052622 203.423766,4.08127134 203.776969,3.16850305 C204.76972,0.59354878 206.998681,-0.559881098 209.490021,0.618487805 C211.84891,1.7332622 213.888655,3.0650061 213.868472,6.3419939 C213.84955,9.47059451 215.681158,12.2762348 216.631021,15.2452256 C219.818675,25.2233293 222.979838,35.2114085 226.325171,45.1396341 C228.634864,51.9991128 231.52608,58.6790305 233.570871,65.6083384 C234.585067,69.0474299 235.783433,72.4403841 236.859439,75.8507957 C237.99221,79.4407683 239.603067,82.9122805 240.662675,86.5446494 C243.499648,96.268375 246.891655,105.81254 250.177701,115.389125 C252.324668,121.646326 255.162903,127.630445 257.856073,133.670677 C258.911897,136.039884 261.263217,135.279244 262.929576,135.503695 C272.674184,136.821723 282.510877,137.523756 292.21638,139.052518 C298.151446,139.986485 304.046145,139.326848 309.924446,139.826875 C320.118125,140.693506 330.295407,139.188436 340.46638,139.805677 C348.371812,140.284506 356.326439,140.450351 364.096897,142.269652 C365.609361,142.623787 367.116779,142.691122 368.630505,142.133735 C369.76706,141.713512 370.921276,141.926741 371.973315,142.486622 C373.113655,143.095134 374.240119,143.733573 375.327478,144.429372 C376.928243,145.453119 377.016544,149.278765 375.270714,149.71021 C369.586675,151.115524 366.913688,156.171912 362.679041,159.301759 C355.572099,164.555165 349.408714,170.887183 342.767243,176.676777 C334.125132,184.212104 325.489328,191.761146 316.69206,199.116912 C310.720413,204.112198 304.795439,209.162351 298.628269,213.939421 C291.011707,219.838747 283.665093,226.080985 276.268021,232.255887 C274.156374,234.016582 272.334858,236.112707 270.273668,237.938244 C269.121975,238.959497 268.997093,239.748817 269.694668,241.197774 C272.508936,247.033506 275.036858,252.97897 276.283158,259.397027 C277.89906,267.725415 279.803831,276.00143 281.378106,284.337299 C283.792498,297.10982 285.765387,309.958405 287.639884,322.81946 C289.717472,337.078348 291.879576,351.323518 293.359243,365.664704 C294.054295,372.405723 295.149224,379.105591 296.044844,385.825412 C296.936681,392.522787 297.79572,399.226396 300.862276,405.398805 C301.604001,406.888912 301.134746,408.12464 299.643727,408.518677 C297.018675,409.210735 294.466786,408.512442 292.041041,407.426348 C290.054276,401.576899 286.272485,397.647756 283.015452,393.411863 C278.972544,388.155963 274.700054,383.07339 270.633178,377.834948 C267.778544,374.156442 265.260714,370.232287 262.226956,366.674735 C259.188152,363.112195 256.211158,359.493543 253.328773,355.805061 C250.331596,351.969439 247.268825,348.172473 244.223714,344.384235 C240.83423,340.168293 237.430871,335.96482 234.240694,331.604232 C230.283563,326.196204 226.195243,320.881698 222.540858,315.25296 C219.160204,310.045692 215.483112,305.035442 211.610498,300.159863 C209.609858,297.638527 207.44523,295.238146 205.565688,292.633265 C204.227302,290.776555 202.261982,289.660534 200.717982,288.069424 C200.151596,287.488345 199.628099,287.70282 199.088204,288.129277 C197.882269,289.07696 196.629661,289.95232 195.611681,291.131936 C187.1714,300.920503 160.103539,334.01358 154.209905,339.020895 C142.468563,348.996504 115.10533,372.688578 93.6608852,382.664187 C85.7876816,386.326675 78.7305061,390.617242 73.2281139,397.76352 C72.4069179,398.83091 71.9010813,400.004291 71.3712773,401.157721 C70.4113231,403.25634 68.8307414,404.613023 66.6270094,404.726495 C64.2971335,404.848697 61.2810355,402.344818 60.5670616,400.297325 C60.213859,399.286047 60.305944,398.355822 60.9909048,397.570242 C63.4065584,394.79827 75.2199244,371.192236 75.7774799,368.134712 C77.016212,361.33384 116.446361,268.306697 120.374478,259.397027 C124.302596,250.487358 129.089753,238.716341 128.594008,231.920457 C128.436328,229.761985 122.267897,228.520021 120.374478,227.816741 C112.937041,225.051003 105.740537,221.686729 98.1807399,219.220259 C86.059583,215.266177 74.4114654,210.178616 62.7595634,205.037436 C54.9323412,201.583381 46.8263412,198.65928 38.5601386,196.202787 C30.4528771,193.793677 22.1803673,192.449463 13.8195569,191.778604 C11.0519621,191.556646 8.80786405,190.559085 6.46789673,189.565265 C4.2338902,188.616335 4.00178562,185.636122 5.93809281,183.920317 C6.97877908,182.996326 8.12542614,182.293046 9.63662876,181.971332 C11.8126092,181.511207 13.5874523,179.999902 15.5363739,178.939994 C28.5241386,171.884744 41.0615699,163.950393 55.067315,158.865326 C66.9639359,154.545887 78.817668,150.014466 91.2226484,147.34225 C100.369335,145.373314 109.605583,143.627582 119.078982,143.880713 C121.751969,143.953037 124.438831,143.613866 127.115603,143.418095 C130.048446,143.202372 129.440433,145.328424 129.638478,146.995598 C129.883197,149.055561 128.553642,148.935854 127.149661,148.943335 C114.448243,149.011918 101.917119,150.462122 89.6382824,153.734122 C74.8113412,157.684463 60.5142039,163.045107 46.5917137,169.454436 C39.0912039,172.907244 32.3097137,177.570841 25.0160797,181.356585 C22.654668,182.583585 20.1608052,183.62853 18.0680797,185.582503 C21.1018379,186.939186 24.360132,186.81075 27.4128118,187.581366 C35.1328118,189.530351 42.8301059,191.484323 50.2385307,194.525637 C55.4053804,196.646701 60.8270405,198.196662 65.8803608,200.616994 C74.733132,204.855381 83.876034,208.432884 93.0807464,211.779701 C98.6575634,213.807244 104.387014,215.535518 109.994106,217.516924 C114.750988,219.199061 119.645367,220.499631 124.302596,222.469814 C125.415184,222.939915 126.611027,223.401287 127.869942,223.320235 C131.670655,223.075832 137.778537,226.768055 135.288459,231.383021 C134.283093,233.245966 127.436941,253.389949 127.115603,255.475163 C124.809694,270.438578 84.8623558,354.854681 83.2716826,363.998575 C81.8361662,372.243416 75.3511139,380.791267 73.2281139,388.898943 C74.3205192,390.105992 131.12768,351.711424 140.085707,344.0087 C151.687029,334.03309 167.83821,315.231838 172.229668,309.681582 C175.654349,305.353212 187.771722,292.118274 194.575918,285.710192 C195.733918,284.61911 192.517374,282.989345 193.021949,281.330899 C193.91757,278.390588 197.77757,277.765866 200.612021,279.223552 C203.543603,280.731116 204.630962,283.615314 206.729995,285.710192 C214.675792,293.640802 220.80638,302.96675 226.954629,312.262771 C230.535851,317.679527 234.308812,322.966601 238.279818,328.112768 C242.170093,333.152945 245.988465,338.250482 249.983439,343.207113 C257.367897,352.36971 264.88859,361.426317 272.295753,370.57021 C276.946675,376.313668 281.496681,382.139424 286.092099,387.926524 C287.453191,389.639835 288.819328,391.350652 290.587864,393.568979 C290.360805,390.861848 290.26872,388.779439 289.99625,386.719476 C289.195237,380.639341 288.254204,374.576665 287.501125,368.491543 C286.855269,363.288015 286.372139,358.064537 285.85621,352.847293 C285.207831,346.302046 284.210034,339.802936 282.764426,333.393607 C281.984858,329.934564 282.219485,326.438113 281.751492,322.972835 C281.303681,319.653451 280.570786,316.408884 279.989263,313.126909 C279.033093,307.748808 278.274969,302.33704 277.400792,296.945223 C276.976949,294.33286 276.526616,291.722991 276.003119,289.129332 C274.525975,281.791024 272.99459,274.463939 271.504831,267.128125 C269.944433,259.445659 267.579237,252.020064 264.296975,244.883762 C263.823936,243.85378 263.025446,243.084412 261.999897,242.727784 C257.645413,241.212738 256.703119,236.688799 261.653001,233.934284 C265.801871,231.626177 269.080348,228.325497 272.826818,225.578463 C281.98738,218.85989 291.011707,211.950534 299.947733,204.938927 C304.274465,201.543479 308.55074,198.068226 312.610047,194.333607 C316.318675,190.921948 320.347707,187.850707 324.155988,184.541299 C328.785465,180.51614 333.348086,176.416165 337.910707,172.317436 C343.891184,166.943076 349.85274,161.550012 355.80042,156.140738 C358.609642,153.586982 361.363361,150.97836 364.142308,148.394677 C361.329302,147.146479 358.769844,146.595326 356.183897,146.197549 Z" id="Fill-131" stroke="#000000" stroke-width="3" fill="#000000"></path>
        </g>
    </g>
</svg>