<?xml version="1.0" encoding="UTF-8" standalone="no"?>
<svg width="800px" height="1000px" viewBox="0 0 800 1000" version="1.1" xmlns="http://www.w3.org/2000/svg" xmlns:xlink="http://www.w3.org/1999/xlink">
    <!-- Generator: Sketch 50.2 (55047) - http://www.bohemiancoding.com/sketch -->
    <title>sun0001_DL</title>
    <desc>Created with Sketch.</desc>
    <defs></defs>
    <g id="sun0001_DL" stroke="none" stroke-width="1" fill="none" fill-rule="evenodd">
        <g id="logo-footer" transform="translate(50.000000, 907.000000)">
            <g id="logo" stroke-width="1" fill="#000000">
                <path d="M22.6934388,15.0316664 L22.6934618,15.0316568 C24.8540713,14.125507 27.8150617,14.1839247 30.9241771,14.9082707 C36.9845962,16.3204451 41.9619502,21.5064706 41.7115946,27.0189937 C41.2068812,38.153553 27.364354,46.2112467 18.9772966,38.232092 C14.9642137,34.4140282 14.2194926,29.7032983 16.2924593,24.079381 C16.5230095,23.4556991 17.0218953,22.3638417 17.504613,21.609055 C17.8990211,20.9923509 18.2694725,20.5968403 18.6858348,20.461781 C19.3399419,20.2496022 19.8246592,20.6931146 20.0757675,21.546582 C20.1972365,21.9595166 20.0384374,22.2974069 19.6891545,22.7113641 C19.6345871,22.7760354 19.5832938,22.8337164 19.4944641,22.9315608 C19.2600186,23.1897983 19.1811818,23.2867499 19.1413061,23.3702534 C18.5369963,24.6368708 18.0271956,26.2160344 17.6275809,27.9407514 C16.4561885,32.9977698 18.8129728,37.4217163 23.802912,38.8960497 C29.1341919,40.4715099 35.2467476,37.4833282 37.5113922,32.4534374 C40.079836,26.7508533 39.7580937,22.4471852 35.6756452,19.1828931 C31.0107515,15.4529094 24.2860993,15.4389598 20.8518667,19.712373 L20.615264,20.0067914 L20.2673823,19.8596814 C19.0047929,19.3257653 19.026203,18.2039119 19.937096,17.0846287 C20.6022272,16.2673318 21.7434415,15.4301465 22.6934388,15.0316664 Z" id="Fill-4" stroke="#000000" stroke-linecap="round"></path>
                <g id="Group-132" transform="translate(22.214577, 0.000813)">
                    <path d="M7.97488966,7.4513341 C8.05946614,7.04580446 8.16038126,6.43751001 8.31511778,5.84805164 C8.64765713,4.5705225 8.88408684,3.29520937 8.88024245,1.94011991 C8.87928136,1.34512152 8.59191354,0.405533734 9.47323892,0.190580869 C10.2276996,0.00665212852 11.0302151,-0.0952842818 11.607834,0.709126956 C11.9490232,1.18224486 12.2892513,1.68195487 12.5122257,2.23374109 C13.2964803,4.18050493 12.2411965,7.98871626 10.650582,9.09893673 C9.44536713,9.93991211 8.00564474,9.16430899 7.97488966,7.4513341" id="Fill-103"></path>
                    <path d="M3.80382745,4.09164297 C3.6856126,5.05228284 3.53568156,6.0107067 3.45783276,6.97688659 C3.35595654,8.23668766 2.54479119,8.79179789 1.72497597,9.24607972 C1.01664794,9.64052931 0.348685949,9.47543664 0.1756886,8.39291629 C-0.218360918,5.92871437 0.142050227,3.47448449 0.366946781,1.03687468 C0.469784094,-0.0877498515 1.84319083,-0.334834846 2.77929871,0.479548432 C3.60295831,1.19753532 3.85572666,2.12825907 3.80382745,4.09164297" id="Fill-107"></path>
                </g>
                <path d="M20.2634362,30.3053657 C16.5080524,32.7713726 11.5871517,36.3128002 7.87403308,38.8239106 C6.7950284,39.5539578 5.96613752,39.9141475 4.97166316,40.7281081 C4.02069706,41.5064055 2.93469704,42.0220626 2.14036065,41.3224341 C1.32364858,40.6028761 0.441341274,40.2694166 1.12877167,39.032742 C1.7403734,37.9313777 2.4580647,37.848449 3.75709683,37.2946201 C6.32284067,36.2005983 10.2382439,33.2542987 12.5155902,31.7585412 C13.2154515,31.298066 14.453267,30.3287667 15.0586532,29.7843781 C16.647326,28.3547025 16.2987261,27.948748 14.5086723,26.5767629 C11.3537024,24.1569083 7.45589768,21.4520095 4.27606592,19.0552311 C3.46184004,18.4426628 2.6239954,17.850024 1.85327777,17.2007436 C-0.250035497,15.4312184 0.12466323,13.523236 3.0198267,12.803678 C3.68612452,12.6379489 4.17963243,12.8215096 4.53018464,13.3029631 C7.44896688,17.3171735 12.714215,20.4522663 16.8387974,23.4112648 C18.2472217,24.4213732 19.3299145,25.5110619 21.3089184,25.9610478 C22.3767353,26.2033479 22.0870946,27.1903801 22.2002161,28.3525816 C22.3531165,29.0941668 21.2566675,29.6529385 20.2634362,30.3053657 Z" id="chevron" transform="translate(11.366064, 27.198133) rotate(-2.000000) translate(-11.366064, -27.198133) "></path>
            </g>
            <path d="M66.1285417,20.732 L62.2045417,20.732 L62.2045417,32 L60.7105417,32 L60.7105417,20.732 L56.7865417,20.732 L56.7865417,19.4 L66.1285417,19.4 L66.1285417,20.732 Z M76.1810123,26.222 L70.1330123,26.222 L70.1330123,32 L68.6390123,32 L68.6390123,19.4 L70.1330123,19.4 L70.1330123,24.89 L76.1810123,24.89 L76.1810123,19.4 L77.6750123,19.4 L77.6750123,32 L76.1810123,32 L76.1810123,26.222 Z M81.3914829,19.4 L88.2494829,19.4 L88.2494829,20.732 L82.8854829,20.732 L82.8854829,24.854 L87.7994829,24.854 L87.7994829,26.186 L82.8854829,26.186 L82.8854829,30.668 L88.3394829,30.668 L88.3394829,32 L81.3914829,32 L81.3914829,19.4 Z M97.158424,19.4 C97.3864252,19.3639998 97.6414226,19.3370001 97.923424,19.319 C98.2054255,19.3009999 98.4994225,19.289 98.805424,19.283 C99.1114256,19.277 99.4114226,19.271 99.705424,19.265 C99.9994255,19.259 100.272423,19.256 100.524424,19.256 C101.532429,19.256 102.40542,19.4119984 103.143424,19.724 C103.881428,20.0360016 104.490422,20.4709972 104.970424,21.029 C105.450426,21.5870028 105.807423,22.2559961 106.041424,23.036 C106.275425,23.8160039 106.392424,24.6739953 106.392424,25.61 C106.392424,26.4620043 106.281425,27.2809961 106.059424,28.067 C105.837423,28.8530039 105.486426,29.548997 105.006424,30.155 C104.526422,30.761003 103.902428,31.2469982 103.134424,31.613 C102.36642,31.9790018 101.43643,32.162 100.344424,32.162 C100.152423,32.162 99.9034256,32.159 99.597424,32.153 C99.2914225,32.147 98.9764257,32.1350001 98.652424,32.117 C98.3284224,32.0989999 98.0284254,32.0840001 97.752424,32.072 C97.4764227,32.0599999 97.2784246,32.0420001 97.158424,32.018 L97.158424,19.4 Z M100.560424,20.588 L100.047424,20.588 C99.8614231,20.588 99.6784249,20.5939999 99.498424,20.606 C99.3184231,20.6180001 99.1534248,20.6299999 99.003424,20.642 C98.8534233,20.6540001 98.7364245,20.6659999 98.652424,20.678 L98.652424,30.758 C98.7124243,30.7700001 98.8264232,30.779 98.994424,30.785 C99.1624249,30.791 99.3364231,30.797 99.516424,30.803 C99.6964249,30.809 99.8704232,30.815 100.038424,30.821 C100.206425,30.827 100.320424,30.83 100.380424,30.83 C101.220428,30.83 101.925421,30.6860014 102.495424,30.398 C103.065427,30.1099986 103.521422,29.7230024 103.863424,29.237 C104.205426,28.7509976 104.448423,28.1930031 104.592424,27.563 C104.736425,26.9329968 104.808424,26.2820034 104.808424,25.61 C104.808424,25.0219971 104.742425,24.431003 104.610424,23.837 C104.478423,23.242997 104.250426,22.7060024 103.926424,22.226 C103.602422,21.7459976 103.167427,21.3530015 102.621424,21.047 C102.075421,20.7409985 101.388428,20.588 100.560424,20.588 Z M109.064895,25.7 C109.064895,23.5999895 109.50889,21.9890056 110.396895,20.867 C111.284899,19.7449944 112.550886,19.184 114.194895,19.184 C115.082899,19.184 115.850891,19.3399984 116.498895,19.652 C117.146898,19.9640016 117.683893,20.4049971 118.109895,20.975 C118.535897,21.5450028 118.850894,22.228996 119.054895,23.027 C119.258896,23.825004 119.360895,24.7159951 119.360895,25.7 C119.360895,27.8000105 118.913899,29.4109944 118.019895,30.533 C117.12589,31.6550056 115.850903,32.216 114.194895,32.216 C113.31889,32.216 112.559898,32.0600016 111.917895,31.748 C111.275891,31.4359984 110.741897,30.9950028 110.315895,30.425 C109.889893,29.8549971 109.574896,29.171004 109.370895,28.373 C109.166894,27.574996 109.064895,26.6840049 109.064895,25.7 Z M110.648895,25.7 C110.648895,26.3960035 110.717894,27.0559969 110.855895,27.68 C110.993895,28.3040031 111.206893,28.8529976 111.494895,29.327 C111.782896,29.8010024 112.151892,30.1789986 112.601895,30.461 C113.051897,30.7430014 113.582892,30.884 114.194895,30.884 C115.3109,30.884 116.186891,30.4610042 116.822895,29.615 C117.458898,28.7689958 117.776895,27.4640088 117.776895,25.7 C117.776895,25.0159966 117.707895,24.3590031 117.569895,23.729 C117.431894,23.0989968 117.215896,22.5470024 116.921895,22.073 C116.627893,21.5989976 116.255897,21.2210014 115.805895,20.939 C115.355892,20.6569986 114.818898,20.516 114.194895,20.516 C113.090889,20.516 112.223898,20.9389958 111.593895,21.785 C110.963891,22.6310042 110.648895,23.9359912 110.648895,25.7 Z M122.033365,25.7 C122.033365,23.5999895 122.477361,21.9890056 123.365365,20.867 C124.25337,19.7449944 125.519357,19.184 127.163365,19.184 C128.05137,19.184 128.819362,19.3399984 129.467365,19.652 C130.115368,19.9640016 130.652363,20.4049971 131.078365,20.975 C131.504367,21.5450028 131.819364,22.228996 132.023365,23.027 C132.227366,23.825004 132.329365,24.7159951 132.329365,25.7 C132.329365,27.8000105 131.88237,29.4109944 130.988365,30.533 C130.094361,31.6550056 128.819374,32.216 127.163365,32.216 C126.287361,32.216 125.528368,32.0600016 124.886365,31.748 C124.244362,31.4359984 123.710367,30.9950028 123.284365,30.425 C122.858363,29.8549971 122.543366,29.171004 122.339365,28.373 C122.135364,27.574996 122.033365,26.6840049 122.033365,25.7 Z M123.617365,25.7 C123.617365,26.3960035 123.686365,27.0559969 123.824365,27.68 C123.962366,28.3040031 124.175364,28.8529976 124.463365,29.327 C124.751367,29.8010024 125.120363,30.1789986 125.570365,30.461 C126.020367,30.7430014 126.551362,30.884 127.163365,30.884 C128.279371,30.884 129.155362,30.4610042 129.791365,29.615 C130.427368,28.7689958 130.745365,27.4640088 130.745365,25.7 C130.745365,25.0159966 130.676366,24.3590031 130.538365,23.729 C130.400365,23.0989968 130.184367,22.5470024 129.890365,22.073 C129.596364,21.5989976 129.224367,21.2210014 128.774365,20.939 C128.324363,20.6569986 127.787368,20.516 127.163365,20.516 C126.05936,20.516 125.192368,20.9389958 124.562365,21.785 C123.932362,22.6310042 123.617365,23.9359912 123.617365,25.7 Z M135.523836,19.4 C135.751837,19.3639998 136.006834,19.3370001 136.288836,19.319 C136.570837,19.3009999 136.864834,19.289 137.170836,19.283 C137.476837,19.277 137.776834,19.271 138.070836,19.265 C138.364837,19.259 138.637835,19.256 138.889836,19.256 C139.897841,19.256 140.770832,19.4119984 141.508836,19.724 C142.24684,20.0360016 142.855833,20.4709972 143.335836,21.029 C143.815838,21.5870028 144.172835,22.2559961 144.406836,23.036 C144.640837,23.8160039 144.757836,24.6739953 144.757836,25.61 C144.757836,26.4620043 144.646837,27.2809961 144.424836,28.067 C144.202835,28.8530039 143.851838,29.548997 143.371836,30.155 C142.891833,30.761003 142.26784,31.2469982 141.499836,31.613 C140.731832,31.9790018 139.801841,32.162 138.709836,32.162 C138.517835,32.162 138.268837,32.159 137.962836,32.153 C137.656834,32.147 137.341837,32.1350001 137.017836,32.117 C136.693834,32.0989999 136.393837,32.0840001 136.117836,32.072 C135.841834,32.0599999 135.643836,32.0420001 135.523836,32.018 L135.523836,19.4 Z M138.925836,20.588 L138.412836,20.588 C138.226835,20.588 138.043837,20.5939999 137.863836,20.606 C137.683835,20.6180001 137.518837,20.6299999 137.368836,20.642 C137.218835,20.6540001 137.101836,20.6659999 137.017836,20.678 L137.017836,30.758 C137.077836,30.7700001 137.191835,30.779 137.359836,30.785 C137.527837,30.791 137.701835,30.797 137.881836,30.803 C138.061837,30.809 138.235835,30.815 138.403836,30.821 C138.571837,30.827 138.685836,30.83 138.745836,30.83 C139.58584,30.83 140.290833,30.6860014 140.860836,30.398 C141.430839,30.1099986 141.886834,29.7230024 142.228836,29.237 C142.570838,28.7509976 142.813835,28.1930031 142.957836,27.563 C143.101837,26.9329968 143.173836,26.2820034 143.173836,25.61 C143.173836,25.0219971 143.107837,24.431003 142.975836,23.837 C142.843835,23.242997 142.615837,22.7060024 142.291836,22.226 C141.967834,21.7459976 141.532839,21.3530015 140.986836,21.047 C140.440833,20.7409985 139.75384,20.588 138.925836,20.588 Z M155.404306,32 L147.952306,32 L147.952306,19.4 L149.446306,19.4 L149.446306,30.668 L155.404306,30.668 L155.404306,32 Z M157.914777,19.4 L164.772777,19.4 L164.772777,20.732 L159.408777,20.732 L159.408777,24.854 L164.322777,24.854 L164.322777,26.186 L159.408777,26.186 L159.408777,30.668 L164.862777,30.668 L164.862777,32 L157.914777,32 L157.914777,19.4 Z M181.133718,32 L173.681718,32 L173.681718,19.4 L175.175718,19.4 L175.175718,30.668 L181.133718,30.668 L181.133718,32 Z M183.986189,19.4 L185.480189,19.4 L185.480189,32 L183.986189,32 L183.986189,19.4 Z M197.134659,22.28 C197.134659,22.5800015 197.08666,22.8859984 196.990659,23.198 C196.894659,23.5100016 196.75066,23.8009986 196.558659,24.071 C196.366658,24.3410013 196.120661,24.577999 195.820659,24.782 C195.520658,24.986001 195.166661,25.1419995 194.758659,25.25 L194.758659,25.322 C195.118661,25.3820003 195.463658,25.4839993 195.793659,25.628 C196.123661,25.7720007 196.414658,25.9699987 196.666659,26.222 C196.918661,26.4740013 197.122659,26.7799982 197.278659,27.14 C197.43466,27.5000018 197.512659,27.9259975 197.512659,28.418 C197.512659,29.0660032 197.377661,29.6269976 197.107659,30.101 C196.837658,30.5750024 196.483662,30.9619985 196.045659,31.262 C195.607657,31.5620015 195.106662,31.7839993 194.542659,31.928 C193.978657,32.0720007 193.402662,32.144 192.814659,32.144 L192.094659,32.144 C191.818658,32.144 191.530661,32.1350001 191.230659,32.117 C190.930658,32.0989999 190.630661,32.0750002 190.330659,32.045 C190.030658,32.0149999 189.766661,31.9700003 189.538659,31.91 L189.538659,19.508 C189.982662,19.4359996 190.498656,19.3760002 191.086659,19.328 C191.674662,19.2799998 192.316656,19.256 193.012659,19.256 C193.480662,19.256 193.957657,19.2949996 194.443659,19.373 C194.929662,19.4510004 195.370657,19.6009989 195.766659,19.823 C196.162661,20.0450011 196.489658,20.353998 196.747659,20.75 C197.005661,21.146002 197.134659,21.6559969 197.134659,22.28 Z M192.958659,30.848 C193.342661,30.848 193.714658,30.8030004 194.074659,30.713 C194.434661,30.6229995 194.752658,30.479001 195.028659,30.281 C195.304661,30.082999 195.523659,29.8400014 195.685659,29.552 C195.84766,29.2639986 195.928659,28.922002 195.928659,28.526 C195.928659,28.0339975 195.82966,27.6380015 195.631659,27.338 C195.433658,27.0379985 195.175661,26.8040008 194.857659,26.636 C194.539658,26.4679992 194.182661,26.3540003 193.786659,26.294 C193.390657,26.2339997 192.994661,26.204 192.598659,26.204 L191.032659,26.204 L191.032659,30.722 C191.11666,30.7460001 191.236659,30.7639999 191.392659,30.776 C191.54866,30.7880001 191.716659,30.7999999 191.896659,30.812 C192.07666,30.8240001 192.262658,30.833 192.454659,30.839 C192.64666,30.845 192.814659,30.848 192.958659,30.848 Z M191.968659,24.944 C192.17266,24.944 192.418658,24.9380001 192.706659,24.926 C192.994661,24.9139999 193.234658,24.8960001 193.426659,24.872 C193.714661,24.7759995 193.984658,24.6590007 194.236659,24.521 C194.488661,24.3829993 194.713658,24.2210009 194.911659,24.035 C195.10966,23.8489991 195.265659,23.6330012 195.379659,23.387 C195.49366,23.1409988 195.550659,22.8740014 195.550659,22.586 C195.550659,22.189998 195.47566,21.8630013 195.325659,21.605 C195.175659,21.3469987 194.974661,21.1400008 194.722659,20.984 C194.470658,20.8279992 194.182661,20.7170003 193.858659,20.651 C193.534658,20.5849997 193.204661,20.552 192.868659,20.552 C192.472657,20.552 192.109661,20.5609999 191.779659,20.579 C191.449658,20.5970001 191.20066,20.6239998 191.032659,20.66 L191.032659,24.944 L191.968659,24.944 Z M200.70713,19.526 C201.163132,19.4419996 201.688127,19.3760002 202.28213,19.328 C202.876133,19.2799998 203.419128,19.256 203.91113,19.256 C204.463133,19.256 204.988128,19.3159994 205.48613,19.436 C205.984133,19.5560006 206.422128,19.7539986 206.80013,20.03 C207.178132,20.3060014 207.481129,20.6659978 207.70913,21.11 C207.937131,21.5540022 208.05113,22.0939968 208.05113,22.73 C208.05113,23.7140049 207.781133,24.5119969 207.24113,25.124 C206.701127,25.7360031 206.017134,26.143999 205.18913,26.348 L206.05313,27.014 L209.18513,32 L207.43913,32 L203.96513,26.564 L202.20113,26.294 L202.20113,32 L200.70713,32 L200.70713,19.526 Z M203.94713,20.552 L203.46113,20.552 C203.293129,20.552 203.131131,20.5579999 202.97513,20.57 C202.819129,20.5820001 202.672131,20.5939999 202.53413,20.606 C202.396129,20.6180001 202.28513,20.6359999 202.20113,20.66 L202.20113,25.304 L203.60513,25.304 C204.433134,25.304 205.117127,25.100002 205.65713,24.692 C206.197133,24.283998 206.46713,23.6480043 206.46713,22.784 C206.46713,22.1359968 206.245132,21.6020021 205.80113,21.182 C205.357128,20.7619979 204.739134,20.552 203.94713,20.552 Z M217.599601,28.508 L212.955601,28.508 L211.695601,32 L210.219601,32 L214.989601,19.202 L215.673601,19.202 L220.461601,32 L218.895601,32 L217.599601,28.508 Z M213.441601,27.212 L217.149601,27.212 L215.745601,23.378 L215.295601,21.47 L215.277601,21.47 L214.827601,23.414 L213.441601,27.212 Z M222.792071,19.526 C223.248073,19.4419996 223.773068,19.3760002 224.367071,19.328 C224.961074,19.2799998 225.504069,19.256 225.996071,19.256 C226.548074,19.256 227.073069,19.3159994 227.571071,19.436 C228.069074,19.5560006 228.507069,19.7539986 228.885071,20.03 C229.263073,20.3060014 229.56607,20.6659978 229.794071,21.11 C230.022072,21.5540022 230.136071,22.0939968 230.136071,22.73 C230.136071,23.7140049 229.866074,24.5119969 229.326071,25.124 C228.786069,25.7360031 228.102075,26.143999 227.274071,26.348 L228.138071,27.014 L231.270071,32 L229.524071,32 L226.050071,26.564 L224.286071,26.294 L224.286071,32 L222.792071,32 L222.792071,19.526 Z M226.032071,20.552 L225.546071,20.552 C225.37807,20.552 225.216072,20.5579999 225.060071,20.57 C224.90407,20.5820001 224.757072,20.5939999 224.619071,20.606 C224.481071,20.6180001 224.370072,20.6359999 224.286071,20.66 L224.286071,25.304 L225.690071,25.304 C226.518075,25.304 227.202069,25.100002 227.742071,24.692 C228.282074,24.283998 228.552071,23.6480043 228.552071,22.784 C228.552071,22.1359968 228.330073,21.6020021 227.886071,21.182 C227.442069,20.7619979 226.824075,20.552 226.032071,20.552 Z M235.850542,26.996 L231.692542,19.4 L233.438542,19.4 L236.390542,24.908 L236.696542,26.006 L236.714542,26.006 L237.038542,24.872 L239.864542,19.4 L241.466542,19.4 L237.344542,26.978 L237.344542,32 L235.850542,32 L235.850542,26.996 Z" id="the-Doodle-Library" fill="#666666" opacity="0.739717371"></path>
        </g>
        <g id="Name" transform="translate(309.000000, 921.000000)" fill="#000000" font-family="OpenSans-Regular, Open Sans" font-size="18" font-weight="normal" letter-spacing="0.654545426">
            <text id="Griffin">
                <tspan x="0" y="18">sun</tspan>
            </text>
        </g>
        <g id="sun0001" transform="translate(219.500000, 269.829826)" fill="#000000">
            <path d="M197.737318,88.3161968 C201.686997,77.4667267 210.259675,76.6823441 219.464023,79.1882038 C254.157338,88.6493859 284.845442,130.679802 283.651515,166.934941 C283.43633,173.53625 282.506177,180.151442 281.430254,186.676395 C274.905301,226.09683 248.04193,251.41226 208.559022,256.118556 C187.262685,258.652182 166.604961,257.069534 146.807976,248.462148 C112.808805,233.662999 95.4274401,202.704179 100.335038,166.122793 C101.223542,159.556191 102.632654,152.968765 102.639596,146.38828 C102.66042,120.295409 115.738092,103.399945 137.881284,90.9400609 C148.154615,85.1578418 158.289117,82.665865 169.367654,83.4016576 C179.141201,84.0472114 188.824509,86.1643505 198.459227,87.7053501 C193.870936,101.116211 182.362029,104.885413 170.568523,108.675439 C137.742456,119.233368 123.456973,143.431227 121.450897,176.43083 C121.312068,178.64515 121.256537,180.86641 121.083001,183.080729 C119.493411,203.474679 129.280841,216.732828 147.127282,225.201385 C167.208866,234.72504 188.73427,234.634801 209.107396,230.011802 C234.901785,224.146286 261.251489,206.535854 263.27839,166.948824 C264.701385,139.162241 254.754302,108.987804 217.888317,98.3257526 C210.537332,96.2016721 202.28396,96.0211946 197.737318,88.3161968" id="Fill-406"></path>
            <path d="M25.3334778,188.746332 C22.7512622,188.468675 14.9490842,188.586679 7.82716723,186.441774 C4.61328072,185.476914 1.76729051,180.347191 0.51088995,176.522457 C-1.07869971,171.71204 2.93345235,167.762361 6.84842425,166.672555 C17.3369394,163.75715 28.0614635,161.258232 38.855402,159.960183 C49.5799261,158.669075 58.1595454,172.6769 54.1126861,183.311185 C52.7243982,186.983207 49.8437008,188.357612 46.6922872,188.621386 C41.2849058,189.07258 35.80811,188.746332 25.3334778,188.746332" id="Fill-452"></path>
            <path d="M48.605348,259.206109 C45.3359299,258.456433 42.9133675,258.44255 41.1224761,257.366627 C38.3944904,255.728447 35.3819056,253.791786 33.8270232,251.188746 C31.897303,247.947094 34.2573924,244.580495 36.9090223,242.775721 C43.2604395,238.472029 49.7090369,234.133629 56.6227106,230.891977 C67.0209871,226.019086 76.3572233,233.793498 74.7121021,245.85772 C74.31644,248.724535 72.2062424,252.840809 69.9086259,253.680723 C62.724236,256.304587 55.0747696,257.62346 48.605348,259.206109" id="Fill-468"></path>
            <path d="M338.030752,173.157247 C332.047231,172.372865 325.397332,172.081324 319.066739,170.512559 C313.055453,169.020149 309.876273,164.147259 310.63289,157.983261 C311.236796,153.054839 315.269772,150.55592 320.017717,150.444857 C332.193002,150.153317 344.333579,151.104294 355.849427,155.199743 C358.084571,155.984126 359.778282,160.1004 360.458543,162.981097 C361.381755,166.889128 357.917976,169.124271 354.919275,169.98501 C349.671546,171.505185 344.153102,172.067441 338.030752,173.157247" id="Fill-470"></path>
            <path d="M202.984352,22.4842783 C202.984352,19.1940359 202.88023,15.9037936 203.012117,12.6274341 C203.227302,7.15757975 203.289775,0.299437483 210.189566,0.132842934 C215.916254,-0.00598585733 219.116257,5.77623328 220.96268,11.1627904 C223.801729,19.4369863 227.314097,27.676475 225.564855,36.7211708 C224.509756,42.2118494 222.517563,47.6955867 215.791308,47.8621812 C209.738372,48.0218343 205.219495,44.2318084 203.692379,38.6786567 C202.269383,33.5489329 202.581748,27.9333083 202.137496,22.5328683 C202.422095,22.5189855 202.706694,22.4981611 202.984352,22.4842783" id="Fill-472"></path>
            <path d="M330.49929,245.137199 C329.062412,248.56627 326.022062,250.634819 322.905355,249.690783 C308.536576,245.324618 298.582551,235.085994 290.745666,222.938475 C288.441108,219.377517 289.41291,213.921545 293.924845,211.43651 C296.479295,210.041281 301.310537,208.777939 302.775181,210.075988 C312.555669,218.773612 323.828567,226.256483 329.465016,238.771899 C330.318813,240.687736 330.179984,243.040884 330.49929,245.137199" id="Fill-474"></path>
            <path d="M268.222777,298.035133 C267.056615,300.117565 266.181994,303.990888 263.842729,305.358352 C259.448798,307.919743 254.652263,305.15705 252.354646,301.707155 C246.162882,292.412567 242.837933,281.924052 243.150297,270.560915 C243.254419,266.777831 245.774162,264.063728 249.04358,263.779129 C251.931219,263.522296 256.22797,264.348327 257.775911,266.347462 C264.682643,275.274153 267.299566,285.943145 268.222777,298.035133" id="Fill-476"></path>
            <path d="M152.232016,50.5617071 C151.051972,53.9907782 148.601644,55.8024939 145.068451,56.2814533 C139.209876,57.0866602 133.767787,55.5526021 129.963878,51.2836168 C125.58383,46.3690776 121.939574,40.7603944 118.385557,35.1864185 C114.984252,29.84151 118.517445,23.6080973 124.612029,23.6219802 C139.015516,23.6428045 153.044165,37.3313233 152.232016,50.5617071" id="Fill-478"></path>
            <path d="M291.480764,39.9072915 C292.681633,42.1702008 295.180552,44.8010064 295.367971,47.5845237 C296.152353,59.6209798 289.592693,68.2700135 280.013506,74.0591741 C274.668598,77.2869435 269.656879,72.8652465 266.082037,68.7697971 C263.097218,65.3476674 261.993529,60.5164255 264.707632,56.7402824 C270.448203,48.7298612 278.285088,42.9962321 287.489437,39.331152 C288.350175,38.9840801 289.599634,39.6018682 291.480764,39.9072915" id="Fill-482"></path>
            <path d="M205.648476,312.001309 C205.113985,313.83385 204.183832,318.075069 202.615067,322.059455 C201.393374,325.162279 198.859748,327.5779 195.208551,326.814341 C193.362128,326.425621 190.800737,324.960977 190.300953,323.419978 C186.941297,313.139706 182.963852,302.845551 184.30355,291.725365 C184.685329,288.532302 186.545635,285.026875 190.321778,285.158763 C193.251065,285.269826 197.089681,286.262452 198.825041,288.296293 C203.892292,294.25899 205.967782,301.603033 205.648476,312.001309" id="Fill-484"></path>
            <path d="M67.599209,82.4978821 C74.1727522,82.7338911 81.3710251,82.4839992 86.2577985,87.1000565 C90.9293873,91.5148121 95.2400213,98.0119995 92.4912112,104.654957 C90.0478245,110.534356 83.6408758,109.916568 78.2196115,107.952141 C73.0968291,106.098777 68.0781683,103.939989 63.066449,101.795084 C58.0061395,99.6362964 53.2165463,97.0332565 52.0850916,90.9664384 C51.2590603,86.475327 58.7349907,82.4562335 67.599209,82.4978821" id="Fill-486"></path>
            <path d="M120.486731,266.852798 C121.569596,267.012452 122.832938,266.873623 123.7145,267.380348 C133.55052,273.03068 137.2156,286.351302 131.634683,295.84025 C128.844224,300.588195 121.375235,301.9626 117.39779,298.464114 C109.068063,291.140895 107.631185,277.244133 114.683688,269.219829 C115.919264,267.810717 118.515362,267.609415 120.486731,266.852798" id="Fill-488"></path>
            <path d="M332.004194,91.2496491 C337.828062,91.5758968 341.847156,97.9203725 340.569931,103.424934 C337.397693,117.155101 320.564702,121.958578 310.131718,111.851842 C306.71653,108.547716 306.785945,104.056605 309.763822,100.183282 C315.629338,92.5476983 324.111778,91.4717752 332.004194,91.2496491" id="Fill-490"></path>
        </g>
    </g>
</svg>