<?xml version="1.0" encoding="UTF-8"?>
<svg width="800px" height="1000px" viewBox="0 0 800 1000" version="1.1" xmlns="http://www.w3.org/2000/svg" xmlns:xlink="http://www.w3.org/1999/xlink">
    <title>thinking_DL</title>
    <desc>Created with Sketch.</desc>
    <g id="thinking_DL" stroke="none" stroke-width="1" fill="none" fill-rule="evenodd">
        
        <path d="M386.766797,485.117507 C386.26376,483.575325 386,481.951856 386,480.309301 C386,473.372419 390.808976,467.045837 397.598836,465.22702 C401.286328,464.211867 405.07134,463.643864 408.789306,462.822073 C412.574318,461.970069 416.334949,461.069725 420.095581,460.175423 C423.807453,459.256951 427.549799,458.453288 431.286051,457.673795 C436.78986,456.543832 442.220529,456 447.693863,456 C451.137554,456 454.599529,456.217533 458.11636,456.634471 C462.498684,457.154133 466.09475,458.030307 469.355589,461.263087 C472.305582,464.187696 474,468.22414 474,472.381435 C474,476.532688 472.305582,480.569132 469.355589,483.517911 C466.667683,486.164561 462.047652,488.593678 458.11636,488.122357 C452.831971,487.506014 447.687768,487.197842 442.40338,487.620823 C438.326037,488.292726 434.291716,489.185985 430.269976,490.144706 C432.901157,493.372103 434.789228,497.195431 435.476616,501.171086 C436.137156,504.943077 436.246336,508.502176 435.372895,512.279625 C434.646847,515.303768 433.560505,518.633601 431.829999,521.253797 C426.179927,529.82948 418.395384,536.434557 409.846579,542.024308 C406.281848,544.338815 402.69528,546.620569 399.048664,548.787689 C401.161299,555.867677 399.725581,564.00666 396.089882,570.300589 C393.360379,575.011483 389.77927,579.787882 385.002639,582.642804 C382.387775,584.214922 379.532715,585.541396 376.595769,586.474841 C375.831508,588.581915 374.794297,590.579814 373.571479,592.539503 C369.733797,598.702422 363.253956,602.261521 356.768656,604.969057 C351.41883,607.207141 345.894315,608.593661 340.222407,609.663575 C335.511284,610.558808 330.800161,611.410372 326.127251,612.562167 C322.693536,613.41373 319.390837,614.669241 315.957122,615.526263 C307.850497,617.529621 299.345364,613.031618 297.085335,604.821671 C295.272945,598.23297 298.193514,590.918256 304.143831,587.506543 C316.983415,580.1427 332.405109,581.016099 346.145429,576.190572 C346.680412,575.912176 347.199018,575.628321 347.712164,575.333549 C347.815885,573.46666 347.985115,571.583394 348.645654,569.891184 C350.223307,565.928137 352.226763,562.641975 356.004395,560.425726 C358.9468,558.706222 362.096647,558.400533 365.317461,558.127596 C366.305541,557.909246 367.282703,557.641768 368.254407,557.325161 C368.270784,557.314243 368.287161,557.308785 368.303538,557.297867 C368.325374,557.276032 368.34721,557.248738 368.369046,557.226903 C368.423636,557.145022 368.478226,557.063141 368.527357,556.98126 C367.408261,555.796713 366.305541,554.59579 365.382969,553.176517 C362.402351,548.547504 361.845533,541.385635 365.044511,536.669283 C367.370048,533.279404 370.055879,530.99765 373.746167,529.272688 C375.345656,528.52484 376.945145,527.782451 378.479126,526.925429 C385.564917,522.989676 392.345003,518.671812 398.944943,513.988212 C399.545433,513.491466 400.145924,512.989262 400.724579,512.470681 C398.120633,513.305869 395.543981,514.239314 392.978248,515.238263 C386.252752,518.278782 379.630977,521.526734 372.954611,524.643675 C365.448477,528.186398 357.751278,531.658158 349.841177,534.114592 C343.099303,536.20529 335.489448,537.50447 329.069656,533.814361 C323.375912,530.550033 320.264278,524.408949 320.520852,517.929423 C320.744671,512.759995 320.526311,507.656071 319.964033,502.535772 C319.303493,498.545432 318.501019,494.609679 317.360087,490.728514 C315.465811,494.04197 313.828109,497.491895 312.261374,501.018242 C309.804821,507.481392 307.648514,513.971835 305.74332,520.615124 C303.941848,526.909053 302.904637,533.377662 301.801917,539.8026 C300.093248,553.558629 298.548349,567.331034 296.806926,581.087063 C296.293779,585.202954 295.507683,588.549162 292.456098,591.622434 C289.682922,594.395475 285.867077,595.973051 281.920215,595.973051 C278.000648,595.973051 274.179343,594.395475 271.411627,591.622434 C268.916861,589.127789 266.591324,584.777172 267.060798,581.087063 C268.895025,566.353919 270.51635,551.598941 272.366953,536.865797 C274.266687,521.854258 277.93514,507.394052 283.350474,493.277746 C285.998093,486.432484 288.918661,479.101394 293.034752,472.96031 C295.120093,469.821534 297.254565,466.175094 300.109625,463.702284 C302.11854,461.955487 304.187503,460.334241 306.425696,458.882216 C308.319971,457.948771 310.285214,457.200923 312.310505,456.622297 C313.691634,456.169221 315.41668,456 317.081677,456 C317.911446,456 318.730297,456.038211 319.472722,456.114634 C322.95011,456.431241 326.02353,457.135418 329.113328,458.822169 C333.633386,461.294979 337.23633,464.788574 340.178735,469.01364 C346.647658,478.293501 349.044162,490.155346 350.119586,501.405812 C358.526457,497.688409 366.742262,493.528848 375.170968,489.887868 C379.022655,488.228046 382.853333,486.568225 386.766797,485.117507 Z M491.363525,363.610424 C492.105386,374.059399 492.512029,384.809992 490.774023,394.999322 C489.365371,403.225869 481.815972,409 474.906869,409 C468.119728,409 460.308112,403.254139 459.045814,394.999322 C458.02134,388.235744 458.21038,381.634718 458.064026,374.821667 C457.948163,368.383193 457.521299,361.951786 457.039552,355.548649 C456.943353,354.291675 457.025993,352.998554 457.250907,351.713176 C456.550726,347.710473 457.327252,343.522301 459.439309,339.999869 C461.583344,336.427332 465.723551,332.764581 470.079394,332.012785 C477.367883,330.76781 484.687178,329.733338 492.000311,328.554522 C495.684603,327.94707 499.362733,327.309547 503.02238,326.629923 C506.675866,325.93827 510.471056,324.994014 514.22928,325.000029 C514.931636,325.000029 515.633993,325.0301 516.330188,325.102273 C521.191235,325.619509 525.214382,326.65398 528.824741,330.154344 C532.120888,333.372032 534,337.792595 534,342.345473 C534,350.055896 528.584461,356.912278 521.024887,358.981222 C517.032545,360.063808 512.960109,360.581044 508.893834,361.164438 C504.476381,361.820005 500.058928,362.415427 495.635314,362.992807 C495.740052,362.980778 495.844789,362.968749 495.949527,362.950706 C494.419077,363.160305 492.890543,363.381123 491.363525,363.610424 Z M347.431777,577.949669 C347.314858,578.24106 347.187311,578.527152 347.065079,578.818543 C347.19794,578.53245 347.320173,578.24106 347.431777,577.949669 Z M366.795031,558.07947 C366.789717,558.07947 366.784403,558.07947 366.779088,558.07947 C366.50805,558.196026 366.237013,558.312583 365.965975,558.423841 C366.247642,558.317881 366.523994,558.201325 366.795031,558.07947 Z M407.750959,510.264901 C407.735016,510.270199 407.724387,510.270199 407.708443,510.275497 L407.958223,510.874172 C407.899764,510.66755 407.825362,510.466225 407.750959,510.264901 Z M409.087547,510.206623 C409.672138,510.450331 410.251415,510.69404 410.830692,510.93245 C410.267358,510.64106 409.688082,510.397351 409.087547,510.206623 Z M312.951525,483.862252 C313.142846,484.005298 313.334167,484.153642 313.520173,484.296689 C313.334167,484.148344 313.142846,484 312.951525,483.862252 Z M323.075582,483.864901 C322.889575,484.002649 322.708884,484.150993 322.528192,484.29404 C322.708884,484.150993 322.89489,484.007947 323.075582,483.864901 Z M370.20367,343.693809 C369.823899,344.495004 369.419626,345.265851 368.978601,346.00028 C369.143986,345.787842 369.30937,345.569334 369.487005,345.350826 C369.725893,344.798487 369.964782,344.246148 370.20367,343.693809 Z M395.887232,326.346718 C395.427831,326.389205 394.96843,326.455972 394.515155,326.534877 C394.974556,326.474181 395.433956,326.413484 395.887232,326.346718 Z M386.797223,293.606966 C388.316308,293.200299 389.829268,293 391.342227,293 C392.855187,293 394.368147,293.200299 395.887232,293.606966 L398.116856,293.959006 C400.217849,294.669157 402.275964,295.5007 404.285076,296.423289 C408.738201,298.747969 412.903433,302.043795 416.41938,305.624895 C420.223218,309.46699 423.812669,313.448688 426.991722,317.812774 C429.772627,321.582034 431.830742,325.399851 433.551964,329.739658 C435.058798,333.508918 435.46307,337.302456 435.940847,341.308432 C436.424749,345.46008 433.864356,350.29153 431.016072,353.113923 C427.879896,356.221589 423.549279,358 419.120656,358 C414.673658,358 410.367542,356.221589 407.206865,353.113923 C404.432085,350.346157 403.274395,347.341675 402.64961,343.839481 C402.692487,344.173312 402.74149,344.507144 402.778242,344.840975 C402.55773,343.396396 402.282089,342.152115 401.908443,340.895695 C401.057021,339.335792 400.138219,337.848725 399.133663,336.379867 C396.622273,333.454291 393.963874,330.668316 391.091088,328.112989 C389.853769,328.902045 388.653202,329.745728 387.45876,330.613689 C383.722301,333.636381 380.053221,336.750117 376.414767,339.930619 C373.701241,342.303857 370.699823,344.549631 368.212934,347.183864 C366.895985,349.065459 365.242142,350.679989 362.963515,352.003175 C360.188735,353.611635 357.175066,354.4189 353.947011,354.4189 C345.830932,354.4189 339.086929,348.992623 336.740923,341.448034 C334.205031,333.223644 338.486646,325.375572 344.89988,320.422729 C347.343891,318.547203 349.732775,316.62919 352.127784,314.680829 C358.467513,309.582314 364.733739,304.180316 371.606373,299.791951 C376.292261,296.805677 381.247663,294.505276 386.797223,293.606966 Z M495.629153,362.992807 C495.265653,363.040922 494.914475,363.089037 494.550974,363.131137 C494.914475,363.089037 495.265653,363.040922 495.629153,362.992807 Z M380.01365,387.819276 C380.203733,382.453345 380.323041,378.224187 380.371573,375.131804 C380.511103,365.780437 387.906165,358 397.175775,358 C406.251257,358 414.137706,365.780437 413.998176,375.131804 C413.925378,379.770379 413.336928,389.217034 413.810115,393.03922 C414.3561,397.213937 411.723239,402.192674 408.926583,405.043852 C406.863974,407.146673 404.400975,408.593908 401.580053,409.391743 C397.291038,410.597772 392.601635,409.99785 388.761541,407.703302 C386.274276,406.181849 384.284465,404.147061 382.78604,401.611306 C381.178417,397.745827 380.062182,394.968867 380.01365,390.670454 C379.99545,389.724185 379.99545,388.7841 380.01365,387.819276 Z" id="thinking" fill="#000000"></path>
    </g>
</svg>